<svg xmlns="http://www.w3.org/2000/svg" viewBox="0 0 512 512" width="512" height="512">
  <!-- Basilisk, front view: WIDE FLAT head wedge in front, ridged body visible behind, sprawled legs. Not a circle. -->
  <!-- ridge spikes over the body behind -->
  <path d="M212 172 L200 138 L228 160 Z" fill="#3E4834"/>
  <path d="M248 164 L246 128 L268 158 Z" fill="#3E4834"/>
  <path d="M290 168 L300 134 L312 170 Z" fill="#3E4834"/>
  <!-- body behind: darker, narrower than the head -->
  <path d="M256 156 C310 156 350 178 362 214 C372 244 364 274 340 292 L172 292 C148 274 140 244 150 214 C162 178 202 156 256 156 Z" fill="#4D5840"/>
  <path d="M176 208 C224 192 288 192 336 208 L338 220 C290 204 222 204 174 220 Z" fill="#3E4834"/>
  <!-- tail tip curling out one side -->
  <path d="M150 270 C120 274 96 288 82 312 C97 307 112 307 124 312 C109 321 98 334 94 352 C116 345 136 330 146 308 C151 295 152 281 150 270 Z" fill="#6E7A58"/>
  <!-- head: WIDE FLAT wedge, low and angular -->
  <path d="M256 262 C312 262 356 280 368 310 C376 332 366 354 340 366 C318 376 286 380 256 380 C226 380 194 376 172 366 C146 354 136 332 144 310 C156 280 200 262 256 262 Z" fill="#6E7A58"/>
  <!-- brow ridge: heavy, hooding the eyes -->
  <path d="M180 304 C200 288 226 280 256 280 C286 280 312 288 332 304 L326 316 C308 302 284 296 256 296 C228 296 204 302 186 316 Z" fill="#3E4834"/>
  <!-- baleful eyes: slit pupils -->
  <circle cx="212" cy="324" r="13" fill="#D8E04A"/>
  <circle cx="300" cy="324" r="13" fill="#D8E04A"/>
  <path d="M210 314 C213 320 213 330 210 335 C215 331 216 318 210 314 Z" fill="#211B14"/>
  <path d="M298 314 C301 320 301 330 298 335 C303 331 304 318 298 314 Z" fill="#211B14"/>
  <circle cx="216" cy="319" r="2.2" fill="#F4F8D0"/>
  <circle cx="304" cy="319" r="2.2" fill="#F4F8D0"/>
  <!-- mouth line: wide, grim, with teeth -->
  <path d="M210 352 C238 360 274 360 302 352 L300 362 C272 370 240 370 212 362 Z" fill="#3E4834"/>
  <path d="M226 360 L230 372 L236 360 Z" fill="#F4F8D0"/>
  <path d="M252 362 L256 374 L261 362 Z" fill="#F4F8D0"/>
  <path d="M276 360 L280 372 L286 360 Z" fill="#F4F8D0"/>
  <!-- head spikes: swept back from the skull sides -->
  <path d="M172 292 L142 268 L168 308 Z" fill="#3E4834"/>
  <path d="M340 292 L370 268 L344 308 Z" fill="#3E4834"/>
  <!-- legs: short, splayed wide (sprawl), clawed -->
  <path d="M168 340 L124 360 L100 392 L110 400 L138 370 L178 352 Z" fill="#586448"/>
  <path d="M344 340 L388 360 L412 392 L402 400 L374 370 L334 352 Z" fill="#586448"/>
  <path d="M98 388 L86 400 L100 398 L96 410 L110 402 L120 408 L118 396 Z" fill="#3E4834"/>
  <path d="M414 388 L426 400 L412 398 L416 410 L402 402 L392 408 L394 396 Z" fill="#3E4834"/>
  <!-- second pair of legs behind -->
  <path d="M160 268 L120 278 L96 302 L104 310 L130 290 L166 280 Z" fill="#4D5840"/>
  <path d="M352 268 L392 278 L416 302 L408 310 L382 290 L346 280 Z" fill="#4D5840"/>
</svg>
