<svg xmlns="http://www.w3.org/2000/svg" viewBox="0 0 512 512" width="512" height="512">
  <!-- Ankheg, side view facing right: arched segmented chitin body, head low, mandibles agape. -->
  <!-- abdomen: arched segments rising behind -->
  <path d="M60 330 C48 290 62 246 98 222 C140 194 196 188 244 204 C290 220 318 256 320 300 C322 344 300 384 258 404 C200 430 116 416 78 376 C68 362 62 346 60 330 Z" fill="#8A8E54"/>
  <!-- segment plates: overlapping crescents -->
  <path d="M96 232 C130 208 176 200 218 210 C204 224 196 242 194 262 C158 250 122 250 92 264 C90 252 92 242 96 232 Z" fill="#62663A"/>
  <path d="M86 280 C120 264 160 262 196 272 C186 288 180 308 180 328 C148 318 116 320 90 334 C84 316 82 296 86 280 Z" fill="#737842"/>
  <path d="M92 348 C120 336 152 334 182 342 C176 358 174 376 176 394 C148 388 122 390 102 400 C94 384 90 366 92 348 Z" fill="#62663A"/>
  <!-- rear spike -->
  <path d="M66 318 C50 312 38 316 34 326 C40 336 54 340 68 336 C70 330 68 322 66 318 Z" fill="#62663A"/>
  <!-- thorax: narrower, sloping down to the head -->
  <path d="M280 250 C284 218 308 194 342 186 C374 180 404 190 420 212 C432 230 434 252 426 272 C418 292 402 306 382 310 C354 316 322 308 302 288 C290 276 282 264 280 250 Z" fill="#8A8E54"/>
  <path d="M312 212 C334 196 364 192 390 200 C380 212 374 228 372 244 C352 236 330 236 312 244 C308 232 308 220 312 212 Z" fill="#62663A"/>
  <!-- head: low wedge with armored brow -->
  <path d="M388 244 C402 226 426 218 450 224 C470 230 482 244 482 262 C482 282 468 298 446 304 C424 310 402 304 390 288 C382 274 382 258 388 244 Z" fill="#737842"/>
  <!-- armored brow plate -->
  <path d="M398 240 C414 228 436 226 454 234 L448 252 C434 244 416 246 404 256 Z" fill="#4A4E2C"/>
  <!-- glossy dark eye -->
  <circle cx="432" cy="258" r="11" fill="#211B14"/>
  <circle cx="435" cy="255" r="3" fill="#C2C28C"/>
  <!-- antennae: rooted at brow, arcing back -->
  <path d="M414 232 C404 212 404 190 414 172" stroke="#62663A" stroke-width="8" fill="none" stroke-linecap="round"/>
  <path d="M438 228 C436 208 442 188 456 174" stroke="#62663A" stroke-width="8" fill="none" stroke-linecap="round"/>
  <!-- mandibles: serrated pincers, open -->
  <path d="M462 246 C486 238 504 244 510 258 C504 264 494 266 484 264 C492 270 496 278 494 286 C480 288 466 280 458 266 C458 258 459 251 462 246 Z" fill="#4A4A30"/>
  <path d="M468 252 L478 250 M474 260 L484 260" stroke="#8A8E54" stroke-width="3" stroke-linecap="round"/>
  <path d="M456 290 C478 296 492 308 494 322 C486 326 474 324 466 318 C470 326 470 334 466 340 C452 336 442 324 440 308 C444 300 450 293 456 290 Z" fill="#4A4A30"/>
  <path d="M462 298 L472 302 M458 308 L468 312" stroke="#8A8E54" stroke-width="3" stroke-linecap="round"/>
  <!-- underbelly light -->
  <path d="M150 404 C190 418 236 418 272 404 C254 422 222 430 190 426 C172 424 158 416 150 404 Z" fill="#C2C28C"/>
  <!-- legs: three visible pairs, angular insect joints -->
  <path d="M196 392 L180 430 L188 434 L206 400 Z M186 430 L172 456 L182 460 L194 436 Z" fill="#62663A"/>
  <path d="M268 380 L260 422 L270 424 L278 386 Z M260 422 L252 452 L262 455 L270 426 Z" fill="#62663A"/>
  <path d="M330 320 L338 366 L348 364 L342 322 Z M338 366 L336 400 L346 401 L348 368 Z" fill="#62663A"/>
  <!-- far legs darker -->
  <path d="M226 390 L216 426 L223 429 L234 396 Z" fill="#4A4E2C"/>
  <path d="M300 350 L302 392 L309 391 L308 352 Z" fill="#4A4E2C"/>
</svg>
