<svg xmlns="http://www.w3.org/2000/svg" viewBox="0 0 512 512" width="512" height="512">
  <!-- Dire wolf, side view facing right: lean, long-legged, shaggy ruff, bushy low tail. -->
  <!-- bushy tail: sweeping down-back, jagged fur tip -->
  <path d="M96 256 C66 268 44 296 40 330 C38 352 46 372 62 382 C58 366 62 350 72 338 C66 356 70 374 84 384 C82 368 88 352 100 342 C96 358 102 372 116 378 C124 354 126 326 120 300 C116 280 108 264 96 256 Z" fill="#474952"/>
  <!-- body: lean profile, slight shoulder rise, tucked waist -->
  <path d="M104 264 C112 232 140 210 178 202 C226 192 278 188 322 192 C354 196 380 208 394 228 C404 244 406 262 400 278 C394 296 386 314 382 334 C378 358 370 378 354 390 C330 408 296 412 262 406 C220 398 178 386 148 362 C120 340 102 304 104 264 Z" fill="#62646E"/>
  <!-- shaggy back fur: jagged ridge along the spine -->
  <path d="M140 222 L154 204 L166 220 L182 200 L194 216 L212 198 L224 214 L244 198 L256 212 L276 198 L288 212 L310 200 L320 214 L342 204 C300 192 200 196 140 222 Z" fill="#474952"/>
  <!-- haunch -->
  <path d="M118 330 C106 296 116 260 144 242 C170 226 202 230 222 252 C238 270 242 296 232 320 C220 350 194 368 164 366 C144 364 128 350 118 330 Z" fill="#54565F" opacity="0.85"/>
  <!-- belly fur: lighter, jagged lower edge -->
  <path d="M190 380 L204 396 L220 382 L236 398 L252 384 L268 398 L284 386 L300 396 L314 384 C282 398 226 396 190 380 Z" fill="#9B9DA6"/>
  <!-- neck ruff: shaggy collar -->
  <path d="M330 198 C352 188 376 188 394 200 C406 210 412 226 410 242 L386 250 C376 258 362 260 350 254 L338 262 C326 252 320 236 322 220 C324 212 326 204 330 198 Z" fill="#54565F"/>
  <path d="M336 248 L324 268 L344 262 L336 282 L356 270 L354 290 L370 274 L376 292 L386 272 L398 284 L398 262 L386 252 C370 260 350 258 336 248 Z" fill="#474952"/>
  <!-- head: long muzzle, held level -->
  <path d="M380 176 C396 158 420 148 444 152 C462 156 474 166 478 180 C490 184 498 190 500 198 C496 206 488 210 478 210 C474 222 464 232 450 236 C428 242 406 238 392 226 C382 216 376 196 380 176 Z" fill="#62646E"/>
  <!-- ears: two pointed, rooted at skull top -->
  <path d="M388 178 C380 156 382 132 394 116 C406 122 414 136 414 154 C406 162 398 170 394 180 Z" fill="#474952"/>
  <path d="M412 168 C408 148 412 128 424 114 C434 122 440 136 438 152 C430 158 422 164 418 172 Z" fill="#62646E"/>
  <path d="M416 164 C414 150 417 136 424 126 C430 132 433 142 431 152 C426 156 420 160 416 164 Z" fill="#9B9DA6"/>
  <!-- muzzle light + nose -->
  <path d="M444 186 C456 184 468 186 478 192 C488 196 494 198 498 199 C494 205 487 208 479 208 C468 212 456 212 446 208 Z" fill="#9B9DA6"/>
  <ellipse cx="497" cy="197" rx="8" ry="6" fill="#211B14"/>
  <!-- jaw line, slightly parted with a fang -->
  <path d="M448 214 C460 218 472 218 482 214 L478 224 L468 218 L462 226 C456 224 450 220 448 214 Z" fill="#474952"/>
  <!-- brow + eye -->
  <path d="M414 172 C424 164 438 162 450 166 L446 176 C438 172 428 173 420 178 Z" fill="#33353C"/>
  <circle cx="434" cy="184" r="11" fill="#E09A22"/>
  <circle cx="436" cy="186" r="5.5" fill="#211B14"/>
  <circle cx="438.5" cy="183" r="2" fill="#F6EBD3"/>
  <!-- far legs (darker) -->
  <path d="M170 360 C162 392 162 426 168 452 L192 452 C198 426 198 392 192 362 Z" fill="#3C3E46"/>
  <path d="M306 372 C298 402 296 434 302 458 L326 458 C332 434 332 402 326 374 Z" fill="#3C3E46"/>
  <!-- near hind leg: angular hock -->
  <path d="M140 348 C130 374 128 400 134 422 C138 438 136 452 130 462 L158 466 C166 452 168 436 164 420 C172 398 172 372 164 350 C156 344 146 344 140 348 Z" fill="#54565F"/>
  <path d="M126 458 C124 468 130 474 142 475 C152 476 160 472 161 464 C161 459 158 456 154 454 L149 463 L144 452 L138 462 L133 452 C129 453 127 455 126 458 Z" fill="#474952"/>
  <!-- near front leg: straight, slim -->
  <path d="M338 372 C332 402 330 434 334 458 C336 466 342 470 350 470 L370 468 C376 444 376 408 370 378 C360 368 346 366 338 372 Z" fill="#54565F"/>
  <path d="M330 460 C328 470 334 476 346 477 C356 478 364 474 365 466 C365 461 362 458 358 456 L353 465 L348 454 L342 464 L337 454 C333 455 331 457 330 460 Z" fill="#474952"/>
</svg>
