<svg xmlns="http://www.w3.org/2000/svg" viewBox="0 0 256 256" width="256" height="256">
  <defs>
    <radialGradient id="ds_body" cx="0.5" cy="0.4" r="0.7">
      <stop offset="0%" stop-color="#D6342B"/>
      <stop offset="100%" stop-color="#9C1F1C"/>
    </radialGradient>
    <linearGradient id="ds_wingL" x1="1" y1="0" x2="0" y2="1">
      <stop offset="0%" stop-color="#C0312A"/>
      <stop offset="55%" stop-color="#E8702E"/>
      <stop offset="100%" stop-color="#F4A23C"/>
    </linearGradient>
    <linearGradient id="ds_wingR" x1="0" y1="0" x2="1" y2="1">
      <stop offset="0%" stop-color="#C0312A"/>
      <stop offset="55%" stop-color="#E8702E"/>
      <stop offset="100%" stop-color="#F4A23C"/>
    </linearGradient>
    <radialGradient id="ds_belly" cx="0.5" cy="0.35" r="0.7">
      <stop offset="0%" stop-color="#F8C75A"/>
      <stop offset="100%" stop-color="#E08A2C"/>
    </radialGradient>
    <radialGradient id="ds_fire" cx="0.5" cy="0.6" r="0.6">
      <stop offset="0%" stop-color="#FFF1B0"/>
      <stop offset="60%" stop-color="#FF8A1E"/>
      <stop offset="100%" stop-color="#E2581F"/>
    </radialGradient>
  </defs>

  <!-- WINGS spread wide behind -->
  <!-- Left wing -->
  <path d="M118 96 C72 58 30 56 18 78 C40 74 56 84 64 100 C44 96 32 106 28 124 C52 116 66 122 74 134 C56 134 46 144 44 160 C70 148 86 152 100 158 C108 140 112 116 118 96 Z" fill="url(#ds_wingL)"/>
  <!-- left wing membrane shading -->
  <path d="M118 96 C92 90 76 104 64 100 C44 96 32 106 28 124 C52 116 66 122 74 134 C56 134 46 144 44 160 C70 148 86 152 100 158 C108 140 112 116 118 96 Z" fill="#B83A26" opacity="0.35"/>
  <!-- left finger bones -->
  <path d="M118 96 C90 84 60 84 40 96" fill="none" stroke="#E9C98A" stroke-width="5" stroke-linecap="round"/>
  <path d="M112 116 C88 110 60 112 42 126" fill="none" stroke="#E9C98A" stroke-width="5" stroke-linecap="round"/>
  <path d="M104 140 C84 138 64 142 50 154" fill="none" stroke="#E9C98A" stroke-width="5" stroke-linecap="round"/>

  <!-- Right wing -->
  <path d="M138 96 C184 58 226 56 238 78 C216 74 200 84 192 100 C212 96 224 106 228 124 C204 116 190 122 182 134 C200 134 210 144 212 160 C186 148 170 152 156 158 C148 140 144 116 138 96 Z" fill="url(#ds_wingR)"/>
  <path d="M138 96 C164 90 180 104 192 100 C212 96 224 106 228 124 C204 116 190 122 182 134 C200 134 210 144 212 160 C186 148 170 152 156 158 C148 140 144 116 138 96 Z" fill="#B83A26" opacity="0.35"/>
  <path d="M138 96 C166 84 196 84 216 96" fill="none" stroke="#E9C98A" stroke-width="5" stroke-linecap="round"/>
  <path d="M144 116 C168 110 196 112 214 126" fill="none" stroke="#E9C98A" stroke-width="5" stroke-linecap="round"/>
  <path d="M152 140 C172 138 192 142 206 154" fill="none" stroke="#E9C98A" stroke-width="5" stroke-linecap="round"/>

  <!-- TAIL curling out behind -->
  <path d="M128 180 C150 196 178 200 196 224 C180 214 162 214 148 206 C140 200 132 192 128 184 Z" fill="url(#ds_body)"/>
  <path d="M196 224 C202 228 206 234 206 242 C198 238 190 232 186 224 Z" fill="#E9C98A"/>

  <!-- BODY / chest -->
  <ellipse cx="128" cy="150" rx="40" ry="46" fill="url(#ds_body)"/>
  <!-- belly plates -->
  <path d="M128 116 C108 120 100 142 104 168 C108 188 118 196 128 196 C138 196 148 188 152 168 C156 142 148 120 128 116 Z" fill="url(#ds_belly)"/>
  <path d="M114 138 H142 M112 152 H144 M114 166 H142 M118 180 H138" stroke="#CF7A24" stroke-width="3" opacity="0.7" stroke-linecap="round"/>

  <!-- FRONT LEGS -->
  <path d="M92 168 C74 178 70 196 78 214 C82 200 92 192 102 190 C100 182 98 174 96 168 Z" fill="url(#ds_body)"/>
  <path d="M164 168 C182 178 186 196 178 214 C174 200 164 192 154 190 C156 182 158 174 160 168 Z" fill="url(#ds_body)"/>
  <!-- claws -->
  <path d="M74 210 l-4 12 m10 -10 l-2 14 m10 -12 l2 12" stroke="#EAD49A" stroke-width="5" stroke-linecap="round"/>
  <path d="M182 210 l4 12 m-10 -10 l2 14 m-10 -12 l-2 12" stroke="#EAD49A" stroke-width="5" stroke-linecap="round"/>

  <!-- back spike ridge over shoulders -->
  <path d="M110 116 l-8 -16 l14 8 Z M128 110 l0 -20 l10 16 Z M146 116 l8 -16 l-14 8 Z" fill="#7E1818"/>

  <!-- HEAD -->
  <!-- horns -->
  <path d="M104 70 C88 52 84 36 90 26 C98 40 104 50 116 62 Z" fill="#EAD49A"/>
  <path d="M152 70 C168 52 172 36 166 26 C158 40 152 50 140 62 Z" fill="#EAD49A"/>
  <path d="M104 70 C90 56 88 44 90 26" fill="none" stroke="#C9A85F" stroke-width="3" opacity="0.6"/>
  <path d="M152 70 C166 56 168 44 166 26" fill="none" stroke="#C9A85F" stroke-width="3" opacity="0.6"/>
  <!-- head mass -->
  <path d="M128 60 C104 60 90 78 90 100 C90 120 106 134 128 134 C150 134 166 120 166 100 C166 78 152 60 128 60 Z" fill="url(#ds_body)"/>
  <!-- brow shading -->
  <path d="M128 64 C110 64 98 78 96 96 C112 88 144 88 160 96 C158 78 146 64 128 64 Z" fill="#B22822" opacity="0.5"/>
  <!-- snout -->
  <path d="M112 120 C112 138 120 150 128 150 C136 150 144 138 144 120 C140 130 116 130 112 120 Z" fill="url(#ds_belly)"/>
  <!-- nostrils -->
  <circle cx="122" cy="128" r="2.4" fill="#7E1818"/>
  <circle cx="134" cy="128" r="2.4" fill="#7E1818"/>
  <!-- brow horns small -->
  <path d="M108 88 l-12 -6 l12 -2 Z" fill="#EAD49A"/>
  <path d="M148 88 l12 -6 l-12 -2 Z" fill="#EAD49A"/>
  <!-- eyes -->
  <ellipse cx="113" cy="98" rx="9" ry="7" fill="#FFD24A"/>
  <ellipse cx="143" cy="98" rx="9" ry="7" fill="#FFD24A"/>
  <path d="M110 98 a3 6 0 1 0 6 0 a3 6 0 1 0 -6 0" fill="#3A1208"/>
  <path d="M140 98 a3 6 0 1 0 6 0 a3 6 0 1 0 -6 0" fill="#3A1208"/>

  <!-- fire/smoke wisp at snout -->
  <path d="M128 150 C124 162 130 170 128 182 C140 174 134 160 138 152 C134 156 130 154 128 150 Z" fill="url(#ds_fire)" opacity="0.9"/>
  <circle cx="128" cy="160" r="4" fill="#FFE9A8" opacity="0.8"/>
</svg>
