<svg xmlns="http://www.w3.org/2000/svg" viewBox="0 0 512 512" width="512" height="512">
  <!-- Dire wolf, front view: narrow predator stance, shaggy chest ruff, fierce narrow eyes. -->
  <!-- ears: tall, pointed, rooted to skull -->
  <path d="M178 130 C164 96 166 60 186 34 C202 42 212 62 212 88 C200 100 188 114 182 130 Z" fill="#474952"/>
  <path d="M334 130 C348 96 346 60 326 34 C310 42 300 62 300 88 C312 100 324 114 330 130 Z" fill="#474952"/>
  <path d="M184 122 C174 96 176 68 190 48 C200 56 206 70 206 88 C196 98 188 110 184 122 Z" fill="#62646E"/>
  <path d="M328 122 C338 96 336 68 322 48 C312 56 306 70 306 88 C316 98 324 110 328 122 Z" fill="#62646E"/>
  <path d="M188 112 C182 94 184 76 192 62 C198 68 201 78 201 88 C195 95 190 104 188 112 Z" fill="#9B9DA6"/>
  <path d="M324 112 C330 94 328 76 320 62 C314 68 311 78 311 88 C317 95 322 104 324 112 Z" fill="#9B9DA6"/>
  <!-- head: tapered wedge -->
  <path d="M256 88 C300 88 334 112 342 152 C348 186 334 220 304 238 C290 247 272 252 256 252 C240 252 222 247 208 238 C178 220 164 186 170 152 C178 112 212 88 256 88 Z" fill="#62646E"/>
  <!-- brow band: heavy, angled in - fierce -->
  <path d="M192 152 C212 138 236 134 254 142 L250 158 C234 150 214 153 198 164 Z" fill="#33353C"/>
  <path d="M320 152 C300 138 276 134 258 142 L262 158 C278 150 298 153 314 164 Z" fill="#33353C"/>
  <!-- eyes: narrow amber, slight slant -->
  <path d="M204 170 C212 164 224 163 232 168 C230 178 222 183 212 182 C207 179 204 175 204 170 Z" fill="#E09A22"/>
  <path d="M308 170 C300 164 288 163 280 168 C282 178 290 183 300 182 C305 179 308 175 308 170 Z" fill="#E09A22"/>
  <circle cx="218" cy="173" r="4.5" fill="#211B14"/>
  <circle cx="294" cy="173" r="4.5" fill="#211B14"/>
  <!-- muzzle: long center wedge with nose -->
  <path d="M256 162 C268 162 277 170 279 182 C282 200 274 220 256 234 C238 220 230 200 233 182 C235 170 244 162 256 162 Z" fill="#54565F"/>
  <path d="M256 170 C264 170 270 176 271 184 C272 196 266 208 256 218 C246 208 240 196 241 184 C242 176 248 170 256 170 Z" fill="#9B9DA6"/>
  <ellipse cx="256" cy="222" rx="11" ry="8" fill="#211B14"/>
  <!-- body: narrow chest, shoulders sloping -->
  <path d="M256 222 C312 222 356 252 372 302 C386 348 374 398 338 428 C314 448 284 458 256 458 C228 458 198 448 174 428 C138 398 126 348 140 302 C156 252 200 222 256 222 Z" fill="#62646E"/>
  <!-- shaggy chest ruff: jagged vee -->
  <path d="M196 268 L212 286 L226 268 L240 288 L256 270 L272 288 L286 268 L300 286 L316 268 C330 290 334 318 324 344 L300 332 L286 350 L270 334 L256 352 L242 334 L228 350 L214 332 L188 344 C178 318 182 290 196 268 Z" fill="#9B9DA6"/>
  <path d="M214 348 L230 366 L246 350 L262 368 L278 352 L294 368 L308 352 C310 376 302 398 286 412 L256 400 L226 412 C210 398 202 376 204 352 Z" fill="#7E8089"/>
  <!-- forelegs: straight columns with paws -->
  <path d="M178 360 C166 384 162 414 166 440 C168 456 176 466 188 468 L210 468 C218 452 220 428 216 404 C212 380 200 362 178 360 Z" fill="#54565F"/>
  <path d="M334 360 C346 384 350 414 346 440 C344 456 336 466 324 468 L302 468 C294 452 292 428 296 404 C300 380 312 362 334 360 Z" fill="#54565F"/>
  <path d="M162 446 C158 462 168 472 186 473 C202 474 214 468 215 456 C215 450 212 445 207 442 L201 456 L193 441 L185 454 L177 439 L170 452 L165 441 C162 442 162 444 162 446 Z" fill="#474952"/>
  <path d="M350 446 C354 462 344 472 326 473 C310 474 298 468 297 456 C297 450 300 445 305 442 L311 456 L319 441 L327 454 L335 439 L342 452 L347 441 C350 442 350 444 350 446 Z" fill="#474952"/>
</svg>
