<svg xmlns="http://www.w3.org/2000/svg" viewBox="0 0 512 512" width="512" height="512">
  <!-- Owlbear, side view facing right. Vanilla grizzly proportions: long low body ~2.3:1, columnar legs, head carried forward. -->
  <!-- body: long, shoulder hump at front, sloping rump -->
  <path d="M70 250 C76 224 100 206 136 198 C196 186 280 180 340 188 C372 192 394 200 404 214 C410 224 410 236 404 248 C398 268 390 288 382 304 C374 322 360 334 338 338 C282 350 170 348 122 334 C92 326 72 306 66 280 C64 270 66 258 70 250 Z" fill="#9C7042"/>
  <!-- shoulder hump: rises toward the head end -->
  <path d="M300 188 C330 180 362 180 386 190 C400 196 408 206 410 218 C404 208 392 200 376 196 C352 190 322 190 300 196 Z" fill="#7C5530"/>
  <!-- feather saddle: layered rows over the back -->
  <path d="M120 212 L134 198 L146 212 L162 196 L174 210 L192 196 L204 210 L224 196 L236 210 L258 198 L268 210 L290 200 L300 212 L322 202 C250 192 160 198 120 212 Z" fill="#7C5530"/>
  <path d="M136 236 L150 222 L162 236 L178 222 L190 236 L208 222 L220 236 L240 224 L252 236 L272 226 L282 238 L302 228 C240 220 172 224 136 236 Z" fill="#86603A"/>
  <!-- haunch shading: organic thigh wedge sloping into the hind leg -->
  <path d="M86 256 C98 232 128 220 160 226 C184 230 198 246 198 266 C198 284 188 300 172 312 C158 322 140 330 122 336 C104 328 90 312 84 294 C80 280 80 266 86 256 Z" fill="#86603A" opacity="0.8"/>
  <!-- belly strip -->
  <path d="M130 334 C190 344 290 344 344 334 C324 346 274 352 214 350 C178 348 148 342 130 334 Z" fill="#B08350"/>
  <!-- stub tail -->
  <path d="M74 252 C64 250 56 256 54 266 C54 276 62 282 72 280 C78 272 78 260 74 252 Z" fill="#86603A"/>
  <!-- far legs (darker, columnar) -->
  <path d="M168 328 C160 364 158 412 164 450 L192 450 C198 412 198 366 192 332 Z" fill="#6E4C2B"/>
  <path d="M296 330 C288 366 286 412 292 450 L320 450 C326 412 326 368 320 334 Z" fill="#6E4C2B"/>
  <!-- near hind leg: thick column, slight taper -->
  <path d="M100 312 C90 346 88 396 94 440 C96 452 102 458 112 458 L134 458 C140 420 140 366 134 324 C122 312 108 308 100 312 Z" fill="#86603A"/>
  <!-- near front leg -->
  <path d="M350 334 C342 370 340 414 346 452 C348 460 354 464 362 464 L384 462 C390 424 390 374 384 338 C372 330 358 330 350 334 Z" fill="#86603A"/>
  <!-- paws with claw notches -->
  <path d="M90 452 C88 462 95 468 108 469 L130 469 C137 468 141 463 140 456 L132 458 L130 448 L120 456 L116 446 L108 454 L102 446 L94 452 Z" fill="#6B5640"/>
  <path d="M122 462 L126 472 L131 462 Z" fill="#3F3328"/>
  <path d="M108 462 L112 472 L117 462 Z" fill="#3F3328"/>
  <path d="M342 456 C340 466 347 472 360 473 L382 473 C389 472 393 467 392 460 L384 462 L382 452 L372 460 L368 450 L360 458 L354 450 L346 456 Z" fill="#6B5640"/>
  <path d="M374 466 L378 476 L383 466 Z" fill="#3F3328"/>
  <path d="M360 466 L364 476 L369 466 Z" fill="#3F3328"/>
  <!-- neck: feathered, thick, merging hump to head -->
  <path d="M368 206 C380 190 398 180 418 178 C434 178 446 186 452 198 C456 212 452 228 440 240 L426 234 L428 250 L412 244 L412 260 L398 250 L394 264 L384 250 C374 236 368 220 368 206 Z" fill="#7C5530"/>
  <!-- head: round owl skull, modest size, held forward -->
  <path d="M400 158 C406 130 430 112 460 114 C486 116 504 134 506 158 C508 184 494 208 470 218 C448 226 424 220 410 202 C402 190 398 174 400 158 Z" fill="#9C7042"/>
  <!-- ear tufts: rooted at the skull crown -->
  <path d="M414 142 C404 124 402 104 410 88 C420 90 428 100 430 114 C424 122 418 132 414 142 Z" fill="#7C5530"/>
  <path d="M448 130 C444 112 448 94 458 82 C467 88 471 100 469 113 C461 117 453 123 448 130 Z" fill="#7C5530"/>
  <path d="M417 136 C411 122 410 108 415 96 C421 100 425 108 426 118 C422 124 419 130 417 136 Z" fill="#9C7042"/>
  <path d="M451 124 C449 112 451 100 457 91 C462 96 464 104 463 113 C458 116 454 120 451 124 Z" fill="#9C7042"/>
  <!-- facial disc: pale, framing the eye -->
  <path d="M436 138 C456 130 478 134 492 148 C500 158 502 172 498 184 C490 200 474 208 458 206 C440 202 428 188 426 170 C426 156 430 144 436 138 Z" fill="#E5D2A8"/>
  <!-- eye: large owl eye -->
  <circle cx="462" cy="168" r="17" fill="#E09A22"/>
  <circle cx="465" cy="171" r="8" fill="#211B14"/>
  <circle cx="469" cy="165" r="3" fill="#F6EBD3"/>
  <!-- brow ridge over the eye -->
  <path d="M440 146 C452 138 468 137 480 143 L476 152 C466 147 454 148 446 154 Z" fill="#5C4226"/>
  <!-- beak: hooked, from the disc edge -->
  <path d="M488 172 C500 174 508 182 508 192 C508 204 500 214 488 216 C492 206 492 196 488 188 C486 182 486 176 488 172 Z" fill="#5C4226"/>
  <path d="M490 176 C497 179 501 185 500 192 C499 197 496 201 491 203 C493 196 493 188 490 182 Z" fill="#3F3328"/>
</svg>
