<svg xmlns="http://www.w3.org/2000/svg" viewBox="0 0 512 512" width="512" height="512">
  <!-- Giant elk, front view: wide symmetric antler crown, long noble face, narrow chest. -->
  <!-- antlers: wide sweeping crown with tines, rooted at skull -->
  <path d="M210 120 C178 112 152 92 140 62 C130 38 132 18 142 8 C152 12 158 22 158 34 C154 46 158 58 166 66 C162 50 166 34 176 24 C184 28 188 38 186 48 C180 58 180 70 186 80 C188 64 196 52 208 46 C214 52 216 62 212 70 C204 80 200 94 202 108 C206 114 208 118 210 120 Z" fill="#A08A6A"/>
  <path d="M302 120 C334 112 360 92 372 62 C382 38 380 18 370 8 C360 12 354 22 354 34 C358 46 354 58 346 66 C350 50 346 34 336 24 C328 28 324 38 326 48 C332 58 332 70 326 80 C324 64 316 52 304 46 C298 52 296 62 300 70 C308 80 312 94 310 108 C306 114 304 118 302 120 Z" fill="#A08A6A"/>
  <path d="M214 118 C198 104 188 84 188 62 C194 58 202 60 206 66 C206 76 210 86 218 92 C214 100 212 110 214 118 Z" fill="#B4A083"/>
  <path d="M298 118 C314 104 324 84 324 62 C318 58 310 60 306 66 C306 76 302 86 294 92 C298 100 300 110 298 118 Z" fill="#B4A083"/>
  <!-- ears: out to the sides under the antlers -->
  <path d="M182 142 C162 134 144 136 132 148 C140 162 158 168 176 162 C180 156 182 148 182 142 Z" fill="#A08A6A"/>
  <path d="M330 142 C350 134 368 136 380 148 C372 162 354 168 336 162 C332 156 330 148 330 142 Z" fill="#A08A6A"/>
  <path d="M178 144 C164 138 152 140 144 148 C150 157 162 161 174 157 C177 153 178 148 178 144 Z" fill="#E0D0B0"/>
  <path d="M334 144 C348 138 360 140 368 148 C362 157 350 161 338 157 C335 153 334 148 334 144 Z" fill="#E0D0B0"/>
  <!-- head: long tapering face -->
  <path d="M256 108 C290 108 314 128 320 160 C326 192 314 226 292 250 C280 263 268 270 256 270 C244 270 232 263 220 250 C198 226 186 192 192 160 C198 128 222 108 256 108 Z" fill="#C9B393"/>
  <!-- brow shading -->
  <path d="M206 156 C222 144 242 140 256 146 L256 158 C242 152 226 155 212 166 Z" fill="#7C6A4E" opacity="0.7"/>
  <path d="M306 156 C290 144 270 140 256 146 L256 158 C270 152 286 155 300 166 Z" fill="#7C6A4E" opacity="0.7"/>
  <!-- calm dark eyes, wide-set -->
  <circle cx="218" cy="172" r="11" fill="#3A2E20"/>
  <circle cx="294" cy="172" r="11" fill="#3A2E20"/>
  <circle cx="221" cy="169" r="2.6" fill="#F6EBD3"/>
  <circle cx="297" cy="169" r="2.6" fill="#F6EBD3"/>
  <!-- long muzzle: light wedge to nose -->
  <path d="M256 170 C268 170 276 180 277 194 C279 216 271 240 256 258 C241 240 233 216 235 194 C236 180 244 170 256 170 Z" fill="#E0D0B0"/>
  <ellipse cx="256" cy="248" rx="13" ry="9" fill="#211B14"/>
  <!-- body: narrow deep chest below -->
  <path d="M256 240 C304 240 342 268 356 314 C368 356 358 400 326 428 C306 446 280 454 256 454 C232 454 206 446 186 428 C154 400 144 356 156 314 C170 268 208 240 256 240 Z" fill="#C9B393"/>
  <!-- chest shading + light front -->
  <path d="M176 302 C198 272 226 258 256 258 C286 258 314 272 336 302 C310 284 282 276 256 276 C230 276 202 284 176 302 Z" fill="#A08A6A"/>
  <path d="M256 330 C280 330 298 348 302 374 C306 402 294 428 272 440 L240 440 C218 428 206 402 210 374 C214 348 232 330 256 330 Z" fill="#E0D0B0" opacity="0.8"/>
  <!-- long slim forelegs with hooves -->
  <path d="M192 352 C180 380 176 414 180 444 C182 458 190 466 202 467 L218 467 C226 450 228 422 224 394 C220 368 208 352 192 352 Z" fill="#B7A081"/>
  <path d="M320 352 C332 380 336 414 332 444 C330 458 322 466 310 467 L294 467 C286 450 284 422 288 394 C292 368 304 352 320 352 Z" fill="#B7A081"/>
  <path d="M178 452 C176 464 184 471 198 472 C210 473 219 468 220 459 C220 454 217 450 212 448 L199 453 L186 446 C181 447 179 449 178 452 Z" fill="#6E5E42"/>
  <path d="M334 452 C336 464 328 471 314 472 C302 473 293 468 292 459 C292 454 295 450 300 448 L313 453 L326 446 C331 447 333 449 334 452 Z" fill="#6E5E42"/>
</svg>
