<svg xmlns="http://www.w3.org/2000/svg" viewBox="0 0 512 512" width="512" height="512">
  <!-- Ankheg, back view: armored segment plates stacked down the abdomen, rear spike. -->
  <!-- antennae tips visible over the top -->
  <path d="M196 96 C182 76 176 52 182 28" stroke="#62663A" stroke-width="9" fill="none" stroke-linecap="round"/>
  <path d="M316 96 C330 76 336 52 330 28" stroke="#62663A" stroke-width="9" fill="none" stroke-linecap="round"/>
  <!-- head shield back -->
  <path d="M256 88 C306 88 344 114 354 156 C362 192 346 228 310 248 L202 248 C166 228 150 192 158 156 C168 114 206 88 256 88 Z" fill="#737842"/>
  <path d="M186 124 C206 104 230 94 256 94 C282 94 306 104 326 124 C334 134 340 146 342 158 C316 136 196 136 170 158 C172 146 178 134 186 124 Z" fill="#4A4E2C"/>
  <!-- abdomen: broad segmented dome -->
  <path d="M256 200 C330 200 388 242 404 308 C418 366 396 424 344 456 C318 472 286 480 256 480 C226 480 194 472 168 456 C116 424 94 366 108 308 C124 242 182 200 256 200 Z" fill="#8A8E54"/>
  <!-- segment plates: stacked crescents widening down -->
  <path d="M256 222 C292 222 322 236 340 260 C312 248 284 242 256 242 C228 242 200 248 172 260 C190 236 220 222 256 222 Z" fill="#62663A"/>
  <path d="M256 270 C298 270 332 286 352 314 C320 298 288 292 256 292 C224 292 192 298 160 314 C180 286 214 270 256 270 Z" fill="#62663A"/>
  <path d="M256 324 C300 324 336 342 356 372 C322 354 288 348 256 348 C224 348 190 354 156 372 C176 342 212 324 256 324 Z" fill="#62663A"/>
  <path d="M256 382 C296 382 328 398 346 424 C316 410 286 404 256 404 C226 404 196 410 166 424 C184 398 216 382 256 382 Z" fill="#62663A"/>
  <!-- rear spike -->
  <path d="M256 436 C268 436 278 444 280 456 C282 470 272 482 256 488 C240 482 230 470 232 456 C234 444 244 436 256 436 Z" fill="#4A4E2C"/>
  <!-- hind legs poking out -->
  <path d="M158 420 L128 452 L138 460 L166 430 Z" fill="#62663A"/>
  <path d="M354 420 L384 452 L374 460 L346 430 Z" fill="#62663A"/>
</svg>
