<svg xmlns="http://www.w3.org/2000/svg" viewBox="0 0 512 512" width="512" height="512">
  <!-- Owlbear, back view: bear-narrow frame, feather saddle cascading down the spine, stub tail. -->
  <!-- ear tufts (backs), rooted -->
  <path d="M212 108 C200 84 198 56 210 34 C220 38 226 50 226 66 C220 80 215 94 212 108 Z" fill="#6E4C2B"/>
  <path d="M300 108 C312 84 314 56 302 34 C292 38 286 50 286 66 C292 80 297 94 300 108 Z" fill="#6E4C2B"/>
  <!-- head back -->
  <path d="M256 82 C292 82 320 106 324 140 C328 172 314 202 288 216 C278 222 267 225 256 225 C245 225 234 222 224 216 C198 202 184 172 188 140 C192 106 220 82 256 82 Z" fill="#9C7042"/>
  <path d="M220 102 C230 92 242 86 256 86 C270 86 282 92 292 102 C300 110 306 122 308 134 C288 116 224 116 204 134 C206 122 212 110 220 102 Z" fill="#7C5530"/>
  <!-- body: bear frame from behind -->
  <path d="M256 204 C298 204 330 226 342 264 C354 302 350 348 332 384 C320 408 302 424 280 430 L232 430 C210 424 192 408 180 384 C162 348 158 302 170 264 C182 226 214 204 256 204 Z" fill="#9C7042"/>
  <!-- shoulder shading -->
  <path d="M256 212 C286 212 310 228 322 256 C302 238 210 238 190 256 C202 228 226 212 256 212 Z" fill="#7C5530"/>
  <!-- feather saddle: layered rows down the spine -->
  <path d="M214 250 L230 266 L246 250 L256 264 L266 250 L282 266 L298 250 C306 264 310 280 308 296 L288 284 L272 298 L256 286 L240 298 L224 284 L204 296 C202 280 206 264 214 250 Z" fill="#7C5530"/>
  <path d="M222 304 L238 320 L254 306 L258 306 L274 320 L290 304 C296 320 296 338 288 352 L272 342 L256 354 L240 342 L224 352 C216 338 216 320 222 304 Z" fill="#86603A"/>
  <path d="M232 358 L248 372 L256 364 L264 372 L280 358 C284 372 280 386 270 394 L242 394 C232 386 228 372 232 358 Z" fill="#6E4C2B"/>
  <!-- stub tail -->
  <path d="M256 400 C266 400 273 407 273 416 C273 426 266 433 256 434 C246 433 239 426 239 416 C239 407 246 400 256 400 Z" fill="#86603A"/>
  <!-- haunches -->
  <path d="M198 380 C188 400 190 424 206 436 C218 444 232 440 240 428 C234 408 222 392 206 382 C203 380 200 380 198 380 Z" fill="#86603A"/>
  <path d="M314 380 C324 400 322 424 306 436 C294 444 280 440 272 428 C278 408 290 392 306 382 C309 380 312 380 314 380 Z" fill="#86603A"/>
  <!-- hind paws with claws -->
  <path d="M200 432 C198 443 206 450 220 451 L234 451 C242 450 246 444 245 437 L236 440 L233 430 L224 438 L218 429 L210 436 L203 429 L200 432 Z" fill="#6B5640"/>
  <path d="M312 432 C314 443 306 450 292 451 L278 451 C270 450 266 444 267 437 L276 440 L279 430 L288 438 L294 429 L302 436 L309 429 L312 432 Z" fill="#6B5640"/>
  <path d="M216 444 L220 455 L225 444 Z" fill="#3F3328"/>
  <path d="M287 444 L291 455 L296 444 Z" fill="#3F3328"/>
</svg>
