<svg xmlns="http://www.w3.org/2000/svg" viewBox="0 0 512 512" width="512" height="512">
  <!-- Dire wolf, front view: narrow predator frame, vanilla-style slim vertical. -->
  <!-- ears: tall pointed, rooted -->
  <path d="M206 116 C194 86 196 54 214 32 C228 40 236 58 236 80 C226 92 214 104 206 116 Z" fill="#474952"/>
  <path d="M306 116 C318 86 316 54 298 32 C284 40 276 58 276 80 C286 92 298 104 306 116 Z" fill="#474952"/>
  <path d="M212 106 C204 84 206 62 218 46 C226 54 230 66 230 80 C222 88 216 98 212 106 Z" fill="#62646E"/>
  <path d="M300 106 C308 84 306 62 294 46 C286 54 282 66 282 80 C290 88 296 98 300 106 Z" fill="#62646E"/>
  <!-- head: tapered wedge, modest size -->
  <path d="M256 84 C290 84 316 104 322 136 C328 166 316 196 292 212 C280 220 268 224 256 224 C244 224 232 220 220 212 C196 196 184 166 190 136 C196 104 222 84 256 84 Z" fill="#62646E"/>
  <!-- brow band -->
  <path d="M210 138 C226 126 244 122 256 128 L254 142 C242 136 228 139 216 148 Z" fill="#33353C"/>
  <path d="M302 138 C286 126 268 122 256 128 L258 142 C270 136 284 139 296 148 Z" fill="#33353C"/>
  <!-- narrow amber eyes -->
  <path d="M218 154 C224 149 234 148 240 152 C238 161 232 165 224 164 C220 161 218 158 218 154 Z" fill="#E09A22"/>
  <path d="M294 154 C288 149 278 148 272 152 C274 161 280 165 288 164 C292 161 294 158 294 154 Z" fill="#E09A22"/>
  <circle cx="229" cy="156" r="3.8" fill="#211B14"/>
  <circle cx="283" cy="156" r="3.8" fill="#211B14"/>
  <!-- muzzle wedge + nose -->
  <path d="M256 148 C265 148 272 154 273 164 C274 176 268 188 256 196 C244 188 238 176 239 164 C240 154 247 148 256 148 Z" fill="#54565F"/>
  <path d="M256 153 C261 153 265 157 266 163 C266 170 262 177 256 182 C250 177 246 170 246 163 C247 157 251 153 256 153 Z" fill="#9B9DA6"/>
  <ellipse cx="256" cy="186" rx="8" ry="6" fill="#211B14"/>
  <!-- body: slim, chest tapering down -->
  <path d="M256 200 C294 200 324 220 336 256 C348 292 344 336 326 372 C314 396 296 412 276 420 L236 420 C216 412 198 396 186 372 C168 336 164 292 176 256 C188 220 218 200 256 200 Z" fill="#62646E"/>
  <!-- chest ruff: shaggy vee, narrow -->
  <path d="M212 236 L226 252 L240 236 L256 254 L272 236 L286 252 L300 236 C310 254 314 276 308 298 L288 286 L272 302 L256 288 L240 302 L224 286 L204 298 C198 276 202 254 212 236 Z" fill="#9B9DA6"/>
  <path d="M226 304 L242 320 L256 306 L270 320 L286 304 C290 324 284 344 270 356 L242 356 C228 344 222 324 226 304 Z" fill="#7E8089"/>
  <!-- front legs: thin straight columns -->
  <path d="M218 366 C210 392 208 424 212 452 C214 462 220 468 228 468 L240 468 C246 446 248 414 244 386 C240 372 230 364 218 366 Z" fill="#54565F"/>
  <path d="M294 366 C302 392 304 424 300 452 C298 462 292 468 284 468 L272 468 C266 446 264 414 268 386 C272 372 282 364 294 366 Z" fill="#54565F"/>
  <path d="M206 460 C204 470 211 476 224 477 C235 478 243 473 244 465 C244 460 241 457 236 455 L228 462 L219 454 L209 458 C207 458 206 459 206 460 Z" fill="#474952"/>
  <path d="M306 460 C308 470 301 476 288 477 C277 478 269 473 268 465 C268 460 271 457 276 455 L284 462 L293 454 L303 458 C305 458 306 459 306 460 Z" fill="#474952"/>
  <!-- hind paws peeking behind -->
  <ellipse cx="196" cy="446" rx="16" ry="9" fill="#3C3E46"/>
  <ellipse cx="316" cy="446" rx="16" ry="9" fill="#3C3E46"/>
</svg>
