<svg xmlns="http://www.w3.org/2000/svg" viewBox="0 0 512 512" width="512" height="512">
  <!-- Dire wolf, back view: shaggy shoulders, spine fur ridge, bushy tail hanging. -->
  <!-- ears (backs) -->
  <path d="M178 128 C164 94 166 58 186 32 C202 40 212 60 212 86 C200 98 188 112 182 128 Z" fill="#3C3E46"/>
  <path d="M334 128 C348 94 346 58 326 32 C310 40 300 60 300 86 C312 98 324 112 330 128 Z" fill="#3C3E46"/>
  <!-- head back -->
  <path d="M256 86 C300 86 334 110 342 150 C348 184 334 218 304 236 C290 245 272 250 256 250 C240 250 222 245 208 236 C178 218 164 184 170 150 C178 110 212 86 256 86 Z" fill="#62646E"/>
  <path d="M200 110 C216 96 236 90 256 90 C276 90 296 96 312 110 C322 120 330 134 332 148 C310 128 202 128 180 148 C182 134 190 120 200 110 Z" fill="#474952"/>
  <!-- body -->
  <path d="M256 220 C312 220 356 250 372 300 C386 346 374 396 338 426 C314 446 284 456 256 456 C228 456 198 446 174 426 C138 396 126 346 140 300 C156 250 200 220 256 220 Z" fill="#62646E"/>
  <!-- shoulder shag: jagged -->
  <path d="M168 286 L184 270 L196 286 L212 268 L224 284 L242 268 L256 282 L270 268 L288 284 L300 268 L316 286 L328 270 L344 286 C352 304 354 322 350 340 C326 318 186 318 162 340 C158 322 160 304 168 286 Z" fill="#474952"/>
  <!-- spine fur ridge down the back -->
  <path d="M256 290 L266 312 L256 308 L246 312 Z M256 326 L268 350 L256 345 L244 350 Z M256 364 L266 386 L256 382 L246 386 Z" fill="#474952"/>
  <!-- haunches -->
  <path d="M150 386 C140 410 146 434 166 446 C182 454 200 450 210 436 C204 416 190 398 170 388 C162 384 156 384 150 386 Z" fill="#54565F"/>
  <path d="M362 386 C372 410 366 434 346 446 C330 454 312 450 302 436 C308 416 322 398 342 388 C350 384 356 384 362 386 Z" fill="#54565F"/>
  <!-- bushy tail hanging center, jagged fur -->
  <path d="M256 400 C242 408 234 424 234 444 L242 440 L240 456 L250 448 L252 464 L262 452 L268 466 L274 450 L282 458 L280 442 L278 424 C274 412 266 402 256 400 Z" fill="#474952"/>
  <!-- hind paws -->
  <path d="M196 444 C192 458 200 466 214 467 C226 468 236 463 237 454 C237 449 234 445 230 443 L225 453 L219 442 L213 452 L207 442 C201 442 197 442 196 444 Z" fill="#3C3E46"/>
  <path d="M316 444 C320 458 312 466 298 467 C286 468 276 463 275 454 C275 449 278 445 282 443 L287 453 L293 442 L299 452 L305 442 C311 442 315 442 316 444 Z" fill="#3C3E46"/>
</svg>
