<svg xmlns="http://www.w3.org/2000/svg" viewBox="0 0 512 512" width="512" height="512">
  <!-- Dire wolf, side view facing right. Vanilla proportions: body ~3:1, legs ~40% of height. -->
  <!-- bushy tail: full plume from rump, sweeps down-back -->
  <path d="M92 226 C66 230 44 250 34 280 C26 306 28 332 40 352 C44 336 52 324 64 318 C60 334 64 350 76 360 C78 346 86 334 98 330 C98 342 104 352 114 356 C124 332 124 300 116 272 C110 252 102 236 92 226 Z" fill="#474952"/>
  <path d="M94 240 C76 248 62 266 56 290 C52 308 54 326 62 340 C66 326 74 316 84 312 C84 296 88 278 96 264 C98 256 98 248 94 240 Z" fill="#54565F"/>
  <!-- body: long shallow torso -->
  <path d="M84 224 C92 204 116 192 150 188 C204 182 280 182 340 190 C374 194 398 204 410 220 C418 232 420 248 414 262 C408 278 398 292 392 306 C386 320 374 330 356 334 C300 346 180 344 128 330 C100 322 84 304 80 278 C78 258 78 238 84 224 Z" fill="#62646E"/>
  <!-- shaggy spine ridge -->
  <path d="M118 200 L130 184 L142 198 L158 182 L170 196 L188 180 L200 194 L222 180 L234 194 L258 182 L270 194 L294 184 L304 196 L328 188 C260 180 160 184 118 200 Z" fill="#474952"/>
  <!-- haunch shading: organic thigh wedge sloping into the hind leg -->
  <path d="M100 240 C112 218 140 206 170 210 C194 214 208 228 210 248 C212 266 204 282 188 294 C176 304 160 312 142 320 C124 314 108 300 100 282 C94 268 94 252 100 240 Z" fill="#54565F" opacity="0.8"/>
  <!-- belly strip: light along the lower edge -->
  <path d="M140 330 C200 340 300 340 350 332 C330 344 280 350 220 348 C186 346 158 340 140 330 Z" fill="#9B9DA6"/>
  <!-- neck ruff: shaggy, behind the head -->
  <path d="M356 196 C378 186 400 186 414 196 C424 204 428 216 426 228 L412 240 L416 256 L400 254 L402 270 L386 262 L384 276 L372 264 C360 248 354 220 356 196 Z" fill="#54565F"/>
  <!-- head: small, on a real neck, long muzzle -->
  <path d="M398 178 C410 160 430 150 452 152 C470 154 482 164 486 176 C494 180 500 186 500 192 C496 198 489 200 481 199 C476 210 466 218 452 220 C432 224 414 218 404 204 C398 196 396 187 398 178 Z" fill="#62646E"/>
  <!-- ears: rooted at skull -->
  <path d="M404 174 C398 156 400 138 410 124 C420 130 426 142 426 156 C418 162 410 168 404 174 Z" fill="#474952"/>
  <path d="M424 166 C420 150 424 134 434 122 C442 130 446 142 444 154 C436 158 429 162 424 166 Z" fill="#62646E"/>
  <path d="M427 162 C425 150 428 139 434 130 C439 136 441 144 439 152 C434 155 430 158 427 162 Z" fill="#9B9DA6"/>
  <!-- muzzle light + nose -->
  <path d="M450 182 C462 180 472 182 480 188 C488 191 494 193 498 193 C494 198 488 200 481 198 C470 203 458 203 450 198 Z" fill="#9B9DA6"/>
  <ellipse cx="496" cy="191" rx="7" ry="5" fill="#211B14"/>
  <!-- jaw with fang -->
  <path d="M452 204 C462 208 472 208 480 204 L476 213 L468 208 L463 215 C458 212 454 208 452 204 Z" fill="#474952"/>
  <!-- brow + narrow eye -->
  <path d="M424 168 C432 162 444 161 454 165 L450 174 C443 170 434 171 428 175 Z" fill="#33353C"/>
  <circle cx="441" cy="180" r="9" fill="#E09A22"/>
  <circle cx="443" cy="182" r="4.5" fill="#211B14"/>
  <circle cx="445" cy="178" r="1.8" fill="#F6EBD3"/>
  <!-- far legs (darker) -->
  <path d="M148 322 C140 360 138 410 144 448 L166 448 C172 410 172 362 166 326 Z" fill="#3C3E46"/>
  <path d="M330 326 C322 362 320 410 326 448 L348 448 C354 410 354 364 348 330 Z" fill="#3C3E46"/>
  <!-- near hind leg: thigh into hock, thin shank -->
  <path d="M108 304 C100 330 98 354 104 374 C108 388 106 404 100 416 C96 430 98 446 104 458 L128 458 C134 444 134 428 130 414 C136 396 138 376 134 356 C140 336 138 318 130 306 C122 300 114 300 108 304 Z" fill="#54565F"/>
  <path d="M100 452 C98 462 104 468 116 469 C126 470 133 466 134 458 C134 454 131 451 127 449 L120 456 L112 448 L104 452 Z" fill="#474952"/>
  <!-- near front leg: straight, thin -->
  <path d="M362 330 C354 364 352 410 358 450 C360 458 366 462 374 462 L390 460 C396 422 396 370 390 334 C380 326 368 326 362 330 Z" fill="#54565F"/>
  <path d="M354 454 C352 464 358 470 370 471 C380 472 387 468 388 460 C388 456 385 453 381 451 L374 458 L366 450 L358 454 Z" fill="#474952"/>
</svg>
