<svg xmlns="http://www.w3.org/2000/svg" viewBox="0 0 512 512" width="512" height="512">
  <!-- Giant elk, front view: narrow vertical body like vanilla deer; the width is all antlers. -->
  <!-- antlers: wide airy crown -->
  <path d="M226 120 C202 112 180 96 166 74 C152 52 146 28 150 8 L160 10 C158 28 164 48 176 64 L174 42 L186 50 C192 66 202 80 214 90 L216 72 L228 84 C232 96 234 108 232 118 Z" fill="#8A754F"/>
  <path d="M286 120 C310 112 332 96 346 74 C360 52 366 28 362 8 L352 10 C354 28 348 48 336 64 L338 42 L326 50 C320 66 310 80 298 90 L296 72 L284 84 C280 96 278 108 280 118 Z" fill="#8A754F"/>
  <path d="M190 22 L172 4 L180 26 Z" fill="#8A754F"/>
  <path d="M322 22 L340 4 L332 26 Z" fill="#8A754F"/>
  <path d="M222 116 C204 108 188 94 178 78 C186 96 200 110 218 120 Z" fill="#6E5E42"/>
  <path d="M290 116 C308 108 324 94 334 78 C326 96 312 110 294 120 Z" fill="#6E5E42"/>
  <!-- ears: out to the sides, rooted -->
  <path d="M204 144 C188 136 172 136 160 144 C166 158 180 166 196 164 C200 158 203 150 204 144 Z" fill="#A08A6A"/>
  <path d="M308 144 C324 136 340 136 352 144 C346 158 332 166 316 164 C312 158 309 150 308 144 Z" fill="#A08A6A"/>
  <path d="M200 146 C190 141 180 140 172 144 C177 152 186 156 196 156 Z" fill="#C9B393"/>
  <path d="M312 146 C322 141 332 140 340 144 C335 152 326 156 316 156 Z" fill="#C9B393"/>
  <!-- head: narrow, long muzzle down -->
  <path d="M256 112 C280 112 298 126 302 148 C306 172 298 198 282 216 C274 226 265 231 256 231 C247 231 238 226 230 216 C214 198 206 172 210 148 C214 126 232 112 256 112 Z" fill="#B4A083"/>
  <!-- eyes: on the sides -->
  <circle cx="226" cy="158" r="7" fill="#211B14"/>
  <circle cx="286" cy="158" r="7" fill="#211B14"/>
  <circle cx="228" cy="156" r="1.8" fill="#F6EBD3"/>
  <circle cx="288" cy="156" r="1.8" fill="#F6EBD3"/>
  <!-- muzzle -->
  <path d="M256 170 C266 170 273 177 274 188 C275 200 269 212 256 222 C243 212 237 200 238 188 C239 177 246 170 256 170 Z" fill="#A08A6A"/>
  <ellipse cx="256" cy="208" rx="10" ry="8" fill="#3A2E20"/>
  <!-- neck: visible, narrow -->
  <path d="M236 222 C242 234 250 240 256 240 C262 240 270 234 276 222 C282 234 284 248 282 260 L230 260 C228 248 230 234 236 222 Z" fill="#A08A6A"/>
  <!-- body: slim teardrop, narrower than the antler crown -->
  <path d="M256 244 C290 244 316 264 326 298 C336 334 332 376 316 408 C306 430 290 444 272 450 L240 450 C222 444 206 430 196 408 C180 376 176 334 186 298 C196 264 222 244 256 244 Z" fill="#B4A083"/>
  <!-- chest shading -->
  <path d="M256 252 C282 252 302 266 312 290 C296 274 230 272 204 292 C212 268 232 252 256 252 Z" fill="#A08A6A"/>
  <!-- pale chest strip -->
  <path d="M242 300 C250 296 262 296 270 300 C274 330 272 366 264 396 L248 396 C240 366 238 330 242 300 Z" fill="#C9B393"/>
  <!-- front legs: long thin columns -->
  <path d="M222 400 C214 424 212 452 216 476 C217 484 222 488 229 488 L240 488 C245 466 246 438 242 414 C239 402 231 396 222 400 Z" fill="#A08A6A"/>
  <path d="M290 400 C298 424 300 452 296 476 C295 484 290 488 283 488 L272 488 C267 466 266 438 270 414 C273 402 281 396 290 400 Z" fill="#A08A6A"/>
  <path d="M214 482 L242 482 L242 494 C242 498 238 500 232 500 L224 500 C218 500 214 498 214 494 Z" fill="#3A2E20"/>
  <path d="M270 482 L298 482 L298 494 C298 498 294 500 288 500 L280 500 C274 500 270 498 270 494 Z" fill="#3A2E20"/>
  <!-- hind hooves peeking behind -->
  <ellipse cx="202" cy="470" rx="13" ry="8" fill="#8A7558"/>
  <ellipse cx="310" cy="470" rx="13" ry="8" fill="#8A7558"/>
</svg>
