<svg xmlns="http://www.w3.org/2000/svg" viewBox="0 0 512 512" width="512" height="512">
  <!-- Giant elk, back view: narrow body, pale rump, antlers seen from behind. -->
  <!-- antlers -->
  <path d="M226 118 C202 110 180 94 166 72 C152 50 146 26 150 6 L160 8 C158 26 164 46 176 62 L174 40 L186 48 C192 64 202 78 214 88 L216 70 L228 82 C232 94 234 106 232 116 Z" fill="#8A754F"/>
  <path d="M286 118 C310 110 332 94 346 72 C360 50 366 26 362 6 L352 8 C354 26 348 46 336 62 L338 40 L326 48 C320 64 310 78 298 88 L296 70 L284 82 C280 94 278 106 280 116 Z" fill="#8A754F"/>
  <path d="M190 20 L172 2 L180 24 Z" fill="#8A754F"/>
  <path d="M322 20 L340 2 L332 24 Z" fill="#8A754F"/>
  <!-- ears (backs) -->
  <path d="M204 142 C188 134 172 134 160 142 C166 156 180 164 196 162 C200 156 203 148 204 142 Z" fill="#8A7558"/>
  <path d="M308 142 C324 134 340 134 352 142 C346 156 332 164 316 162 C312 156 309 148 308 142 Z" fill="#8A7558"/>
  <!-- head back: narrow -->
  <path d="M256 110 C280 110 298 124 302 146 C306 170 298 196 282 214 C274 224 265 229 256 229 C247 229 238 224 230 214 C214 196 206 170 210 146 C214 124 232 110 256 110 Z" fill="#A08A6A"/>
  <path d="M224 130 C234 120 244 116 256 116 C268 116 278 120 288 130 C294 136 298 144 300 152 C284 138 228 138 212 152 C214 144 218 136 224 130 Z" fill="#8A7558"/>
  <!-- neck -->
  <path d="M236 220 C242 230 250 236 256 236 C262 236 270 230 276 220 C282 232 284 246 282 258 L230 258 C228 246 230 232 236 220 Z" fill="#A08A6A"/>
  <!-- body: slim teardrop -->
  <path d="M256 242 C290 242 316 262 326 296 C336 332 332 374 316 406 C306 428 290 442 272 448 L240 448 C222 442 206 428 196 406 C180 374 176 332 186 296 C196 262 222 242 256 242 Z" fill="#B4A083"/>
  <!-- spine shading -->
  <path d="M252 250 L260 250 L258 380 L254 380 Z" fill="#A08A6A"/>
  <!-- shoulder shading -->
  <path d="M256 248 C282 248 302 262 312 286 C296 270 216 270 200 286 C210 262 230 248 256 248 Z" fill="#A08A6A"/>
  <!-- pale rump patch -->
  <path d="M256 360 C282 360 302 376 308 400 C312 420 304 438 288 446 L224 446 C208 438 200 420 204 400 C210 376 230 360 256 360 Z" fill="#E0D0B0"/>
  <!-- tail nub -->
  <path d="M256 396 C264 396 270 402 270 410 C270 420 264 428 256 430 C248 428 242 420 242 410 C242 402 248 396 256 396 Z" fill="#C9B393"/>
  <!-- hind legs: thin columns -->
  <path d="M222 426 C214 446 212 468 216 486 C217 492 222 495 229 495 L240 495 C245 478 246 456 242 438 C239 428 231 422 222 426 Z" fill="#A08A6A"/>
  <path d="M290 426 C298 446 300 468 296 486 C295 492 290 495 283 495 L272 495 C267 478 266 456 270 438 C273 428 281 422 290 426 Z" fill="#A08A6A"/>
  <path d="M214 490 L242 490 L242 500 C242 504 238 506 232 506 L224 506 C218 506 214 504 214 500 Z" fill="#3A2E20"/>
  <path d="M270 490 L298 490 L298 500 C298 504 294 506 288 506 L280 506 C274 506 270 504 270 500 Z" fill="#3A2E20"/>
</svg>
