<svg xmlns="http://www.w3.org/2000/svg" viewBox="0 0 512 512" width="512" height="512">
  <!-- Basilisk, side view facing right: LOW sprawling eight-legged lizard with a long tapering tail. -->
  <!-- tail: long, thick at the base, tapering to a point -->
  <path d="M118 296 C90 292 62 298 42 314 C24 328 12 348 8 370 C24 360 42 354 60 354 C44 364 32 378 26 396 C46 390 66 378 82 362 C98 346 110 322 118 296 Z" fill="#6E7A58"/>
  <path d="M104 304 C82 304 62 312 48 328 C58 324 70 322 80 324 C88 318 98 310 104 304 Z" fill="#586448"/>
  <!-- body: long, very low slab -->
  <path d="M108 296 C114 276 138 264 174 260 C228 254 300 254 352 262 C384 266 404 278 410 296 C414 312 406 328 388 338 C352 354 204 356 152 346 C124 340 106 324 102 308 C102 304 104 300 108 296 Z" fill="#6E7A58"/>
  <!-- flank stripes -->
  <path d="M170 286 C220 280 300 280 348 286 C300 284 218 284 170 290 Z" fill="#586448"/>
  <path d="M160 314 C220 308 310 308 360 314 C310 312 216 312 160 318 Z" fill="#586448"/>
  <!-- pale belly strip -->
  <path d="M150 344 C220 354 330 354 380 342 C356 354 290 360 220 358 C190 356 166 352 150 344 Z" fill="#B7BF9A"/>
  <!-- spike ridge: rooted along the spine -->
  <path d="M150 268 L162 242 L176 266 L196 240 L210 264 L232 238 L246 262 L270 240 L282 262 L306 242 L316 262 L340 246 L348 264 C284 254 196 256 150 268 Z" fill="#3E4834"/>
  <!-- head: broad flat reptile wedge, held low -->
  <path d="M396 276 C410 258 436 248 464 252 C488 256 504 270 506 288 C508 304 498 318 480 324 C456 332 428 328 410 314 C398 304 392 290 396 276 Z" fill="#6E7A58"/>
  <!-- brow ridge -->
  <path d="M420 262 C438 254 460 254 476 262 L472 272 C458 265 440 265 428 271 Z" fill="#3E4834"/>
  <!-- eye: hypnotic yellow slit -->
  <circle cx="452" cy="282" r="12" fill="#D8E04A"/>
  <path d="M450 272 C453 278 453 288 450 293 C455 289 456 276 450 272 Z" fill="#211B14"/>
  <circle cx="456" cy="277" r="2.2" fill="#F4F8D0"/>
  <!-- jaw line + teeth -->
  <path d="M414 306 C436 314 466 314 488 306 L486 314 C464 322 436 322 416 314 Z" fill="#586448"/>
  <path d="M438 314 L442 324 L447 314 Z" fill="#F4F8D0"/>
  <path d="M456 315 L460 325 L465 315 Z" fill="#F4F8D0"/>
  <path d="M474 312 L478 322 L483 312 Z" fill="#F4F8D0"/>
  <!-- head spikes: short, swept back, rooted -->
  <path d="M414 264 L400 242 L426 254 Z" fill="#3E4834"/>
  <path d="M436 256 L428 232 L448 248 Z" fill="#3E4834"/>
  <!-- far legs (darker), sprawled -->
  <path d="M160 342 L146 380 L134 414 L150 418 L164 384 L176 348 Z" fill="#4D5840"/>
  <path d="M250 350 L242 388 L234 420 L250 424 L260 390 L268 352 Z" fill="#4D5840"/>
  <path d="M330 348 L326 386 L320 418 L336 421 L344 388 L348 350 Z" fill="#4D5840"/>
  <path d="M396 326 L402 364 L400 400 L416 401 L420 364 L412 328 Z" fill="#4D5840"/>
  <!-- near legs: short, bent out then down (sprawl) -->
  <path d="M132 334 C120 344 112 358 110 374 C104 388 102 404 106 418 L130 420 C132 406 132 392 130 380 C136 368 142 356 150 348 Z" fill="#586448"/>
  <path d="M218 348 C208 358 202 372 200 386 C196 398 196 412 200 424 L224 426 C226 412 226 400 224 388 C228 376 234 364 240 356 Z" fill="#586448"/>
  <path d="M306 350 C298 360 294 372 292 386 C290 398 290 410 294 422 L318 423 C320 410 320 398 318 386 C322 374 326 364 332 354 Z" fill="#586448"/>
  <path d="M378 330 C374 342 372 356 374 370 C372 382 374 396 378 408 L402 408 C402 396 400 384 396 374 C398 360 396 346 392 334 Z" fill="#586448"/>
  <!-- claws -->
  <path d="M104 414 L98 426 L110 422 L108 432 L120 424 L130 430 L130 418 Z" fill="#3E4834"/>
  <path d="M198 420 L192 432 L204 428 L202 438 L214 430 L224 436 L224 424 Z" fill="#3E4834"/>
  <path d="M292 418 L286 430 L298 426 L296 436 L308 428 L318 433 L318 421 Z" fill="#3E4834"/>
  <path d="M376 404 L370 416 L382 412 L380 422 L392 414 L402 419 L402 407 Z" fill="#3E4834"/>
</svg>
