<svg xmlns="http://www.w3.org/2000/svg" viewBox="0 0 512 512" width="512" height="512">
  <!-- Owlbear, back view: feathered saddle cascading down the spine, ear tufts, haunches. -->
  <!-- ear tufts (backs) -->
  <path d="M158 116 C138 90 132 58 148 32 C158 28 168 32 172 42 C160 52 156 64 158 78 C166 68 176 62 186 62 C186 82 178 104 166 120 Z" fill="#6E4C2B"/>
  <path d="M354 116 C374 90 380 58 364 32 C354 28 344 32 340 42 C352 52 356 64 354 78 C346 68 336 62 326 62 C326 82 334 104 346 120 Z" fill="#6E4C2B"/>
  <!-- head back -->
  <path d="M256 60 C312 60 354 90 362 140 C368 178 350 214 318 230 C298 239 276 244 256 244 C236 244 214 239 194 230 C162 214 144 178 150 140 C158 90 200 60 256 60 Z" fill="#9C7042"/>
  <!-- crown shading -->
  <path d="M188 92 C212 72 300 72 324 92 C340 106 348 126 348 146 C320 122 192 122 164 146 C164 126 172 106 188 92 Z" fill="#7C5530"/>
  <!-- body -->
  <path d="M256 196 C330 196 392 230 412 294 C430 350 416 410 372 442 C338 466 296 476 256 476 C216 476 174 466 140 442 C96 410 82 350 100 294 C120 230 182 196 256 196 Z" fill="#9C7042"/>
  <!-- shoulder humps -->
  <path d="M118 296 C126 254 162 228 204 228 C194 252 188 280 186 308 C162 312 136 308 118 296 Z" fill="#86603A"/>
  <path d="M394 296 C386 254 350 228 308 228 C318 252 324 280 326 308 C350 312 376 308 394 296 Z" fill="#86603A"/>
  <!-- spine feather cascade: chevron scallops down the back -->
  <path d="M256 240 C282 240 304 250 318 268 C296 260 276 256 256 256 C236 256 216 260 194 268 C208 250 230 240 256 240 Z" fill="#7C5530"/>
  <path d="M256 282 C286 282 310 294 324 314 C300 304 278 298 256 298 C234 298 212 304 188 314 C202 294 226 282 256 282 Z" fill="#7C5530"/>
  <path d="M256 328 C288 328 314 342 328 364 C302 352 280 346 256 346 C232 346 210 352 184 364 C198 342 224 328 256 328 Z" fill="#7C5530"/>
  <path d="M256 376 C286 376 310 388 322 408 C298 398 278 392 256 392 C234 392 214 398 190 408 C202 388 226 376 256 376 Z" fill="#7C5530"/>
  <!-- haunches -->
  <path d="M124 396 C112 424 118 450 140 462 C160 472 184 468 196 452 C190 430 174 410 152 398 C142 394 132 394 124 396 Z" fill="#86603A"/>
  <path d="M388 396 C400 424 394 450 372 462 C352 472 328 468 316 452 C322 430 338 410 360 398 C370 394 380 394 388 396 Z" fill="#86603A"/>
  <!-- stub tail over the rear feathers -->
  <path d="M256 430 C272 430 284 440 284 452 C284 464 272 472 256 472 C240 472 228 464 228 452 C228 440 240 430 256 430 Z" fill="#7C5530"/>
</svg>
