<svg xmlns="http://www.w3.org/2000/svg" viewBox="0 0 512 512" width="512" height="512">
  <!-- Ankheg, front view: distinct flat head shield in front of a darker abdomen, big pincer mandibles. No smiles. -->
  <!-- abdomen behind: darker, narrower than the head -->
  <path d="M256 132 C304 132 340 154 352 190 C362 220 354 250 330 268 L182 268 C158 250 150 220 160 190 C172 154 208 132 256 132 Z" fill="#737842"/>
  <path d="M180 192 C228 176 284 176 332 192 L334 204 C286 188 226 188 178 204 Z" fill="#4A4E2C"/>
  <path d="M174 230 C226 214 286 214 338 230 L338 242 C288 226 224 226 174 242 Z" fill="#4A4E2C"/>
  <!-- antennae: rooted at the brow, arcing up-out past the abdomen -->
  <path d="M206 252 C188 224 180 192 186 162 L196 164 C192 192 200 222 216 248 Z" fill="#62663A"/>
  <path d="M306 252 C324 224 332 192 326 162 L316 164 C320 192 312 222 296 248 Z" fill="#62663A"/>
  <!-- head shield: broad flat wedge, clearly in front -->
  <path d="M256 240 C306 240 344 260 354 294 C362 322 350 350 320 364 C302 372 278 376 256 376 C234 376 210 372 192 364 C162 350 150 322 158 294 C168 260 206 240 256 240 Z" fill="#8A8E54"/>
  <!-- chitin brow plate -->
  <path d="M190 284 C208 266 230 258 256 258 C282 258 304 266 322 284 L316 296 C300 282 280 274 256 274 C232 274 212 282 196 296 Z" fill="#4A4E2C"/>
  <!-- eyes: small dark beads, wide-set -->
  <circle cx="212" cy="308" r="10" fill="#211B14"/>
  <circle cx="300" cy="308" r="10" fill="#211B14"/>
  <circle cx="215" cy="305" r="2.6" fill="#C2C28C"/>
  <circle cx="303" cy="305" r="2.6" fill="#C2C28C"/>
  <!-- mouth: hard chitin plate seam, straight -->
  <path d="M226 342 L286 342 L284 352 L228 352 Z" fill="#4A4E2C"/>
  <!-- mandibles: solid sickles from the head sides, curving down-in to sharp tips -->
  <path d="M190 334 C162 346 146 372 148 400 C150 422 164 438 186 442 C204 446 224 442 238 430 L230 416 C218 426 202 428 190 424 C176 418 168 406 170 392 C172 374 180 352 190 334 Z" fill="#4A4E2C"/>
  <path d="M322 334 C350 346 366 372 364 400 C362 422 348 438 326 442 C308 446 288 442 274 430 L282 416 C294 426 310 428 322 424 C336 418 344 406 342 392 C340 374 332 352 322 334 Z" fill="#4A4E2C"/>
  <path d="M186 348 C170 358 160 374 160 392 C164 380 174 370 186 366 C186 360 186 354 186 348 Z" fill="#737842"/>
  <path d="M326 348 C342 358 352 374 352 392 C348 380 338 370 326 366 C326 360 326 354 326 348 Z" fill="#737842"/>
  <!-- legs: splayed thin chitin, from under the body sides -->
  <path d="M172 282 L128 304 L98 338 L106 346 L138 314 L178 294 Z" fill="#62663A"/>
  <path d="M340 282 L384 304 L414 338 L406 346 L374 314 L334 294 Z" fill="#62663A"/>
  <path d="M166 318 L126 350 L106 386 L116 392 L136 358 L174 330 Z" fill="#4A4A30"/>
  <path d="M346 318 L386 350 L406 386 L396 392 L376 358 L338 330 Z" fill="#4A4A30"/>
</svg>
