<svg xmlns="http://www.w3.org/2000/svg" viewBox="0 0 512 512" width="512" height="512">
  <!-- Basilisk, back view: ELONGATED back (longer than wide), ridge spikes down the spine, one thick tapering tail. -->
  <!-- head crown peeking over the far end -->
  <path d="M256 96 C284 96 306 108 314 128 L198 128 C206 108 228 96 256 96 Z" fill="#586448"/>
  <path d="M212 110 L192 92 L216 102 Z" fill="#3E4834"/>
  <path d="M300 110 L320 92 L296 102 Z" fill="#3E4834"/>
  <!-- body: long slab seen from behind — taller than wide -->
  <path d="M256 120 C308 120 346 142 356 182 C366 222 366 270 356 308 C348 340 326 360 296 366 L216 366 C186 360 164 340 156 308 C146 270 146 222 156 182 C166 142 204 120 256 120 Z" fill="#6E7A58"/>
  <!-- flank shading -->
  <path d="M172 188 C220 172 292 172 340 188 L342 200 C294 184 218 184 170 200 Z" fill="#586448"/>
  <path d="M166 252 C218 238 294 238 346 252 L346 264 C294 250 218 250 166 264 Z" fill="#586448"/>
  <path d="M170 312 C218 300 294 300 342 312 L338 324 C294 312 218 312 174 324 Z" fill="#586448"/>
  <!-- ridge spikes: down the spine, rooted -->
  <path d="M256 132 L240 104 L256 116 L272 104 Z" fill="#3E4834"/>
  <path d="M256 186 L238 158 L256 170 L274 158 Z" fill="#3E4834"/>
  <path d="M256 240 L238 212 L256 224 L274 212 Z" fill="#3E4834"/>
  <path d="M256 294 L240 268 L256 278 L272 268 Z" fill="#3E4834"/>
  <path d="M256 344 L242 320 L256 330 L270 320 Z" fill="#3E4834"/>
  <!-- tail: one thick tapering tail hanging down, curling right to a point -->
  <path d="M232 358 C226 386 228 414 240 438 C252 460 274 472 300 472 C318 472 334 464 344 452 C328 454 312 450 300 440 C314 440 326 434 334 424 C318 424 304 418 294 408 C278 394 266 376 260 356 Z" fill="#6E7A58"/>
  <path d="M244 366 C242 388 246 410 258 426 C250 408 248 386 252 366 Z" fill="#586448"/>
  <!-- legs: splayed at the body sides, clawed -->
  <path d="M168 196 L128 206 L104 230 L112 238 L138 218 L172 208 Z" fill="#4D5840"/>
  <path d="M344 196 L384 206 L408 230 L400 238 L374 218 L340 208 Z" fill="#4D5840"/>
  <path d="M164 296 L122 316 L98 348 L108 356 L136 326 L174 308 Z" fill="#586448"/>
  <path d="M348 296 L390 316 L414 348 L404 356 L376 326 L338 308 Z" fill="#586448"/>
  <path d="M96 344 L84 356 L98 354 L94 366 L108 358 L118 364 L116 352 Z" fill="#3E4834"/>
  <path d="M416 344 L428 356 L414 354 L418 366 L404 358 L394 364 L396 352 Z" fill="#3E4834"/>
</svg>
