<svg xmlns="http://www.w3.org/2000/svg" viewBox="0 0 512 512" width="512" height="512">
  <!-- Ankheg, side view facing right: long, LOW segmented insect — burrowing mantis-beetle, not a ball. -->
  <!-- abdomen: long low segmented rear -->
  <path d="M36 290 C40 268 62 254 96 250 C140 244 196 244 236 252 C262 258 276 272 276 292 C276 314 262 332 236 340 C196 350 140 350 96 344 C62 338 40 324 36 306 C34 300 34 294 36 290 Z" fill="#8A8E54"/>
  <!-- segment bands -->
  <path d="M92 250 C88 280 88 314 92 344 L102 346 C98 314 98 280 102 248 Z" fill="#62663A"/>
  <path d="M148 246 C144 278 144 316 148 348 L158 348 C154 316 154 278 158 246 Z" fill="#62663A"/>
  <path d="M204 248 C200 278 200 314 204 342 L214 340 C210 312 210 278 214 250 Z" fill="#62663A"/>
  <!-- belly plate: pale, low -->
  <path d="M70 334 C120 344 200 346 246 338 C220 348 140 350 96 344 C86 342 76 338 70 334 Z" fill="#C2C28C"/>
  <!-- tail tip spike -->
  <path d="M38 288 C26 286 16 292 14 302 C16 312 26 318 38 314 C42 306 42 296 38 288 Z" fill="#737842"/>
  <!-- thorax: narrower waist link -->
  <path d="M270 270 C284 258 304 252 326 254 C348 256 364 266 370 282 C374 296 368 310 354 320 C336 332 308 334 288 324 C272 316 264 302 264 288 C264 282 266 276 270 270 Z" fill="#737842"/>
  <!-- thorax plate shading -->
  <path d="M286 264 C306 256 330 256 348 264 C334 260 304 260 286 268 Z" fill="#4A4E2C"/>
  <!-- head: wedge with chitin brow, low and forward -->
  <path d="M358 262 C372 248 394 240 418 242 C444 244 464 256 472 274 C478 290 474 306 460 316 C442 330 414 332 392 322 C372 312 360 296 356 280 C355 274 356 268 358 262 Z" fill="#8A8E54"/>
  <!-- chitin brow plate -->
  <path d="M380 252 C400 244 424 244 442 252 L438 262 C424 256 402 256 388 262 Z" fill="#4A4E2C"/>
  <!-- eye: small dark bead -->
  <circle cx="436" cy="272" r="9" fill="#211B14"/>
  <circle cx="439" cy="269" r="2.5" fill="#C2C28C"/>
  <!-- antennae: rooted at the brow, swept back -->
  <path d="M404 250 C396 230 398 208 410 192 L418 198 C408 212 406 230 412 248 Z" fill="#62663A"/>
  <path d="M428 246 C426 226 432 206 446 194 L452 202 C440 212 436 228 436 246 Z" fill="#62663A"/>
  <!-- mandibles: big paired scythes -->
  <path d="M462 280 C482 278 498 286 504 300 C508 312 502 324 488 328 C492 316 490 304 482 296 C476 288 468 283 462 280 Z" fill="#4A4E2C"/>
  <path d="M456 296 C474 300 486 312 488 328 C488 340 478 348 466 346 C472 336 472 324 466 314 C462 306 458 300 456 296 Z" fill="#4A4E2C"/>
  <!-- far legs (darker, thin chitin) -->
  <path d="M150 344 L138 396 L120 432 L128 436 L148 400 L162 348 Z" fill="#4A4A30"/>
  <path d="M232 346 L228 398 L214 434 L222 438 L238 402 L244 350 Z" fill="#4A4A30"/>
  <path d="M312 328 L316 380 L306 420 L314 423 L326 382 L324 330 Z" fill="#4A4A30"/>
  <!-- near legs: thin, jointed, splayed -->
  <path d="M118 342 L102 392 L78 426 L88 432 L114 398 L132 348 Z" fill="#62663A"/>
  <path d="M196 348 L190 400 L172 438 L182 442 L202 404 L210 350 Z" fill="#62663A"/>
  <path d="M286 330 L296 384 L290 428 L300 430 L308 386 L298 330 Z" fill="#62663A"/>
</svg>
