<svg xmlns="http://www.w3.org/2000/svg" viewBox="0 0 512 512" width="512" height="512">
  <!-- Basilisk, back view: dorsal ridge running down, plated back, thick tail curling below. -->
  <!-- head back (low, mostly hidden) -->
  <path d="M256 96 C300 96 334 118 344 154 C352 186 338 218 306 236 L206 236 C174 218 160 186 168 154 C178 118 212 96 256 96 Z" fill="#7A8862"/>
  <path d="M192 126 C210 108 232 100 256 100 C280 100 302 108 320 126 C330 136 336 148 338 160 C312 138 200 138 174 160 C176 148 182 136 192 126 Z" fill="#3E4834"/>
  <!-- body: broad plated dome -->
  <path d="M256 190 C332 190 392 232 408 298 C422 356 400 414 348 446 C322 462 288 470 256 470 C224 470 190 462 164 446 C112 414 90 356 104 298 C120 232 180 190 256 190 Z" fill="#6E7A58"/>
  <!-- dorsal ridge: spikes down the spine -->
  <path d="M256 196 L268 226 L256 220 L244 226 Z M256 244 L270 276 L256 270 L242 276 Z M256 296 L270 328 L256 322 L242 328 Z M256 348 L268 378 L256 372 L244 378 Z M256 396 L266 422 L256 417 L246 422 Z" fill="#4D5840"/>
  <!-- plate rows -->
  <path d="M256 212 C294 212 326 226 346 250 C316 238 286 232 256 232 C226 232 196 238 166 250 C186 226 218 212 256 212 Z" fill="#586448"/>
  <path d="M256 262 C300 262 336 278 358 306 C324 290 290 284 256 284 C222 284 188 290 154 306 C176 278 212 262 256 262 Z" fill="#586448"/>
  <path d="M256 316 C302 316 340 334 360 364 C326 346 290 340 256 340 C222 340 186 346 152 364 C172 334 210 316 256 316 Z" fill="#586448"/>
  <path d="M256 372 C298 372 332 388 350 414 C320 400 288 394 256 394 C224 394 192 400 162 414 C180 388 214 372 256 372 Z" fill="#586448"/>
  <!-- thick tail curling out below -->
  <path d="M256 428 C292 430 320 444 330 466 C322 482 300 490 274 488 C290 478 296 466 290 456 C280 466 264 472 248 470 C260 462 264 452 258 444 C252 450 240 454 228 452 C236 442 246 432 256 428 Z" fill="#586448"/>
  <!-- hind legs splayed -->
  <path d="M160 414 L122 448 L132 458 L168 426 Z" fill="#586448"/>
  <path d="M120 446 C110 452 106 462 110 468 C120 471 130 466 136 458 L128 455 L128 446 Z" fill="#3E4834"/>
  <path d="M352 414 L390 448 L380 458 L344 426 Z" fill="#586448"/>
  <path d="M392 446 C402 452 406 462 402 468 C392 471 382 466 376 458 L384 455 L384 446 Z" fill="#3E4834"/>
</svg>
