<svg xmlns="http://www.w3.org/2000/svg" viewBox="0 0 512 512" width="512" height="512">
  <!-- Giant elk, side view facing right: regal raised head, sweeping palmate antlers, long legs. -->
  <!-- antlers: huge, sweeping back from skull with tines -->
  <path d="M362 110 C346 92 336 66 340 38 C348 36 356 40 360 48 C358 60 362 72 370 80 C368 64 372 48 382 38 C390 42 394 50 392 60 C386 70 384 82 388 94 C392 80 400 68 412 62 C418 68 420 78 416 86 C408 94 402 106 400 118 C394 120 386 120 380 118 Z" fill="#A08A6A"/>
  <path d="M398 116 C400 94 412 74 432 64 C440 68 444 78 440 88 C430 94 424 104 422 116 C430 106 442 100 454 102 C458 110 456 120 448 126 C436 130 426 138 420 148 C412 144 402 132 398 116 Z" fill="#B4A083"/>
  <!-- tail nub -->
  <path d="M80 274 C68 270 58 274 56 282 C60 290 72 294 84 290 C86 284 84 278 80 274 Z" fill="#A08A6A"/>
  <!-- body: long, deep-chested, slight shoulder hump -->
  <path d="M88 296 C82 258 100 224 136 206 C176 186 226 180 272 188 C308 194 336 208 352 230 C364 248 366 270 358 290 C352 308 346 326 344 346 C340 372 328 392 306 402 C274 416 232 414 196 402 C144 384 100 348 88 296 Z" fill="#C9B393"/>
  <!-- back shading -->
  <path d="M136 212 C180 192 234 186 280 194 C310 200 334 212 348 230 C326 218 296 210 262 208 C216 206 170 212 140 226 C134 222 132 216 136 212 Z" fill="#A08A6A"/>
  <!-- haunch -->
  <path d="M104 308 C96 274 110 240 140 226 C168 214 198 222 214 246 C228 268 228 296 214 320 C198 346 168 358 140 350 C122 344 110 328 104 308 Z" fill="#B7A081" opacity="0.8"/>
  <!-- belly light -->
  <path d="M170 380 C210 396 256 398 296 388 C280 404 250 412 218 408 C198 406 182 396 170 380 Z" fill="#E0D0B0"/>
  <!-- neck: strong, rising to head -->
  <path d="M316 218 C320 184 338 156 366 142 C386 132 408 132 424 142 C436 152 442 166 440 180 C438 198 428 212 412 220 C400 226 388 228 378 226 C366 244 348 248 334 240 C324 234 318 226 316 218 Z" fill="#C9B393"/>
  <!-- neck shag/dewlap -->
  <path d="M330 236 L322 256 L340 248 L336 268 L354 256 L354 274 L368 260 L374 274 L380 256 C364 252 344 246 330 236 Z" fill="#A08A6A"/>
  <!-- head: long noble muzzle, held high -->
  <path d="M398 140 C416 128 440 126 458 136 C472 144 478 156 476 168 C484 172 488 178 488 184 C484 190 477 192 469 191 C463 200 452 206 438 206 C418 206 402 196 394 180 C390 166 392 152 398 140 Z" fill="#C9B393"/>
  <!-- ears: rooted at skull sides below antlers -->
  <path d="M380 134 C366 126 352 126 342 134 C348 146 360 152 374 150 C378 146 380 140 380 134 Z" fill="#A08A6A"/>
  <path d="M376 136 C366 130 356 130 349 136 C354 143 362 147 372 145 C375 142 376 139 376 136 Z" fill="#E0D0B0"/>
  <!-- muzzle light + nose -->
  <path d="M442 168 C454 166 466 170 474 178 C480 182 484 184 487 185 C483 190 477 191 470 190 C460 196 448 196 440 190 Z" fill="#E0D0B0"/>
  <ellipse cx="483" cy="183" rx="8" ry="6" fill="#211B14"/>
  <!-- brow + calm dark eye -->
  <path d="M408 148 C418 142 430 141 440 145 L436 155 C429 151 420 152 412 156 Z" fill="#7C6A4E"/>
  <circle cx="424" cy="162" r="10" fill="#3A2E20"/>
  <circle cx="427" cy="159" r="2.5" fill="#F6EBD3"/>
  <!-- far legs -->
  <path d="M150 350 C144 386 144 424 150 452 L172 452 C178 424 178 386 172 352 Z" fill="#8A754F"/>
  <path d="M296 358 C290 392 288 428 294 456 L316 456 C322 428 322 392 316 360 Z" fill="#8A754F"/>
  <!-- near hind leg: angular -->
  <path d="M126 336 C118 362 118 390 126 414 C130 430 128 446 122 458 L148 462 C156 446 158 428 154 410 C160 386 158 360 150 338 C142 332 132 332 126 336 Z" fill="#B7A081"/>
  <path d="M120 456 C118 466 124 472 136 473 C146 474 153 470 154 462 C154 457 151 454 147 452 L136 456 L126 450 C122 451 120 453 120 456 Z" fill="#6E5E42"/>
  <!-- near front leg: long, slim, hoofed -->
  <path d="M330 358 C324 392 322 426 326 454 C328 462 334 466 342 466 L360 464 C366 438 366 400 360 366 C350 356 338 354 330 358 Z" fill="#B7A081"/>
  <path d="M324 456 C322 466 328 472 340 473 C350 474 357 470 358 462 C358 457 355 454 351 452 L340 456 L330 450 C326 451 324 453 324 456 Z" fill="#6E5E42"/>
</svg>
