<svg xmlns="http://www.w3.org/2000/svg" viewBox="0 0 512 512" width="512" height="512">
  <!-- Giant elk, side view facing right. Vanilla deer proportions: slim 3:1 body, long thin legs, small head on a real neck. -->
  <!-- far legs (darker) -->
  <path d="M168 320 C162 328 160 346 164 362 C158 380 156 402 160 424 C162 446 166 460 170 470 L186 470 C190 458 190 440 186 424 C190 402 190 380 186 362 C190 346 188 330 182 320 Z" fill="#8A7558"/>
  <path d="M296 322 C290 332 288 350 292 366 C288 386 288 410 292 432 C294 452 298 466 302 474 L318 474 C322 462 322 444 318 428 C322 406 322 382 318 364 C322 348 320 332 314 322 Z" fill="#8A7558"/>
  <!-- body: long slim lozenge -->
  <path d="M96 246 C104 226 128 214 162 210 C214 204 282 204 336 210 C368 214 390 224 398 240 C404 252 404 266 398 280 C390 300 376 314 354 320 C300 334 180 334 134 322 C108 314 94 298 90 278 C88 266 90 254 96 246 Z" fill="#B4A083"/>
  <!-- back shading -->
  <path d="M110 234 C140 220 200 214 260 214 C200 218 150 226 118 244 C112 248 108 252 106 256 C104 248 106 240 110 234 Z" fill="#A08A6A"/>
  <!-- pale rump patch -->
  <path d="M96 248 C106 232 126 222 150 220 C140 244 136 274 140 302 C124 298 108 288 98 274 C92 264 92 256 96 248 Z" fill="#E0D0B0"/>
  <!-- tail nub -->
  <path d="M92 246 C84 244 78 248 76 256 C76 264 82 270 90 270 C96 264 96 254 92 246 Z" fill="#C9B393"/>
  <!-- belly strip -->
  <path d="M150 322 C210 332 300 332 344 322 C326 334 280 340 222 338 C190 336 166 330 150 322 Z" fill="#E0D0B0"/>
  <!-- shoulder shading -->
  <path d="M330 222 C354 224 374 232 384 244 C392 256 392 270 384 282 C372 296 354 304 334 304 C322 280 322 248 330 222 Z" fill="#A08A6A" opacity="0.65"/>
  <!-- neck: thin diagonal -->
  <path d="M362 236 C374 212 392 184 412 160 C422 148 434 142 446 144 C458 148 464 158 462 170 C458 192 448 216 434 238 C424 254 408 262 390 260 C376 258 366 250 362 236 Z" fill="#B4A083"/>
  <path d="M376 232 C386 210 400 188 416 168 C408 192 396 218 382 240 Z" fill="#A08A6A"/>
  <!-- head: small, wedge muzzle -->
  <path d="M428 134 C440 122 456 116 472 120 C486 124 494 132 496 142 C502 146 506 150 506 156 C502 161 496 163 489 162 C484 172 474 178 460 179 C444 180 430 172 424 158 C422 149 424 140 428 134 Z" fill="#B4A083"/>
  <!-- muzzle + nose -->
  <path d="M468 142 C478 142 487 146 493 152 C498 154 502 156 505 156 C501 161 495 163 489 161 C480 166 470 165 464 160 Z" fill="#7C6A4E"/>
  <ellipse cx="501" cy="153" rx="6" ry="5" fill="#3A2E20"/>
  <!-- eye -->
  <circle cx="453" cy="142" r="8" fill="#211B14"/>
  <circle cx="456" cy="139" r="2" fill="#F6EBD3"/>
  <!-- ear: rooted at skull, swept back -->
  <path d="M430 132 C418 122 410 110 408 96 C420 96 432 104 438 116 C436 122 433 128 430 132 Z" fill="#A08A6A"/>
  <path d="M428 126 C420 119 415 110 414 102 C422 104 429 110 433 118 Z" fill="#C9B393"/>
  <!-- antlers: airy sweeping beams with tines, from skull -->
  <path d="M444 122 C432 104 414 86 392 74 C366 60 338 54 312 58 L314 66 C338 64 362 70 384 82 L362 80 L368 92 C386 94 402 102 414 114 L398 116 L408 128 C418 132 428 134 436 132 Z" fill="#8A754F"/>
  <path d="M452 118 C448 96 436 72 418 54 C396 32 368 20 340 20 L340 28 C364 30 386 40 404 58 L384 52 L392 66 C404 76 414 90 420 104 L404 100 L412 116 C424 124 438 126 448 124 Z" fill="#8A754F"/>
  <path d="M352 28 L330 14 L342 32 Z" fill="#8A754F"/>
  <path d="M322 64 L300 52 L312 68 Z" fill="#8A754F"/>
  <!-- antler shading -->
  <path d="M446 116 C440 96 428 74 412 58 C424 74 434 96 440 118 Z" fill="#6E5E42"/>
  <!-- near hind leg: thigh, hock bend, thin shank -->
  <path d="M112 296 C104 318 102 340 108 358 C102 376 102 398 108 420 C110 444 114 462 120 474 L142 474 C146 462 146 444 142 428 C148 406 148 380 142 360 C148 342 146 324 138 310 C130 300 120 296 112 296 Z" fill="#A08A6A"/>
  <path d="M116 470 L144 470 L144 482 C144 486 140 488 134 488 L126 488 C120 488 116 486 116 482 Z" fill="#3A2E20"/>
  <!-- near front leg: straight, thin, knee joint -->
  <path d="M338 306 C330 328 328 352 332 372 C328 392 328 416 332 438 C334 456 338 468 342 476 L362 476 C366 464 366 446 362 430 C366 408 366 384 362 366 C366 348 364 330 356 316 C350 308 344 304 338 306 Z" fill="#A08A6A"/>
  <path d="M338 472 L364 472 L364 484 C364 488 360 490 354 490 L348 490 C342 490 338 488 338 484 Z" fill="#3A2E20"/>
</svg>
