<svg xmlns="http://www.w3.org/2000/svg" viewBox="0 0 512 512" width="512" height="512">
  <!-- Giant elk, back view: antler crown from behind, slim hindquarters, pale rump patch. -->
  <!-- antlers from behind -->
  <path d="M210 118 C178 110 152 90 140 60 C130 36 132 16 142 6 C152 10 158 20 158 32 C154 44 158 56 166 64 C162 48 166 32 176 22 C184 26 188 36 186 46 C180 56 180 68 186 78 C188 62 196 50 208 44 C214 50 216 60 212 68 C204 78 200 92 202 106 C206 112 208 116 210 118 Z" fill="#8A754F"/>
  <path d="M302 118 C334 110 360 90 372 60 C382 36 380 16 370 6 C360 10 354 20 354 32 C358 44 354 56 346 64 C350 48 346 32 336 22 C328 26 324 36 326 46 C332 56 332 68 326 78 C324 62 316 50 304 44 C298 50 296 60 300 68 C308 78 312 92 310 106 C306 112 304 116 302 118 Z" fill="#8A754F"/>
  <!-- ears poking out -->
  <path d="M186 140 C168 132 150 134 138 146 C146 160 164 166 182 160 C185 154 186 146 186 140 Z" fill="#8A754F"/>
  <path d="M326 140 C344 132 362 134 374 146 C366 160 348 166 330 160 C327 154 326 146 326 140 Z" fill="#8A754F"/>
  <!-- head back -->
  <path d="M256 106 C290 106 314 126 320 158 C326 190 314 222 292 246 C280 259 268 266 256 266 C244 266 232 259 220 246 C198 222 186 190 192 158 C198 126 222 106 256 106 Z" fill="#C9B393"/>
  <path d="M214 128 C226 116 240 110 256 110 C272 110 286 116 298 128 C308 138 314 152 316 166 C296 144 216 144 196 166 C198 152 204 138 214 128 Z" fill="#A08A6A"/>
  <!-- body: shoulders to slim hindquarters -->
  <path d="M256 236 C304 236 342 264 356 310 C368 352 358 396 326 424 C306 442 280 450 256 450 C232 450 206 442 186 424 C154 396 144 352 156 310 C170 264 208 236 256 236 Z" fill="#C9B393"/>
  <!-- spine line + back shading -->
  <path d="M176 296 C200 268 228 254 256 254 C284 254 312 268 336 296 C310 280 282 272 256 272 C230 272 202 280 176 296 Z" fill="#A08A6A"/>
  <path d="M252 270 L260 270 L258 400 L254 400 Z" fill="#A08A6A"/>
  <!-- pale rump patch with tail nub -->
  <path d="M256 360 C284 360 306 378 310 404 C313 428 300 446 278 452 L234 452 C212 446 199 428 202 404 C206 378 228 360 256 360 Z" fill="#E0D0B0"/>
  <path d="M256 408 C266 408 274 414 274 422 C274 430 266 436 256 436 C246 436 238 430 238 422 C238 414 246 408 256 408 Z" fill="#A08A6A"/>
  <!-- hind hooves peeking -->
  <path d="M196 446 C194 458 202 464 214 465 C224 466 232 461 233 453 C233 449 230 446 226 444 L214 448 L203 442 C199 443 197 444 196 446 Z" fill="#6E5E42"/>
  <path d="M316 446 C318 458 310 464 298 465 C288 466 280 461 279 453 C279 449 282 446 286 444 L298 448 L309 442 C313 443 315 444 316 446 Z" fill="#6E5E42"/>
</svg>
