<svg xmlns="http://www.w3.org/2000/svg" viewBox="0 0 512 512" width="512" height="512">
  <!-- Dire wolf, back view: slim frame, shaggy shoulders, bushy tail hanging full length. -->
  <!-- ears (backs) -->
  <path d="M206 114 C194 84 196 52 214 30 C228 38 236 56 236 78 C226 90 214 102 206 114 Z" fill="#3C3E46"/>
  <path d="M306 114 C318 84 316 52 298 30 C284 38 276 56 276 78 C286 90 298 102 306 114 Z" fill="#3C3E46"/>
  <!-- head back -->
  <path d="M256 82 C290 82 316 102 322 134 C328 164 316 194 292 210 C280 218 268 222 256 222 C244 222 232 218 220 210 C196 194 184 164 190 134 C196 102 222 82 256 82 Z" fill="#62646E"/>
  <path d="M216 104 C228 92 242 86 256 86 C270 86 284 92 296 104 C304 112 310 124 312 136 C292 118 220 118 200 136 C202 124 208 112 216 104 Z" fill="#474952"/>
  <!-- body: slim, shoulders to narrow hips -->
  <path d="M256 198 C294 198 324 218 336 254 C348 290 344 334 326 370 C314 394 296 410 276 418 L236 418 C216 410 198 394 186 370 C168 334 164 290 176 254 C188 218 218 198 256 198 Z" fill="#62646E"/>
  <!-- shoulder shag -->
  <path d="M196 240 L210 226 L222 240 L238 226 L250 240 L264 226 L278 240 L292 226 L306 240 L316 228 C324 246 326 264 322 282 C300 264 212 264 190 282 C186 264 188 246 196 240 Z" fill="#474952"/>
  <!-- spine line -->
  <path d="M252 286 L260 286 L258 360 L254 360 Z" fill="#474952"/>
  <!-- bushy tail: hangs center, full, jagged tip -->
  <path d="M256 348 C240 354 230 372 228 396 C226 416 232 434 244 444 L242 428 L252 440 L252 424 L262 438 L264 422 L274 434 L272 416 L280 424 L276 402 C274 378 268 358 256 348 Z" fill="#474952"/>
  <!-- haunches: slim -->
  <path d="M196 382 C188 402 192 424 208 434 C220 442 234 438 242 426 C236 408 224 392 208 384 C204 382 200 382 196 382 Z" fill="#54565F"/>
  <path d="M316 382 C324 402 320 424 304 434 C292 442 278 438 270 426 C276 408 288 392 304 384 C308 382 312 382 316 382 Z" fill="#54565F"/>
  <!-- hind paws -->
  <path d="M204 432 C202 442 208 448 219 449 C228 450 235 446 236 438 C236 434 233 431 229 430 L222 436 L214 429 L206 432 Z" fill="#3C3E46"/>
  <path d="M308 432 C310 442 304 448 293 449 C284 450 277 446 276 438 C276 434 279 431 283 430 L290 436 L298 429 L306 432 Z" fill="#3C3E46"/>
</svg>
