<svg xmlns="http://www.w3.org/2000/svg" viewBox="0 0 512 512" width="512" height="512">
  <!-- Owlbear, front view: bear-narrow frame (vanilla grizzly south is tall, not wide), owl face, feather bib. -->
  <!-- ear tufts: rooted to skull crown -->
  <path d="M212 110 C200 86 198 58 210 36 C220 40 226 52 226 68 C220 82 215 96 212 110 Z" fill="#7C5530"/>
  <path d="M300 110 C312 86 314 58 302 36 C292 40 286 52 286 68 C292 82 297 96 300 110 Z" fill="#7C5530"/>
  <path d="M215 100 C207 82 206 62 213 48 C219 52 223 62 223 74 C219 82 216 92 215 100 Z" fill="#9C7042"/>
  <path d="M297 100 C305 82 306 62 299 48 C293 52 289 62 289 74 C293 82 296 92 297 100 Z" fill="#9C7042"/>
  <!-- head: round owl skull -->
  <path d="M256 84 C292 84 320 108 324 142 C328 174 314 204 288 218 C278 224 267 227 256 227 C245 227 234 224 224 218 C198 204 184 174 188 142 C192 108 220 84 256 84 Z" fill="#9C7042"/>
  <!-- facial disc: pale heart shape -->
  <path d="M256 104 C280 104 298 118 302 140 C306 162 298 184 282 198 C274 205 265 208 256 208 C247 208 238 205 230 198 C214 184 206 162 210 140 C214 118 232 104 256 104 Z" fill="#E5D2A8"/>
  <!-- brow ridges -->
  <path d="M214 134 C226 122 242 118 254 124 L252 136 C242 131 230 134 220 142 Z" fill="#5C4226"/>
  <path d="M298 134 C286 122 270 118 258 124 L260 136 C270 131 282 134 292 142 Z" fill="#5C4226"/>
  <!-- big owl eyes -->
  <circle cx="230" cy="152" r="16" fill="#E09A22"/>
  <circle cx="282" cy="152" r="16" fill="#E09A22"/>
  <circle cx="231" cy="155" r="7.5" fill="#211B14"/>
  <circle cx="281" cy="155" r="7.5" fill="#211B14"/>
  <circle cx="234" cy="149" r="2.6" fill="#F6EBD3"/>
  <circle cx="284" cy="149" r="2.6" fill="#F6EBD3"/>
  <!-- beak: down-hooked wedge -->
  <path d="M256 158 C264 158 270 164 270 172 C270 186 264 200 256 210 C248 200 242 186 242 172 C242 164 248 158 256 158 Z" fill="#5C4226"/>
  <path d="M256 188 C259 194 258 201 254 206 C251 201 250 194 252 189 Z" fill="#3F3328"/>
  <!-- body: bear frame — broad shoulders tapering, but tall not round -->
  <path d="M256 206 C298 206 330 228 342 266 C354 304 350 350 332 386 C320 410 302 426 280 432 L232 432 C210 426 192 410 180 386 C162 350 158 304 170 266 C182 228 214 206 256 206 Z" fill="#9C7042"/>
  <!-- shoulder shading -->
  <path d="M256 214 C286 214 310 230 322 258 C302 240 210 240 190 258 C202 230 226 214 256 214 Z" fill="#7C5530"/>
  <!-- feather bib: layered vee rows -->
  <path d="M210 248 L226 264 L242 248 L256 266 L270 248 L286 264 L302 248 C312 266 316 288 310 310 L290 296 L272 312 L256 298 L240 312 L222 296 L202 310 C196 288 200 266 210 248 Z" fill="#E5D2A8"/>
  <path d="M224 316 L240 332 L256 318 L272 332 L288 316 C292 336 286 356 272 368 L240 368 C226 356 220 336 224 316 Z" fill="#B08350"/>
  <!-- front legs: thick columns -->
  <path d="M212 378 C202 402 200 432 204 458 C206 468 212 474 222 474 L240 474 C246 450 247 418 242 392 C236 376 224 370 212 378 Z" fill="#86603A"/>
  <path d="M300 378 C310 402 312 432 308 458 C306 468 300 474 290 474 L272 474 C266 450 265 418 270 392 C276 376 288 370 300 378 Z" fill="#86603A"/>
  <!-- paws with claws -->
  <path d="M198 466 C196 477 204 484 218 485 L236 485 C244 484 248 478 247 470 L238 473 L235 462 L226 471 L221 461 L212 469 L206 461 L199 466 Z" fill="#6B5640"/>
  <path d="M314 466 C316 477 308 484 294 485 L276 485 C268 484 264 478 265 470 L274 473 L277 462 L286 471 L291 461 L300 469 L306 461 L313 466 Z" fill="#6B5640"/>
  <path d="M216 478 L220 490 L225 478 Z" fill="#3F3328"/>
  <path d="M230 479 L234 491 L239 479 Z" fill="#3F3328"/>
  <path d="M287 478 L291 490 L296 478 Z" fill="#3F3328"/>
  <path d="M273 479 L277 491 L282 479 Z" fill="#3F3328"/>
  <!-- hind paws peeking behind -->
  <ellipse cx="188" cy="452" rx="17" ry="10" fill="#6E4C2B"/>
  <ellipse cx="324" cy="452" rx="17" ry="10" fill="#6E4C2B"/>
</svg>
