<svg xmlns="http://www.w3.org/2000/svg" viewBox="0 0 448 192" width="448" height="192">
  <!-- Heroic Forge (back): counter back, chimney, rack backs, faint forge glow over the top. -->
  <rect x="22" y="96" width="404" height="58" rx="5" fill="#4C4C54"/>
  <rect x="22" y="150" width="404" height="28" rx="4" fill="#303038"/>
  <rect x="22" y="96" width="404" height="8" rx="4" fill="#5C5C68"/>
  <path d="M28 104 L420 104" stroke="#3A3A42" stroke-width="2"/>

  <!-- anvil block from behind -->
  <rect x="52" y="92" width="50" height="12" rx="2" fill="#44444C"/>
  <path d="M58 92 L96 92 L94 104 L60 104 Z" fill="#33333A"/>

  <!-- chimney + faint glow over the forge top -->
  <ellipse cx="244" cy="96" rx="50" ry="16" fill="#FF8A2A" opacity="0.16"/>
  <path d="M214 100 L274 100 L260 46 L228 46 Z" fill="#33333A"/>
  <rect x="236" y="22" width="16" height="26" rx="2" fill="#2A2A32"/>
  <rect x="232" y="18" width="24" height="8" rx="2" fill="#3A3A44"/>
  <rect x="190" y="100" width="108" height="46" rx="4" fill="#42404A"/>
  <ellipse cx="244" cy="102" rx="40" ry="10" fill="#7A3A1A"/>

  <!-- rack from behind -->
  <rect x="330" y="86" width="84" height="8" rx="2" fill="#503722"/>
  <rect x="332" y="86" width="8" height="64" fill="#503722"/>
  <rect x="404" y="86" width="8" height="64" fill="#503722"/>
  <rect x="352" y="58" width="6" height="78" fill="#80868C"/>
  <rect x="384" y="60" width="6" height="74" fill="#5A3E22"/>
  <path d="M384 64 L366 70 C362 80 366 90 378 94 L390 88 Z" fill="#80868C"/>
</svg>
