<svg xmlns="http://www.w3.org/2000/svg" viewBox="0 0 256 256" width="256" height="256">
  <!-- Porter gestral, back view (north). -->
  <ellipse cx="128" cy="232" rx="58" ry="12" fill="#000000" opacity="0.18"/>
  <!-- ears -->
  <path d="M86 78 C70 38 84 18 100 14 C108 36 106 62 100 82 Z" fill="#8F7348"/>
  <path d="M170 78 C186 38 172 18 156 14 C148 36 150 62 156 82 Z" fill="#8F7348"/>
  <path d="M90 74 C80 44 88 28 98 22 C103 40 102 60 98 76 Z" fill="#A98B5E"/>
  <path d="M166 74 C176 44 168 28 158 22 C153 40 154 60 158 76 Z" fill="#A98B5E"/>
  <!-- body -->
  <ellipse cx="128" cy="160" rx="74" ry="72" fill="#A98B5E"/>
  <!-- back shading -->
  <ellipse cx="128" cy="150" rx="58" ry="50" fill="#9B7F54"/>
  <!-- head (no face) -->
  <circle cx="128" cy="92" r="52" fill="#B3956A"/>
  <ellipse cx="128" cy="70" rx="36" ry="22" fill="#D8C194" opacity="0.45"/>
  <!-- head back stripe -->
  <path d="M110 56 Q128 48 146 56 L142 96 Q128 104 114 96 Z" fill="#9B7F54"/>
  <!-- satchel back panel + crossed straps -->
  <rect x="92" y="138" width="72" height="58" rx="12" fill="#5E4226"/>
  <rect x="92" y="138" width="72" height="20" rx="10" fill="#74522F"/>
  <path d="M86 130 L172 206" stroke="#8A6A43" stroke-width="12" stroke-linecap="round"/>
  <path d="M170 130 L84 206" stroke="#8A6A43" stroke-width="12" stroke-linecap="round"/>
  <!-- tail nub -->
  <circle cx="128" cy="222" r="13" fill="#8F7348"/>
  <!-- feet -->
  <ellipse cx="96" cy="226" rx="20" ry="12" fill="#7A6243"/>
  <ellipse cx="160" cy="226" rx="20" ry="12" fill="#7A6243"/>
</svg>
