<svg xmlns="http://www.w3.org/2000/svg" viewBox="0 0 64 64" width="64" height="64">
<defs>
<radialGradient id="aocGlow" cx="0.5" cy="0.45" r="0.6">
<stop offset="0" stop-color="#FFF3C0"/>
<stop offset="1" stop-color="#E89A1F"/>
</radialGradient>
</defs>
<g stroke="#F6C64A" stroke-width="3.5" stroke-linecap="round">
<line x1="32" y1="4" x2="32" y2="12"/>
<line x1="32" y1="52" x2="32" y2="60"/>
<line x1="4" y1="32" x2="12" y2="32"/>
<line x1="52" y1="32" x2="60" y2="32"/>
<line x1="12" y1="12" x2="17" y2="17"/>
<line x1="47" y1="47" x2="52" y2="52"/>
<line x1="52" y1="12" x2="47" y2="17"/>
<line x1="17" y1="47" x2="12" y2="52"/>
</g>
<path d="M32 16 C24 22 22 30 32 48 C42 30 40 22 32 16 Z" fill="url(#aocGlow)" stroke-linejoin="round"/>
<path d="M32 24 C28 28 28 34 32 42 C36 34 36 28 32 24 Z" fill="#FFF0B0" stroke-linejoin="round"/>
</svg>
