<svg xmlns="http://www.w3.org/2000/svg" viewBox="0 0 64 64" width="64" height="64">
  <defs>
    <radialGradient id="rageBurst" cx="50%" cy="45%" r="60%">
      <stop offset="0%" stop-color="#ffd24a"/>
      <stop offset="45%" stop-color="#ff7a1a"/>
      <stop offset="100%" stop-color="#9c1b0c"/>
    </radialGradient>
    <linearGradient id="rageFist" x1="0" y1="0" x2="0" y2="1">
      <stop offset="0%" stop-color="#ff6b4a"/>
      <stop offset="100%" stop-color="#a31507"/>
    </linearGradient>
  </defs>
  <g stroke-linecap="round" stroke-linejoin="round">
    <path d="M32 3 L39 18 L54 12 L46 27 L61 32 L46 37 L54 52 L39 46 L32 61 L25 46 L10 52 L18 37 L3 32 L18 27 L10 12 L25 18 Z" fill="url(#rageBurst)"/>
    <circle cx="32" cy="32" r="17" fill="url(#rageBurst)"/>
    <path d="M22 36 q-1 -9 4 -10 q1 -4 5 -2 q1 -4 5 -2 q4 0 4 5 l1 9 q1 7 -5 9 q-9 3 -14 -2 q-1 -3 0 -7 Z" fill="url(#rageFist)"/>
    <path d="M22 33 q4 -3 8 -2 M24 28 q5 -2 9 -1 M26 24 q4 -2 8 -1" fill="none" stroke="#5e0f04" stroke-width="2"/>
    <path d="M26 22 q3 -2 6 -1" fill="none" stroke="#ffd9a0" stroke-width="1.6"/>
  </g>
</svg>
