<svg xmlns="http://www.w3.org/2000/svg" viewBox="0 0 64 64" width="64" height="64">
  <defs>
    <linearGradient id="ms_body" x1="0" y1="0" x2="1" y2="0">
      <stop offset="0%" stop-color="#B7A9E8"/>
      <stop offset="60%" stop-color="#8E7BD0"/>
      <stop offset="100%" stop-color="#D8CFF2" stop-opacity="0.2"/>
    </linearGradient>
    <radialGradient id="ms_glow" cx="0.4" cy="0.45">
      <stop offset="0%" stop-color="#EDE7FB" stop-opacity="0.7"/>
      <stop offset="100%" stop-color="#B7A9E8" stop-opacity="0"/>
    </radialGradient>
  </defs>
  <!-- soft glow -->
  <circle cx="28" cy="32" r="28" fill="url(#ms_glow)"/>
  <!-- solid humanoid silhouette (left), dissolving right edge -->
  <g fill="url(#ms_body)" stroke-linejoin="round">
    <circle cx="24" cy="16" r="8"/>
    <path d="M14 30 C14 24 18 22 24 22 C30 22 34 24 34 30 L34 44 C34 47 31 49 28 49 L27 58 L22 58 L21 49 C17 49 14 47 14 44 Z"/>
  </g>
  <!-- mist wisps curling off the right side -->
  <path d="M34 24 Q44 21 42 30 Q53 27 49 36 Q58 35 52 43" fill="none" stroke="#E4DCF7" stroke-width="3.2" stroke-linecap="round"/>
  <path d="M33 38 Q43 36 40 44 Q50 43 45 51" fill="none" stroke="#CFC2EF" stroke-width="2.8" stroke-linecap="round"/>
  <path d="M36 16 Q45 15 41 22" fill="none" stroke="#EDE7FB" stroke-width="2.4" stroke-linecap="round"/>
  <!-- drifting mist puffs -->
  <circle cx="47" cy="24" r="2.4" fill="#EDE7FB" fill-opacity="0.85"/>
  <circle cx="54" cy="33" r="2" fill="#DCD2F4" fill-opacity="0.8"/>
  <circle cx="51" cy="48" r="2.6" fill="#CFC2EF" fill-opacity="0.7"/>
  <circle cx="44" cy="54" r="1.8" fill="#E4DCF7" fill-opacity="0.7"/>
</svg>
