<svg xmlns="http://www.w3.org/2000/svg" viewBox="0 0 64 64" width="64" height="64">
  <defs>
    <radialGradient id="bugG" cx="0.5" cy="0.4" r="0.7">
      <stop offset="0" stop-color="#B7E04A"/>
      <stop offset="1" stop-color="#5E7A1E"/>
    </radialGradient>
  </defs>
  <g stroke="#3E5214" stroke-width="2.2" stroke-linecap="round">
    <!-- bug 1 -->
    <g transform="translate(22 24)">
      <line x1="-8" y1="-6" x2="-2" y2="-2"/><line x1="8" y1="-6" x2="2" y2="-2"/>
      <line x1="-9" y1="2" x2="-2" y2="2"/><line x1="9" y1="2" x2="2" y2="2"/>
      <ellipse cx="0" cy="0" rx="6" ry="9" fill="url(#bugG)"/>
      <line x1="0" y1="-9" x2="0" y2="9" stroke="#3E5214" stroke-width="1.4"/>
    </g>
    <!-- bug 2 -->
    <g transform="translate(44 38)">
      <line x1="-8" y1="-6" x2="-2" y2="-2"/><line x1="8" y1="-6" x2="2" y2="-2"/>
      <line x1="-9" y1="2" x2="-2" y2="2"/><line x1="9" y1="2" x2="2" y2="2"/>
      <ellipse cx="0" cy="0" rx="6" ry="9" fill="url(#bugG)"/>
      <line x1="0" y1="-9" x2="0" y2="9" stroke="#3E5214" stroke-width="1.4"/>
    </g>
    <!-- bug 3 -->
    <g transform="translate(28 48) scale(0.8)">
      <line x1="-8" y1="-6" x2="-2" y2="-2"/><line x1="8" y1="-6" x2="2" y2="-2"/>
      <line x1="-9" y1="2" x2="-2" y2="2"/><line x1="9" y1="2" x2="2" y2="2"/>
      <ellipse cx="0" cy="0" rx="6" ry="9" fill="url(#bugG)"/>
      <line x1="0" y1="-9" x2="0" y2="9" stroke="#3E5214" stroke-width="1.4"/>
    </g>
  </g>
</svg>
