<svg xmlns="http://www.w3.org/2000/svg" viewBox="0 0 64 64" width="64" height="64">
  <defs>
    <linearGradient id="windFig" x1="0" y1="0" x2="1" y2="1">
      <stop offset="0%" stop-color="#eafbff"/>
      <stop offset="100%" stop-color="#2bb6b0"/>
    </linearGradient>
    <linearGradient id="windStreak" x1="0" y1="0" x2="1" y2="0">
      <stop offset="0%" stop-color="#bff5f0" stop-opacity="0"/>
      <stop offset="100%" stop-color="#5fe0d6"/>
    </linearGradient>
  </defs>
  <g stroke-linecap="round" stroke-linejoin="round">
    <path d="M4 22 q14 -4 28 0 M2 32 q16 -4 30 0 M6 42 q12 -3 24 0" fill="none" stroke="url(#windStreak)" stroke-width="5"/>
    <g fill="url(#windFig)">
      <circle cx="40" cy="16" r="6"/>
      <path d="M40 22 q8 2 11 10 l-4 4 q-4 -6 -9 -6 l-5 12 q-2 5 -8 7 l-2 -4 q5 -2 6 -7 l4 -13 q1 -3 3 -3 Z"/>
      <path d="M36 31 q-7 1 -12 8 l4 4 q5 -6 11 -5 Z"/>
    </g>
    <path d="M48 8 q9 -3 14 2 M50 14 q8 -2 12 2" fill="none" stroke="#9af0e8" stroke-width="3"/>
  </g>
</svg>
