<svg xmlns="http://www.w3.org/2000/svg" viewBox="0 0 64 64" width="64" height="64">
  <defs>
    <radialGradient id="ttd_glow" cx="0.5" cy="0.45">
      <stop offset="0%" stop-color="#9CFFB0" stop-opacity="0.55"/>
      <stop offset="100%" stop-color="#2E5A38" stop-opacity="0"/>
    </radialGradient>
    <linearGradient id="ttd_bell" x1="0" y1="0" x2="0" y2="1">
      <stop offset="0%" stop-color="#BFE9C4"/>
      <stop offset="45%" stop-color="#6FAE78"/>
      <stop offset="100%" stop-color="#33623C"/>
    </linearGradient>
  </defs>
  <circle cx="32" cy="30" r="29" fill="url(#ttd_glow)"/>
  <circle cx="32" cy="30" r="24" fill="none" stroke="#7FD191" stroke-width="1.6" stroke-opacity="0.45"/>
  <circle cx="32" cy="30" r="29" fill="none" stroke="#7FD191" stroke-width="1.2" stroke-opacity="0.25"/>
  <!-- bell crown -->
  <rect x="29" y="9" width="6" height="6" rx="2.5" fill="#88C091"/>
  <!-- bell body -->
  <path d="M32 13 C24 14 19 22 18 35 C17 41 15 43 13 45 L51 45 C49 43 47 41 46 35 C45 22 40 14 32 13 Z"
        fill="url(#ttd_bell)" stroke-linejoin="round"/>
  <!-- bell rim -->
  <path d="M12 45 Q32 51 52 45 L52 49 Q32 55 12 49 Z" fill="#3F7548" stroke-linejoin="round"/>
  <!-- clapper -->
  <circle cx="32" cy="50" r="4" fill="#D8F2DC"/>
  <!-- tiny skull on bell face -->
  <circle cx="32" cy="31" r="6.5" fill="#E7F6E9"/>
  <circle cx="29.4" cy="30.5" r="1.7" fill="#33623C"/>
  <circle cx="34.6" cy="30.5" r="1.7" fill="#33623C"/>
  <path d="M30 35 L31 38 M32 35 L32 38.5 M34 35 L33 38" stroke="#33623C" stroke-width="1.1" stroke-linecap="round"/>
</svg>
