<svg xmlns="http://www.w3.org/2000/svg" viewBox="0 0 64 64" width="64" height="64">
  <defs>
    <linearGradient id="spwBlade" x1="0" y1="0" x2="1" y2="1">
      <stop offset="0%" stop-color="#EAF6FF"/>
      <stop offset="55%" stop-color="#8FC7F0"/>
      <stop offset="100%" stop-color="#3E78B8"/>
    </linearGradient>
  </defs>
  <!-- spectral force blade, point up -->
  <path d="M32 4 L40 30 L32 38 L24 30 Z" fill="url(#spwBlade)" opacity="0.95"/>
  <!-- crossguard -->
  <path d="M16 40 L48 40 L44 46 L20 46 Z" fill="#6FA8D8"/>
  <!-- hilt -->
  <rect x="29" y="46" width="6" height="12" rx="3" fill="#3E78B8"/>
  <circle cx="32" cy="59" r="4" fill="#8FC7F0"/>
  <!-- ghostly trails -->
  <path d="M44 14 C52 18 54 26 50 34 C50 26 48 20 42 18 Z" fill="#A9D6F5" opacity="0.7"/>
  <path d="M20 14 C12 18 10 26 14 34 C14 26 16 20 22 18 Z" fill="#A9D6F5" opacity="0.7"/>
  <!-- highlight -->
  <path d="M32 10 L35 28 L32 32 Z" fill="#FFFFFF" opacity="0.8"/>
</svg>
