<svg xmlns="http://www.w3.org/2000/svg" viewBox="0 0 64 64" width="64" height="64">
<defs>
<radialGradient id="hr_fire" cx="50%" cy="60%" r="60%">
<stop offset="0%" stop-color="#FFE08A"/>
<stop offset="55%" stop-color="#F2632A"/>
<stop offset="100%" stop-color="#8A1410"/>
</radialGradient>
</defs>
<path d="M32 6 C40 18 50 22 46 38 C54 32 54 24 52 20 C58 30 58 46 48 54 C52 46 48 42 46 40 C48 50 40 58 32 58 C24 58 16 50 18 40 C16 44 14 50 18 56 C8 48 8 32 16 22 C16 28 18 32 22 34 C16 22 24 16 32 6 Z" fill="url(#hr_fire)" stroke-linejoin="round"/>
<path d="M32 22 C37 30 40 34 36 44 C42 40 40 34 39 31 C42 38 40 48 32 52 C26 50 24 42 27 36 C29 40 31 41 33 42 C29 34 31 28 32 22 Z" fill="#FFEDB0"/>
</svg>
