<svg xmlns="http://www.w3.org/2000/svg" viewBox="0 0 64 64" width="64" height="64">
<defs>
<radialGradient id="bn_rift" cx="50%" cy="50%" r="50%">
<stop offset="0%" stop-color="#0A0418"/>
<stop offset="70%" stop-color="#3A1C66"/>
<stop offset="100%" stop-color="#8458C8"/>
</radialGradient>
</defs>
<path d="M32 6 C40 18 44 24 44 32 C44 40 40 46 32 58 C24 46 20 40 20 32 C20 24 24 18 32 6 Z" fill="url(#bn_rift)" stroke-linejoin="round"/>
<path d="M32 6 C40 18 44 24 44 32 C44 40 40 46 32 58 C24 46 20 40 20 32 C20 24 24 18 32 6 Z" fill="none" stroke="#B79BEE" stroke-width="2.5" stroke-linejoin="round"/>
<g fill="#D8C6F6">
<circle cx="32" cy="16" r="2"/>
<circle cx="32" cy="32" r="2.6"/>
<circle cx="32" cy="48" r="2"/>
</g>
<path d="M26 32 L38 32 M32 24 L32 40" stroke="#EADDFB" stroke-width="2" stroke-linecap="round"/>
</svg>
