<svg xmlns="http://www.w3.org/2000/svg" viewBox="0 0 64 64" width="64" height="64">
  <defs>
    <linearGradient id="cunningBlade" x1="0" y1="0" x2="1" y2="1">
      <stop offset="0%" stop-color="#eef4f0"/>
      <stop offset="100%" stop-color="#6a8a78"/>
    </linearGradient>
    <linearGradient id="cunningHilt" x1="0" y1="0" x2="1" y2="1">
      <stop offset="0%" stop-color="#7fae93"/>
      <stop offset="100%" stop-color="#3a5247"/>
    </linearGradient>
    <linearGradient id="cunningStreak" x1="0" y1="0" x2="1" y2="0">
      <stop offset="0%" stop-color="#9fc7b2" stop-opacity="0"/>
      <stop offset="100%" stop-color="#6fae8e"/>
    </linearGradient>
  </defs>
  <g stroke-linecap="round" stroke-linejoin="round">
    <path d="M4 20 q14 -3 26 2 M3 30 q16 -3 28 2 M6 41 q12 -3 22 1" fill="none" stroke="url(#cunningStreak)" stroke-width="5"/>
    <path d="M58 8 L34 34 q-3 3 -6 2 l-2 5 8 1 1 -4 q3 1 5 -2 Z" fill="url(#cunningBlade)"/>
    <path d="M33 30 l8 8" fill="none" stroke="#3a5247" stroke-width="2"/>
    <path d="M26 36 l-7 8 q-2 3 1 5 q3 2 5 -1 l7 -8 Z" fill="url(#cunningHilt)"/>
    <path d="M22 47 l-6 6" fill="none" stroke="#3a5247" stroke-width="3"/>
    <path d="M50 12 q5 -2 8 1" fill="none" stroke="#eef4f0" stroke-width="1.6"/>
  </g>
</svg>
