<svg xmlns="http://www.w3.org/2000/svg" viewBox="0 0 64 64" width="64" height="64">
<path d="M12 6 L20 18 L18 12 C24 18 26 24 26 28 L38 28 C38 24 40 18 46 12 L44 18 L52 6 L50 22 C56 28 58 38 50 46 C44 52 36 54 32 54 C28 54 20 52 14 46 C6 38 8 28 14 22 Z" fill="#5A1322"/>
<path d="M20 30 C20 24 26 22 32 22 C38 22 44 24 44 30 C44 40 38 48 32 50 C26 48 20 40 20 30 Z" fill="#9E2436"/>
<path d="M22 32 L29 30 L27 37 Z" fill="#FAC775"/>
<path d="M42 32 L35 30 L37 37 Z" fill="#FAC775"/>
<path d="M25 43 L31 41 L32 44 L33 41 L39 43 L36 47 L32 45 L28 47 Z" fill="#2C0A14"/>
</svg>
