<svg xmlns="http://www.w3.org/2000/svg" viewBox="0 0 64 64" width="64" height="64">
<path d="M14 22 L8 10 L20 16 Z M50 22 L56 10 L44 16 Z" fill="#A8401E"/>
<path d="M16 26 C16 16 24 12 32 12 C40 12 48 16 48 26 C48 36 42 44 32 52 C22 44 16 36 16 26 Z" fill="#D9602E"/>
<path d="M22 50 C18 54 12 56 8 56 C12 50 14 46 18 44 Z M42 50 C46 54 52 56 56 56 C52 50 50 46 46 44 Z" fill="#A8401E"/>
<circle cx="25" cy="28" r="3.5" fill="#FAC775"/>
<circle cx="39" cy="28" r="3.5" fill="#FAC775"/>
<circle cx="25" cy="28" r="1.6" fill="#26215C"/>
<circle cx="39" cy="28" r="1.6" fill="#26215C"/>
<path d="M27 40 L32 46 L37 40 Z" fill="#6E2914"/>
</svg>
