<svg xmlns="http://www.w3.org/2000/svg" viewBox="0 0 64 64" width="64" height="64">
<defs>
<radialGradient id="aoh_void" cx="50%" cy="50%" r="55%">
<stop offset="0%" stop-color="#5A2E7A"/>
<stop offset="100%" stop-color="#1A0A2A"/>
</radialGradient>
</defs>
<g stroke="#3B1C5A" stroke-width="6" fill="none" stroke-linecap="round">
<path d="M32 32 C30 18 22 12 12 8"/>
<path d="M32 32 C44 22 52 22 58 14"/>
<path d="M32 32 C46 36 54 44 56 54"/>
<path d="M32 32 C22 42 16 48 8 52"/>
<path d="M32 32 C34 46 30 54 24 60"/>
</g>
<g stroke="#7A45A8" stroke-width="2.2" fill="none" stroke-linecap="round">
<path d="M32 32 C30 18 22 12 12 8"/>
<path d="M32 32 C44 22 52 22 58 14"/>
<path d="M32 32 C46 36 54 44 56 54"/>
<path d="M32 32 C22 42 16 48 8 52"/>
</g>
<circle cx="32" cy="32" r="9" fill="url(#aoh_void)"/>
</svg>
