<svg xmlns="http://www.w3.org/2000/svg" viewBox="0 0 64 64" width="64" height="64">
  <defs>
    <linearGradient id="flurryFist" x1="0" y1="0" x2="0" y2="1">
      <stop offset="0%" stop-color="#ffd9a0"/>
      <stop offset="100%" stop-color="#a8581f"/>
    </linearGradient>
    <linearGradient id="flurryStreak" x1="0" y1="0" x2="1" y2="0">
      <stop offset="0%" stop-color="#ffba66" stop-opacity="0"/>
      <stop offset="100%" stop-color="#ff8c1a"/>
    </linearGradient>
  </defs>
  <g stroke-linecap="round" stroke-linejoin="round">
    <path d="M6 18 H30 M4 28 H26 M8 50 H30 M6 40 H28" stroke="url(#flurryStreak)" stroke-width="5" fill="none"/>
    <g fill="url(#flurryFist)">
      <path d="M34 14 q-1 -6 4 -7 q1 -3 4 -1 q1 -3 4 -1 q3 0 3 4 l1 6 q1 5 -4 6 q-7 2 -11 -1 q-1 -3 -1 -6 Z"/>
      <path d="M40 44 q-1 -6 4 -7 q1 -3 4 -1 q1 -3 4 -1 q3 0 3 4 l1 6 q1 5 -4 6 q-7 2 -11 -1 q-1 -3 -1 -6 Z"/>
    </g>
    <path d="M37 12 q3 -2 6 -1 M39 8 q3 -1 6 0 M43 46 q3 -2 6 -1 M45 42 q3 -1 6 0" fill="none" stroke="#6e3a10" stroke-width="1.8"/>
    <path d="M56 30 l5 -3 M56 24 l5 -2 M56 36 l5 1" stroke="#ffcf80" stroke-width="3" fill="none"/>
  </g>
</svg>
