<svg xmlns="http://www.w3.org/2000/svg" viewBox="0 0 64 64" width="64" height="64">
  <defs>
    <radialGradient id="pflameG" cx="0.5" cy="0.65" r="0.7">
      <stop offset="0" stop-color="#FFF1A8"/>
      <stop offset="0.5" stop-color="#FF9A2E"/>
      <stop offset="1" stop-color="#C42E12"/>
    </radialGradient>
  </defs>
  <path d="M32 6 C24 18 16 22 16 36 C16 49 24 58 32 58 C40 58 48 49 48 36 C48 24 38 22 38 12 C34 18 30 18 32 6 Z"
        fill="url(#pflameG)" stroke-linejoin="round"/>
  <path d="M32 28 C28 34 25 38 25 44 C25 51 28 54 32 54 C36 54 39 51 39 44 C39 38 36 36 35 31 C34 34 31 34 32 28 Z"
        fill="#FFE680"/>
</svg>
