<svg xmlns="http://www.w3.org/2000/svg" viewBox="0 0 64 64" width="64" height="64">
<defs>
<radialGradient id="hoh_maw" cx="50%" cy="50%" r="50%">
<stop offset="0%" stop-color="#000000"/>
<stop offset="55%" stop-color="#1C0E30"/>
<stop offset="100%" stop-color="#46256E"/>
</radialGradient>
</defs>
<circle cx="32" cy="32" r="26" fill="url(#hoh_maw)"/>
<g fill="#7C4FB0">
<path d="M32 6 L36 20 L28 20 Z"/>
<path d="M58 32 L44 36 L44 28 Z"/>
<path d="M32 58 L28 44 L36 44 Z"/>
<path d="M6 32 L20 28 L20 36 Z"/>
<path d="M50 14 L40 24 L36 18 Z"/>
<path d="M50 50 L40 40 L46 36 Z"/>
<path d="M14 50 L24 40 L28 46 Z"/>
<path d="M14 14 L24 24 L18 28 Z"/>
</g>
<circle cx="32" cy="32" r="11" fill="#000000"/>
<circle cx="28" cy="28" r="3" fill="#5A3A88"/>
</svg>
