<svg xmlns="http://www.w3.org/2000/svg" viewBox="0 0 64 64" width="64" height="64">
  <defs>
    <linearGradient id="bhFlame" x1="0" y1="1" x2="0" y2="0">
      <stop offset="0%" stop-color="#E2581F"/>
      <stop offset="55%" stop-color="#FFB23D"/>
      <stop offset="100%" stop-color="#FFE9A8"/>
    </linearGradient>
  </defs>
  <!-- open palm at base -->
  <path d="M24 58 C22 50 22 46 24 42 L26 42 L26 38 L30 38 L30 40 L34 40 L34 38 L38 38 L38 42 L40 42 C42 46 42 50 40 58 Z"
        fill="#FF8A2A"/>
  <!-- fanned flame jets rising from fingertips -->
  <path d="M22 42 C14 32 12 22 16 12 C18 24 22 30 28 38 Z" fill="url(#bhFlame)"/>
  <path d="M32 40 C30 28 32 16 38 8 C38 22 38 30 40 40 Z" fill="url(#bhFlame)"/>
  <path d="M42 42 C50 32 54 24 52 14 C50 26 46 32 38 40 Z" fill="url(#bhFlame)"/>
  <!-- bright inner cores -->
  <path d="M33 38 C32 30 33 22 36 16 C36 26 36 32 37 38 Z" fill="#FFF3C4" opacity="0.9"/>
</svg>
