<svg xmlns="http://www.w3.org/2000/svg" viewBox="0 0 256 256" width="256" height="256">
  <!-- Porter mim, front view (south). Small round helper critter with leaf-ears + satchel. -->
  <!-- ears (leaf-shaped, tilted out) -->
  <path d="M86 78 C70 38 84 18 100 14 C108 36 106 62 100 82 Z" fill="#8F7348"/>
  <path d="M170 78 C186 38 172 18 156 14 C148 36 150 62 156 82 Z" fill="#8F7348"/>
  <path d="M90 74 C80 44 88 28 98 22 C103 40 102 60 98 76 Z" fill="#A98B5E"/>
  <path d="M166 74 C176 44 168 28 158 22 C153 40 154 60 158 76 Z" fill="#A98B5E"/>
  <!-- body -->
  <ellipse cx="128" cy="160" rx="74" ry="72" fill="#A98B5E"/>
  <!-- belly patch -->
  <ellipse cx="128" cy="178" rx="44" ry="42" fill="#C9AE82"/>
  <!-- head -->
  <circle cx="128" cy="92" r="52" fill="#B3956A"/>
  <!-- top-light -->
  <ellipse cx="118" cy="66" rx="34" ry="20" fill="#D8C194" opacity="0.5"/>
  <!-- face -->
  <circle cx="108" cy="92" r="7" fill="#2E2620"/>
  <circle cx="148" cy="92" r="7" fill="#2E2620"/>
  <circle cx="110.5" cy="89.5" r="2.2" fill="#F5EEDD"/>
  <circle cx="150.5" cy="89.5" r="2.2" fill="#F5EEDD"/>
  <path d="M120 110 Q128 118 136 110" stroke="#5C4A33" stroke-width="4" fill="none" stroke-linecap="round"/>
  <!-- satchel strap (over body, diagonal) -->
  <path d="M78 132 L168 208" stroke="#8A6A43" stroke-width="14" stroke-linecap="round"/>
  <!-- satchel pouch -->
  <rect x="150" y="186" width="52" height="42" rx="10" fill="#5E4226"/>
  <rect x="150" y="186" width="52" height="16" rx="8" fill="#74522F"/>
  <circle cx="176" cy="204" r="5" fill="#C9AE82"/>
  <!-- feet -->
  <ellipse cx="96" cy="226" rx="20" ry="12" fill="#7A6243"/>
  <ellipse cx="160" cy="226" rx="20" ry="12" fill="#7A6243"/>
</svg>
