<svg xmlns="http://www.w3.org/2000/svg" viewBox="0 0 256 256" width="256" height="256">
  <!-- Sweeper mim, side view facing right: broom tail sweeping the ground behind. -->
  <!-- broom tail: arcs up and back, bristles brushing the ground -->
  <path d="M86 170 C50 160 34 120 44 80 C20 122 26 188 74 212 Z" fill="#D9A53C"/>
  <path d="M82 176 C56 164 44 130 50 96 C34 130 40 182 76 204 Z" fill="#C28E2C"/>
  <path d="M48 86 L40 66 M42 110 L28 100 M40 136 L24 132 M44 162 L28 166 M54 186 L42 198" stroke="#8F6A1B" stroke-width="5" stroke-linecap="round" fill="none"/>
  <!-- body -->
  <ellipse cx="124" cy="174" rx="74" ry="58" fill="#B5713E"/>
  <ellipse cx="134" cy="196" rx="44" ry="26" fill="#E8C9A0"/>
  <!-- head -->
  <circle cx="176" cy="104" r="44" fill="#C07C46"/>
  <ellipse cx="168" cy="82" rx="28" ry="15" fill="#D89A63" opacity="0.6"/>
  <!-- ears -->
  <path d="M158 68 C150 38 158 24 172 20 C176 40 174 58 170 70 Z" fill="#8E5630"/>
  <path d="M162 64 C156 42 162 30 170 26 C173 42 172 56 169 64 Z" fill="#D89A63"/>
  <path d="M184 64 C180 38 188 26 200 24 C202 42 198 56 193 66 Z" fill="#8E5630"/>
  <!-- snout -->
  <ellipse cx="212" cy="112" rx="16" ry="12" fill="#D89A63"/>
  <ellipse cx="221" cy="107" rx="5" ry="4" fill="#6E4A2E"/>
  <rect x="206" y="118" width="9" height="8" rx="2" fill="#F5EEDD"/>
  <!-- eye -->
  <circle cx="184" cy="98" r="7" fill="#2E2620"/>
  <circle cx="186.5" cy="95.5" r="2.2" fill="#F5EEDD"/>
  <!-- arm gripping tail-handle -->
  <path d="M138 150 L96 178" stroke="#8A6A43" stroke-width="9" stroke-linecap="round"/>
  <ellipse cx="138" cy="150" rx="11" ry="9" fill="#C07C46"/>
  <!-- legs -->
  <ellipse cx="100" cy="226" rx="17" ry="10" fill="#8E5630"/>
  <ellipse cx="166" cy="228" rx="17" ry="10" fill="#8E5630"/>
</svg>
