<svg xmlns="http://www.w3.org/2000/svg" viewBox="0 0 256 256" width="256" height="256">
  <!-- Vanguard mim, back view: helmet dome, backplate, tower shield slung on back. -->
  <!-- eyes still visible over the helmet from behind -->
  <circle cx="100" cy="52" r="18" fill="#6FA054"/>
  <circle cx="156" cy="52" r="18" fill="#6FA054"/>
  <!-- helmet back -->
  <path d="M72 100 C72 62 184 62 184 100 L180 122 L76 122 Z" fill="#878D93"/>
  <path d="M72 100 C72 70 184 70 184 100 L183 104 L73 104 Z" fill="#9AA2AA"/>
  <!-- pauldrons -->
  <ellipse cx="66" cy="158" rx="26" ry="20" fill="#878D93"/>
  <ellipse cx="190" cy="158" rx="26" ry="20" fill="#878D93"/>
  <!-- body plates -->
  <path d="M76 156 C76 130 180 130 180 156 L176 210 C160 228 96 228 80 210 Z" fill="#7C828A"/>
  <!-- tower shield on the back -->
  <rect x="98" y="124" width="60" height="92" rx="12" fill="#6E767E"/>
  <rect x="104" y="130" width="48" height="80" rx="9" fill="#9AA2AA"/>
  <path d="M128 138 L128 202 M110 170 L146 170" stroke="#6E767E" stroke-width="6"/>
  <circle cx="128" cy="170" r="9" fill="#B4BBC2"/>
  <!-- webbed feet -->
  <path d="M86 222 C72 222 64 230 64 236 L108 236 C108 228 100 222 86 222 Z" fill="#6FA054"/>
  <path d="M170 222 C184 222 192 230 192 236 L148 236 C148 228 156 222 170 222 Z" fill="#6FA054"/>
</svg>
