<svg xmlns="http://www.w3.org/2000/svg" viewBox="0 0 256 256" width="256" height="256">
  <!-- Salve mim, side view facing right. -->
  <!-- ears: one up, one flopped forward -->
  <path d="M150 64 C142 26 150 8 164 4 C170 28 166 52 160 68 Z" fill="#DCE5D2"/>
  <path d="M154 60 C150 36 155 20 163 14 C167 34 164 50 160 60 Z" fill="#E8B8B0"/>
  <path d="M176 66 C192 54 210 56 216 66 C208 78 190 78 178 72 Z" fill="#DCE5D2"/>
  <!-- nurse cap -->
  <path d="M140 56 C146 42 196 44 198 58 L194 66 L142 66 Z" fill="#FFFFFF"/>
  <rect x="163" y="46" width="12" height="4.5" rx="2" fill="#4E9E5F"/>
  <rect x="166.7" y="42.2" width="4.5" height="12" rx="2" fill="#4E9E5F"/>
  <!-- cotton tail -->
  <circle cx="58" cy="200" r="13" fill="#FFFFFF"/>
  <!-- body -->
  <ellipse cx="120" cy="176" rx="70" ry="56" fill="#EDF2E4"/>
  <ellipse cx="130" cy="196" rx="42" ry="26" fill="#FFFFFF"/>
  <!-- head -->
  <circle cx="170" cy="108" r="42" fill="#F4F7EE"/>
  <ellipse cx="162" cy="88" rx="26" ry="13" fill="#FFFFFF" opacity="0.8"/>
  <!-- muzzle -->
  <ellipse cx="206" cy="116" rx="14" ry="11" fill="#FFFFFF"/>
  <path d="M212 110 L216 114 L210 116 Z" fill="#E8918A"/>
  <!-- eye + cheek -->
  <circle cx="180" cy="102" r="6.5" fill="#2E2620"/>
  <circle cx="182.3" cy="99.7" r="2" fill="#F5EEDD"/>
  <circle cx="160" cy="116" r="8" fill="#E8B8B0" opacity="0.7"/>
  <!-- satchel on flank -->
  <path d="M146 134 L112 210" stroke="#9CB286" stroke-width="11" stroke-linecap="round"/>
  <rect x="88" y="180" width="48" height="40" rx="9" fill="#7EA065"/>
  <rect x="88" y="180" width="48" height="15" rx="7" fill="#92B478"/>
  <path d="M112 180 C110 172 114 166 119 164 M112 180 C114 172 110 166 105 164" stroke="#4E8A3C" stroke-width="4" fill="none" stroke-linecap="round"/>
  <!-- feet -->
  <ellipse cx="94" cy="226" rx="18" ry="10" fill="#DCE5D2"/>
  <ellipse cx="158" cy="228" rx="18" ry="10" fill="#DCE5D2"/>
</svg>
