<svg xmlns="http://www.w3.org/2000/svg" viewBox="0 0 256 256" width="256" height="256">
  <!-- Digger mim, back view: velvet back, candle tip visible over the head. -->
  <ellipse cx="128" cy="34" rx="6" ry="10" fill="#FFC23D"/>
  <ellipse cx="128" cy="37" rx="3.5" ry="6" fill="#FFE9A8"/>
  <rect x="118" y="42" width="20" height="22" rx="5" fill="#F2EFE6"/>
  <!-- body -->
  <ellipse cx="128" cy="164" rx="68" ry="66" fill="#6B5B53"/>
  <ellipse cx="128" cy="152" rx="50" ry="46" fill="#5C4D45"/>
  <!-- head back -->
  <circle cx="128" cy="98" r="46" fill="#75645B"/>
  <ellipse cx="128" cy="76" rx="30" ry="16" fill="#8A7A70" opacity="0.6"/>
  <path d="M114 60 Q128 54 142 60 L138 100 Q128 106 118 100 Z" fill="#5C4D45"/>
  <!-- spade paws tucked at sides, backs visible -->
  <path d="M64 152 C40 152 28 170 34 188 C40 204 62 208 74 196 C82 186 80 162 64 152 Z" fill="#D89890"/>
  <path d="M192 152 C216 152 228 170 222 188 C216 204 194 208 182 196 C174 186 176 162 192 152 Z" fill="#D89890"/>
  <!-- stubby tail -->
  <circle cx="128" cy="224" r="11" fill="#5C4D45"/>
  <!-- feet -->
  <ellipse cx="102" cy="228" rx="18" ry="10" fill="#4E423C"/>
  <ellipse cx="154" cy="228" rx="18" ry="10" fill="#4E423C"/>
</svg>
