<svg xmlns="http://www.w3.org/2000/svg" viewBox="0 0 256 256" width="256" height="256">
  <!-- Salve mim: tiny herb bunny with a nurse cap (green herb cross). Front view. -->
  <!-- long ears, one flopped -->
  <path d="M104 76 C94 36 102 14 116 10 C122 34 118 60 112 78 Z" fill="#DCE5D2"/>
  <path d="M108 70 C102 42 108 26 116 20 C120 40 117 58 113 70 Z" fill="#E8B8B0"/>
  <path d="M148 74 C166 58 188 58 196 70 C188 84 166 86 150 80 Z" fill="#DCE5D2"/>
  <path d="M154 72 C166 62 182 62 188 70 C182 78 166 80 156 76 Z" fill="#E8B8B0"/>
  <!-- nurse cap -->
  <path d="M96 54 C100 38 156 38 160 54 L156 64 L100 64 Z" fill="#FFFFFF"/>
  <rect x="121" y="42" width="14" height="5" rx="2" fill="#4E9E5F"/>
  <rect x="125.5" y="37.5" width="5" height="14" rx="2" fill="#4E9E5F"/>
  <!-- body -->
  <ellipse cx="128" cy="170" rx="60" ry="58" fill="#EDF2E4"/>
  <ellipse cx="128" cy="184" rx="38" ry="34" fill="#FFFFFF"/>
  <!-- head -->
  <circle cx="128" cy="102" r="44" fill="#F4F7EE"/>
  <ellipse cx="120" cy="82" rx="26" ry="13" fill="#FFFFFF" opacity="0.8"/>
  <!-- face -->
  <circle cx="112" cy="98" r="6.5" fill="#2E2620"/>
  <circle cx="144" cy="98" r="6.5" fill="#2E2620"/>
  <circle cx="114.3" cy="95.7" r="2" fill="#F5EEDD"/>
  <circle cx="146.3" cy="95.7" r="2" fill="#F5EEDD"/>
  <path d="M124 108 L128 112 L132 108 Z" fill="#E8918A"/>
  <path d="M128 112 L128 118 M122 122 Q128 126 134 122" stroke="#9CA88E" stroke-width="3.5" fill="none" stroke-linecap="round"/>
  <!-- rosy cheeks -->
  <circle cx="98" cy="108" r="8" fill="#E8B8B0" opacity="0.7"/>
  <circle cx="158" cy="108" r="8" fill="#E8B8B0" opacity="0.7"/>
  <!-- herb satchel across body -->
  <path d="M86 138 L162 206" stroke="#9CB286" stroke-width="11" stroke-linecap="round"/>
  <rect x="142" y="184" width="46" height="38" rx="9" fill="#7EA065"/>
  <rect x="142" y="184" width="46" height="14" rx="7" fill="#92B478"/>
  <path d="M165 184 C163 176 167 170 172 168 M165 184 C167 176 163 170 158 168" stroke="#4E8A3C" stroke-width="4" fill="none" stroke-linecap="round"/>
  <!-- feet -->
  <ellipse cx="102" cy="226" rx="20" ry="11" fill="#DCE5D2"/>
  <ellipse cx="154" cy="226" rx="20" ry="11" fill="#DCE5D2"/>
</svg>
