<svg xmlns="http://www.w3.org/2000/svg" viewBox="0 0 512 512" width="512" height="512">
  <!-- Bard T1 north: doublet back, center seam, patch, belt. -->
  <path d="M148 240 C158 196 198 170 256 170 C314 170 354 196 364 240 L360 396 C358 430 326 448 256 448 C186 448 154 430 152 396 Z" fill="#8E3A6E"/>
  <path d="M164 242 C174 204 210 182 256 182 C290 182 318 194 336 216 C308 196 212 198 184 232 C175 240 168 242 164 242 Z" fill="#B5538F" opacity="0.45"/>
  <path d="M252 174 L260 174 L258 446 L254 446 Z" fill="#5E2548"/>
  <path d="M220 174 C232 166 244 164 256 164 C268 164 280 166 292 174 C294 186 290 198 280 206 C266 214 246 214 232 206 C222 198 218 186 220 174 Z" fill="#E8E0CC"/>
  <rect x="288" y="320" width="30" height="26" rx="4" fill="#5E2548"/>
  <path d="M290 322 L316 344 M316 322 L290 344" stroke="#8E3A6E" stroke-width="3" fill="none"/>
  <path d="M154 378 C214 390 298 390 358 378 L358 398 C298 410 214 410 154 398 Z" fill="#5C3D24"/>
</svg>
