<svg xmlns="http://www.w3.org/2000/svg" viewBox="0 0 512 512" width="512" height="512">
  <!-- Druid T2 hat, south: leather cap with a jagged fur trim. -->
  <path d="M154 252 C150 192 198 148 256 148 C314 148 362 192 358 252 L354 266 C326 250 186 250 158 266 Z" fill="#6B4426"/>
  <path d="M168 242 C170 198 206 164 256 164 C286 164 312 178 328 202 C302 182 216 184 190 214 C178 226 170 232 168 242 Z" fill="#8A5A33"/>
  <!-- fur trim: jagged band along the edge -->
  <path d="M156 252 L170 240 L180 254 L194 242 L204 256 L220 244 L230 258 L246 246 L256 260 L266 246 L282 258 L292 244 L308 256 L318 242 L332 254 L342 240 L356 252 L354 270 C326 254 186 254 158 270 Z" fill="#7A6A50"/>
</svg>
