<svg xmlns="http://www.w3.org/2000/svg" viewBox="0 0 512 512" width="512" height="512">
  <!-- Druid T5 east: wildheart profile - deep bark-moss robe, fur mantle, glowing sap vein at the chest. -->
  <path d="M164 236 C172 192 204 166 256 166 C302 166 334 188 344 230 L342 386 C340 414 312 428 254 428 C200 428 166 414 168 386 Z" fill="#46522E"/>
  <path d="M182 240 C192 206 220 186 258 186 C290 186 314 198 328 220 C304 200 216 202 194 232 C188 236 184 238 182 240 Z" fill="#5E6B43" opacity="0.6"/>
  <path d="M212 178 L210 424 M252 168 L252 428 M292 178 L294 424" stroke="#33401F" stroke-width="5" fill="none"/>
  <path d="M234 240 L296 240 L294 370 L238 370 Z" fill="#6E5638"/>
  <!-- sap vein -->
  <path d="M272 250 C266 280 268 310 260 340 C254 360 256 382 264 402" stroke="#F2C46A" stroke-width="4" fill="none" opacity="0.9"/>
  <path d="M272 250 C266 280 268 310 260 340" stroke="#FFE6A8" stroke-width="1.5" fill="none"/>
  <circle cx="272" cy="286" r="6" fill="#F2C46A"/>
  <circle cx="272" cy="286" r="3" fill="#FFE6A8"/>
  <!-- fur mantle profile -->
  <path d="M154 248 C162 210 206 190 262 190 C312 190 352 210 360 248 L356 302 L338 288 L332 310 L310 296 L302 316 L280 302 L270 294 C258 288 240 290 230 298 L218 308 L196 306 L188 294 Z" fill="#9C8E6E"/>
  <path d="M166 250 C176 220 216 202 262 202 C306 202 342 220 352 250 L350 282 L334 270 L328 290 L308 276 L300 294 L280 282 L270 276 C258 270 242 272 232 280 L222 288 L206 292 L196 284 Z" fill="#C2B591"/>
  <path d="M198 230 C220 218 242 214 262 214 C280 214 300 220 318 230 L312 244 C296 232 278 228 262 228 C244 228 224 232 206 244 Z" fill="#6E5638"/>
  <circle cx="194" cy="292" r="4" fill="#D89A3A"/>
  <path d="M174 376 C222 388 294 388 336 378 L336 396 C294 406 222 406 174 394 Z" fill="#8A6E4A"/>
  <circle cx="290" cy="384" rx="12" r="11" fill="#D89A3A"/>
  <circle cx="290" cy="384" r="5" fill="#F2C46A"/>
</svg>
