<svg xmlns="http://www.w3.org/2000/svg" viewBox="0 0 512 512" width="512" height="512">
  <!-- Barbarian T5 horned helm, north: dome from behind, horns sweep out, gold band continues. -->
  <path d="M186 232 C150 224 120 204 102 174 C86 146 82 116 92 92 C108 102 120 120 124 142 C130 124 144 112 162 108 C158 130 160 152 170 172 C176 192 182 214 186 232 Z" fill="#D8CCB4"/>
  <path d="M104 170 C92 146 88 120 96 98 C104 106 110 118 113 132 C108 144 104 158 104 170 Z" fill="#B5A88C"/>
  <path d="M326 232 C362 224 392 204 410 174 C426 146 430 116 420 92 C404 102 392 120 388 142 C382 124 368 112 350 108 C354 130 352 152 342 172 C336 192 330 214 326 232 Z" fill="#D8CCB4"/>
  <path d="M408 170 C420 146 424 120 416 98 C408 106 402 118 399 132 C404 144 408 158 408 170 Z" fill="#B5A88C"/>
  <!-- dome back: covers lower (no face opening) -->
  <path d="M168 252 C164 194 204 154 256 154 C308 154 348 194 344 252 L340 282 C318 296 194 296 172 282 Z" fill="#2E3138"/>
  <path d="M180 246 C180 200 212 168 256 168 C282 168 304 180 318 200 C294 186 222 188 198 214 C188 224 182 234 180 246 Z" fill="#454A54"/>
  <!-- gold band around the back -->
  <path d="M170 252 C196 240 316 240 342 252 L342 272 C316 260 196 260 170 272 Z" fill="#C9A23F"/>
  <!-- spine ridge -->
  <path d="M250 156 L262 156 L260 286 L252 286 Z" fill="#C9A23F"/>
  <circle cx="192" cy="256" r="4" fill="#8E6E24"/>
  <circle cx="320" cy="256" r="4" fill="#8E6E24"/>
</svg>
