<svg xmlns="http://www.w3.org/2000/svg" viewBox="0 0 512 512" width="512" height="512">
  <!-- Wizard T1 north: plain robe back, hood hanging flat, rope belt. -->
  <path d="M148 240 C158 196 198 170 256 170 C314 170 354 196 364 240 L360 402 C358 442 326 464 256 464 C186 464 154 442 152 402 Z" fill="#2B3357"/>
  <path d="M170 246 C182 220 212 206 256 206 C300 206 330 220 342 246 L340 300 L172 300 Z" fill="#3D4775" opacity="0.5"/>
  <!-- hanging hood -->
  <path d="M222 196 C232 190 244 188 256 188 C268 188 280 190 290 196 C296 216 290 240 276 254 C268 262 262 264 256 264 C250 264 244 262 236 254 C222 240 216 216 222 196 Z" fill="#1E2440"/>
  <path d="M230 200 C238 196 247 194 256 194 C265 194 274 196 282 200 C286 214 282 230 272 242 C266 248 261 250 256 250 C251 250 246 248 240 242 C230 230 226 214 230 200 Z" fill="#2B3357"/>
  <path d="M166 388 C220 400 292 400 346 388 L346 404 C292 416 220 416 166 404 Z" fill="#5C3D24"/>
  <ellipse cx="218" cy="356" rx="11" ry="7" fill="#16182A"/>
</svg>
