<svg xmlns="http://www.w3.org/2000/svg" viewBox="0 0 512 512" width="512" height="512">
  <!-- Monk T5 head-wrap, east: humble wrap, chi-glowing brow band + gem, nape coverage. -->
  <path d="M148 254 C144 190 196 146 256 146 C312 146 356 184 356 240 C356 252 350 262 340 268 L320 262 C310 256 304 250 302 244 L242 244 C240 290 234 328 220 352 L186 352 C160 326 146 292 148 254 Z" fill="#C9852E"/>
  <path d="M162 244 C166 200 202 166 254 166 C284 166 310 180 326 204 C300 184 214 186 188 214 C174 228 164 234 162 244 Z" fill="#E0A848"/>
  <path d="M300 242 C322 242 340 250 348 262 L340 278 C330 266 316 260 298 260 L242 260 C240 262 238 264 238 266 C234 302 228 330 216 350 L198 350 C212 322 218 286 218 252 L220 242 Z" fill="#FFE08A" opacity="0.5"/>
  <path d="M300 244 C322 244 340 252 348 264 L340 276 C330 264 316 258 298 258 L242 258 C240 260 238 262 238 264 C234 300 228 330 216 350 L198 350 C212 322 218 286 218 252 L220 244 Z" fill="#A8431A"/>
  <path d="M218 254 C236 250 298 250 304 254" stroke="#FFE08A" stroke-width="3" fill="none"/>
  <circle cx="300" cy="252" r="8" fill="#FFD06A" opacity="0.6"/>
  <circle cx="300" cy="252" r="4.5" fill="#FFE08A"/>
</svg>
