<svg xmlns="http://www.w3.org/2000/svg" viewBox="0 0 512 512" width="512" height="512">
  <!-- Ranger T2 north: leathers back, bracers, quiver fletching, hood. -->
  <path d="M148 240 C158 196 198 170 256 170 C314 170 354 196 364 240 L360 400 C358 436 326 458 256 458 C186 458 154 436 152 400 Z" fill="#3E5A34"/>
  <path d="M190 200 C212 188 232 182 256 182 C280 182 300 188 322 200 L318 420 C300 432 280 438 256 438 C232 438 212 432 194 420 Z" fill="#5C4630"/>
  <path d="M252 184 L260 184 L258 434 L254 434 Z" fill="#463422"/>
  <path d="M150 318 C158 310 170 310 176 318 L174 380 C168 372 158 372 152 380 Z" fill="#5C4630"/>
  <path d="M362 318 C354 310 342 310 336 318 L338 380 C344 372 354 372 360 380 Z" fill="#5C4630"/>
  <!-- quiver on the back w/ fletching -->
  <path d="M286 200 L320 200 L312 360 L294 360 Z" fill="#5C4630"/>
  <path d="M292 196 L300 166 L308 196 M308 196 L316 166 L324 196" stroke="#8A8E74" stroke-width="6" fill="none"/>
  <path d="M222 174 C232 166 244 164 256 164 C268 164 280 166 290 174 C296 196 290 222 276 238 C268 246 262 248 256 248 C250 248 244 246 236 238 C222 222 216 196 222 174 Z" fill="#46583A"/>
  <path d="M154 384 C214 396 298 396 358 384 L358 402 C298 414 214 414 154 402 Z" fill="#5C4630"/>
</svg>
