<svg xmlns="http://www.w3.org/2000/svg" viewBox="0 0 512 512" width="512" height="512">
  <!-- Bard T3 hat, south: brimmed performer's cap with a tall cream feather. -->
  <path d="M276 144 C282 104 300 72 328 54 C334 64 334 80 326 96 C338 88 352 86 364 90 C358 110 342 128 322 138 C306 146 290 148 276 144 Z" fill="#E8E0CC"/>
  <path d="M284 138 C290 108 304 82 324 66 C320 84 310 102 296 116 C306 112 318 112 328 116 C318 128 302 136 284 138 Z" fill="#C9C2B0"/>
  <path d="M156 250 C148 196 198 152 256 150 C316 148 364 192 356 250 L352 264 C324 248 186 248 158 264 Z" fill="#8E3A6E"/>
  <path d="M172 240 C174 200 210 166 256 166 C286 166 312 180 328 204 C302 184 216 186 190 216 C178 228 172 234 172 240 Z" fill="#B5538F"/>
  <!-- brim -->
  <path d="M140 252 C176 238 340 238 376 252 C380 262 376 271 368 275 C330 260 182 260 144 275 C136 271 134 262 140 252 Z" fill="#5E2548"/>
  <path d="M146 254 C180 242 336 242 372 254 C374 259 372 264 368 267 C332 254 182 254 148 267 C144 264 144 259 146 254 Z" fill="#8E3A6E"/>
  <!-- gold band -->
  <path d="M188 240 C214 232 300 232 324 240 L322 252 C302 244 214 244 190 252 Z" fill="#C9A23F"/>
</svg>
