<svg xmlns="http://www.w3.org/2000/svg" viewBox="0 0 512 512" width="512" height="512">
  <!-- Wizard T5 south: near-black archmage robe, silver trim, ONE small glowing rune ornament. -->
  <path d="M160 242 C172 212 206 196 256 196 C306 196 340 212 352 242 L348 402 C346 440 318 462 256 462 C194 462 166 440 164 402 Z" fill="#16182A"/>
  <!-- center band: silver, quiet -->
  <path d="M249 198 L263 198 L261 458 L251 458 Z" fill="#97A1B5"/>
  <path d="M249 198 L255 198 L254 458 L251 458 Z" fill="#6E7787"/>
  <!-- mantle: near-black, silver-edged -->
  <path d="M154 250 C164 216 202 198 256 198 C310 198 348 216 358 250 L356 300 L332 284 L328 312 L304 294 L296 318 L272 300 L256 322 L240 300 L216 318 L208 294 L184 312 L180 284 L156 300 Z" fill="#1E2440"/>
  <path d="M156 296 L180 282 L184 308 L208 292 L216 314 L240 298 L256 318 L272 298 L296 314 L304 292 L328 308 L332 282 L356 296 L356 304 L330 290 L326 318 L302 300 L294 324 L270 306 L256 328 L242 306 L218 324 L210 300 L186 318 L182 290 L156 304 Z" fill="#C7CEDB"/>
  <path d="M168 246 C180 222 214 208 256 208 C298 208 332 222 344 246 L342 268 L324 258 L320 278 L300 266 L294 282 L274 270 L256 286 L238 270 L218 282 L212 266 L192 278 L188 258 L170 268 Z" fill="#2B3357"/>
  <!-- silver clasp -->
  <circle cx="256" cy="218" r="13" fill="#C7CEDB"/>
  <circle cx="256" cy="218" r="6" fill="#1E2440"/>
  <!-- THE ornament: one small glowing rune medallion on the chest -->
  <circle cx="256" cy="300" r="13" fill="#1E2440"/>
  <circle cx="256" cy="300" r="11" fill="none" stroke="#8F7BFF" stroke-width="3"/>
  <path d="M256 293 L256 307 M250 297 L262 303" stroke="#D6CEFF" stroke-width="3" fill="none"/>
  <!-- silver belt + hem -->
  <path d="M166 388 C220 400 292 400 346 388 L346 408 C292 420 220 420 166 408 Z" fill="#97A1B5"/>
  <rect x="240" y="390" width="32" height="20" rx="3" fill="#C7CEDB"/>
  <path d="M170 432 C214 450 298 450 342 432 L340 452 C298 468 214 468 172 452 Z" fill="#C7CEDB"/>
</svg>
