<svg xmlns="http://www.w3.org/2000/svg" viewBox="0 0 512 512" width="512" height="512">
  <!-- Sorcerer T5 hood, east: conduit crown profile, light seams, brow blaze, nape coverage. -->
  <path d="M148 254 C144 190 196 146 256 146 C312 146 356 184 356 240 C356 252 350 262 340 268 L320 262 C310 256 304 250 302 244 L242 244 C240 290 234 328 220 352 L186 352 C160 326 146 292 148 254 Z" fill="#3A1414"/>
  <path d="M162 244 C166 200 202 166 254 166 C284 166 310 180 326 204 C300 184 214 186 188 216 C174 230 164 234 162 244 Z" fill="#5A1E1E"/>
  <path d="M300 244 C322 244 340 252 348 264 L340 276 C330 264 316 258 298 258 L242 258 C240 260 238 262 238 264 C234 300 228 330 216 350 L198 350 C212 322 218 286 218 252 L220 244 Z" fill="#3A1414"/>
  <path d="M256 166 C252 196 258 224 252 252" stroke="#F2C84A" stroke-width="4" fill="none"/>
  <circle cx="240" cy="252" r="8" fill="#F2C84A"/>
  <circle cx="240" cy="252" r="3.5" fill="#FFF6D8"/>
</svg>
