<svg xmlns="http://www.w3.org/2000/svg" viewBox="0 0 512 512" width="512" height="512">
  <!-- Sorcerer T2 north: robe back with gold veins creeping up, hood. -->
  <path d="M148 240 C158 196 198 170 256 170 C314 170 354 196 364 240 L360 402 C358 442 326 464 256 464 C186 464 154 442 152 402 Z" fill="#8E2A2A"/>
  <path d="M256 450 C260 420 254 392 262 364 C268 344 266 320 256 300" stroke="#E0A030" stroke-width="4" fill="none"/>
  <path d="M262 364 L274 352 M256 408 L268 398 M260 332 L272 322" stroke="#E0A030" stroke-width="3" fill="none"/>
  <path d="M222 196 C232 190 244 188 256 188 C268 188 280 190 290 196 C296 216 290 240 276 254 C268 262 262 264 256 264 C250 264 244 262 236 254 C222 240 216 216 222 196 Z" fill="#6E1E1E"/>
  <path d="M230 200 C238 196 247 194 256 194 C265 194 274 196 282 200 C286 214 282 230 272 242 C266 248 261 250 256 250 C251 250 246 248 240 242 C230 230 226 214 230 200 Z" fill="#8E2A2A"/>
  <path d="M152 440 C200 452 312 452 360 440 C340 458 300 466 256 466 C212 466 172 458 152 440 Z" fill="#3A1414"/>
  <path d="M166 388 C220 400 292 400 346 388 L346 404 C292 416 220 416 166 404 Z" fill="#5C3D24"/>
</svg>
