<svg xmlns="http://www.w3.org/2000/svg" viewBox="0 0 512 512" width="512" height="512">
  <!-- Bard T5 east: spotlight coat profile - sheen, gold-edged cape behind, note shimmer at the chest. -->
  <!-- cape trailing, gold-edged -->
  <path d="M158 232 C160 202 182 184 214 180 C230 178 242 182 250 192 L246 210 C236 200 222 196 210 200 L204 404 C188 412 172 408 162 396 C152 342 150 286 158 232 Z" fill="#8E3A6E"/>
  <path d="M162 392 C168 400 178 404 190 403 L196 402 L196 410 L188 412 C175 413 164 408 158 398 Z" fill="#C9A23F"/>
  <path d="M166 236 C170 212 186 196 210 192 L214 204 C196 208 182 222 180 244 L176 372 C168 356 162 322 162 290 Z" fill="#B5538F" opacity="0.45"/>
  <!-- coat -->
  <path d="M188 232 C198 192 222 168 264 168 C306 168 336 190 344 230 L342 386 C340 414 314 428 260 428 C216 428 192 416 190 388 Z" fill="#5E2548"/>
  <path d="M202 234 C210 200 234 182 268 182 C294 182 316 194 328 216 C306 198 232 200 212 228 C208 230 204 232 202 234 Z" fill="#B5538F"/>
  <path d="M232 196 C248 188 266 185 282 188 C266 191 252 198 242 208 Z" fill="#D87AB4"/>
  <!-- gilded collar -->
  <path d="M204 214 C200 194 208 178 226 172 C238 168 250 170 258 178 L254 192 C246 186 236 185 228 189 C218 194 212 203 214 214 Z" fill="#C9A23F"/>
  <!-- buttons -->
  <circle cx="330" cy="242" r="5" fill="#C9A23F"/><circle cx="332" cy="280" r="5" fill="#C9A23F"/><circle cx="332" cy="318" r="5" fill="#C9A23F"/>
  <!-- note shimmer -->
  <path d="M296 254 L296 276 C292 274 288 275 286 278 C284 282 287 286 292 286 C297 286 300 283 300 278 L300 258 L307 260 L307 252 Z" fill="#F2D98A"/>
  <!-- gold sash -->
  <path d="M192 366 C236 378 300 378 338 368 L338 390 C300 400 236 400 192 388 Z" fill="#C9A23F"/>
  <path d="M192 378 C236 390 300 390 338 380 L338 390 C300 400 236 400 192 388 Z" fill="#8E6E24"/>
</svg>
