<svg xmlns="http://www.w3.org/2000/svg" viewBox="0 0 512 512" width="512" height="512">
  <!-- Druid T3 east: fur mantle hump, bone fetish, amber beads, fur kilt. -->
  <path d="M196 248 C206 228 230 216 262 216 L310 224 L324 256 L322 404 C304 418 278 424 252 422 L200 408 Z" fill="#7A6A50"/>
  <path d="M204 254 C214 238 236 228 264 228 L304 236 L316 260 L314 306 L202 306 Z" fill="#968360" opacity="0.5"/>
  <!-- mantle hump over the shoulders -->
  <path d="M184 252 C180 220 206 198 246 192 C274 188 298 196 308 210 L304 228 C294 216 278 210 262 212 L272 232 L256 226 L264 250 L246 240 L252 266 L234 254 L238 282 L222 270 L224 298 L208 286 L210 310 L194 298 Z" fill="#5C4E38"/>
  <path d="M192 250 C190 226 210 208 242 202 C262 198 280 202 290 212 L286 222 C276 214 262 210 248 213 C228 217 212 230 208 250 Z" fill="#7A6A50"/>
  <!-- bone fetish + amber -->
  <path d="M218 298 L214 324 L226 320 L222 346 L232 342 Z" fill="#D8CCB4"/>
  <path d="M288 252 C298 260 306 270 310 282 L300 288 C295 277 288 268 278 262 Z" fill="#5C3D24"/>
  <circle cx="300" cy="282" r="6" fill="#C9842A"/>
  <!-- fur kilt -->
  <path d="M198 390 C240 402 288 402 322 392 L320 428 L308 418 L300 430 L288 420 L278 430 L264 420 L252 432 L240 420 L228 430 L218 418 L206 428 L198 416 Z" fill="#5C4E38"/>
</svg>
