<svg xmlns="http://www.w3.org/2000/svg" viewBox="0 0 512 512" width="512" height="512">
  <!-- Ranger HelmT2 south: simple leather hood up, face open. -->
  <path fill-rule="evenodd" d="M150 360 C142 280 152 196 192 164 C216 144 240 138 256 138 C272 138 296 144 320 164 C360 196 370 280 362 360 L330 360 C338 286 330 220 300 196 C284 182 270 178 256 178 C242 178 228 182 212 196 C182 220 174 286 182 360 Z" fill="#46583A"/>
  <path d="M150 360 C144 300 150 230 178 192 C170 240 168 300 174 360 Z" fill="#3E5A34"/>
  <path d="M362 360 C368 300 362 230 334 192 C342 240 344 300 338 360 Z" fill="#3E5A34"/>
  <!-- leather face rim -->
  <path d="M212 196 C228 182 242 178 256 178 C270 178 284 182 300 196 L294 206 C282 194 268 190 256 190 C244 190 230 194 218 206 Z" fill="#5C4630"/>
</svg>
