<svg xmlns="http://www.w3.org/2000/svg" viewBox="0 0 512 512" width="512" height="512">
  <!-- Bard T2 hat, south: soft plum beret with a small feather. -->
  <path d="M252 134 C268 110 290 98 314 100 L316 112 C296 112 280 122 270 140 Z" fill="#E8E0CC"/>
  <path d="M154 252 C146 196 196 150 256 148 C318 146 366 190 358 250 L354 266 C326 250 186 250 158 266 Z" fill="#8E3A6E"/>
  <path d="M170 240 C172 198 208 164 256 164 C286 164 312 178 328 202 C302 182 216 184 190 214 C178 226 170 232 170 240 Z" fill="#B5538F"/>
  <!-- beret tilt fold -->
  <path d="M286 152 C312 158 334 174 346 198 C330 182 308 172 284 170 Z" fill="#5E2548"/>
  <!-- band -->
  <path d="M156 252 C184 238 328 238 356 252 L354 270 C326 254 186 254 158 270 Z" fill="#5E2548"/>
</svg>
