<svg xmlns="http://www.w3.org/2000/svg" viewBox="0 0 512 512" width="512" height="512">
  <!-- Druid T1 north: hide wrap back, fur trim, strap. -->
  <path d="M172 228 C198 212 230 206 262 208 L352 298 L350 366 L338 370 L324 356 L320 374 L304 358 L298 378 L284 362 L276 380 L262 364 L256 382 L242 366 L234 380 L220 364 L214 374 L200 360 L194 370 L180 356 L172 300 Z" fill="#6B4426"/>
  <path d="M178 234 C202 220 232 214 258 218 L344 298 L342 310 L254 226 C228 222 202 228 184 240 Z" fill="#5C3D24"/>
  <path d="M170 226 C196 210 228 204 262 206 L270 216 L258 226 L244 216 L234 228 L220 218 L212 230 L198 222 L192 234 L180 226 L176 236 L168 230 Z" fill="#7A6A50"/>
  <path d="M214 208 C200 214 188 224 180 236 L194 248 C202 236 212 228 224 222 Z" fill="#5C3D24"/>
  <path d="M166 392 C222 404 292 404 348 392 L348 408 C292 420 222 420 166 408 Z" fill="#8A5A33"/>
</svg>
