<svg xmlns="http://www.w3.org/2000/svg" viewBox="0 0 512 512" width="512" height="512">
  <!-- Barbarian T4 south: dark steel breastplate w/ gold trim under a full fur mantle, claw necklace, war-sash. -->
  <!-- breastplate -->
  <path d="M180 250 C200 234 226 226 257 226 C288 226 314 234 334 250 L330 374 C328 392 322 402 308 408 L206 408 C192 402 186 392 184 374 Z" fill="#454A54"/>
  <path d="M188 256 C206 242 230 235 257 235 C284 235 308 242 326 256 L323 350 L191 350 Z" fill="#646B78"/>
  <path d="M204 262 C220 252 240 247 257 247 C262 247 268 248 274 249 L270 340 L200 340 Z" fill="#8A93A2" opacity="0.55"/>
  <!-- gold trim: collar edge + center ridge + bottom band -->
  <path d="M186 252 C206 236 230 228 257 228 C284 228 308 236 328 252 L324 264 C306 250 282 242 257 242 C232 242 208 250 190 264 Z" fill="#C9A23F"/>
  <path d="M251 244 L263 244 L261 404 L253 404 Z" fill="#C9A23F"/>
  <path d="M186 376 C210 388 304 388 328 376 L327 390 C302 402 212 402 187 390 Z" fill="#C9A23F"/>
  <path d="M251 244 L257 244 L256 404 L253 404 Z" fill="#8E6E24"/>
  <!-- war-sash diagonal over the plate -->
  <path d="M190 240 L342 366 L332 392 L178 266 C180 257 184 248 190 240 Z" fill="#A33B2A" opacity="0.92"/>
  <path d="M196 246 L336 362 L332 374 L190 258 Z" fill="#7E2C1F" opacity="0.6"/>
  <!-- bronze belt + kilt -->
  <path d="M174 392 C226 404 288 404 340 392 L340 446 C338 456 312 462 257 462 C202 462 176 456 174 446 Z" fill="#8A5A33"/>
  <path d="M174 386 C226 398 288 398 340 386 L340 404 C288 416 226 416 174 404 Z" fill="#5C3D24"/>
  <rect x="240" y="388" width="34" height="22" rx="4" fill="#B07D3C"/>
  <rect x="248" y="394" width="18" height="11" rx="2" fill="#8A5A33"/>
  <!-- full fur mantle on both shoulders -->
  <path d="M156 254 C152 222 176 200 214 194 L230 204 L244 192 L257 204 L270 192 L284 202 L300 194 C338 200 362 222 358 254 L358 294 L342 280 L344 306 L326 292 L330 316 L312 302 L302 310 L286 296 L286 282 C268 274 246 274 228 282 L228 296 L212 310 L202 302 L184 316 L188 292 L170 306 L172 280 L156 294 Z" fill="#6E6E78"/>
  <path d="M164 252 C162 228 180 210 210 204 L228 212 L244 202 L257 212 L270 202 L284 210 L300 206 C326 211 344 226 346 248 L338 252 C332 234 318 222 298 218 L284 224 L270 216 L257 224 L244 216 L228 222 C200 220 178 232 172 252 Z" fill="#8B8B96"/>
  <path d="M198 238 C216 226 238 220 257 220 C276 220 298 226 316 238 L310 252 C294 241 276 236 257 236 C238 236 220 241 204 252 Z" fill="#55555E"/>
  <!-- trophy skull boss, big and central -->
  <path d="M228 286 C228 264 240 250 257 250 C274 250 286 264 286 286 C286 300 278 311 268 316 L268 328 C268 335 263 340 257 340 C251 340 246 335 246 328 L246 316 C236 311 228 300 228 286 Z" fill="#E8E0CC"/>
  <circle cx="245" cy="286" r="8" fill="#3A2E20"/>
  <circle cx="269" cy="286" r="8" fill="#3A2E20"/>
  <path d="M232 268 L218 254 L236 260 Z" fill="#C9BFA4"/>
  <path d="M282 268 L296 254 L278 260 Z" fill="#C9BFA4"/>
</svg>
