<svg xmlns="http://www.w3.org/2000/svg" viewBox="0 0 512 512" width="512" height="512">
  <!-- Rogue T3 east: half-cloak billowing behind, fitted leathers, oxblood lining edge. -->
  <path d="M160 230 C162 200 188 182 224 180 C240 178 252 184 258 194 L252 212 C242 202 226 198 214 202 L208 400 C192 408 176 404 166 392 C156 340 154 284 160 230 Z" fill="#26262C"/>
  <path d="M210 202 L214 400 C206 404 200 400 196 394 L202 210 C204 204 206 202 210 202 Z" fill="#6E2230"/>
  <path d="M168 234 C172 210 188 194 212 190 L216 202 C198 206 184 220 182 242 L180 370 C172 354 166 320 166 288 Z" fill="#3A3A42" opacity="0.5"/>
  <!-- leathers -->
  <path d="M188 232 C198 192 222 168 264 168 C306 168 336 190 344 230 L342 386 C340 414 314 428 260 428 C216 428 192 416 190 388 Z" fill="#3A3A42"/>
  <path d="M204 236 C212 204 234 186 266 186 C292 186 314 198 326 218 C304 200 232 202 212 230 C208 232 206 234 204 236 Z" fill="#46464E" opacity="0.5"/>
  <path d="M218 240 L312 372 L300 382 L208 256 Z" fill="#26262C"/>
  <circle cx="232" cy="200" r="8" fill="#56565E"/>
  <path d="M204 216 C200 196 208 180 226 174 C238 170 250 172 258 180 L254 194 C246 188 236 187 228 191 C218 196 212 205 214 216 Z" fill="#26262C"/>
  <path d="M192 376 C236 388 300 388 338 378 L338 396 C300 406 236 406 192 394 Z" fill="#26262C"/>
</svg>
