<svg xmlns="http://www.w3.org/2000/svg" viewBox="0 0 512 512" width="512" height="512">
  <!-- Monk HelmT4 east: silk headband + gold trim, bead on the trailing tail. -->
  <path d="M188 232 C224 223 304 223 344 232 L344 252 C304 245 224 246 190 254 Z" fill="#D8902E"/>
  <path d="M190 230 C224 222 304 222 344 230" stroke="#C9A23F" stroke-width="3" fill="none"/>
  <path d="M192 252 C224 245 304 245 344 250" stroke="#C9A23F" stroke-width="3" fill="none"/>
  <path d="M214 240 L230 240 M262 238 L278 238 M310 240 L326 240" stroke="#C9A23F" stroke-width="2" fill="none"/>
  <path d="M188 240 C176 250 172 264 176 278 C182 270 188 258 192 248 Z" fill="#A8431A"/>
  <path d="M194 242 C184 254 182 268 188 280 C194 270 198 258 198 248 Z" fill="#D8902E"/>
  <circle cx="180" cy="284" r="8" fill="#6E4A28"/>
  <circle cx="180" cy="284" r="3" fill="#C9A23F"/>
</svg>
