<svg xmlns="http://www.w3.org/2000/svg" viewBox="0 0 512 512" width="512" height="512">
  <!-- Druid T4 south: living-bark robe - moss/lichen patches, amber sap beads, fuller fur mantle. -->
  <path d="M148 240 C158 196 198 170 256 170 C314 170 354 196 364 240 L360 400 C358 436 326 458 256 458 C186 458 154 436 152 400 Z" fill="#5A6B40"/>
  <path d="M162 244 C172 206 208 184 256 184 C292 184 320 196 338 218 C310 198 212 200 184 234 C175 242 166 244 162 244 Z" fill="#74824E" opacity="0.45"/>
  <path d="M196 200 L194 452 M226 188 L225 456 M286 188 L287 456 M316 200 L318 452" stroke="#46522E" stroke-width="5" fill="none"/>
  <path d="M251 196 L261 196 L259 454 L253 454 Z" fill="#46522E"/>
  <!-- bark panel chest, heavier grain -->
  <path d="M232 240 L280 240 L276 366 L236 366 Z" fill="#6E5638"/>
  <path d="M243 250 L247 356 M256 248 L256 360 M269 250 L265 356" stroke="#4E3C26" stroke-width="3" fill="none"/>
  <!-- moss/lichen patches -->
  <path d="M200 380 C210 372 222 372 230 380 C224 390 210 392 200 386 Z" fill="#7E9A4E"/>
  <path d="M288 360 C298 354 308 356 314 364 C306 372 294 372 286 366 Z" fill="#7E9A4E"/>
  <path d="M212 312 C220 306 230 308 234 316 C228 322 218 322 210 318 Z" fill="#7E9A4E"/>
  <!-- amber sap beads -->
  <circle cx="244" cy="288" r="5" fill="#D89A3A"/>
  <circle cx="268" cy="288" r="5" fill="#D89A3A"/>
  <circle cx="256" cy="330" r="5" fill="#D89A3A"/>
  <!-- full fur mantle, both shoulders -->
  <path d="M140 250 C148 210 194 188 256 188 C318 188 364 210 372 250 L368 304 L350 288 L346 316 L326 298 L318 322 L294 304 L284 296 C268 286 244 286 228 296 L218 304 L194 322 L186 298 L166 316 L162 288 L144 304 Z" fill="#B5A684"/>
  <path d="M152 252 C160 220 200 200 256 200 C312 200 352 220 360 252 L358 286 L340 272 L334 296 L316 282 L308 302 L286 288 L278 282 C266 274 246 274 234 282 L226 288 L204 302 L196 282 L178 296 L172 272 L156 286 Z" fill="#CBBE9E"/>
  <path d="M196 232 C218 220 240 214 256 214 C272 214 294 220 316 232 L310 246 C292 234 274 230 256 230 C238 230 220 234 202 246 Z" fill="#856A48"/>
  <!-- belt -->
  <path d="M156 384 C216 396 296 396 356 384 L356 402 C296 414 216 414 156 402 Z" fill="#8A6E4A"/>
  <ellipse cx="256" cy="392" rx="14" ry="9" fill="#D89A3A"/>
</svg>
