<svg xmlns="http://www.w3.org/2000/svg" viewBox="0 0 512 512" width="512" height="512">
  <!-- Wizard T4 hat, east: tall hat profile, tip swept slightly back, star at the band front. -->
  <path d="M196 242 C200 188 214 132 246 96 C256 84 270 84 278 96 C290 112 280 140 264 158 C284 182 296 212 298 242 Z" fill="#1E2440"/>
  <path d="M196 242 C200 190 214 136 244 100 C232 142 222 192 220 242 Z" fill="#3D4775"/>
  <path d="M268 154 C282 136 290 114 286 98 C296 114 296 138 284 158 C290 186 296 214 298 242 Z" fill="#16182A"/>
  <path d="M164 246 C194 230 322 230 352 246 L350 272 C322 256 198 256 166 272 Z" fill="#16182A"/>
  <path d="M166 248 C198 234 320 234 350 248 L349 260 C320 246 198 246 167 260 Z" fill="#2B3357"/>
  <path d="M198 238 C222 230 300 230 318 238 L316 252 C298 242 222 242 200 252 Z" fill="#97A1B5"/>
  <path d="M322 226 L326 236 L337 236 L328 243 L332 254 L322 247 L312 254 L316 243 L307 236 L318 236 Z" fill="#C7CEDB"/>
</svg>
