<svg xmlns="http://www.w3.org/2000/svg" viewBox="0 0 512 512" width="512" height="512">
  <!-- Druid T4 east: heavy mantle hump, antler fetish at the chest, fang edge, fur kilt. -->
  <path d="M196 248 C206 228 230 216 262 216 L310 224 L324 256 L322 404 C304 418 278 424 252 422 L200 408 Z" fill="#6B5C44"/>
  <path d="M204 254 C214 238 236 228 264 228 L304 236 L316 260 L314 304 L202 304 Z" fill="#7A6A50" opacity="0.6"/>
  <!-- mantle hump -->
  <path d="M182 252 C178 218 206 196 248 190 C278 186 302 194 312 208 L308 226 C298 214 280 208 264 210 L274 230 L258 224 L266 248 L248 238 L254 264 L236 252 L240 280 L224 268 L226 296 L210 284 L212 310 L196 298 Z" fill="#5C4E38"/>
  <path d="M190 250 C188 224 210 206 244 200 C266 196 286 200 296 210 L292 220 C282 212 266 208 252 211 C230 215 214 228 210 250 Z" fill="#7A6A50"/>
  <!-- antler fetish -->
  <path d="M296 284 L306 284 L304 336 L298 336 Z" fill="#B5A88C"/>
  <path d="M299 292 C289 286 283 278 281 268 C288 270 295 275 299 282 Z" fill="#D8CCB4"/>
  <path d="M303 292 C313 286 319 278 321 268 C314 270 307 275 303 282 Z" fill="#D8CCB4"/>
  <!-- fang at the chest edge -->
  <path d="M286 254 C296 262 304 272 308 284 L298 290 C293 279 286 270 276 264 Z" fill="#5C3D24"/>
  <path d="M298 282 L302 306 L310 284 Z" fill="#D8CCB4"/>
  <!-- fur kilt -->
  <path d="M198 388 C242 400 290 400 322 390 L320 428 L308 418 L300 430 L288 420 L278 430 L264 420 L252 432 L240 420 L228 430 L218 418 L206 428 L198 416 Z" fill="#5C4E38"/>
</svg>
