<svg xmlns="http://www.w3.org/2000/svg" viewBox="0 0 512 512" width="512" height="512">
  <!-- Wizard T4 hat, north: tall hat + brim + drape covering the full back of the skull. -->
  <!-- back drape -->
  <path d="M170 252 C196 240 318 240 342 252 C346 294 334 332 308 354 L204 354 C178 332 166 294 170 252 Z" fill="#1E2440"/>
  <path d="M180 258 C204 248 310 248 332 258 C334 294 324 326 302 344 L210 344 C188 326 178 294 180 258 Z" fill="#16182A" opacity="0.5"/>
  <!-- tall cone -->
  <path d="M190 242 C194 188 210 132 244 94 C254 82 268 82 276 94 C300 132 312 188 314 242 Z" fill="#1E2440"/>
  <path d="M202 232 C208 186 222 142 248 106 C234 146 222 190 220 232 Z" fill="#3D4775"/>
  <!-- brim -->
  <path d="M154 244 C164 226 196 216 256 216 C316 216 348 226 358 244 L356 272 C326 256 186 256 156 272 Z" fill="#16182A"/>
  <path d="M158 246 C170 231 200 222 256 222 C312 222 342 231 354 246 L353 260 C324 246 188 246 159 260 Z" fill="#2B3357"/>
  <path d="M192 236 C216 228 296 228 312 236 L310 250 C294 240 216 240 194 250 Z" fill="#97A1B5"/>
</svg>
