<svg xmlns="http://www.w3.org/2000/svg" viewBox="0 0 512 512" width="512" height="512">
  <!-- Rogue T5 hood, east: gloaming cowl profile, wisp off the peak, glowing eye, masked, nape coverage. -->
  <path d="M252 140 C244 120 242 98 250 82 C258 94 260 114 256 132 Z" fill="#16161C" opacity="0.7"/>
  <path d="M148 258 C142 186 198 138 256 138 C312 138 356 180 356 238 C356 250 350 260 340 266 L320 260 C310 254 304 248 302 242 L242 242 C240 288 234 326 220 350 L186 350 C160 324 144 296 148 258 Z" fill="#16161C"/>
  <path d="M162 248 C166 200 204 160 254 160 C284 160 310 176 326 200 C300 180 214 182 188 214 C174 228 164 240 162 248 Z" fill="#26262C"/>
  <path d="M302 242 C322 242 340 250 348 262 L340 274 C330 262 316 256 298 256 L240 256 C238 258 236 260 236 262 C232 298 226 328 214 350 L198 350 C212 322 218 286 218 250 L220 242 Z" fill="#0E0E12"/>
  <path d="M236 254 C260 244 290 246 308 252 L304 262 C288 256 262 256 240 262 Z" fill="#8E2E3E" opacity="0.6"/>
  <!-- glowing eye -->
  <ellipse cx="282" cy="296" rx="8" ry="5" fill="#C24A5C"/>
  <circle cx="282" cy="296" r="3" fill="#F2A0AE"/>
  <!-- half-mask -->
  <path d="M300 314 C318 308 338 310 348 320 C346 340 338 354 322 360 L296 356 C290 342 290 326 300 314 Z" fill="#16161C"/>
</svg>
