<svg xmlns="http://www.w3.org/2000/svg" viewBox="0 0 512 512" width="512" height="512">
  <!-- Wizard T2 hat, east: skullcap profile. -->
  <path d="M192 244 C188 198 220 166 262 166 C304 166 334 198 330 244 L326 258 C304 246 214 246 196 258 Z" fill="#2B3357"/>
  <path d="M202 238 C202 202 228 178 262 178 C283 178 300 187 312 202 C293 191 233 193 214 214 C207 222 203 230 202 238 Z" fill="#3D4775"/>
  <path d="M194 246 C216 236 308 236 328 246 L326 260 C306 250 216 250 196 260 Z" fill="#97A1B5"/>
</svg>
