<svg xmlns="http://www.w3.org/2000/svg" viewBox="0 0 512 512" width="512" height="512">
  <!-- Ranger HelmT4 south: feathered hood - crest of feathers along crown + silvered face clasp. -->
  <!-- feather crest behind the crown -->
  <path d="M214 168 C206 144 208 120 224 104 C228 128 230 150 232 168 Z" fill="#8A8E74"/>
  <path d="M236 162 C230 134 234 110 250 96 C252 122 252 146 252 164 Z" fill="#6E8A44"/>
  <path d="M276 162 C282 134 278 110 262 96 C260 122 260 146 260 164 Z" fill="#8A8E74"/>
  <path d="M298 168 C306 144 304 120 288 104 C284 128 282 150 280 168 Z" fill="#6E8A44"/>
  <path d="M224 104 C226 128 228 150 230 166 M250 96 C251 122 251 146 251 162 M262 96 C261 122 261 146 261 162 M288 104 C286 128 284 150 282 166" stroke="#C9BBA0" stroke-width="2" fill="none"/>
  <path fill-rule="evenodd" d="M150 360 C142 280 152 196 192 164 C216 144 240 138 256 138 C272 138 296 144 320 164 C360 196 370 280 362 360 L330 360 C338 286 330 220 300 196 C284 182 270 178 256 178 C242 178 228 182 212 196 C182 220 174 286 182 360 Z" fill="#46583A"/>
  <path d="M150 360 C144 300 150 230 178 192 C170 240 168 300 174 360 Z" fill="#3E5A34"/>
  <path d="M362 360 C368 300 362 230 334 192 C342 240 344 300 338 360 Z" fill="#3E5A34"/>
  <!-- silvered face clasp rim -->
  <path d="M212 196 C228 182 242 178 256 178 C270 178 284 182 300 196 L294 206 C282 194 268 190 256 190 C244 190 230 194 218 206 Z" fill="#5C4630"/>
  <rect x="246" y="190" width="20" height="12" rx="2" fill="#9AA3B0"/>
  <!-- side feather plumes -->
  <path d="M184 210 C172 196 172 178 184 166 C186 184 190 200 196 212 C192 214 187 214 184 210 Z" fill="#8A8E74"/>
  <path d="M328 210 C340 196 340 178 328 166 C326 184 322 200 316 212 C320 214 325 214 328 210 Z" fill="#8A8E74"/>
</svg>
