<svg xmlns="http://www.w3.org/2000/svg" viewBox="0 0 512 512" width="512" height="512">
  <!-- Wizard T3 hat, south: short pointed hat, tip bent right, narrow brim. -->
  <path d="M196 240 C200 196 216 156 250 134 C282 116 312 122 330 140 C310 144 296 156 290 174 C296 196 300 218 300 240 Z" fill="#2B3357"/>
  <path d="M206 232 C212 196 226 164 252 144 C238 168 226 200 222 232 Z" fill="#3D4775"/>
  <path d="M292 172 C298 158 310 148 324 142 C312 142 300 148 292 158 Z" fill="#1E2440"/>
  <!-- brim: wide and low, covers the whole crown -->
  <path d="M156 240 C166 222 196 212 256 212 C316 212 346 222 356 240 L354 268 C324 252 188 252 158 268 Z" fill="#1E2440"/>
  <path d="M160 242 C172 227 200 218 256 218 C312 218 340 227 352 242 L351 256 C322 242 190 242 161 256 Z" fill="#3D4775"/>
  <!-- silver band -->
  <path d="M196 234 C220 226 292 226 304 234 L302 246 C288 238 220 238 198 246 Z" fill="#97A1B5"/>
</svg>
