<svg xmlns="http://www.w3.org/2000/svg" viewBox="0 0 512 512" width="512" height="512">
  <!-- Barbarian T3 helm, north: dome from behind, smooth horns, gold band. -->
  <path d="M188 236 C158 226 136 204 126 176 C118 152 120 128 132 112 C142 128 146 148 144 166 C156 182 170 200 180 218 C183 224 186 230 188 236 Z" fill="#D8CCB4"/>
  <path d="M134 168 C126 148 126 128 134 114 C140 124 143 138 142 152 C139 158 136 163 134 168 Z" fill="#B5A88C"/>
  <path d="M324 236 C354 226 376 204 386 176 C394 152 392 128 380 112 C370 128 366 148 368 166 C356 182 342 200 332 218 C329 224 326 230 324 236 Z" fill="#D8CCB4"/>
  <path d="M378 168 C386 148 386 128 378 114 C372 124 369 138 370 152 C373 158 376 163 378 168 Z" fill="#B5A88C"/>
  <path d="M168 252 C164 194 204 154 256 154 C308 154 348 194 344 252 C348 296 334 334 306 354 L206 354 C178 334 164 296 168 252 Z" fill="#2E3138"/>
  <path d="M180 246 C180 200 212 168 256 168 C282 168 304 180 318 200 C294 186 222 188 198 214 C188 224 182 234 180 246 Z" fill="#454A54"/>
  <path d="M170 252 C196 240 316 240 342 252 L342 272 C316 260 196 260 170 272 Z" fill="#C9A23F"/>
  <path d="M250 156 L262 156 L260 286 L252 286 Z" fill="#C9A23F"/>
  <circle cx="192" cy="256" r="4" fill="#8E6E24"/>
  <circle cx="320" cy="256" r="4" fill="#8E6E24"/>
</svg>
