<svg xmlns="http://www.w3.org/2000/svg" viewBox="0 0 512 512" width="512" height="512">
  <!-- Cleric T2 north: tabard back panel, gold edges, hood. -->
  <path d="M148 240 C158 196 198 170 256 170 C314 170 354 196 364 240 L360 400 C358 436 326 458 256 458 C186 458 154 436 152 400 Z" fill="#C9C2B0"/>
  <path d="M194 192 C212 180 232 174 256 174 C280 174 300 180 318 192 L314 444 C296 452 278 456 256 456 C234 456 216 452 198 444 Z" fill="#E8E4D8"/>
  <path d="M194 192 L200 190 L204 444 L198 446 Z" fill="#C9A23F"/>
  <path d="M318 192 L312 190 L308 444 L314 446 Z" fill="#C9A23F"/>
  <!-- hanging hood over the tabard -->
  <path d="M222 174 C232 166 244 164 256 164 C268 164 280 166 290 174 C296 196 290 222 276 238 C268 246 262 248 256 248 C250 248 244 246 236 238 C222 222 216 196 222 174 Z" fill="#C9C2B0"/>
  <path d="M230 180 C238 174 247 172 256 172 C265 172 274 174 282 180 C286 196 282 214 272 226 C266 232 261 234 256 234 C251 234 246 232 240 226 C230 214 226 196 230 180 Z" fill="#E8E4D8"/>
  <path d="M156 384 C216 396 296 396 356 384 L356 402 C296 414 216 414 156 402 Z" fill="#A9744A"/>
</svg>
