<svg xmlns="http://www.w3.org/2000/svg" viewBox="0 0 512 512" width="512" height="512">
  <!-- Fighter T3 east: cuirass profile, squared pauldron on the near shoulder, brigandine skirt. -->
  <path d="M168 296 C174 288 212 282 258 282 C304 282 338 288 342 296 L342 386 C340 414 312 428 254 428 C200 428 166 414 168 386 Z" fill="#5C3D24"/>
  <circle cx="228" cy="336" r="5" fill="#9AA3B0"/><circle cx="292" cy="336" r="5" fill="#9AA3B0"/>
  <circle cx="232" cy="388" r="5" fill="#9AA3B0"/><circle cx="288" cy="388" r="5" fill="#9AA3B0"/>
  <path d="M170 236 C180 196 210 170 258 170 C302 170 332 192 342 232 L340 292 C312 302 196 302 172 292 Z" fill="#565C66"/>
  <path d="M184 238 C194 206 220 186 258 186 C284 186 306 196 320 214 C296 198 216 200 194 226 C189 230 186 234 184 238 Z" fill="#7A828E"/>
  <path d="M176 288 C222 300 296 300 336 290 L336 306 C296 316 222 316 176 304 Z" fill="#2E4E9E"/>
  <!-- squared pauldron, near shoulder -->
  <path d="M186 214 L248 206 L252 264 L192 272 C184 254 182 232 186 214 Z" fill="#565C66"/>
  <path d="M192 220 L242 213 L245 254 L196 261 C190 248 188 232 192 220 Z" fill="#7A828E"/>
  <!-- collar bunch -->
  <path d="M198 220 C194 200 202 184 220 178 C232 174 244 176 252 184 L248 198 C240 192 230 191 222 195 C212 200 206 209 208 220 Z" fill="#3D4148"/>
  <path d="M172 372 C220 384 292 384 336 374 L336 392 C292 402 220 402 172 390 Z" fill="#3D4148"/>
  <rect x="288" y="374" width="26" height="18" rx="3" fill="#9AA3B0"/>
</svg>
