<svg xmlns="http://www.w3.org/2000/svg" viewBox="0 0 512 512" width="512" height="512">
  <!-- Wizard T4 north: brocade back - constellation field, mantle, hood w/ silver edge. -->
  <path d="M160 242 C172 212 206 196 256 196 C306 196 340 212 352 242 L348 402 C346 440 318 462 256 462 C194 462 166 440 164 402 Z" fill="#1E2440"/>
  <circle cx="212" cy="360" r="4" fill="#C7CEDB"/>
  <circle cx="240" cy="392" r="3" fill="#C7CEDB"/>
  <circle cx="222" cy="428" r="3" fill="#C7CEDB"/>
  <circle cx="296" cy="352" r="4" fill="#C7CEDB"/>
  <circle cx="312" cy="396" r="3" fill="#C7CEDB"/>
  <path d="M212 360 L240 392 L222 428 M296 352 L312 396" stroke="#97A1B5" stroke-width="2.5" fill="none" opacity="0.7"/>
  <path d="M154 250 C164 216 202 198 256 198 C310 198 348 216 358 250 L356 300 L332 284 L328 312 L304 294 L296 318 L272 300 L256 322 L240 300 L216 318 L208 294 L184 312 L180 284 L156 300 Z" fill="#2B3357"/>
  <path d="M168 246 C180 222 214 208 256 208 C298 208 332 222 344 246 L342 270 L324 260 L320 280 L300 268 L294 284 L274 272 L256 288 L238 272 L218 284 L212 268 L192 280 L188 260 L170 270 Z" fill="#3D4775"/>
  <!-- hood with silver edging -->
  <path d="M224 196 C234 190 245 188 256 188 C267 188 278 190 288 196 C294 214 288 236 274 248 C267 254 261 256 256 256 C251 256 245 254 238 248 C224 236 218 214 224 196 Z" fill="#1E2440"/>
  <path d="M238 246 C244 251 251 253 256 253 C261 253 268 251 274 246 C276 250 274 254 270 256 C264 260 248 260 242 256 C238 254 236 250 238 246 Z" fill="#C7CEDB"/>
  <path d="M166 388 C220 400 292 400 346 388 L346 408 C292 420 220 420 166 408 Z" fill="#97A1B5"/>
  <path d="M170 432 C214 450 298 450 342 432 L340 452 C298 468 214 468 172 452 Z" fill="#C7CEDB"/>
</svg>
