<svg xmlns="http://www.w3.org/2000/svg" viewBox="0 0 512 512" width="512" height="512">
  <!-- Monk T1 north: gi back, crossover seam, rope belt. -->
  <path d="M148 240 C158 196 198 170 256 170 C314 170 354 196 364 240 L360 400 C358 436 326 458 256 458 C186 458 154 436 152 400 Z" fill="#C9852E"/>
  <path d="M162 244 C172 206 208 184 256 184 C292 184 320 196 338 218 C310 198 212 200 184 234 C175 242 166 244 162 244 Z" fill="#E0A848" opacity="0.45"/>
  <path d="M176 224 C202 208 230 200 256 200 C282 200 310 208 336 224 L332 360 C312 350 200 350 180 360 Z" fill="#B06A1A"/>
  <path d="M252 204 L260 204 L258 354 L254 354 Z" fill="#A05E14"/>
  <path d="M156 384 C216 396 296 396 356 384 L356 402 C296 414 216 414 156 402 Z" fill="#9C3A1E"/>
</svg>
