<svg xmlns="http://www.w3.org/2000/svg" viewBox="0 0 512 512" width="512" height="512">
  <!-- Ranger HelmT4 north: feathered hood from behind, feather crest. -->
  <path d="M214 166 C206 142 208 118 224 102 C228 126 230 148 232 166 Z" fill="#8A8E74"/>
  <path d="M236 160 C230 132 234 108 250 94 C252 120 252 144 252 162 Z" fill="#6E8A44"/>
  <path d="M276 160 C282 132 278 108 262 94 C260 120 260 144 260 162 Z" fill="#8A8E74"/>
  <path d="M298 166 C306 142 304 118 288 102 C284 126 282 148 280 166 Z" fill="#6E8A44"/>
  <path d="M150 360 C142 270 152 190 192 160 C216 142 240 136 256 136 C272 136 296 142 320 160 C360 190 370 270 362 360 Z" fill="#46583A"/>
  <path d="M150 360 C144 290 150 220 178 184 C170 240 168 300 174 360 Z" fill="#3E5A34"/>
  <path d="M362 360 C368 290 362 220 334 184 C342 240 344 300 338 360 Z" fill="#3E5A34"/>
  <path d="M254 150 L258 150 L260 358 L252 358 Z" fill="#3E5A34"/>
  <path d="M168 206 C156 192 156 174 168 162 C170 180 174 196 180 208 C176 210 171 210 168 206 Z" fill="#8A8E74"/>
  <path d="M344 206 C356 192 356 174 344 162 C342 180 338 196 332 208 C336 210 341 210 344 206 Z" fill="#8A8E74"/>
</svg>
