<svg xmlns="http://www.w3.org/2000/svg" viewBox="0 0 512 512" width="512" height="512">
  <!-- Sorcerer T3 north: veins spread on the back, cracked shoulder, hood. -->
  <path d="M148 240 C158 196 198 170 256 170 C314 170 354 196 364 240 L360 402 C358 442 326 464 256 464 C186 464 154 442 152 402 Z" fill="#8E2A2A"/>
  <path d="M230 450 C234 420 228 392 236 364 C242 340 238 314 246 290 C250 270 248 250 240 234" stroke="#E0A030" stroke-width="4" fill="none"/>
  <path d="M282 450 C278 420 284 392 276 364 C270 340 274 314 266 290 C262 270 264 250 272 234" stroke="#E0A030" stroke-width="4" fill="none"/>
  <path d="M256 440 L256 300" stroke="#F2C84A" stroke-width="3" fill="none"/>
  <path d="M144 234 C150 204 174 186 206 184 C224 184 238 190 246 200 L240 220 C232 210 218 206 204 208 L194 286 C178 290 162 286 150 276 C144 262 142 248 144 234 Z" fill="#6E1E1E"/>
  <path d="M168 200 L182 230 L176 250 L190 270" stroke="#F2C84A" stroke-width="3" fill="none"/>
  <path d="M222 196 C232 190 244 188 256 188 C268 188 280 190 290 196 C296 216 290 240 276 254 C268 262 262 264 256 264 C250 264 244 262 236 254 C222 240 216 216 222 196 Z" fill="#6E1E1E"/>
  <path d="M230 200 C238 196 247 194 256 194 C265 194 274 196 282 200 C286 214 282 230 272 242 C266 248 261 250 256 250 C251 250 246 248 240 242 C230 230 226 214 230 200 Z" fill="#8E2A2A"/>
  <path d="M152 440 C200 452 312 452 360 440 C340 458 300 466 256 466 C212 466 172 458 152 440 Z" fill="#3A1414"/>
  <path d="M166 388 C220 400 292 400 346 388 L346 404 C292 416 220 416 166 404 Z" fill="#5C3D24"/>
</svg>
