<svg xmlns="http://www.w3.org/2000/svg" viewBox="0 0 512 512" width="512" height="512">
  <!-- Paladin T5 helm, north: haloed crown from behind, halo ring, plume trailing, gold band. -->
  <ellipse cx="256" cy="92" rx="64" ry="16" fill="none" stroke="#F2E8C0" stroke-width="8" opacity="0.85"/>
  <path d="M168 198 C148 186 134 166 130 142 C144 146 156 158 162 174 C162 156 168 140 180 128 C184 146 182 166 174 182 C172 188 170 194 168 198 Z" fill="#C4CBD6"/>
  <path d="M344 198 C364 186 378 166 382 142 C368 146 356 158 350 174 C350 156 344 140 332 128 C328 146 330 166 338 182 C340 188 342 194 344 198 Z" fill="#C4CBD6"/>
  <path d="M248 150 C242 112 246 76 258 50 C272 76 276 112 270 150 L274 220 C266 230 244 230 236 220 Z" fill="#2E4E9E"/>
  <path d="M158 250 C154 190 202 148 256 148 C310 148 358 190 354 250 C356 296 340 336 310 354 L202 354 C172 336 156 296 158 250 Z" fill="#C4CBD6"/>
  <path d="M158 250 C154 190 202 148 256 148 C310 148 358 190 354 250 L352 258 C346 212 308 184 256 184 C204 184 166 212 160 258 Z" fill="#F2E8C0" opacity="0.8"/>
  <path d="M166 312 C196 298 316 298 346 312 L340 332 C312 318 200 318 172 332 Z" fill="#C9A23F"/>
  <path d="M196 244 L202 230 L210 244 Z" fill="#C9A23F"/>
  <path d="M302 244 L310 230 L316 244 Z" fill="#C9A23F"/>
</svg>
