<svg xmlns="http://www.w3.org/2000/svg" viewBox="0 0 512 512" width="512" height="512">
  <!-- Barbarian vestment T2 (L5-9): hide vest, wolf-pelt shoulder, bone clasps, first rust-red. -->
  <!-- base pawn -->
  <path d="M156 250 C156 215 196 195 256 195 C316 195 356 215 356 250 L350 420 C348 445 320 458 256 458 C192 458 164 445 162 420 Z" fill="#E8B98F"/>
  <path d="M340 230 C348 260 350 330 346 400 C352 380 356 300 352 250 C350 240 346 233 340 230 Z" fill="#D6A276"/>
  <circle cx="256" cy="140" r="62" fill="#E8B98F"/>
  <path d="M196 128 C198 92 224 70 256 70 C288 70 314 92 316 128 C316 138 314 146 310 152 C306 122 284 104 256 104 C228 104 206 122 202 152 C198 146 196 138 196 128 Z" fill="#4A3526"/>
  <path d="M226 176 C236 188 248 194 256 194 C264 194 276 188 286 176 C284 196 272 206 256 206 C240 206 228 196 226 176 Z" fill="#4A3526"/>
  <!-- hide vest: two panels, open chest center -->
  <path d="M170 240 C176 218 198 204 226 200 L234 206 L238 420 L230 436 C204 434 180 426 168 414 L164 320 Z" fill="#8A5A33"/>
  <path d="M342 240 C336 218 314 204 286 200 L278 206 L274 420 L282 436 C308 434 332 426 344 414 L348 320 Z" fill="#8A5A33"/>
  <path d="M176 244 C182 226 200 214 222 210 L226 216 L228 300 L172 300 L170 268 C170 258 172 250 176 244 Z" fill="#6B4426" opacity="0.45"/>
  <path d="M336 244 C330 226 312 214 290 210 L286 216 L284 300 L340 300 L342 268 C342 258 340 250 336 244 Z" fill="#6B4426" opacity="0.45"/>
  <!-- bone clasp toggles across the open chest -->
  <path d="M236 250 L276 250 L276 260 L236 260 Z" fill="#5C3D24"/>
  <ellipse cx="256" cy="255" rx="16" ry="7" fill="#E8E0CC"/>
  <path d="M236 312 L276 312 L276 322 L236 322 Z" fill="#5C3D24"/>
  <ellipse cx="256" cy="317" rx="16" ry="7" fill="#E8E0CC"/>
  <!-- wolf-pelt over the left shoulder, jagged hem -->
  <path d="M160 240 C162 214 184 198 214 194 C232 192 246 198 252 210 L248 228 C240 220 228 216 216 218 L224 238 L208 234 L214 256 L196 248 L200 272 L184 260 L186 286 L172 272 L172 296 L160 282 Z" fill="#6E6E78"/>
  <path d="M166 240 C170 220 186 206 208 202 C222 200 234 204 240 212 L238 220 C230 213 219 210 208 212 C190 215 176 226 172 242 Z" fill="#8B8B96"/>
  <path d="M163 262 L173 274 L171 252 Z" fill="#55555E"/>
  <path d="M180 276 L190 288 L188 266 Z" fill="#55555E"/>
  <!-- rust-red waist cloth -->
  <path d="M164 396 C220 408 292 408 348 396 L348 418 C292 430 220 430 164 418 Z" fill="#A33B2A"/>
  <path d="M236 404 L228 452 L244 440 L252 456 L260 438 L274 450 L268 404 Z" fill="#A33B2A"/>
  <path d="M240 408 L236 438 L246 430 L252 442 L258 428 L266 436 L262 408 Z" fill="#7E2C1F"/>
</svg>
