<svg xmlns="http://www.w3.org/2000/svg" viewBox="0 0 512 512" width="512" height="512">
  <!-- Fighter T1 north: gambeson back, quilting, belt. -->
  <path d="M148 240 C158 196 198 170 256 170 C314 170 354 196 364 240 L360 396 C358 428 326 444 256 444 C186 444 154 428 152 396 Z" fill="#8A8273"/>
  <path d="M168 238 C178 204 212 184 256 184 C300 184 334 204 344 238 L342 290 L170 290 Z" fill="#9C9484" opacity="0.45"/>
  <path d="M196 186 L194 438 M226 176 L225 442 M256 172 L256 444 M286 176 L287 442 M316 186 L318 438" stroke="#6E6759" stroke-width="5" fill="none"/>
  <path d="M158 268 C212 256 300 256 354 268 M154 330 C212 318 300 318 358 330" stroke="#6E6759" stroke-width="5" fill="none"/>
  <path d="M222 174 C234 168 244 166 256 166 C268 166 278 168 290 174 C292 186 288 198 278 206 C264 214 248 214 234 206 C224 198 220 186 222 174 Z" fill="#6E6759"/>
  <path d="M154 376 C214 388 298 388 358 376 L358 396 C298 408 214 408 154 396 Z" fill="#5C3D24"/>
</svg>
