<svg xmlns="http://www.w3.org/2000/svg" viewBox="0 0 512 512" width="512" height="512">
  <!-- Warlock HelmT4 south: jagged-collar hood + a glowing eye motif on the brow. -->
  <path d="M170 340 C150 326 138 304 138 280 C156 296 170 312 180 330 Z" fill="#3A2356"/>
  <path d="M342 340 C362 326 374 304 374 280 C356 296 342 312 332 330 Z" fill="#3A2356"/>
  <path fill-rule="evenodd" d="M150 360 C142 280 152 196 192 164 C216 144 240 138 256 138 C272 138 296 144 320 164 C360 196 370 280 362 360 L330 360 C338 286 330 220 300 196 C284 182 270 178 256 178 C242 178 228 182 212 196 C182 220 174 286 182 360 Z" fill="#4A2E6E"/>
  <path d="M150 360 C144 300 150 230 178 192 C170 240 168 300 174 360 Z" fill="#3A2356"/>
  <path d="M362 360 C368 300 362 230 334 192 C342 240 344 300 338 360 Z" fill="#3A2356"/>
  <path d="M206 200 C196 186 192 172 194 158 C208 172 218 186 224 198 L240 192 L256 196 L272 192 L288 198 C294 186 304 172 318 158 C320 172 316 186 306 200 C288 190 268 186 256 186 C244 186 224 190 206 200 Z" fill="#5E3C84"/>
  <!-- eye motif on the hood brow -->
  <path d="M236 168 C246 158 266 158 276 168 C266 180 246 180 236 168 Z" fill="#2C1A42"/>
  <ellipse cx="256" cy="168" rx="11" ry="7" fill="#8EBE4A"/>
  <circle cx="256" cy="168" r="3.5" fill="#1E1230"/>
  <path d="M236 168 C246 159 266 159 276 168" stroke="#B6E86A" stroke-width="1.5" fill="none" opacity="0.8"/>
</svg>
