<svg xmlns="http://www.w3.org/2000/svg" viewBox="0 0 512 512" width="512" height="512">
  <!-- Druid T2 hat, east: leather cap profile w/ fur trim, crown + nape coverage. -->
  <path d="M148 252 C144 190 194 148 256 148 C312 148 356 186 356 240 C356 252 350 262 340 268 L320 262 C310 256 304 250 302 244 L242 244 C240 290 234 328 220 352 L186 352 C160 326 146 292 148 252 Z" fill="#6B4426"/>
  <path d="M162 242 C166 198 202 164 254 164 C284 164 310 178 326 202 C300 182 214 184 188 214 C174 228 164 234 162 242 Z" fill="#8A5A33"/>
  <!-- fur trim along the brow + back edge -->
  <path d="M300 240 C322 240 340 248 348 260 L340 272 C330 260 316 254 298 254 L242 254 C240 256 238 258 238 260 C234 300 228 330 216 350 L198 350 C212 322 218 286 218 252 L220 240 Z" fill="#7A6A50"/>
  <path d="M306 238 L314 226 L322 240 L332 230 L340 244 L350 236 L354 250 L344 258 C336 248 322 242 306 242 Z" fill="#7A6A50"/>
</svg>
