<svg xmlns="http://www.w3.org/2000/svg" viewBox="0 0 512 512" width="512" height="512">
  <!-- Cleric T1 north: habit back, hanging hood, rope belt. -->
  <path d="M148 240 C158 196 198 170 256 170 C314 170 354 196 364 240 L360 400 C358 436 326 458 256 458 C186 458 154 436 152 400 Z" fill="#E8E4D8"/>
  <path d="M162 244 C172 206 208 184 256 184 C292 184 320 196 338 218 C310 198 212 200 184 234 C175 242 166 244 162 244 Z" fill="#F5F2E8" opacity="0.6"/>
  <!-- hanging hood -->
  <path d="M222 174 C232 166 244 164 256 164 C268 164 280 166 290 174 C296 196 290 222 276 238 C268 246 262 248 256 248 C250 248 244 246 236 238 C222 222 216 196 222 174 Z" fill="#C9C2B0"/>
  <path d="M230 180 C238 174 247 172 256 172 C265 172 274 174 282 180 C286 196 282 214 272 226 C266 232 261 234 256 234 C251 234 246 232 240 226 C230 214 226 196 230 180 Z" fill="#E8E4D8"/>
  <path d="M156 384 C216 396 296 396 356 384 L356 402 C296 414 216 414 156 402 Z" fill="#A9744A"/>
</svg>
