<svg xmlns="http://www.w3.org/2000/svg" viewBox="0 0 512 512" width="512" height="512">
  <!-- Monk T4 head-wrap, east: silk wrap, gold brow band + bead, nape coverage. -->
  <path d="M148 254 C144 190 196 146 256 146 C312 146 356 184 356 240 C356 252 350 262 340 268 L320 262 C310 256 304 250 302 244 L242 244 C240 290 234 328 220 352 L186 352 C160 326 146 292 148 254 Z" fill="#D8902E"/>
  <path d="M162 244 C166 200 202 166 254 166 C284 166 310 180 326 204 C300 184 214 186 188 214 C174 228 164 234 162 244 Z" fill="#F0BA58"/>
  <path d="M300 244 C322 244 340 252 348 264 L340 276 C330 264 316 258 298 258 L242 258 C240 260 238 262 238 264 C234 300 228 330 216 350 L198 350 C212 322 218 286 218 252 L220 244 Z" fill="#A8431A"/>
  <path d="M300 246 C320 246 338 254 346 266 L345 272 C337 260 318 254 300 254 L240 254 C238 256 237 258 237 260 L219 250 L220 246 Z" fill="#C9A23F"/>
  <circle cx="300" cy="252" r="7" fill="#C9A23F"/>
  <circle cx="300" cy="252" r="3.5" fill="#8A6E48"/>
</svg>
