<svg xmlns="http://www.w3.org/2000/svg" viewBox="0 0 512 512" width="512" height="512">
  <!-- Barbarian T5 north: blackened backplate, gold spine, ember cracks, heavy dark fur mantle. -->
  <path d="M178 248 C198 230 226 222 257 222 C288 222 316 230 336 248 L332 376 C330 394 324 404 310 410 L204 410 C190 404 184 394 182 376 Z" fill="#2E3138"/>
  <path d="M186 254 C204 240 230 232 257 232 C284 232 310 240 328 254 L325 352 L189 352 Z" fill="#454A54"/>
  <path d="M251 236 L263 236 L261 406 L253 406 Z" fill="#C9A23F"/>
  <path d="M184 378 C210 390 304 390 330 378 L329 392 C302 404 212 404 185 392 Z" fill="#C9A23F"/>
  <path d="M214 320 L228 336 L222 340 L236 356 L226 356 L214 340 L220 336 Z" fill="#FF5A2A"/>
  <path d="M300 320 L286 336 L292 340 L278 356 L288 356 L300 340 L294 336 Z" fill="#FF5A2A"/>
  <path d="M176 394 C228 406 288 406 338 394 L338 448 C336 458 310 464 257 464 C204 464 178 458 176 448 Z" fill="#6B4426"/>
  <path d="M176 388 C228 400 288 400 338 388 L338 406 C288 418 228 418 176 406 Z" fill="#5C3D24"/>
  <!-- heavy dark fur mantle from behind -->
  <path d="M154 252 C150 218 176 196 216 190 L234 184 L257 182 L280 184 L300 190 C340 196 364 218 360 252 L360 298 L344 284 L346 310 L328 296 L332 322 L314 308 L316 332 L298 320 L216 320 L198 332 L200 308 L182 322 L186 296 L168 310 L170 284 L154 298 Z" fill="#4A4A52"/>
  <path d="M162 250 C160 226 182 208 212 202 L234 196 L257 194 L280 196 L300 204 C328 209 346 224 348 246 L340 250 C334 232 320 220 300 216 L257 210 L214 216 C194 220 176 232 170 250 Z" fill="#6E6E78"/>
  <path d="M158 276 L170 290 L168 266 Z" fill="#3A3A40"/>
  <path d="M354 276 L342 290 L344 266 Z" fill="#3A3A40"/>
  <path d="M184 300 L196 314 L194 290 Z" fill="#3A3A40"/>
  <path d="M328 300 L316 314 L318 290 Z" fill="#3A3A40"/>
  <path d="M208 254 C224 246 240 242 257 242 C274 242 290 246 306 254 L302 262 C288 255 273 252 257 252 C241 252 226 255 212 262 Z" fill="#FF5A2A" opacity="0.5"/>
</svg>
