<svg xmlns="http://www.w3.org/2000/svg" viewBox="0 0 512 512" width="512" height="512">
  <!-- Barbarian vestment T3 (L10-14): big asymmetric fur mantle, bare shoulder, X harness, warpaint. -->
  <!-- base pawn -->
  <path d="M156 250 C156 215 196 195 256 195 C316 195 356 215 356 250 L350 420 C348 445 320 458 256 458 C192 458 164 445 162 420 Z" fill="#E8B98F"/>
  <path d="M340 230 C348 260 350 330 346 400 C352 380 356 300 352 250 C350 240 346 233 340 230 Z" fill="#D6A276"/>
  <circle cx="256" cy="140" r="62" fill="#E8B98F"/>
  <path d="M196 128 C198 92 224 70 256 70 C288 70 314 92 316 128 C316 138 314 146 310 152 C306 122 284 104 256 104 C228 104 206 122 202 152 C198 146 196 138 196 128 Z" fill="#4A3526"/>
  <path d="M226 176 C236 188 248 194 256 194 C264 194 276 188 286 176 C284 196 272 206 256 206 C240 206 228 196 226 176 Z" fill="#4A3526"/>
  <!-- warpaint: rust stripes on the bare right side -->
  <path d="M296 240 C312 248 326 260 334 276 L322 284 C314 270 302 260 290 254 Z" fill="#A33B2A"/>
  <path d="M300 290 C314 296 326 306 334 318 L324 326 C316 314 306 306 294 302 Z" fill="#A33B2A"/>
  <!-- X chest harness -->
  <path d="M174 232 L330 388 L312 402 L162 252 C164 244 168 237 174 232 Z" fill="#5C3D24"/>
  <path d="M338 232 L182 388 L200 402 L350 252 C348 244 344 237 338 232 Z" fill="#5C3D24"/>
  <circle cx="256" cy="318" r="20" fill="#B07D3C"/>
  <circle cx="256" cy="318" r="11" fill="#8A5A33"/>
  <!-- hide kilt-skirt low -->
  <path d="M164 392 C220 404 292 404 348 392 L346 442 C344 452 318 458 256 458 C194 458 168 452 166 442 Z" fill="#8A5A33"/>
  <path d="M166 400 C220 412 292 412 346 400 L346 412 C292 424 220 424 166 412 Z" fill="#6B4426" opacity="0.5"/>
  <!-- big asymmetric fur mantle: heavy on the left, leaves right shoulder bare -->
  <path d="M150 252 C146 216 172 192 212 186 C244 182 270 190 280 206 L276 226 C266 214 248 208 230 210 L242 232 L222 226 L230 252 L208 242 L214 270 L194 258 L198 288 L180 274 L182 304 L164 290 L166 318 L150 304 Z" fill="#6E6E78"/>
  <path d="M158 250 C156 224 174 204 204 198 C226 194 246 198 256 208 L252 218 C242 210 226 206 210 209 C188 213 170 228 166 250 Z" fill="#8B8B96"/>
  <path d="M152 280 L164 294 L162 270 Z" fill="#55555E"/>
  <path d="M170 296 L182 310 L180 286 Z" fill="#55555E"/>
  <path d="M186 312 L196 324 L194 304 Z" fill="#55555E"/>
  <!-- mantle collar wrapping the neck -->
  <path d="M210 188 C226 180 248 178 264 184 L260 200 C246 194 228 196 216 202 Z" fill="#55555E"/>
</svg>
