<svg xmlns="http://www.w3.org/2000/svg" viewBox="0 0 512 512" width="512" height="512">
  <!-- Wizard T3 hat, east: point drooping backward (left of screen while facing right). -->
  <path d="M200 240 C200 200 212 162 240 138 C226 130 204 130 188 142 C166 160 156 188 162 216 C170 200 182 190 196 188 C198 206 199 224 200 240 Z" fill="#2B3357"/>
  <path d="M198 240 C202 198 216 162 244 138 C270 120 298 122 316 138 C298 142 286 152 280 168 C288 192 292 216 292 240 Z" fill="#2B3357"/>
  <path d="M208 232 C214 198 228 168 252 146 C240 170 228 200 224 232 Z" fill="#3D4775"/>
  <path d="M166 210 C172 196 182 188 194 186 C184 192 176 200 172 210 Z" fill="#1E2440"/>
  <!-- brim -->
  <path d="M184 244 C210 232 312 232 338 244 L336 262 C310 250 212 250 186 262 Z" fill="#1E2440"/>
  <path d="M186 246 C212 235 310 235 336 246 L335 254 C310 243 212 243 187 254 Z" fill="#3D4775"/>
  <path d="M200 234 C224 226 294 226 308 234 L306 246 C292 238 224 238 202 246 Z" fill="#97A1B5"/>
</svg>
