<svg xmlns="http://www.w3.org/2000/svg" viewBox="0 0 512 512" width="512" height="512">
  <!-- Fighter T3 helm, north: kettle helm from behind + mail drape covering the skull back. -->
  <!-- mail drape under the brim -->
  <path d="M172 252 C198 240 314 240 340 252 C344 292 332 328 306 350 L206 350 C180 328 168 292 172 252 Z" fill="#6E7682"/>
  <path d="M196 270 L204 282 M226 268 L234 280 M256 267 L264 279 M286 268 L294 280 M312 270 L318 282 M210 300 L218 312 M244 298 L252 310 M278 298 L286 310 M304 300 L310 312 M224 328 L232 338 M260 326 L268 336 M292 328 L298 338" stroke="#3D4148" stroke-width="4" fill="none"/>
  <!-- dome -->
  <path d="M166 242 C166 190 206 154 256 154 C306 154 346 190 346 242 L344 252 L168 252 Z" fill="#565C66"/>
  <path d="M178 236 C182 198 214 170 256 170 C282 170 304 180 320 200 C296 182 218 184 194 214 C186 224 180 230 178 236 Z" fill="#7A828E"/>
  <path d="M252 156 L260 156 L259 248 L253 248 Z" fill="#3D4148"/>
  <!-- brim -->
  <path d="M136 252 C172 238 340 238 376 252 C380 262 376 271 368 275 C330 260 182 260 144 275 C136 271 132 262 136 252 Z" fill="#3D4148"/>
  <path d="M142 254 C176 242 336 242 370 254 C372 259 370 264 366 267 C330 254 182 254 146 267 C142 264 140 259 142 254 Z" fill="#565C66"/>
</svg>
