<svg xmlns="http://www.w3.org/2000/svg" viewBox="0 0 512 512" width="512" height="512">
  <!-- Druid T5 north: darkest mantle back, bone spikes, beast tail, fur kilt. -->
  <path d="M178 250 C186 228 212 216 256 214 C300 216 326 228 334 250 L338 404 C320 418 292 426 256 426 C220 426 192 418 174 404 Z" fill="#5C4E38"/>
  <path d="M142 254 C138 216 170 192 216 186 L236 180 L256 178 L278 180 L298 186 C346 192 374 216 370 254 L370 304 L354 290 L356 316 L338 302 L342 326 L324 312 L326 336 L308 324 L204 324 L186 336 L188 312 L170 326 L174 302 L156 316 L158 290 L142 304 Z" fill="#4A3F2E"/>
  <path d="M150 252 C148 222 178 202 214 196 L236 190 L256 188 L278 190 L298 198 C334 203 354 220 356 246 L348 250 C342 230 324 218 302 214 L256 208 L212 214 C190 218 170 232 164 250 Z" fill="#6B5C44"/>
  <path d="M160 232 L150 200 L174 220 Z" fill="#D8CCB4"/>
  <path d="M352 232 L362 200 L338 220 Z" fill="#D8CCB4"/>
  <!-- beast tail -->
  <path d="M246 332 C240 360 240 388 250 410 C254 420 262 420 266 410 C274 386 272 356 264 332 C258 326 252 326 246 332 Z" fill="#4A3F2E"/>
  <path d="M252 402 C250 412 254 420 260 422 C264 418 266 410 264 402 Z" fill="#3A2E20"/>
  <path d="M168 388 C226 400 290 400 346 388 L344 430 L332 420 L326 434 L314 424 L306 436 L294 426 L284 436 L270 426 L258 438 L246 426 L232 436 L222 424 L210 434 L200 422 L188 432 L172 420 Z" fill="#4A3F2E"/>
</svg>
