<svg xmlns="http://www.w3.org/2000/svg" viewBox="0 0 512 512" width="512" height="512">
  <!-- Warlock T2 east: robe profile, eye-brooch + clasps. -->
  <path d="M180 240 C190 196 222 172 268 172 C312 172 338 198 344 238 L340 416 C338 432 308 442 256 442 C204 442 178 432 180 416 Z" fill="#4A2E6E"/>
  <path d="M180 240 C190 200 220 178 264 178 L262 442 C212 442 178 432 180 416 Z" fill="#3A2356"/>
  <path d="M232 190 C250 182 262 180 274 180 C290 180 304 186 312 198 L306 214 C294 202 282 198 270 198 C258 198 246 200 238 208 Z" fill="#5E3C84"/>
  <ellipse cx="262" cy="206" rx="8" ry="5.5" fill="#8EBE4A"/>
  <circle cx="262" cy="206" r="2.6" fill="#1E1230"/>
  <g fill="#9A86B4">
    <path d="M246 252 L268 252 L257 263 Z"/>
    <path d="M246 298 L268 298 L257 309 Z"/>
    <path d="M246 344 L268 344 L257 355 Z"/>
  </g>
</svg>
