<svg xmlns="http://www.w3.org/2000/svg" viewBox="0 0 512 512" width="512" height="512">
  <!-- Wizard T4 hat, north: tall hat from behind, band continues. -->
  <path d="M190 242 C194 188 210 132 244 94 C254 82 268 82 276 94 C300 132 312 188 314 242 Z" fill="#1E2440"/>
  <path d="M202 232 C208 186 222 142 248 106 C234 146 222 190 220 232 Z" fill="#3D4775"/>
  <path d="M160 246 C190 230 322 230 352 246 L350 276 C320 260 192 260 162 276 Z" fill="#16182A"/>
  <path d="M162 248 C194 234 318 234 350 248 L349 262 C318 248 194 248 163 262 Z" fill="#2B3357"/>
  <path d="M192 238 C216 230 296 230 312 238 L310 252 C294 242 216 242 194 252 Z" fill="#97A1B5"/>
</svg>
