<svg xmlns="http://www.w3.org/2000/svg" viewBox="0 0 512 512" width="512" height="512">
  <!-- Barbarian T4 north: backplate w/ gold spine ridge, fur mantle from behind, sash + belt. -->
  <path d="M180 250 C200 234 226 226 257 226 C288 226 314 234 334 250 L330 374 C328 392 322 402 308 408 L206 408 C192 402 186 392 184 374 Z" fill="#3D4148"/>
  <path d="M188 256 C206 242 230 235 257 235 C284 235 308 242 326 256 L323 350 L191 350 Z" fill="#565C66"/>
  <path d="M251 240 L263 240 L261 404 L253 404 Z" fill="#C9A23F"/>
  <path d="M186 376 C210 388 304 388 328 376 L327 390 C302 402 212 402 187 390 Z" fill="#C9A23F"/>
  <path d="M324 244 L186 366 L194 390 L334 268 C332 259 329 251 324 244 Z" fill="#A33B2A" opacity="0.92"/>
  <path d="M174 392 C226 404 288 404 340 392 L340 446 C338 456 312 462 257 462 C202 462 176 456 174 446 Z" fill="#8A5A33"/>
  <path d="M174 386 C226 398 288 398 340 386 L340 404 C288 416 226 416 174 404 Z" fill="#5C3D24"/>
  <!-- fur mantle from behind: covers the upper back fully -->
  <path d="M156 254 C152 222 176 200 214 194 L232 188 L257 186 L282 188 L300 194 C338 200 362 222 358 254 L358 296 L342 282 L344 308 L326 294 L330 320 L312 306 L314 330 L296 318 L218 318 L200 330 L202 306 L184 320 L188 294 L170 308 L172 282 L156 296 Z" fill="#6E6E78"/>
  <path d="M164 252 C162 228 182 210 212 204 L232 198 L257 196 L282 198 L300 206 C326 211 344 226 346 248 L338 252 C332 234 318 222 298 218 L257 212 L216 218 C196 222 178 234 172 252 Z" fill="#8B8B96"/>
  <path d="M160 276 L172 290 L170 266 Z" fill="#55555E"/>
  <path d="M352 276 L340 290 L342 266 Z" fill="#55555E"/>
  <path d="M186 298 L198 312 L196 288 Z" fill="#55555E"/>
  <path d="M326 298 L314 312 L316 288 Z" fill="#55555E"/>
</svg>
