<svg xmlns="http://www.w3.org/2000/svg" viewBox="0 0 512 512" width="512" height="512">
  <!-- Bard T5 hat, east: grand profile - two plumes streaming back, widest brim, gold brooch. -->
  <path d="M252 134 C232 88 198 60 154 54 C158 74 172 92 194 104 C172 106 154 116 144 134 C168 152 200 158 232 150 C242 146 249 141 252 134 Z" fill="#E8E0CC"/>
  <path d="M244 146 C220 120 188 106 152 108 C162 122 178 132 198 136 C182 144 172 156 168 170 C192 176 220 170 240 154 Z" fill="#D87AB4"/>
  <path d="M238 128 C218 100 190 82 158 76 C174 92 194 106 214 114 C200 118 188 126 182 136 C200 144 222 142 238 128 Z" fill="#C9C2B0"/>
  <!-- nape fall -->
  <path d="M162 258 C178 250 210 246 244 248 C248 288 244 322 230 350 L188 350 C166 324 156 292 162 258 Z" fill="#5E2548"/>
  <path d="M174 264 C188 258 210 255 230 256 C232 292 228 320 216 342 L196 342 C178 320 170 294 174 264 Z" fill="#8E3A6E" opacity="0.45"/>
  <!-- crown -->
  <path d="M152 250 C148 192 198 152 258 152 C314 152 358 190 358 244 L356 262 C328 248 184 248 156 264 Z" fill="#5E2548"/>
  <path d="M166 240 C170 200 206 166 256 166 C288 166 314 180 330 204 C304 184 216 186 190 216 C178 228 168 234 166 240 Z" fill="#8E3A6E"/>
  <!-- widest brim -->
  <path d="M126 252 C166 234 350 234 390 252 C396 262 392 273 382 277 C340 260 178 260 134 277 C124 273 120 262 126 252 Z" fill="#5E2548"/>
  <path d="M132 254 C170 240 346 240 384 254 C386 260 384 266 380 269 C340 254 178 254 136 269 C132 266 130 260 132 254 Z" fill="#8E3A6E"/>
  <path d="M190 238 C218 230 304 230 330 238 L328 254 C306 246 216 246 192 254 Z" fill="#C9A23F"/>
  <circle cx="330" cy="244" r="9" fill="#C9A23F"/>
  <circle cx="330" cy="244" r="4.5" fill="#E8E0CC"/>
</svg>
