<svg xmlns="http://www.w3.org/2000/svg" viewBox="0 0 512 512" width="512" height="512">
  <!-- Druid T5 hood, north: grand antlers from behind, fur-lined hood, full skull coverage. -->
  <path d="M186 156 C166 122 152 80 160 40 C172 48 180 66 180 88 C188 64 204 50 224 48 C218 76 204 100 184 116 C190 96 192 74 186 56 C182 84 178 112 184 138 C185 144 185 150 186 156 Z" fill="#B5A88C"/>
  <path d="M150 110 C140 94 138 74 144 58 C152 68 156 82 154 96 C152 100 151 105 150 110 Z" fill="#9C9078"/>
  <path d="M326 156 C346 122 360 80 352 40 C340 48 332 66 332 88 C324 64 308 50 288 48 C294 76 308 100 328 116 C322 96 320 74 326 56 C330 84 334 112 328 138 C327 144 327 150 326 156 Z" fill="#B5A88C"/>
  <path d="M362 110 C372 94 374 74 368 58 C360 68 356 82 358 96 C360 100 361 105 362 110 Z" fill="#9C9078"/>
  <path d="M150 254 C146 190 196 146 256 146 C316 146 366 190 362 254 C364 300 348 340 318 358 L194 358 C164 340 148 300 150 254 Z" fill="#5A4630"/>
  <path d="M164 244 C166 200 202 166 256 166 C286 166 312 180 328 204 C302 184 216 186 190 216 C178 228 166 234 164 244 Z" fill="#6E5638"/>
  <path d="M210 160 L208 350 M256 150 L256 354 M302 160 L304 350" stroke="#3E3020" stroke-width="3" fill="none"/>
  <path d="M156 264 L172 254 L176 268 L192 258 L196 272 L212 262 L216 276 L232 266 L236 278 L256 270 L276 278 L280 266 L296 276 L300 262 L316 272 L320 258 L336 268 L340 254 L356 264 C328 248 184 248 156 264 Z" fill="#C2B591"/>
</svg>
