<svg xmlns="http://www.w3.org/2000/svg" viewBox="0 0 512 512" width="512" height="512">
  <!-- Paladin T4 helm, south: winged greathelm - steel dome, gold crest, blue plume, steel wings at the temples. -->
  <!-- steel wings flaring from the temples -->
  <path d="M168 200 C148 188 134 168 130 144 C144 148 156 160 162 176 C162 158 168 142 180 130 C184 148 182 168 174 184 C172 190 170 196 168 200 Z" fill="#9AA3B0"/>
  <path d="M132 146 C140 152 148 162 152 174 C146 162 138 152 130 146 Z" fill="#C4CBD6"/>
  <path d="M344 200 C364 188 378 168 382 144 C368 148 356 160 350 176 C350 158 344 142 332 130 C328 148 330 168 338 184 C340 190 342 196 344 200 Z" fill="#9AA3B0"/>
  <path d="M380 146 C372 152 364 162 360 174 C366 162 374 152 382 146 Z" fill="#C4CBD6"/>
  <!-- dome -->
  <path d="M158 250 C154 190 202 148 256 148 C310 148 358 190 354 250 L350 266 C322 250 190 250 162 266 Z" fill="#9AA3B0"/>
  <path d="M172 240 C174 200 210 166 256 166 C284 166 308 178 324 200 C298 182 214 184 190 212 C180 224 174 232 172 240 Z" fill="#C4CBD6"/>
  <!-- blue plume crest -->
  <path d="M248 150 C242 116 246 84 258 60 C272 84 276 116 270 150 C262 156 256 156 248 150 Z" fill="#2E4E9E"/>
  <path d="M254 142 C250 116 254 90 260 70 C268 92 270 116 264 140 Z" fill="#4A6CC4"/>
  <!-- gold crest band -->
  <path d="M250 156 L262 156 L260 248 L252 248 Z" fill="#C9A23F"/>
  <path d="M160 250 C188 236 324 236 352 250 L350 270 C322 254 190 254 162 270 Z" fill="#C9A23F"/>
  <path d="M160 262 C188 250 324 250 352 262 L350 270 C322 254 190 254 162 270 Z" fill="#8E6E24"/>
  <!-- visor cross-slit -->
  <path d="M232 222 L280 222 L280 232 L232 232 Z" fill="#565C66"/>
</svg>
