<svg xmlns="http://www.w3.org/2000/svg" viewBox="0 0 512 512" width="512" height="512">
  <!-- Monk HelmT5 south: chi-glowing headband + brow gem, glowing tails. -->
  <path d="M170 238 C162 250 161 264 167 278 C173 270 177 258 179 248 Z" fill="#A8431A"/>
  <path d="M178 240 C172 252 172 266 178 278 C184 268 186 256 186 246 Z" fill="#FFD06A"/>
  <circle cx="172" cy="284" r="8" fill="#6E4A28"/>
  <circle cx="172" cy="284" r="4" fill="#FFE08A"/>
  <path d="M178 230 C212 221 300 221 334 230 L332 252 C300 244 212 244 180 252 Z" fill="#D8902E"/>
  <path d="M178 230 C212 221 300 221 334 230 L332 252 C300 244 212 244 180 252 Z" fill="#FFE08A" opacity="0.35"/>
  <path d="M182 228 C212 220 300 220 330 228" stroke="#FFD06A" stroke-width="3" fill="none"/>
  <path d="M182 252 C212 245 300 245 330 252" stroke="#FFD06A" stroke-width="3" fill="none"/>
  <circle cx="256" cy="240" r="9" fill="#FFE08A"/>
  <circle cx="256" cy="240" r="4" fill="#FFF6D8"/>
</svg>
