<svg xmlns="http://www.w3.org/2000/svg" viewBox="0 0 512 512" width="512" height="512">
  <!-- Sorcerer T5 north: conduit back, light at the seams, glowing spine, hood. -->
  <path d="M148 240 C158 196 198 170 256 170 C314 170 354 196 364 240 L360 402 C358 442 326 464 256 464 C186 464 154 442 152 402 Z" fill="#3A1414"/>
  <path d="M251 200 L261 200 L259 458 L253 458 Z" fill="#F2C84A"/>
  <path d="M251 200 L256 200 L254 458 L253 458 Z" fill="#FFF0B8"/>
  <path d="M200 220 C210 260 196 300 208 340 C216 368 210 400 220 440" stroke="#F2C84A" stroke-width="5" fill="none"/>
  <path d="M312 220 C302 260 316 300 304 340 C296 368 302 400 292 440" stroke="#F2C84A" stroke-width="5" fill="none"/>
  <path d="M222 196 C232 190 244 188 256 188 C268 188 280 190 290 196 C296 216 290 240 276 254 C268 262 262 264 256 264 C250 264 244 262 236 254 C222 240 216 216 222 196 Z" fill="#2A0E0E"/>
  <path d="M238 246 C244 251 251 253 256 253 C261 253 268 251 274 246 C276 250 274 254 270 256 C264 260 248 260 242 256 C238 254 236 250 238 246 Z" fill="#F2C84A"/>
  <path d="M150 236 C156 206 180 188 212 186 C230 186 244 192 252 202 L246 222 C238 212 224 208 210 210 L200 288 C184 292 168 288 156 278 C150 264 148 250 150 236 Z" fill="#5A1E1E"/>
  <path d="M362 236 C356 206 332 188 300 186 C282 186 268 192 260 202 L266 222 C274 212 288 208 302 210 L312 288 C328 292 344 288 356 278 C362 264 364 250 362 236 Z" fill="#5A1E1E"/>
  <path d="M166 388 C220 400 292 400 346 388 L346 404 C292 416 220 416 166 404 Z" fill="#2A0E0E"/>
</svg>
