<svg xmlns="http://www.w3.org/2000/svg" viewBox="0 0 512 512" width="512" height="512">
  <!-- Bard T4 north: brocade coat back, full cape, gold sash. -->
  <path d="M148 240 C158 196 198 170 256 170 C314 170 354 196 364 240 L360 396 C358 430 326 448 256 448 C186 448 154 430 152 396 Z" fill="#5E2548"/>
  <!-- cape covering the back -->
  <path d="M144 232 C148 200 172 182 206 178 L232 172 L256 170 L280 172 L306 178 C340 182 364 200 368 232 L366 300 L350 286 L352 314 L334 300 L338 326 L320 312 L322 338 L304 326 L208 326 L190 338 L192 312 L174 326 L178 300 L160 314 L162 286 L146 300 Z" fill="#8E3A6E"/>
  <path d="M158 240 C164 214 186 198 216 194 L256 190 L296 194 C326 198 348 214 354 240 L352 282 L338 270 L334 296 L318 282 L314 306 L298 294 L214 294 L198 306 L194 282 L178 296 L174 270 L160 282 Z" fill="#B5538F" opacity="0.4"/>
  <!-- gold swirls on the cape -->
  <path d="M216 240 C226 232 238 232 246 240 C238 248 226 248 216 240 Z" fill="#C9A23F"/>
  <path d="M266 240 C276 232 288 232 296 240 C288 248 276 248 266 240 Z" fill="#C9A23F"/>
  <path d="M220 174 C232 164 244 160 256 160 C268 160 280 164 292 174 C294 186 290 198 280 206 C266 214 246 214 232 206 C222 198 218 186 220 174 Z" fill="#C9A23F"/>
  <path d="M154 372 C214 384 298 384 358 372 L358 394 C298 406 214 406 154 394 Z" fill="#C9A23F"/>
</svg>
