<svg xmlns="http://www.w3.org/2000/svg" viewBox="0 0 512 512" width="512" height="512">
  <!-- Wizard T2 north: lined robe back, hood with silver edge, hem band. -->
  <path d="M148 240 C158 196 198 170 256 170 C314 170 354 196 364 240 L360 402 C358 442 326 464 256 464 C186 464 154 442 152 402 Z" fill="#2B3357"/>
  <path d="M170 246 C182 220 212 206 256 206 C300 206 330 220 342 246 L340 300 L172 300 Z" fill="#3D4775" opacity="0.5"/>
  <path d="M222 196 C232 190 244 188 256 188 C268 188 280 190 290 196 C296 216 290 240 276 254 C268 262 262 264 256 264 C250 264 244 262 236 254 C222 240 216 216 222 196 Z" fill="#1E2440"/>
  <path d="M236 252 C242 258 250 261 256 261 C262 261 270 258 276 252 C278 256 277 260 272 263 C266 267 246 267 240 263 C235 260 234 256 236 252 Z" fill="#97A1B5"/>
  <path d="M166 388 C220 400 292 400 346 388 L346 406 C292 418 220 418 166 406 Z" fill="#1E2440"/>
  <path d="M170 436 C214 452 298 452 342 436 L340 450 C298 464 214 464 172 450 Z" fill="#97A1B5"/>
</svg>
