<svg xmlns="http://www.w3.org/2000/svg" viewBox="0 0 512 512" width="512" height="512">
  <!-- Bard T3 hat, north: performer's cap from behind + cloth fall covering the skull, feather trailing. -->
  <path d="M236 144 C230 104 212 72 184 54 C178 64 178 80 186 96 C174 88 160 86 148 90 C154 110 170 128 190 138 C206 146 222 148 236 144 Z" fill="#E8E0CC"/>
  <path d="M228 138 C222 108 208 82 188 66 C192 84 202 102 216 116 C206 112 194 112 184 116 C194 128 210 136 228 138 Z" fill="#C9C2B0"/>
  <!-- cloth fall covering the back of the skull -->
  <path d="M172 250 C198 238 314 238 340 250 C344 292 332 330 306 352 L206 352 C180 330 168 292 172 250 Z" fill="#8E3A6E"/>
  <path d="M182 256 C204 246 308 246 330 256 C332 292 322 324 300 344 L212 344 C190 324 180 292 182 256 Z" fill="#5E2548" opacity="0.4"/>
  <!-- crown dome -->
  <path d="M156 248 C148 196 198 152 256 150 C316 148 364 192 356 248 L352 262 C324 246 186 246 158 262 Z" fill="#8E3A6E"/>
  <path d="M172 240 C174 200 210 166 256 166 C286 166 312 180 328 204 C302 184 216 186 190 216 C178 228 172 234 172 240 Z" fill="#B5538F"/>
  <!-- brim -->
  <path d="M140 250 C176 236 340 236 376 250 C380 260 376 269 368 273 C330 258 182 258 144 273 C136 269 134 260 140 250 Z" fill="#5E2548"/>
  <path d="M188 240 C214 232 300 232 324 240 L322 252 C302 244 214 244 190 252 Z" fill="#C9A23F"/>
</svg>
