<svg xmlns="http://www.w3.org/2000/svg" viewBox="0 0 512 512" width="512" height="512">
  <!-- Ranger HelmT5 east: warden hood profile, feather crest + mist wreath + leaf. -->
  <path d="M158 300 C142 296 130 286 128 272 C144 276 156 284 164 296 Z" fill="#B8C4B0" opacity="0.45"/>
  <path d="M360 240 C376 240 388 234 392 222 C376 222 362 228 354 238 Z" fill="#B8C4B0" opacity="0.4"/>
  <path d="M222 166 C214 142 216 118 232 102 C236 126 238 148 240 166 Z" fill="#8A8E74"/>
  <path d="M246 160 C240 132 244 108 260 94 C262 120 262 144 262 162 Z" fill="#6E8A44"/>
  <path d="M280 162 C288 138 286 116 272 102 C268 124 266 146 264 164 Z" fill="#8A8E74"/>
  <path fill-rule="evenodd" d="M168 358 C158 274 168 196 206 162 C230 144 252 138 270 138 C306 138 338 162 348 202 L350 358 L318 358 C324 282 314 224 288 200 C274 188 260 184 248 186 C228 190 210 222 204 282 L202 358 Z" fill="#46583A"/>
  <path d="M168 358 C160 290 168 220 198 182 C188 240 186 300 192 358 Z" fill="#3E5A34"/>
  <path d="M248 186 C262 184 276 188 290 200 L284 210 C272 198 260 196 250 198 Z" fill="#5C4630"/>
  <rect x="256" y="190" width="18" height="11" rx="2" fill="#9AA3B0"/>
  <path d="M166 326 C158 332 154 342 156 352 C164 348 170 340 170 330 Z" fill="#6E8A44"/>
</svg>
