<svg xmlns="http://www.w3.org/2000/svg" viewBox="0 0 512 512" width="512" height="512">
  <!-- Fighter T3 south: half-plate - steel cuirass over brigandine skirt, SQUARED pauldrons. -->
  <!-- brigandine lower -->
  <path d="M152 300 C158 290 200 284 256 284 C312 284 354 290 360 300 L360 396 C358 428 326 444 256 444 C186 444 154 428 152 396 Z" fill="#5C3D24"/>
  <circle cx="212" cy="340" r="5" fill="#9AA3B0"/><circle cx="256" cy="336" r="5" fill="#9AA3B0"/><circle cx="300" cy="340" r="5" fill="#9AA3B0"/>
  <circle cx="216" cy="392" r="5" fill="#9AA3B0"/><circle cx="296" cy="392" r="5" fill="#9AA3B0"/>
  <!-- steel cuirass -->
  <path d="M158 240 C168 198 204 172 256 172 C308 172 344 198 354 240 L350 296 C322 308 190 308 162 296 Z" fill="#565C66"/>
  <path d="M172 240 C182 206 214 184 256 184 C284 184 308 194 324 212 C298 196 212 198 188 226 C180 232 175 236 172 240 Z" fill="#7A828E"/>
  <path d="M252 176 L260 176 L259 304 L253 304 Z" fill="#3D4148"/>
  <!-- cobalt cloth at the waist seam -->
  <path d="M160 292 C214 304 298 304 352 292 L352 308 C298 320 214 320 160 308 Z" fill="#2E4E9E"/>
  <!-- squared pauldrons: the silhouette beat -->
  <path d="M138 222 L196 210 L200 262 L146 274 C138 258 134 238 138 222 Z" fill="#565C66"/>
  <path d="M142 226 L190 216 L193 250 L148 260 C143 250 140 237 142 226 Z" fill="#7A828E"/>
  <path d="M374 222 L316 210 L312 262 L366 274 C374 258 378 238 374 222 Z" fill="#565C66"/>
  <path d="M370 226 L322 216 L319 250 L364 260 C369 250 372 237 370 226 Z" fill="#7A828E"/>
  <!-- collar plate -->
  <path d="M220 174 C232 166 244 164 256 164 C268 164 280 166 292 174 L286 192 C274 184 264 182 256 182 C248 182 238 184 226 192 Z" fill="#3D4148"/>
  <!-- belt -->
  <path d="M154 378 C214 390 298 390 358 378 L358 398 C298 410 214 410 154 398 Z" fill="#3D4148"/>
  <rect x="240" y="380" width="32" height="20" rx="3" fill="#9AA3B0"/>
</svg>
