<svg xmlns="http://www.w3.org/2000/svg" viewBox="0 0 512 512" width="512" height="512">
  <!-- Druid T2 hat, north: leather cap covering the skull back, fur trim low. -->
  <path d="M154 250 C150 190 198 148 256 148 C314 148 362 190 358 250 C360 296 344 336 314 354 L198 354 C168 336 152 296 154 250 Z" fill="#6B4426"/>
  <path d="M168 242 C170 198 206 164 256 164 C286 164 312 178 328 202 C302 182 216 184 190 214 C178 226 170 232 168 242 Z" fill="#8A5A33"/>
  <path d="M170 316 L184 304 L194 318 L208 306 L218 320 L234 308 L244 322 L256 308 L268 322 L284 308 L294 320 L308 306 L318 318 L332 304 L342 316 L336 336 C310 322 202 322 176 336 Z" fill="#7A6A50"/>
</svg>
