<svg xmlns="http://www.w3.org/2000/svg" viewBox="0 0 512 512" width="512" height="512">
  <!-- Monk T2 south: cleaner gi, cream cloth forearm wraps, knotted sash. -->
  <path d="M148 240 C158 196 198 170 256 170 C314 170 354 196 364 240 L360 400 C358 436 326 458 256 458 C186 458 154 436 152 400 Z" fill="#C9852E"/>
  <path d="M162 244 C172 206 208 184 256 184 C292 184 320 196 338 218 C310 198 212 200 184 234 C175 242 166 244 162 244 Z" fill="#E0A848" opacity="0.5"/>
  <path d="M170 224 C196 208 226 200 258 204 L340 290 L336 360 C320 350 200 350 176 360 L168 290 Z" fill="#B06A1A"/>
  <path d="M178 232 C202 218 230 212 256 216 L330 292 L328 304 L252 226 C226 222 200 228 184 240 Z" fill="#A05E14"/>
  <!-- cream cloth wraps at the forearms/sides -->
  <path d="M152 320 C160 312 172 312 178 320 L176 380 C170 372 160 372 154 380 Z" fill="#E0D2B0"/>
  <path d="M360 320 C352 312 340 312 334 320 L336 380 C342 372 352 372 358 380 Z" fill="#E0D2B0"/>
  <path d="M156 332 L174 332 M156 350 L174 350 M338 332 L356 332 M338 350 L356 350" stroke="#C9BB98" stroke-width="3" fill="none"/>
  <!-- knotted sash, brighter rust -->
  <path d="M156 384 C216 396 296 396 356 384 L356 404 C296 416 216 416 156 404 Z" fill="#A8431A"/>
  <path d="M248 392 L240 444 L254 434 L260 448 L266 432 L278 442 L270 392 Z" fill="#A8431A"/>
  <path d="M252 396 L246 430 L256 422 L262 432 L268 420 L274 428 L268 396 Z" fill="#8A3414"/>
</svg>
