<svg xmlns="http://www.w3.org/2000/svg" viewBox="0 0 512 512" width="512" height="512">
  <!-- Wizard T4 hat, north: tall hat from behind, band continues. -->
  <path d="M190 242 C194 188 210 132 244 94 C254 82 268 82 276 94 C300 132 312 188 314 242 Z" fill="#1E2440"/>
  <path d="M202 232 C208 186 222 142 248 106 C234 146 222 190 220 232 Z" fill="#3D4775"/>
  <path d="M168 248 C198 234 314 234 344 248 L342 268 C314 254 198 254 170 268 Z" fill="#16182A"/>
  <path d="M170 250 C200 238 312 238 342 250 L341 259 C312 247 200 247 171 259 Z" fill="#2B3357"/>
  <path d="M192 238 C216 230 296 230 312 238 L310 252 C294 242 216 242 194 252 Z" fill="#97A1B5"/>
</svg>
