<svg xmlns="http://www.w3.org/2000/svg" viewBox="0 0 512 512" width="512" height="512">
  <!-- Paladin T2 east: mail + breastplate profile, blue surcoat skirt, oath belt. -->
  <path d="M164 236 C172 192 204 166 256 166 C302 166 334 188 344 230 L342 386 C340 414 312 428 254 428 C200 428 166 414 168 386 Z" fill="#7A828E"/>
  <path d="M180 280 C214 272 312 272 340 280 M180 318 C214 310 312 310 340 318" stroke="#565C66" stroke-width="3" fill="none"/>
  <path d="M176 318 C220 330 300 330 338 318 L336 440 C300 450 220 450 178 440 Z" fill="#2E4E9E"/>
  <path d="M200 218 C222 204 244 198 264 200 L322 222 L320 324 C302 312 282 306 262 306 C238 306 216 312 200 324 Z" fill="#9AA3B0"/>
  <path d="M212 226 C230 216 250 210 266 212 L312 230 L310 284 C294 276 276 272 262 272 C240 272 220 276 204 286 Z" fill="#C4CBD6" opacity="0.6"/>
  <path d="M318 226 L324 228 L322 322 L316 324 Z" fill="#2E4E9E"/>
  <path d="M198 222 C194 202 202 186 220 180 C232 176 244 178 252 186 L248 200 C240 194 230 193 222 197 C212 202 206 211 208 222 Z" fill="#565C66"/>
  <path d="M174 372 C222 384 294 384 336 374 L336 392 C294 402 222 402 174 390 Z" fill="#565C66"/>
  <rect x="288" y="374" width="24" height="16" rx="3" fill="#9AA3B0"/>
</svg>
