<svg xmlns="http://www.w3.org/2000/svg" viewBox="0 0 512 512" width="512" height="512">
  <!-- Wizard T2 east: lined robe profile, silver cuff and hem. -->
  <path d="M164 236 C172 192 204 166 256 166 C302 166 334 188 344 230 L342 386 C340 414 312 430 254 430 C200 430 166 414 168 386 Z" fill="#2B3357"/>
  <path d="M184 246 C194 218 222 204 260 204 C296 204 322 217 334 240 L332 310 L184 310 Z" fill="#3D4775" opacity="0.5"/>
  <path d="M196 226 C192 206 200 190 218 184 C230 180 242 182 250 190 L246 204 C238 198 228 197 220 201 C210 206 204 215 206 226 Z" fill="#1E2440"/>
  <!-- silver cuff on the near sleeve -->
  <path d="M296 298 L330 298 L330 314 L296 314 Z" fill="#97A1B5"/>
  <path d="M304 302 L310 310 M314 302 L320 310" stroke="#2B3357" stroke-width="4" fill="none"/>
  <path d="M192 368 C232 380 294 380 328 370 L328 388 C294 398 232 398 192 386 Z" fill="#1E2440"/>
  <path d="M196 402 C234 416 294 416 326 404 L324 418 C294 428 234 428 198 416 Z" fill="#97A1B5"/>
</svg>
