<svg xmlns="http://www.w3.org/2000/svg" viewBox="0 0 512 512" width="512" height="512">
  <!-- Druid T3 east: bark mantle profile over the shoulders, fur trim, leaf. -->
  <path d="M164 236 C172 192 204 166 256 166 C302 166 334 188 344 230 L342 386 C340 414 312 428 254 428 C200 428 166 414 168 386 Z" fill="#5E6B43"/>
  <path d="M182 240 C192 206 220 186 258 186 C290 186 314 198 328 220 C304 200 216 202 194 232 C188 236 184 238 182 240 Z" fill="#74824E" opacity="0.45"/>
  <path d="M212 178 L210 424 M252 168 L252 428 M292 178 L294 424" stroke="#4A5634" stroke-width="5" fill="none"/>
  <path d="M238 240 L296 240 L294 360 L242 360 Z" fill="#6E5638"/>
  <!-- bark mantle profile -->
  <path d="M158 246 C166 212 206 192 262 192 C312 192 348 212 356 246 L352 296 L334 282 L328 304 L306 290 L298 310 L276 296 L266 288 C254 282 236 284 226 292 L214 302 L196 300 L188 290 Z" fill="#6E5638"/>
  <path d="M170 248 C180 220 216 202 262 202 C306 202 338 218 348 248 L346 276 L330 264 L324 284 L304 270 L296 288 L276 276 L266 270 C254 264 238 266 228 274 L218 282 L202 286 L192 280 Z" fill="#856A48"/>
  <path d="M212 226 L210 296 M252 220 L252 300 M290 228 L292 290" stroke="#4E3C26" stroke-width="3" opacity="0.7" fill="none"/>
  <!-- fur trim -->
  <path d="M192 298 L206 290 L210 304 L226 296 L230 308 L246 300 L250 310 L266 302 L270 312 L286 304 L290 290 L306 300 L310 286 L326 296 C310 308 280 314 250 314 C224 314 204 308 192 298 Z" fill="#CBBE9E"/>
  <path d="M160 252 C152 246 148 236 150 226 C160 230 166 240 166 250 Z" fill="#6E8A44"/>
  <path d="M174 376 C222 388 294 388 336 378 L336 396 C294 406 222 406 174 394 Z" fill="#8A6E4A"/>
</svg>
