<svg xmlns="http://www.w3.org/2000/svg" viewBox="0 0 512 512" width="512" height="512">
  <!-- Wizard T2 hat, south: snug cloth skullcap covering the whole crown, silver edge. -->
  <path d="M168 250 C164 196 202 158 256 158 C310 158 348 196 344 250 L338 266 C314 252 198 252 174 266 Z" fill="#2B3357"/>
  <path d="M180 242 C180 202 212 172 256 172 C282 172 304 184 318 204 C294 188 222 190 198 216 C188 226 182 234 180 242 Z" fill="#3D4775"/>
  <path d="M252 160 L260 160 L258 248 L254 248 Z" fill="#1E2440"/>
  <path d="M170 250 C196 238 316 238 342 250 L340 268 C314 254 198 254 172 268 Z" fill="#97A1B5"/>
</svg>
