<svg xmlns="http://www.w3.org/2000/svg" viewBox="0 0 512 512" width="512" height="512">
  <!-- Barbarian T1 south: ragged hide wrap + rope belt. Canvas = 1.5x1.5 cells on the body node. -->
  <path d="M170 226 C196 210 226 204 258 208 L356 296 L354 360 L344 364 L330 350 L326 368 L310 354 L306 374 L290 358 L284 376 L270 362 L266 378 L250 364 L244 380 L232 366 L224 378 L210 364 L204 374 L192 360 L186 368 L174 356 L172 296 Z" fill="#8A5A33"/>
  <path d="M176 232 C200 218 228 212 256 216 L348 296 L346 308 L252 226 C226 222 200 228 182 240 Z" fill="#6B4426"/>
  <path d="M172 304 L352 304 L352 316 L172 316 Z" fill="#6B4426" opacity="0.35"/>
  <path d="M296 206 C312 210 328 220 340 234 L326 246 C316 232 302 222 288 216 Z" fill="#6B4426"/>
  <path d="M170 392 C224 404 290 404 344 392 L344 410 C290 422 224 422 170 410 Z" fill="#A9744A"/>
  <path d="M184 396 L192 414 M212 400 L218 418 M242 403 L246 420 M272 403 L276 420 M302 401 L308 418 M328 396 L334 414" stroke="#6B4426" stroke-width="7" fill="none"/>
  <circle cx="256" cy="410" r="13" fill="#A9744A"/>
  <path d="M249 418 L242 436 L253 429 L257 440 L262 428 L272 435 L263 416 Z" fill="#A9744A"/>
</svg>
