<svg xmlns="http://www.w3.org/2000/svg" viewBox="0 0 512 512" width="512" height="512">
  <!-- Cleric T2 south: white tabard over the habit, small gold sun emblem. -->
  <path d="M148 240 C158 196 198 170 256 170 C314 170 354 196 364 240 L360 400 C358 436 326 458 256 458 C186 458 154 436 152 400 Z" fill="#C9C2B0"/>
  <!-- tabard panel -->
  <path d="M194 192 C212 180 232 174 256 174 C280 174 300 180 318 192 L314 444 C296 452 278 456 256 456 C234 456 216 452 198 444 Z" fill="#E8E4D8"/>
  <path d="M204 200 C220 190 238 184 256 184 C274 184 292 190 308 200 L306 270 L206 270 Z" fill="#F5F2E8" opacity="0.7"/>
  <!-- gold tabard edges -->
  <path d="M194 192 L200 190 L204 444 L198 446 Z" fill="#C9A23F"/>
  <path d="M318 192 L312 190 L308 444 L314 446 Z" fill="#C9A23F"/>
  <!-- small gold sun emblem -->
  <circle cx="256" cy="262" r="16" fill="#C9A23F"/>
  <circle cx="256" cy="262" r="8" fill="#E8E4D8"/>
  <path d="M256 238 L256 228 M256 286 L256 296 M232 262 L222 262 M280 262 L290 262 M239 245 L232 238 M273 245 L280 238 M239 279 L232 286 M273 279 L280 286" stroke="#C9A23F" stroke-width="5" fill="none"/>
  <!-- collar -->
  <path d="M218 176 C230 166 244 162 256 162 C268 162 282 166 294 176 L286 198 C274 186 264 182 256 182 C248 182 238 186 226 198 Z" fill="#C9A23F"/>
  <!-- belt -->
  <path d="M156 384 C216 396 296 396 356 384 L356 402 C296 414 216 414 156 402 Z" fill="#A9744A"/>
</svg>
