<svg xmlns="http://www.w3.org/2000/svg" viewBox="0 0 512 512" width="512" height="512">
  <!-- Paladin T2 north: mail back + backplate, blue surcoat skirt. -->
  <path d="M148 240 C158 196 198 170 256 170 C314 170 354 196 364 240 L360 400 C358 436 326 458 256 458 C186 458 154 436 152 400 Z" fill="#7A828E"/>
  <path d="M170 280 C200 272 312 272 342 280 M166 320 C200 312 312 312 346 320" stroke="#565C66" stroke-width="3" fill="none"/>
  <path d="M170 320 C212 332 300 332 342 320 L340 444 C302 454 210 454 172 444 Z" fill="#2E4E9E"/>
  <path d="M250 326 L262 326 L260 450 L252 450 Z" fill="#1F3568"/>
  <path d="M188 220 C210 204 232 198 256 198 C280 198 302 204 324 220 L320 324 C300 312 280 306 256 306 C232 306 212 312 192 324 Z" fill="#9AA3B0"/>
  <path d="M250 204 L262 204 L260 322 L252 322 Z" fill="#7A828E"/>
  <path d="M222 174 C234 166 244 164 256 164 C268 164 278 166 290 174 C292 186 288 198 278 206 C264 214 248 214 234 206 C224 198 220 186 222 174 Z" fill="#565C66"/>
  <path d="M154 372 C214 384 298 384 358 372 L358 392 C298 404 214 404 154 392 Z" fill="#565C66"/>
</svg>
