<svg xmlns="http://www.w3.org/2000/svg" viewBox="0 0 512 512" width="512" height="512">
  <!-- Monk T3 north: gi back, bead necklace strand, embroidered sash. -->
  <path d="M148 240 C158 196 198 170 256 170 C314 170 354 196 364 240 L360 400 C358 436 326 458 256 458 C186 458 154 436 152 400 Z" fill="#C9852E"/>
  <path d="M176 224 C202 208 230 200 256 200 C282 200 310 208 336 224 L332 360 C312 350 200 350 180 360 Z" fill="#B06A1A"/>
  <path d="M252 204 L260 204 L258 354 L254 354 Z" fill="#A05E14"/>
  <path d="M152 320 C160 312 172 312 178 320 L176 380 C170 372 160 372 154 380 Z" fill="#E0D2B0"/>
  <path d="M360 320 C352 312 340 312 334 320 L336 380 C342 372 352 372 358 380 Z" fill="#E0D2B0"/>
  <!-- bead strand at the nape -->
  <path d="M226 206 C238 220 248 226 256 226 C264 226 274 220 286 206 L290 214 C278 228 268 234 256 234 C244 234 234 228 222 214 Z" fill="#6E4A2C"/>
  <circle cx="236" cy="218" r="5" fill="#8A6E48"/>
  <circle cx="256" cy="222" r="5" fill="#8A6E48"/>
  <circle cx="276" cy="218" r="5" fill="#8A6E48"/>
  <path d="M156 384 C216 396 296 396 356 384 L356 404 C296 416 216 416 156 404 Z" fill="#A8431A"/>
</svg>
