<svg xmlns="http://www.w3.org/2000/svg" viewBox="0 0 512 512" width="512" height="512">
  <!-- Ranger HelmT4 east: hood + feather crest fanning up from the crown + silvered clasp. -->
  <path d="M232 158 C220 134 222 110 238 96 C242 120 244 142 246 160 Z" fill="#8A8E74"/>
  <path d="M252 152 C246 124 250 100 266 88 C270 114 270 138 268 156 Z" fill="#6E8A44"/>
  <path d="M286 156 C296 130 294 106 280 94 C274 118 270 140 266 158 Z" fill="#8A8E74"/>
  <path d="M152 252 C150 202 168 168 210 152 C230 144 254 140 270 148 C314 162 346 196 348 234 C350 252 342 264 326 274 C312 282 304 298 302 320 L300 352 C280 372 238 380 198 376 C174 372 156 360 152 340 Z" fill="#46583A"/>
  <path d="M152 252 C150 210 166 178 200 160 C188 210 184 290 198 372 C176 368 156 358 152 340 Z" fill="#3E5A34"/>
  <path d="M348 234 C350 252 342 264 326 274 C312 282 304 298 302 320 L294 318 C296 298 304 282 318 272 C332 262 340 250 340 236 Z" fill="#5C4630"/>
  <rect x="316" y="250" width="22" height="13" rx="2" fill="#9AA3B0"/>
</svg>
