<svg xmlns="http://www.w3.org/2000/svg" viewBox="0 0 512 512" width="512" height="512">
  <!-- Monk HelmT4 north: silk headband + gold trim, knot + bead at back. -->
  <path d="M176 230 C210 221 302 221 336 230 L334 252 C302 244 210 244 178 252 Z" fill="#D8902E"/>
  <path d="M180 228 C210 220 302 220 332 228" stroke="#C9A23F" stroke-width="3" fill="none"/>
  <path d="M180 252 C210 245 302 245 332 252" stroke="#C9A23F" stroke-width="3" fill="none"/>
  <path d="M246 246 L266 246 L262 252 L250 252 Z" fill="#C9A23F"/>
  <path d="M248 252 C244 266 244 280 250 292 C254 280 254 266 254 254 Z" fill="#A8431A"/>
  <path d="M262 252 C266 266 266 280 260 292 C256 280 256 266 258 254 Z" fill="#D8902E"/>
  <circle cx="256" cy="298" r="8" fill="#6E4A28"/>
  <circle cx="256" cy="298" r="3" fill="#C9A23F"/>
</svg>
