<svg xmlns="http://www.w3.org/2000/svg" viewBox="0 0 512 512" width="512" height="512">
  <!-- Fighter T2 north: brigandine back panel, rivets, cobalt cloth, belt. -->
  <path d="M148 240 C158 196 198 170 256 170 C314 170 354 196 364 240 L360 396 C358 428 326 444 256 444 C186 444 154 428 152 396 Z" fill="#2E4E9E"/>
  <path d="M160 244 C170 206 206 184 256 184 C306 184 342 206 352 244 L350 290 L162 290 Z" fill="#1F3568" opacity="0.4"/>
  <path d="M186 200 C206 186 230 180 256 180 C282 180 306 186 326 200 L322 420 C302 434 282 440 256 440 C230 440 210 434 190 420 Z" fill="#5C3D24"/>
  <path d="M252 184 L260 184 L258 438 L254 438 Z" fill="#4A3120"/>
  <circle cx="216" cy="236" r="5" fill="#9AA3B0"/><circle cx="296" cy="236" r="5" fill="#9AA3B0"/>
  <circle cx="212" cy="292" r="5" fill="#9AA3B0"/><circle cx="300" cy="292" r="5" fill="#9AA3B0"/>
  <circle cx="212" cy="348" r="5" fill="#9AA3B0"/><circle cx="300" cy="348" r="5" fill="#9AA3B0"/>
  <circle cx="216" cy="398" r="5" fill="#9AA3B0"/><circle cx="296" cy="398" r="5" fill="#9AA3B0"/>
  <path d="M222 174 C234 168 244 166 256 166 C268 166 278 168 290 174 C292 186 288 198 278 206 C264 214 248 214 234 206 C224 198 220 186 222 174 Z" fill="#1F3568"/>
  <path d="M154 376 C214 388 298 388 358 376 L358 396 C298 408 214 408 154 396 Z" fill="#3D4148"/>
</svg>
