<svg xmlns="http://www.w3.org/2000/svg" viewBox="0 0 512 512" width="512" height="512">
  <!-- Barbarian T2 north: vest back panel, wolf pelt over right-of-screen shoulder (pawn's left), red wrap. -->
  <path d="M178 246 C186 222 210 210 256 208 C302 210 326 222 334 246 L340 402 C320 416 290 424 256 424 C222 424 192 416 172 402 Z" fill="#8A5A33"/>
  <path d="M186 250 C194 232 218 222 256 220 C294 222 318 232 326 250 L328 300 L184 300 Z" fill="#6B4426" opacity="0.4"/>
  <path d="M256 222 L260 420 L252 420 Z" fill="#6B4426"/>
  <path d="M344 244 C342 220 322 206 294 202 C278 200 266 206 260 216 L264 232 C272 224 282 220 294 222 L286 240 L300 236 L294 256 L310 250 L306 272 L320 262 L318 286 L332 274 L332 296 L344 284 Z" fill="#6E6E78"/>
  <path d="M338 244 C334 226 320 214 300 210 C288 208 276 212 270 218 L272 226 C280 220 290 217 300 219 C316 222 328 232 332 246 Z" fill="#8B8B96"/>
  <path d="M341 264 L331 276 L333 256 Z" fill="#55555E"/>
  <path d="M326 278 L316 290 L318 270 Z" fill="#55555E"/>
  <path d="M170 396 C224 408 290 408 344 396 L344 416 C290 428 224 428 170 416 Z" fill="#A33B2A"/>
</svg>
