<svg xmlns="http://www.w3.org/2000/svg" viewBox="0 0 512 512" width="512" height="512">
  <!-- Warlock T4 south: ornate - jagged mantle, floating chain + charm, robe hem drifting slightly wrong. -->
  <path d="M196 200 C176 188 158 176 150 156 C168 162 184 168 198 174 L188 152 C204 162 218 174 228 188 Z" fill="#3A2356"/>
  <path d="M316 200 C336 188 354 176 362 156 C344 162 328 168 314 174 L324 152 C308 162 294 174 284 188 Z" fill="#3A2356"/>
  <path d="M214 196 C202 178 192 158 192 138 C206 154 218 170 226 186 Z" fill="#2C1A42"/>
  <path d="M298 196 C310 178 320 158 320 138 C306 154 294 170 286 186 Z" fill="#2C1A42"/>
  <!-- robe with a hem that lifts oddly to one side -->
  <path d="M150 240 C160 196 198 172 256 172 C314 172 352 196 362 240 L368 416 C360 432 326 446 256 446 C190 446 152 430 150 414 Z" fill="#4A2E6E"/>
  <path d="M150 240 C160 200 196 178 256 178 L256 446 C190 446 152 430 150 414 Z" fill="#3A2356"/>
  <path d="M256 178 C318 178 354 200 362 240 L368 416 C360 432 326 446 256 446 Z" fill="#4A2E6E"/>
  <path d="M252 184 L260 184 L258 440 L254 440 Z" fill="#2C1A42"/>
  <!-- gold-violet ornate hem band -->
  <path d="M156 404 C214 418 298 418 360 402 L362 416 C300 432 212 432 154 418 Z" fill="#9A86B4"/>
  <path d="M160 408 C216 420 296 420 358 406" stroke="#8EBE4A" stroke-width="2" fill="none" opacity="0.7"/>
  <!-- high collar -->
  <path d="M212 200 C200 184 196 168 198 152 C214 168 226 184 232 196 L256 192 L280 196 C286 184 298 168 314 152 C316 168 312 184 300 200 C284 190 268 186 256 186 C244 186 228 190 212 200 Z" fill="#5E3C84"/>
  <path d="M212 200 C228 190 244 186 256 186 C268 186 284 190 300 200" stroke="#8EBE4A" stroke-width="2" fill="none" opacity="0.7"/>
  <!-- floating chain arcing off the shoulder with a charm -->
  <path d="M306 214 C336 220 354 244 350 280 C348 304 340 322 332 338" stroke="#9A86B4" stroke-width="3" fill="none" stroke-dasharray="6 5"/>
  <circle cx="332" cy="346" r="10" fill="#2C1A42"/>
  <circle cx="332" cy="346" r="6" fill="#8EBE4A"/>
  <circle cx="332" cy="346" r="2.4" fill="#1E1230"/>
  <!-- eye-brooch -->
  <ellipse cx="256" cy="206" rx="9" ry="6" fill="#8EBE4A"/>
  <circle cx="256" cy="206" r="3" fill="#1E1230"/>
</svg>
