<svg xmlns="http://www.w3.org/2000/svg" viewBox="0 0 512 512" width="512" height="512">
  <!-- Paladin T2 south: polished mail, steel chest plate, blue surcoat skirt, oath-scripture belt. -->
  <path d="M148 240 C158 196 198 170 256 170 C314 170 354 196 364 240 L360 400 C358 436 326 458 256 458 C186 458 154 436 152 400 Z" fill="#7A828E"/>
  <path d="M170 280 C200 272 312 272 342 280 M166 320 C200 312 312 312 346 320 M166 360 C200 352 312 352 346 360 M168 398 C202 390 310 390 344 398" stroke="#565C66" stroke-width="3" fill="none"/>
  <!-- blue surcoat skirt -->
  <path d="M170 320 C212 332 300 332 342 320 L340 444 C302 454 210 454 172 444 Z" fill="#2E4E9E"/>
  <path d="M250 326 L262 326 L260 450 L252 450 Z" fill="#1F3568"/>
  <!-- steel breastplate, rounded -->
  <path d="M188 220 C210 204 232 198 256 198 C280 198 302 204 324 220 L320 324 C300 312 280 306 256 306 C232 306 212 312 192 324 Z" fill="#9AA3B0"/>
  <path d="M200 226 C218 214 238 208 256 208 C274 208 294 214 312 226 L310 286 C294 276 276 272 256 272 C236 272 218 276 202 286 Z" fill="#C4CBD6" opacity="0.6"/>
  <!-- blue cross on the breastplate -->
  <path d="M250 224 L262 224 L260 320 L252 320 Z" fill="#2E4E9E"/>
  <path d="M228 262 L284 262 L284 274 L228 274 Z" fill="#2E4E9E"/>
  <!-- collar -->
  <path d="M218 176 C230 166 244 162 256 162 C268 162 282 166 294 176 L286 198 C274 186 264 182 256 182 C248 182 238 186 226 198 Z" fill="#565C66"/>
  <!-- oath belt: silver with engraved band -->
  <path d="M154 372 C214 384 298 384 358 372 L358 392 C298 404 214 404 154 392 Z" fill="#565C66"/>
  <path d="M170 378 L186 378 M200 379 L216 379 M232 380 L250 380 M264 380 L282 380 M296 379 L312 379 M326 378 L342 378" stroke="#9AA3B0" stroke-width="4" fill="none"/>
  <rect x="242" y="374" width="28" height="18" rx="3" fill="#9AA3B0"/>
</svg>
