<svg xmlns="http://www.w3.org/2000/svg" viewBox="0 0 512 512" width="512" height="512">
  <!-- Fighter T2 east: brigandine profile, rivets, cobalt cloth at the back, belt. -->
  <path d="M164 236 C172 192 204 166 256 166 C302 166 334 188 344 230 L342 386 C340 414 312 428 254 428 C200 428 166 414 168 386 Z" fill="#2E4E9E"/>
  <path d="M180 240 C190 206 218 188 258 188 C294 188 320 204 330 232 L328 290 L182 290 Z" fill="#1F3568" opacity="0.4"/>
  <!-- brigandine panel, front-weighted -->
  <path d="M200 196 C218 184 238 178 260 178 C286 178 310 186 326 202 L324 412 C306 424 284 428 258 428 C232 428 212 422 196 412 Z" fill="#5C3D24"/>
  <circle cx="232" cy="234" r="5" fill="#9AA3B0"/><circle cx="288" cy="234" r="5" fill="#9AA3B0"/>
  <circle cx="228" cy="290" r="5" fill="#9AA3B0"/><circle cx="292" cy="290" r="5" fill="#9AA3B0"/>
  <circle cx="228" cy="346" r="5" fill="#9AA3B0"/><circle cx="292" cy="346" r="5" fill="#9AA3B0"/>
  <path d="M198 222 C194 202 202 186 220 180 C232 176 244 178 252 186 L248 200 C240 194 230 193 222 197 C212 202 206 211 208 222 Z" fill="#1F3568"/>
  <path d="M172 370 C220 382 292 382 336 372 L336 390 C292 400 220 400 172 388 Z" fill="#3D4148"/>
  <rect x="288" y="372" width="26" height="18" rx="3" fill="#9AA3B0"/>
</svg>
