<svg xmlns="http://www.w3.org/2000/svg" viewBox="0 0 512 512" width="512" height="512">
  <!-- Wizard T3 north: mantle from behind, hood over it, formulae hem. -->
  <path d="M160 242 C172 212 206 196 256 196 C306 196 340 212 352 242 L348 402 C346 440 318 462 256 462 C194 462 166 440 164 402 Z" fill="#2B3357"/>
  <path d="M154 250 C164 216 202 198 256 198 C310 198 348 216 358 250 L356 296 L334 282 L330 308 L308 292 L300 314 L278 298 L256 318 L234 298 L212 314 L204 292 L182 308 L178 282 L156 296 Z" fill="#1E2440"/>
  <path d="M166 248 C178 222 212 208 256 208 C300 208 334 222 346 248 L344 276 L328 266 L324 286 L304 274 L298 290 L278 278 L256 294 L234 278 L214 290 L208 274 L188 286 L184 266 L168 276 Z" fill="#3D4775"/>
  <!-- hood hanging over the mantle -->
  <path d="M224 196 C234 190 245 188 256 188 C267 188 278 190 288 196 C294 214 288 236 274 248 C267 254 261 256 256 256 C251 256 245 254 238 248 C224 236 218 214 224 196 Z" fill="#1E2440"/>
  <path d="M238 246 C244 251 251 253 256 253 C261 253 268 251 274 246 C276 250 274 254 270 256 C264 260 248 260 242 256 C238 254 236 250 238 246 Z" fill="#97A1B5"/>
  <path d="M170 430 C214 448 298 448 342 430 L340 452 C298 468 214 468 172 452 Z" fill="#97A1B5"/>
  <path d="M190 440 L196 448 M208 443 L206 453 M222 445 L230 451 M242 447 L240 457 M258 447 L266 453 M276 446 L274 456 M292 444 L300 450 M312 441 L310 451" stroke="#2B3357" stroke-width="4" fill="none"/>
</svg>
