<svg xmlns="http://www.w3.org/2000/svg" viewBox="0 0 512 512" width="512" height="512">
  <!-- Sorcerer T3 east: veins, cracked shoulder pauldron on the near side. -->
  <path d="M164 236 C172 192 204 166 256 166 C302 166 334 188 344 230 L342 404 C340 444 312 466 254 466 C200 466 166 444 168 404 Z" fill="#8E2A2A"/>
  <path d="M182 240 C192 206 220 186 258 186 C290 186 314 198 328 220 C304 200 216 202 194 232 C188 236 184 238 182 240 Z" fill="#A83838" opacity="0.5"/>
  <path d="M250 452 C254 422 248 394 256 366 C262 342 258 316 266 292 C270 274 268 254 260 238" stroke="#E0A030" stroke-width="4" fill="none"/>
  <path d="M266 292 L280 282 M256 366 L270 356 M262 334 L276 324" stroke="#E0A030" stroke-width="3" fill="none"/>
  <!-- cracked shoulder pauldron -->
  <path d="M168 234 C174 204 200 186 234 184 C252 184 266 190 274 200 L268 220 C260 210 244 206 230 208 L222 290 C206 294 190 290 178 280 C170 264 166 248 168 234 Z" fill="#6E1E1E"/>
  <path d="M176 240 C182 216 204 200 230 198 L234 210 C214 214 198 226 194 248 L190 280 C182 268 178 252 176 240 Z" fill="#A83838" opacity="0.5"/>
  <path d="M192 200 L206 230 L200 250 L214 270 M222 206 L228 234" stroke="#F2C84A" stroke-width="3" fill="none"/>
  <circle cx="210" cy="244" r="6" fill="#F2C84A"/>
  <path d="M204 222 C200 202 208 186 226 180 C238 176 250 178 258 186 L254 200 C246 194 236 193 228 197 C218 202 212 211 214 222 Z" fill="#6E1E1E"/>
  <path d="M168 444 C214 456 296 456 342 444 C322 460 286 468 254 468 C214 468 184 460 168 444 Z" fill="#3A1414"/>
  <path d="M194 390 C234 402 296 402 330 392 L330 408 C296 418 234 418 194 406 Z" fill="#5C3D24"/>
</svg>
