<svg xmlns="http://www.w3.org/2000/svg" viewBox="0 0 512 512" width="512" height="512">
  <!-- Rogue T5 north: gloaming cloak back, shadow wisps, oxblood lining, hood. -->
  <path d="M160 432 C150 446 144 462 146 476 C156 468 162 456 164 444 Z" fill="#16161C" opacity="0.6"/>
  <path d="M352 432 C362 446 368 462 366 476 C356 468 350 456 348 444 Z" fill="#16161C" opacity="0.6"/>
  <path d="M148 240 C158 196 198 170 256 170 C314 170 354 196 364 240 L360 400 C358 436 326 458 256 458 C186 458 154 436 152 400 Z" fill="#1E1E24"/>
  <path d="M146 228 C152 196 178 178 214 176 C232 174 246 178 254 188 L320 200 C336 208 346 224 348 244 L342 410 C334 424 316 440 286 448 C262 454 234 454 210 448 C182 440 166 424 160 410 L154 244 C150 340 144 284 146 228 Z" fill="#16161C"/>
  <path d="M254 188 L262 196 L260 444 L252 444 Z" fill="#8E2E3E"/>
  <path d="M222 174 C232 166 244 164 256 164 C268 164 280 166 290 174 C296 198 290 226 274 242 C266 250 262 252 256 252 C250 252 246 250 238 242 C222 226 216 198 222 174 Z" fill="#16161C"/>
  <path d="M238 242 C244 248 251 250 256 250 C261 250 268 248 274 242 C276 246 274 250 270 252 C264 256 248 256 242 252 C238 250 236 246 238 242 Z" fill="#8E2E3E"/>
  <circle cx="216" cy="194" r="10" fill="#56565E"/>
  <path d="M154 384 C214 396 298 396 358 384 L358 402 C298 414 214 414 154 402 Z" fill="#16161C"/>
</svg>
