<svg xmlns="http://www.w3.org/2000/svg" viewBox="0 0 512 512" width="512" height="512">
  <!-- Cleric T4 hat, east: tall mitre profile, gold cross, lappet at the nape. -->
  <path d="M186 256 L226 254 C230 290 226 324 214 352 L190 352 C176 324 174 288 186 256 Z" fill="#E8E4D8"/>
  <path d="M192 338 L216 338 L212 352 L194 352 Z" fill="#C9A23F"/>
  <path d="M152 252 C148 196 198 156 258 156 C314 156 356 192 356 244 L354 262 C326 248 184 248 156 264 Z" fill="#C9C2B0"/>
  <!-- tall mitre profile -->
  <path d="M178 248 C176 212 188 160 212 122 C226 98 242 84 258 84 C274 84 290 98 304 122 C326 160 338 212 336 248 L332 260 C308 246 202 246 182 260 Z" fill="#E8E4D8"/>
  <path d="M194 240 C196 206 208 166 228 134 C238 116 248 102 258 102 C266 102 274 108 282 118 C262 122 246 142 232 174 C220 200 212 222 208 244 Z" fill="#F5F2E8"/>
  <path d="M252 86 L264 86 L262 248 L254 248 Z" fill="#C9A23F"/>
  <path d="M238 152 L278 152 L278 166 L238 166 Z" fill="#C9A23F"/>
  <path d="M180 248 C208 232 312 232 334 248 L332 270 C308 252 204 252 182 270 Z" fill="#C9A23F"/>
  <path d="M180 260 C208 246 312 246 334 260 L332 270 C308 252 204 252 182 270 Z" fill="#8E6E24"/>
</svg>
