<svg xmlns="http://www.w3.org/2000/svg" viewBox="0 0 512 512" width="512" height="512">
  <!-- Druid T3 hat, east: hood profile, antler stub, fur edge, nape coverage. -->
  <!-- antler stub -->
  <path d="M232 192 C220 176 214 156 216 136 C228 142 236 154 240 168 C246 160 254 156 264 156 C262 172 254 186 242 194 Z" fill="#B5A88C"/>
  <path d="M222 150 C226 160 232 168 240 172 C236 162 230 154 222 150 Z" fill="#D8CCB4"/>
  <!-- hood -->
  <path d="M148 254 C144 192 194 148 256 148 C312 148 356 186 356 242 C356 254 350 264 340 270 L320 264 C310 258 304 252 302 246 L242 246 C240 292 234 330 220 354 L186 354 C160 328 146 294 148 254 Z" fill="#6B4426"/>
  <path d="M162 244 C166 200 202 166 254 166 C284 166 310 180 326 204 C300 184 214 186 188 216 C174 230 164 236 162 244 Z" fill="#8A5A33"/>
  <!-- fur edge band -->
  <path d="M300 242 C322 242 340 250 348 262 L340 274 C330 262 316 256 298 256 L242 256 C240 258 238 260 238 262 C234 302 228 332 216 352 L198 352 C212 324 218 288 218 254 L220 242 Z" fill="#7A6A50"/>
  <path d="M306 240 L314 228 L322 242 L332 232 L340 246 L350 238 L354 252 L344 260 C336 250 322 244 306 244 Z" fill="#7A6A50"/>
</svg>
