<svg xmlns="http://www.w3.org/2000/svg" viewBox="0 0 512 512" width="512" height="512">
  <!-- Paladin T1 east: mail hauberk + surcoat profile, belt. -->
  <path d="M164 236 C172 192 204 166 256 166 C302 166 334 188 344 230 L342 386 C340 414 312 428 254 428 C200 428 166 414 168 386 Z" fill="#6E7682"/>
  <path d="M184 232 C214 224 312 224 336 232 M180 270 C214 262 312 262 340 270 M180 308 C214 300 312 300 340 308 M180 346 C214 338 312 338 340 346 M184 384 C216 376 308 376 336 384" stroke="#565C66" stroke-width="3" fill="none"/>
  <path d="M210 184 C226 176 244 172 262 174 L322 200 L320 438 C302 446 280 448 258 448 L214 440 Z" fill="#E8E4D8"/>
  <path d="M318 200 L324 202 L322 440 L316 442 Z" fill="#C9C2B0"/>
  <path d="M260 200 L272 200 L270 440 L262 440 Z" fill="#2E4E9E"/>
  <path d="M198 222 C194 202 202 186 220 180 C232 176 244 178 252 186 L248 200 C240 194 230 193 222 197 C212 202 206 211 208 222 Z" fill="#565C66"/>
  <path d="M174 376 C222 388 294 388 336 378 L336 396 C294 406 222 406 174 394 Z" fill="#5C3D24"/>
  <rect x="288" y="378" width="24" height="16" rx="3" fill="#9AA3B0"/>
</svg>
