<svg xmlns="http://www.w3.org/2000/svg" viewBox="0 0 512 512" width="512" height="512">
  <!-- Rogue T4 hood, east: masked cowl profile, half-mask over the lower face, nape coverage. -->
  <path d="M148 256 C142 188 198 142 256 142 C312 142 356 182 356 240 C356 252 350 262 340 268 L320 262 C310 256 304 250 302 244 L242 244 C240 290 234 328 220 352 L186 352 C160 326 144 294 148 256 Z" fill="#1E1E24"/>
  <path d="M162 246 C166 200 204 162 254 162 C284 162 310 178 326 202 C300 182 214 184 188 216 C174 230 164 236 162 246 Z" fill="#2E2E36"/>
  <path d="M302 244 C322 244 340 252 348 264 L340 276 C330 264 316 258 298 258 L240 258 C238 260 236 262 236 264 C232 300 226 330 214 350 L198 350 C212 322 218 286 218 252 L220 244 Z" fill="#16161C"/>
  <path d="M236 256 C260 246 290 248 308 254 L304 264 C288 258 262 258 240 264 Z" fill="#8E2E3E" opacity="0.7"/>
  <!-- half-mask over the lower face -->
  <path d="M300 312 C318 306 338 308 348 318 C346 338 338 352 322 358 L296 354 C290 340 290 324 300 312 Z" fill="#1E1E24"/>
  <path d="M306 318 C320 314 334 316 342 322 L340 330 C330 324 318 324 308 328 Z" fill="#2E2E36"/>
</svg>
