<svg xmlns="http://www.w3.org/2000/svg" viewBox="0 0 512 512" width="512" height="512">
  <!-- Bard T4 hat, south: cavalier hat - wide swept brim, big plume curling over. -->
  <path d="M290 140 C302 96 328 62 364 46 C368 60 364 78 352 94 C368 88 384 90 396 100 C384 122 362 138 336 144 C318 148 302 146 290 140 Z" fill="#E8E0CC"/>
  <path d="M298 134 C308 100 328 72 354 56 C346 78 332 98 314 112 C326 110 338 112 348 118 C334 130 316 136 298 134 Z" fill="#C9C2B0"/>
  <path d="M156 250 C148 196 198 152 256 150 C316 148 364 192 356 250 L352 264 C324 248 186 248 158 264 Z" fill="#5E2548"/>
  <path d="M172 240 C174 200 210 166 256 166 C286 166 312 180 328 204 C302 184 216 186 190 216 C178 228 172 234 172 240 Z" fill="#8E3A6E"/>
  <!-- wide cavalier brim, swept up on one side -->
  <path d="M128 254 C166 238 346 238 384 254 C390 264 386 274 376 278 C336 262 178 262 136 278 C126 274 122 264 128 254 Z" fill="#5E2548"/>
  <path d="M134 256 C170 244 342 244 378 256 C380 261 378 267 374 270 C336 256 178 256 138 270 C134 267 132 261 134 256 Z" fill="#8E3A6E"/>
  <path d="M356 250 C372 240 384 226 390 210 C396 222 394 238 384 250 C376 258 366 260 356 258 Z" fill="#5E2548"/>
  <!-- gold band -->
  <path d="M186 240 C212 232 300 232 326 240 L324 254 C302 246 212 246 188 254 Z" fill="#C9A23F"/>
</svg>
