<svg xmlns="http://www.w3.org/2000/svg" viewBox="0 0 512 512" width="512" height="512">
  <!-- Bard T4 hat, east: cavalier profile - wide brim, plume sweeping far back, nape fall. -->
  <!-- plume sweeping back -->
  <path d="M250 138 C228 96 194 70 152 64 C156 82 170 98 190 110 C170 112 154 122 144 138 C166 154 196 160 226 152 C238 148 246 144 250 138 Z" fill="#E8E0CC"/>
  <path d="M238 132 C218 102 190 82 158 74 C174 90 194 104 214 112 C200 116 188 124 182 134 C200 142 222 142 238 132 Z" fill="#C9C2B0"/>
  <!-- nape fall -->
  <path d="M162 258 C178 250 210 246 244 248 C248 288 244 322 230 350 L188 350 C166 324 156 292 162 258 Z" fill="#5E2548"/>
  <path d="M174 264 C188 258 210 255 230 256 C232 292 228 320 216 342 L196 342 C178 320 170 294 174 264 Z" fill="#8E3A6E" opacity="0.45"/>
  <!-- crown -->
  <path d="M152 250 C148 192 198 152 258 152 C314 152 358 190 358 244 L356 262 C328 248 184 248 156 264 Z" fill="#5E2548"/>
  <path d="M166 240 C170 200 206 166 256 166 C288 166 314 180 330 204 C304 184 216 186 190 216 C178 228 168 234 166 240 Z" fill="#8E3A6E"/>
  <!-- wide brim, swept up at the back -->
  <path d="M130 252 C168 236 348 236 386 252 C392 262 388 272 378 276 C338 260 180 260 138 276 C128 272 124 262 130 252 Z" fill="#5E2548"/>
  <path d="M136 254 C172 242 344 242 380 254 C382 259 380 265 376 268 C338 254 178 254 140 268 C136 265 134 259 136 254 Z" fill="#8E3A6E"/>
  <path d="M148 248 C136 240 128 228 124 214 C118 226 120 240 130 250 C136 256 142 258 148 256 Z" fill="#5E2548"/>
  <path d="M190 240 C216 232 302 232 328 240 L326 254 C304 246 214 246 192 254 Z" fill="#C9A23F"/>
</svg>
