<svg xmlns="http://www.w3.org/2000/svg" viewBox="0 0 512 512" width="512" height="512">
  <!-- Barbarian T5 south: legendary blackened cuirass w/ gold inlay, dark furs, ember cracks, skull boss. -->
  <!-- cuirass -->
  <path d="M178 248 C198 230 226 222 257 222 C288 222 316 230 336 248 L332 376 C330 394 324 404 310 410 L204 410 C190 404 184 394 182 376 Z" fill="#2E3138"/>
  <path d="M186 254 C204 240 230 232 257 232 C284 232 310 240 328 254 L325 352 L189 352 Z" fill="#454A54"/>
  <path d="M202 260 C218 250 238 244 257 244 C263 244 270 245 276 246 L272 342 L198 342 Z" fill="#5E6570" opacity="0.5"/>
  <!-- gold inlay: collar, pectoral arcs, center ridge, waist band -->
  <path d="M184 250 C204 234 230 226 257 226 C284 226 310 234 330 250 L326 262 C306 247 282 240 257 240 C232 240 208 247 188 262 Z" fill="#C9A23F"/>
  <path d="M200 286 C216 272 236 266 257 266 C278 266 298 272 314 286 L308 298 C294 286 276 280 257 280 C238 280 220 286 206 298 Z" fill="#C9A23F"/>
  <path d="M251 240 L263 240 L261 406 L253 406 Z" fill="#C9A23F"/>
  <path d="M184 378 C210 390 304 390 330 378 L329 392 C302 404 212 404 185 392 Z" fill="#C9A23F"/>
  <path d="M251 240 L257 240 L256 406 L253 406 Z" fill="#8E6E24"/>
  <!-- ember cracks in the plate -->
  <path d="M208 310 L224 326 L218 330 L234 348 L224 348 L210 330 L216 326 Z" fill="#FF5A2A"/>
  <path d="M306 310 L290 326 L296 330 L280 348 L290 348 L304 330 L298 326 Z" fill="#FF5A2A"/>
  <path d="M212 314 L222 324 L218 326 L210 318 Z" fill="#FFC09A"/>
  <!-- skull boss on the gold ridge -->
  <path d="M236 296 C236 280 245 270 257 270 C269 270 278 280 278 296 C278 306 272 314 265 318 L265 326 C265 332 261 336 257 336 C253 336 249 332 249 326 L249 318 C242 314 236 306 236 296 Z" fill="#E8E0CC"/>
  <circle cx="248" cy="296" r="6" fill="#FF5A2A"/>
  <circle cx="266" cy="296" r="6" fill="#FF5A2A"/>
  <circle cx="248" cy="296" r="2.5" fill="#FFC09A"/>
  <circle cx="266" cy="296" r="2.5" fill="#FFC09A"/>
  <!-- bronze belt + dark kilt -->
  <path d="M176 394 C228 406 288 406 338 394 L338 448 C336 458 310 464 257 464 C204 464 178 458 176 448 Z" fill="#6B4426"/>
  <path d="M176 388 C228 400 288 400 338 388 L338 406 C288 418 228 418 176 406 Z" fill="#5C3D24"/>
  <rect x="240" y="390" width="34" height="22" rx="4" fill="#C9A23F"/>
  <rect x="248" y="396" width="18" height="11" rx="2" fill="#8E6E24"/>
  <!-- heavy dark fur mantle, both shoulders -->
  <path d="M154 252 C150 218 176 196 216 190 L232 200 L246 188 L257 200 L270 188 L284 198 L300 190 C340 196 364 218 360 252 L360 296 L344 282 L346 308 L328 294 L332 318 L314 304 L304 312 L288 298 L288 284 C268 276 246 276 226 284 L226 298 L210 312 L200 304 L182 318 L186 294 L168 308 L170 282 L154 296 Z" fill="#4A4A52"/>
  <path d="M162 250 C160 226 180 208 212 202 L230 210 L246 200 L257 210 L270 200 L284 208 L300 204 C328 209 346 224 348 246 L340 250 C334 232 320 220 300 216 L284 222 L270 214 L257 222 L244 214 L228 220 C200 218 178 230 170 250 Z" fill="#6E6E78"/>
  <path d="M196 236 C214 224 236 218 257 218 C278 218 300 224 318 236 L312 250 C296 239 277 234 257 234 C237 234 218 239 202 250 Z" fill="#3A3A40"/>
  <!-- ember glow seeping between fur and plate -->
  <path d="M206 252 C222 244 240 240 257 240 C274 240 292 244 308 252 L304 260 C290 253 274 250 257 250 C240 250 224 253 210 260 Z" fill="#FF5A2A" opacity="0.55"/>
</svg>
