<svg xmlns="http://www.w3.org/2000/svg" viewBox="0 0 512 512" width="512" height="512">
  <!-- Monk T3 east: gi profile, bead necklace, embroidered sash. -->
  <path d="M164 236 C172 192 204 166 256 166 C302 166 334 188 344 230 L342 386 C340 414 312 428 254 428 C200 428 166 414 168 386 Z" fill="#C9852E"/>
  <path d="M182 240 C192 206 220 186 258 186 C290 186 314 198 328 220 C304 200 216 202 194 232 C188 236 184 238 182 240 Z" fill="#E0A848" opacity="0.45"/>
  <path d="M186 226 C210 212 238 206 262 210 L324 290 L320 358 C302 350 220 350 190 358 Z" fill="#B06A1A"/>
  <path d="M196 234 C218 222 244 216 264 220 L316 292 L314 304 L258 228 C234 224 210 230 198 242 Z" fill="#A05E14"/>
  <path d="M170 320 C178 312 190 312 196 320 L194 378 C188 370 178 370 172 378 Z" fill="#E0D2B0"/>
  <!-- bead necklace at the chest -->
  <path d="M218 216 C236 234 252 242 270 242 L274 250 C254 250 234 242 214 224 Z" fill="#6E4A2C"/>
  <circle cx="228" cy="226" r="5" fill="#8A6E48"/>
  <circle cx="248" cy="236" r="5" fill="#8A6E48"/>
  <circle cx="268" cy="242" r="5" fill="#8A6E48"/>
  <path d="M174 376 C222 388 294 388 336 378 L336 398 C294 408 222 408 174 396 Z" fill="#A8431A"/>
  <path d="M188 384 C198 380 208 384 210 390 M250 386 C260 382 270 386 272 392 M310 384 C320 380 330 384 332 390" stroke="#E0D2B0" stroke-width="3" fill="none"/>
  <path d="M296 384 L288 432 L300 423 L306 436 L313 421 L322 430 L316 384 Z" fill="#A8431A"/>
</svg>
