<svg xmlns="http://www.w3.org/2000/svg" viewBox="0 0 512 512" width="512" height="512">
  <!-- Wizard T4 east: brocade profile - constellations, silver-edged mantle, belt, hem. -->
  <path d="M164 236 C172 192 204 166 256 166 C302 166 334 188 344 230 L342 386 C340 414 312 430 254 430 C200 430 166 414 168 386 Z" fill="#1E2440"/>
  <circle cx="238" cy="356" r="4" fill="#C7CEDB"/>
  <circle cx="266" cy="388" r="3" fill="#C7CEDB"/>
  <circle cx="248" cy="424" r="3" fill="#C7CEDB"/>
  <path d="M238 356 L266 388 L248 424" stroke="#97A1B5" stroke-width="2.5" fill="none" opacity="0.7"/>
  <path d="M186 252 C196 220 228 202 270 202 C306 202 332 216 342 242 L340 294 L318 280 L312 304 L288 288 L280 310 L256 294 L234 308 L226 290 L204 302 L198 282 L188 292 Z" fill="#2B3357"/>
  <path d="M188 288 L198 278 L204 298 L226 286 L234 304 L256 290 L280 306 L288 284 L312 300 L318 276 L340 290 L340 298 L316 284 L310 308 L286 292 L278 314 L256 298 L236 312 L228 294 L206 306 L200 286 L188 296 Z" fill="#C7CEDB"/>
  <path d="M198 250 C208 226 236 212 270 212 C300 212 322 224 332 246 L330 268 L312 258 L306 276 L288 264 L280 280 L258 268 L240 280 L232 266 L212 276 L206 260 L196 268 Z" fill="#3D4775"/>
  <circle cx="318" cy="224" r="11" fill="#C7CEDB"/>
  <path d="M192 368 C232 380 294 380 328 370 L328 390 C294 400 232 400 192 388 Z" fill="#97A1B5"/>
  <path d="M196 398 C234 414 294 414 326 400 L324 418 C294 430 234 430 198 414 Z" fill="#C7CEDB"/>
</svg>
