<svg xmlns="http://www.w3.org/2000/svg" viewBox="0 0 512 512" width="512" height="512">
  <!-- Ranger T2 east: leathers profile, bracer, fletching behind shoulder, cloak. -->
  <path d="M160 232 C162 204 184 186 216 184 C232 184 244 188 252 196 L246 214 C236 206 224 202 212 204 L208 360 C192 366 176 362 166 350 C158 322 156 270 160 232 Z" fill="#46583A"/>
  <path d="M188 232 C198 192 222 168 264 168 C306 168 336 190 344 230 L342 386 C340 414 312 428 254 428 C200 428 166 414 168 386 Z" fill="#3E5A34"/>
  <path d="M204 200 C226 188 246 182 264 182 L322 204 L318 414 C300 424 280 428 258 428 C232 428 212 422 200 412 Z" fill="#5C4630"/>
  <path d="M170 318 C178 310 190 310 196 318 L194 378 C188 370 178 370 172 378 Z" fill="#5C4630"/>
  <path d="M174 332 L192 332 M174 350 L192 350" stroke="#8A6E48" stroke-width="3" fill="none"/>
  <!-- fletching over the shoulder -->
  <path d="M210 188 L218 158 L226 188 M226 192 L234 162 L242 192" stroke="#8A8E74" stroke-width="6" fill="none"/>
  <path d="M198 222 C194 202 202 186 220 180 C232 176 244 178 252 186 L248 200 C240 194 230 193 222 197 C212 202 206 211 208 222 Z" fill="#46583A"/>
  <path d="M192 376 C236 388 300 388 338 378 L338 396 C300 406 236 406 192 394 Z" fill="#5C4630"/>
  <rect x="288" y="378" width="24" height="16" rx="3" fill="#8A6E48"/>
</svg>
