<svg xmlns="http://www.w3.org/2000/svg" viewBox="0 0 512 512" width="512" height="512">
  <!-- Bard T5 hat, north: grand hat from behind - double plumes trailing, cloth fall, gold band. -->
  <path d="M224 138 C212 92 184 56 146 40 C142 56 148 76 162 92 C144 86 126 90 114 102 C128 124 152 140 180 144 C198 146 214 144 224 138 Z" fill="#E8E0CC"/>
  <path d="M232 142 C242 100 266 68 302 54 C304 70 298 88 284 102 C302 98 318 102 328 112 C314 132 290 146 264 148 C250 148 239 146 232 142 Z" fill="#D87AB4"/>
  <path d="M172 250 C198 238 314 238 340 250 C344 292 332 330 306 352 L206 352 C180 330 168 292 172 250 Z" fill="#5E2548"/>
  <path d="M182 256 C204 246 308 246 330 256 C332 292 322 324 300 344 L212 344 C190 324 180 292 182 256 Z" fill="#8E3A6E" opacity="0.45"/>
  <path d="M156 248 C148 196 198 152 256 150 C316 148 364 192 356 248 L352 262 C324 246 186 246 158 262 Z" fill="#5E2548"/>
  <path d="M124 252 C164 234 348 234 388 252 C394 262 390 273 380 277 C338 260 176 260 132 277 C122 273 118 262 124 252 Z" fill="#5E2548"/>
  <path d="M184 240 C212 230 302 230 328 240 L326 256 C302 246 212 246 186 256 Z" fill="#C9A23F"/>
</svg>
