<svg xmlns="http://www.w3.org/2000/svg" viewBox="0 0 512 512" width="512" height="512">
  <!-- Wizard T2 cap, north: covers the ENTIRE back of the skull (crown y156 to nape y352). -->
  <path d="M154 250 C150 190 198 148 256 148 C314 148 362 190 358 250 C360 296 344 336 314 354 L198 354 C168 336 152 296 154 250 Z" fill="#2B3357"/>
  <path d="M168 242 C170 198 206 164 256 164 C286 164 312 178 328 202 C302 182 216 184 190 214 C178 226 170 232 168 242 Z" fill="#3D4775"/>
  <path d="M252 150 L260 150 L258 346 L254 346 Z" fill="#1E2440"/>
  <!-- band low across the nape -->
  <path d="M168 314 C196 300 316 300 344 314 L338 334 C312 320 200 320 174 334 Z" fill="#97A1B5"/>
</svg>
