<svg xmlns="http://www.w3.org/2000/svg" viewBox="0 0 512 512" width="512" height="512">
  <!-- Sorcerer T5 south: conduit regalia - dark robe barely containing light bursting at every seam. -->
  <path d="M148 240 C158 196 198 170 256 170 C314 170 354 196 364 240 L360 402 C358 442 326 464 256 464 C186 464 154 442 152 402 Z" fill="#3A1414"/>
  <path d="M162 244 C172 206 208 184 256 184 C292 184 320 196 338 218 C310 198 212 200 184 234 C175 242 166 244 162 244 Z" fill="#5A1E1E" opacity="0.7"/>
  <!-- light bursting at the seams (glowing gold cracks across the whole robe) -->
  <path d="M251 200 L261 200 L259 458 L253 458 Z" fill="#F2C84A"/>
  <path d="M251 200 L256 200 L254 458 L253 458 Z" fill="#FFF0B8"/>
  <path d="M200 220 C210 260 196 300 208 340 C216 368 210 400 220 440" stroke="#F2C84A" stroke-width="5" fill="none"/>
  <path d="M312 220 C302 260 316 300 304 340 C296 368 302 400 292 440" stroke="#F2C84A" stroke-width="5" fill="none"/>
  <path d="M170 250 C190 270 174 300 192 326 M342 250 C322 270 338 300 320 326" stroke="#E0A030" stroke-width="4" fill="none"/>
  <path d="M200 220 C210 260 196 300 208 340" stroke="#FFF0B8" stroke-width="1.5" fill="none"/>
  <!-- glowing core at the chest -->
  <circle cx="256" cy="284" r="20" fill="#F2C84A" opacity="0.5"/>
  <circle cx="256" cy="284" r="12" fill="#F2C84A"/>
  <circle cx="256" cy="284" r="6" fill="#FFF6D8"/>
  <!-- crystallized shoulders, glow-edged -->
  <path d="M150 236 C156 206 180 188 212 186 C230 186 244 192 252 202 L246 222 C238 212 224 208 210 210 L200 288 C184 292 168 288 156 278 C150 264 148 250 150 236 Z" fill="#5A1E1E"/>
  <path d="M168 200 L184 232 L176 256 L192 278 M210 208 L218 238" stroke="#F2C84A" stroke-width="3" fill="none"/>
  <path d="M362 236 C356 206 332 188 300 186 C282 186 268 192 260 202 L266 222 C274 212 288 208 302 210 L312 288 C328 292 344 288 356 278 C362 264 364 250 362 236 Z" fill="#5A1E1E"/>
  <path d="M344 200 L328 232 L336 256 L320 278 M302 208 L294 238" stroke="#F2C84A" stroke-width="3" fill="none"/>
  <!-- collar -->
  <path d="M220 198 C232 190 244 188 256 188 C268 188 280 190 292 198 L286 216 C274 208 264 206 256 206 C248 206 238 208 226 216 Z" fill="#2A0E0E"/>
  <!-- belt -->
  <path d="M166 388 C220 400 292 400 346 388 L346 404 C292 416 220 416 166 404 Z" fill="#2A0E0E"/>
  <rect x="242" y="390" width="28" height="18" rx="3" fill="#F2C84A"/>
</svg>
