<svg xmlns="http://www.w3.org/2000/svg" viewBox="0 0 512 512" width="512" height="512">
  <!-- Sorcerer T2 east: robe profile, gold veins creeping up, hood bunch. -->
  <path d="M164 236 C172 192 204 166 256 166 C302 166 334 188 344 230 L342 404 C340 444 312 466 254 466 C200 466 166 444 168 404 Z" fill="#8E2A2A"/>
  <path d="M182 240 C192 206 220 186 258 186 C290 186 314 198 328 220 C304 200 216 202 194 232 C188 236 184 238 182 240 Z" fill="#A83838" opacity="0.5"/>
  <path d="M252 452 C256 422 250 394 258 366 C264 346 262 322 252 302" stroke="#E0A030" stroke-width="4" fill="none"/>
  <path d="M258 366 L270 354 M252 410 L264 400 M256 334 L268 324" stroke="#E0A030" stroke-width="3" fill="none"/>
  <path d="M198 222 C194 202 202 186 220 180 C232 176 244 178 252 186 L248 200 C240 194 230 193 222 197 C212 202 206 211 208 222 Z" fill="#6E1E1E"/>
  <path d="M168 444 C214 456 296 456 342 444 C322 460 286 468 254 468 C214 468 184 460 168 444 Z" fill="#3A1414"/>
  <path d="M194 390 C234 402 296 402 330 392 L330 408 C296 418 234 418 194 406 Z" fill="#5C3D24"/>
</svg>
