<svg xmlns="http://www.w3.org/2000/svg" viewBox="0 0 512 512" width="512" height="512">
  <!-- Bard T2 north: vest back, half-cape hanging over the right-of-screen shoulder. -->
  <path d="M148 240 C158 196 198 170 256 170 C314 170 354 196 364 240 L360 396 C358 430 326 448 256 448 C186 448 154 430 152 396 Z" fill="#E8E0CC"/>
  <path d="M178 210 C196 192 226 182 256 182 C286 182 316 192 334 210 L330 424 C310 436 284 442 256 442 C228 442 202 436 182 424 Z" fill="#8E3A6E"/>
  <path d="M252 184 L260 184 L258 440 L254 440 Z" fill="#5E2548"/>
  <!-- half-cape from behind -->
  <path d="M366 230 C362 200 338 182 304 178 C288 176 274 180 266 190 L270 210 C280 200 294 196 308 200 L302 330 C318 336 336 334 350 324 C362 296 368 262 366 230 Z" fill="#5E2548"/>
  <path d="M358 232 C354 208 336 192 310 188 L306 200 C326 204 342 218 346 240 L342 310 C348 300 354 280 356 262 Z" fill="#8E3A6E" opacity="0.6"/>
  <path d="M220 174 C232 166 244 164 256 164 C268 164 280 166 292 174 C294 186 290 198 280 206 C266 214 246 214 232 206 C222 198 218 186 220 174 Z" fill="#C9A23F"/>
  <path d="M154 378 C214 390 298 390 358 378 L358 398 C298 410 214 410 154 398 Z" fill="#5C3D24"/>
</svg>
