<svg xmlns="http://www.w3.org/2000/svg" viewBox="0 0 512 512" width="512" height="512">
  <!-- Druid T5 hood, south: antler-adorned wildheart hood - grand branched antlers, fur-lined, amber sap glint. -->
  <!-- LEFT grand antler: main beam + 2 tines -->
  <path d="M186 156 C166 122 152 80 160 40 C172 48 180 66 180 88 C188 64 204 50 224 48 C218 76 204 100 184 116 C190 96 192 74 186 56 C182 84 178 112 184 138 C185 144 185 150 186 156 Z" fill="#D8CCB4"/>
  <path d="M170 96 C158 76 154 52 162 34 C170 44 174 60 172 78 C171 84 170 90 170 96 Z" fill="#B5A88C"/>
  <path d="M150 110 C140 94 138 74 144 58 C152 68 156 82 154 96 C152 100 151 105 150 110 Z" fill="#B5A88C"/>
  <path d="M210 70 C220 56 234 50 248 52 C236 64 222 72 208 76 Z" fill="#D8CCB4"/>
  <!-- RIGHT grand antler -->
  <path d="M326 156 C346 122 360 80 352 40 C340 48 332 66 332 88 C324 64 308 50 288 48 C294 76 308 100 328 116 C322 96 320 74 326 56 C330 84 334 112 328 138 C327 144 327 150 326 156 Z" fill="#D8CCB4"/>
  <path d="M342 96 C354 76 358 52 350 34 C342 44 338 60 340 78 C341 84 342 90 342 96 Z" fill="#B5A88C"/>
  <path d="M362 110 C372 94 374 74 368 58 C360 68 356 82 358 96 C360 100 361 105 362 110 Z" fill="#B5A88C"/>
  <path d="M302 70 C292 56 278 50 264 52 C276 64 290 72 304 76 Z" fill="#D8CCB4"/>
  <!-- hood -->
  <path d="M150 256 C146 192 196 146 256 146 C316 146 366 192 362 256 L356 274 C328 256 184 256 156 274 Z" fill="#5A4630"/>
  <path d="M164 246 C166 202 202 168 256 168 C286 168 312 182 328 206 C302 186 216 188 190 218 C178 230 166 238 164 246 Z" fill="#6E5638"/>
  <path d="M156 270 C150 298 154 328 168 346 L190 338 C180 320 176 298 178 272 Z" fill="#5A4630"/>
  <path d="M356 270 C362 298 358 328 344 346 L322 338 C332 320 336 298 334 272 Z" fill="#5A4630"/>
  <!-- fur lining -->
  <path d="M156 268 L172 258 L176 272 L192 262 L196 276 L212 266 L216 280 L232 270 L236 282 L256 274 L276 282 L280 270 L296 280 L300 266 L316 276 L320 262 L336 272 L340 258 L356 268 C328 252 184 252 156 268 Z" fill="#C2B591"/>
  <path d="M160 272 C162 296 166 322 178 340 L190 334 C180 318 176 296 178 274 Z" fill="#C2B591"/>
  <path d="M352 272 C350 296 346 322 334 340 L322 334 C332 318 336 296 334 274 Z" fill="#C2B591"/>
  <!-- amber sap glint at the brow -->
  <circle cx="256" cy="260" r="8" fill="#D89A3A"/>
  <circle cx="256" cy="258" r="4" fill="#F2C46A"/>
</svg>
