<svg xmlns="http://www.w3.org/2000/svg" viewBox="0 0 512 512" width="512" height="512">
  <!-- Druid T5 hood, east: grand branched antler sweeping up, far one behind; fur-lined hood, nape coverage. -->
  <!-- far antler -->
  <path d="M210 152 C194 120 186 84 196 50 C208 58 214 76 212 98 C220 78 234 68 250 68 C244 92 232 112 214 124 C212 108 212 92 214 78 C211 102 208 128 212 150 Z" fill="#9C9078"/>
  <!-- hood -->
  <path d="M148 254 C144 190 196 146 256 146 C312 146 356 184 356 240 C356 252 350 262 340 268 L320 262 C310 256 304 250 302 244 L242 244 C240 290 234 328 220 352 L186 352 C160 326 146 292 148 254 Z" fill="#5A4630"/>
  <path d="M162 244 C166 200 202 166 254 166 C284 166 310 180 326 204 C300 184 214 186 188 216 C174 230 164 234 162 244 Z" fill="#6E5638"/>
  <!-- near antler, branched forward-up -->
  <path d="M288 150 C272 116 264 78 276 44 C290 52 296 72 294 96 C304 74 320 64 338 66 C330 92 316 114 296 126 C302 106 304 84 298 64 C294 92 290 120 296 146 Z" fill="#D8CCB4"/>
  <path d="M328 80 C338 62 338 44 328 32 C322 42 320 58 322 74 C324 76 326 78 328 80 Z" fill="#B5A88C"/>
  <path d="M308 60 C320 48 336 44 350 48 C338 58 322 64 308 66 Z" fill="#D8CCB4"/>
  <!-- cheek fall + fur trim -->
  <path d="M300 244 C322 244 340 252 348 264 L340 276 C330 264 316 258 298 258 L242 258 C240 260 238 262 238 264 C234 300 228 330 216 350 L198 350 C212 322 218 286 218 252 L220 244 Z" fill="#5A4630"/>
  <path d="M300 246 C320 246 338 254 346 266 L338 276 C328 266 314 260 298 260 L240 260 C238 262 236 264 236 266 C232 302 226 330 214 350 L200 350 C212 324 218 288 218 256 L220 246 Z" fill="#C2B591"/>
  <circle cx="324" cy="254" r="7" fill="#D89A3A"/>
  <circle cx="324" cy="252" r="3.5" fill="#F2C46A"/>
</svg>
