<svg xmlns="http://www.w3.org/2000/svg" viewBox="0 0 512 512" width="512" height="512">
  <!-- Barbarian T2 helm, east: skull cap profile, seam arc, studs. -->
  <path d="M190 244 C186 196 218 162 262 162 C306 162 336 196 332 244 L328 258 C306 246 214 246 194 258 Z" fill="#6B4426"/>
  <path d="M200 238 C200 200 226 174 262 174 C284 174 302 184 314 200 C294 188 232 190 212 212 C205 220 201 228 200 238 Z" fill="#8A5A33"/>
  <path d="M214 178 C236 166 264 162 288 168 L286 180 C264 174 240 177 222 188 Z" fill="#5C3D24"/>
  <path d="M192 246 C214 236 308 236 330 246 L328 260 C306 250 216 250 196 260 Z" fill="#5C3D24"/>
  <circle cx="222" cy="250" r="6" fill="#E8E0CC"/>
  <circle cx="300" cy="250" r="6" fill="#E8E0CC"/>
</svg>
