<svg xmlns="http://www.w3.org/2000/svg" viewBox="0 0 512 512" width="512" height="512">
  <!-- Paladin T4 helm, east: winged greathelm profile, near wing sweeping back, plume, nape coverage. -->
  <!-- far wing -->
  <path d="M200 196 C184 184 174 166 172 144 C184 148 192 158 198 172 C198 156 204 142 214 132 C218 148 216 166 208 180 C205 186 202 192 200 196 Z" fill="#7A828E"/>
  <!-- dome -->
  <path d="M152 250 C148 190 198 146 258 146 C314 146 356 186 356 240 L354 262 C326 248 184 248 156 264 Z" fill="#9AA3B0"/>
  <path d="M166 240 C170 200 206 166 256 166 C284 166 310 180 326 204 C300 184 214 186 188 214 C178 226 168 234 166 240 Z" fill="#C4CBD6"/>
  <!-- near wing sweeping back-up -->
  <path d="M282 196 C266 168 262 138 274 114 C286 122 290 140 288 162 C298 144 312 136 328 138 C322 160 310 178 292 188 C289 190 285 194 282 196 Z" fill="#9AA3B0"/>
  <path d="M320 142 C314 130 314 116 322 108 C328 116 328 128 324 138 Z" fill="#C4CBD6"/>
  <!-- blue plume crest -->
  <path d="M244 150 C234 122 232 92 244 68 C256 78 262 100 260 124 C254 134 250 142 244 150 Z" fill="#2E4E9E"/>
  <!-- gold band -->
  <path d="M154 250 C184 236 328 236 356 250 L354 270 C326 254 184 254 156 270 Z" fill="#C9A23F"/>
  <path d="M154 262 C184 250 328 250 356 262 L354 270 C326 254 184 254 156 270 Z" fill="#8E6E24"/>
  <path d="M232 224 L280 224 L280 234 L232 234 Z" fill="#565C66"/>
</svg>
