<svg xmlns="http://www.w3.org/2000/svg" viewBox="0 0 512 512" width="512" height="512">
  <!-- Barbarian T3 helm, south: steel dome, gold band, short smooth cow horns curving up-out. -->
  <!-- horns: smooth single-curve crescents -->
  <path d="M188 236 C158 226 136 204 126 176 C118 152 120 128 132 112 C142 128 146 148 144 166 C156 182 170 200 180 218 C183 224 186 230 188 236 Z" fill="#D8CCB4"/>
  <path d="M134 168 C126 148 126 128 134 114 C140 124 143 138 142 152 C139 158 136 163 134 168 Z" fill="#B5A88C"/>
  <path d="M324 236 C354 226 376 204 386 176 C394 152 392 128 380 112 C370 128 366 148 368 166 C356 182 342 200 332 218 C329 224 326 230 324 236 Z" fill="#D8CCB4"/>
  <path d="M378 168 C386 148 386 128 378 114 C372 124 369 138 370 152 C373 158 376 163 378 168 Z" fill="#B5A88C"/>
  <!-- dome -->
  <path d="M168 250 C164 192 204 152 256 152 C308 152 348 192 344 250 L338 268 L174 268 Z" fill="#2E3138"/>
  <path d="M180 244 C180 198 212 166 256 166 C282 166 304 178 318 198 C294 184 222 186 198 212 C188 222 182 232 180 244 Z" fill="#454A54"/>
  <!-- gold brow band -->
  <path d="M170 246 C196 234 314 234 342 246 L342 266 C314 254 198 254 170 266 Z" fill="#C9A23F"/>
  <path d="M170 258 C196 247 314 247 342 258 L342 266 C314 254 198 254 170 266 Z" fill="#8E6E24"/>
  <!-- center ridge -->
  <path d="M250 154 L262 154 L260 240 L252 240 Z" fill="#C9A23F"/>
  <circle cx="192" cy="250" r="4" fill="#8E6E24"/>
  <circle cx="320" cy="250" r="4" fill="#8E6E24"/>
</svg>
