<svg xmlns="http://www.w3.org/2000/svg" viewBox="0 0 512 512" width="512" height="512">
  <!-- Monk T4 south: same silhouette, but silk sheen + gold-thread cuffs and sash trim. -->
  <path d="M148 240 C158 196 198 170 256 170 C314 170 354 196 364 240 L360 400 C358 436 326 458 256 458 C186 458 154 436 152 400 Z" fill="#D8902E"/>
  <path d="M162 244 C172 200 210 176 256 176 C292 176 322 190 340 214 C312 192 212 196 184 230 C175 240 166 244 162 244 Z" fill="#F0BA58"/>
  <path d="M170 224 C196 208 226 200 258 204 L340 290 L336 360 C320 350 200 350 176 360 L168 290 Z" fill="#B06A1A"/>
  <path d="M178 232 C202 218 230 212 256 216 L330 292 L324 300 C300 250 244 226 256 226 C232 224 200 228 184 240 Z" fill="#C97A20"/>
  <!-- silk wraps w/ gold thread -->
  <path d="M152 320 C160 312 172 312 178 320 L176 380 C170 372 160 372 154 380 Z" fill="#E8DCC0"/>
  <path d="M360 320 C352 312 340 312 334 320 L336 380 C342 372 352 372 358 380 Z" fill="#E8DCC0"/>
  <path d="M156 332 L174 332 M156 350 L174 350 M338 332 L356 332 M338 350 L356 350" stroke="#C9A23F" stroke-width="3" fill="none"/>
  <!-- bead necklace -->
  <path d="M206 210 C224 230 240 238 256 238 C272 238 288 230 306 210 L310 218 C292 240 274 248 256 248 C238 248 220 240 202 218 Z" fill="#6E4A2C"/>
  <circle cx="236" cy="236" r="6" fill="#C9A23F"/>
  <circle cx="256" cy="240" r="6" fill="#8A6E48"/>
  <circle cx="276" cy="236" r="6" fill="#C9A23F"/>
  <!-- sash, gold-edged -->
  <path d="M156 384 C216 396 296 396 356 384 L356 404 C296 416 216 416 156 404 Z" fill="#A8431A"/>
  <path d="M156 384 C216 396 296 396 356 384 L356 390 C296 402 216 402 156 390 Z" fill="#C9A23F"/>
  <path d="M248 392 L240 444 L254 434 L260 448 L266 432 L278 442 L270 392 Z" fill="#A8431A"/>
  <path d="M248 392 L270 392 L268 400 L250 400 Z" fill="#C9A23F"/>
</svg>
