<svg xmlns="http://www.w3.org/2000/svg" viewBox="0 0 512 512" width="512" height="512">
  <!-- Druid T5 hat, north: skull back + antlers, fur fall covering the whole skull. -->
  <path d="M184 210 C160 196 142 174 134 146 C128 122 132 100 144 86 C152 102 154 122 150 140 L166 128 L166 146 C176 152 184 162 188 174 L198 162 L202 182 C206 192 208 202 208 212 Z" fill="#B5A88C"/>
  <path d="M328 210 C352 196 370 174 378 146 C384 122 380 100 368 86 C360 102 358 122 362 140 L346 128 L346 146 C336 152 328 162 324 174 L314 162 L310 182 C306 192 304 202 304 212 Z" fill="#B5A88C"/>
  <!-- skull dome from behind -->
  <path d="M156 250 C152 190 202 148 258 148 C314 148 360 190 356 250 L352 268 C324 252 188 252 160 268 Z" fill="#D8CCB4"/>
  <path d="M170 242 C172 198 208 164 256 164 C286 164 312 178 328 202 C302 182 216 184 190 214 C180 226 172 232 170 242 Z" fill="#E8E0CC"/>
  <path d="M252 150 L260 150 L258 252 L254 252 Z" fill="#B5A88C"/>
  <!-- fur fall covering the skull back -->
  <path d="M166 256 C192 246 320 246 346 256 C350 296 338 330 312 352 L200 352 C174 330 162 296 166 256 Z" fill="#5C4E38"/>
  <path d="M176 262 C200 254 312 254 336 262 C338 296 328 326 306 344 L206 344 C184 326 174 296 176 262 Z" fill="#4A3F2E" opacity="0.5"/>
  <path d="M178 330 L192 318 L202 332 L216 320 L226 334 L242 322 L252 336 L264 322 L276 336 L292 322 L302 334 L316 320 L326 332 L334 322 L330 344 C306 332 206 332 182 344 Z" fill="#6B5C44"/>
</svg>
