<svg xmlns="http://www.w3.org/2000/svg" viewBox="0 0 512 512" width="512" height="512">
  <!-- Warlock T4 north: ornate robe back, hem band, floating chain. -->
  <path d="M196 200 C176 188 158 176 150 156 C168 162 184 168 198 174 L188 152 C204 162 218 174 228 188 Z" fill="#3A2356"/>
  <path d="M316 200 C336 188 354 176 362 156 C344 162 328 168 314 174 L324 152 C308 162 294 174 284 188 Z" fill="#3A2356"/>
  <path d="M150 240 C160 196 198 172 256 172 C314 172 352 196 362 240 L362 416 C354 432 322 446 256 446 C190 446 158 432 150 416 Z" fill="#4A2E6E"/>
  <path d="M150 240 C160 200 196 178 256 178 L256 446 C190 446 158 432 150 416 Z" fill="#3A2356"/>
  <path d="M256 178 C318 178 354 200 362 240 L362 416 C354 432 326 446 256 446 Z" fill="#4A2E6E"/>
  <path d="M156 404 C214 418 298 418 358 402 L360 416 C300 432 212 432 154 418 Z" fill="#9A86B4"/>
  <path d="M210 198 C200 182 196 164 198 148 C216 166 228 184 234 198 C224 192 220 192 210 198 Z" fill="#5E3C84"/>
  <path d="M302 198 C312 182 316 164 314 148 C296 166 284 184 278 198 C288 192 292 192 302 198 Z" fill="#5E3C84"/>
  <path d="M252 200 L260 200 L258 440 L254 440 Z" fill="#2C1A42"/>
  <path d="M306 214 C336 220 354 244 350 280 C348 304 340 322 332 338" stroke="#9A86B4" stroke-width="3" fill="none" stroke-dasharray="6 5"/>
  <circle cx="332" cy="346" r="9" fill="#2C1A42"/>
  <circle cx="332" cy="346" r="5" fill="#8EBE4A"/>
</svg>
