<svg xmlns="http://www.w3.org/2000/svg" viewBox="0 0 512 512" width="512" height="512">
  <!-- Monk T5 north: humble gi back, chi-glowing wraps + sash. -->
  <path d="M148 240 C158 196 198 170 256 170 C314 170 354 196 364 240 L360 400 C358 436 326 458 256 458 C186 458 154 436 152 400 Z" fill="#C9852E"/>
  <path d="M176 224 C202 208 230 200 256 200 C282 200 310 208 336 224 L332 360 C312 350 200 350 180 360 Z" fill="#B06A1A"/>
  <path d="M252 204 L260 204 L258 354 L254 354 Z" fill="#A05E14"/>
  <path d="M150 318 C158 308 174 308 180 318 L178 382 C172 372 158 372 152 382 Z" fill="#FFE08A" opacity="0.55"/>
  <path d="M152 320 C160 312 172 312 178 320 L176 380 C170 372 160 372 154 380 Z" fill="#E8DCC0"/>
  <path d="M362 318 C354 308 338 308 332 318 L334 382 C340 372 354 372 360 382 Z" fill="#FFE08A" opacity="0.55"/>
  <path d="M360 320 C352 312 340 312 334 320 L336 380 C342 372 352 372 358 380 Z" fill="#E8DCC0"/>
  <path d="M154 382 C214 394 298 394 358 382 L358 406 C298 418 214 418 154 406 Z" fill="#FFD06A" opacity="0.45"/>
  <path d="M156 384 C216 396 296 396 356 384 L356 404 C296 416 216 416 156 404 Z" fill="#A8431A"/>
  <path d="M170 388 C200 398 312 398 342 388" stroke="#FFE08A" stroke-width="3" fill="none"/>
</svg>
