<svg xmlns="http://www.w3.org/2000/svg" viewBox="0 0 512 512" width="512" height="512">
  <!-- Druid T3 north: bark mantle from behind, fur trim, hood over it. -->
  <path d="M148 240 C158 196 198 170 256 170 C314 170 354 196 364 240 L360 400 C358 436 326 458 256 458 C186 458 154 436 152 400 Z" fill="#5E6B43"/>
  <path d="M196 200 L194 452 M226 188 L225 456 M286 188 L287 456 M316 200 L318 452" stroke="#4A5634" stroke-width="5" fill="none"/>
  <!-- bark mantle -->
  <path d="M142 250 C150 212 194 190 256 190 C318 190 362 212 370 250 L366 300 L348 284 L344 312 L324 294 L314 318 L290 300 L278 290 C266 282 246 282 234 290 L222 300 L198 318 L188 294 L168 312 L164 284 L146 300 Z" fill="#6E5638"/>
  <path d="M154 252 C162 222 200 202 256 202 C312 202 350 222 358 252 L356 282 L340 270 L336 294 L318 280 L310 300 L288 286 L278 280 C266 272 246 272 234 280 L224 286 L202 300 L194 280 L176 294 L172 270 L156 282 Z" fill="#856A48"/>
  <path d="M196 232 L194 296 M226 224 L225 300 M286 224 L287 300 M316 232 L318 296" stroke="#4E3C26" stroke-width="3" opacity="0.7" fill="none"/>
  <path d="M168 300 L182 290 L186 306 L202 296 L206 312 L222 302 L226 316 L242 306 L246 318 L256 312 L266 318 L270 306 L286 316 L290 302 L306 312 L310 296 L326 306 L330 290 L344 300 C328 314 290 322 256 322 C222 322 184 314 168 300 Z" fill="#CBBE9E"/>
  <!-- hood hanging over the mantle -->
  <path d="M224 196 C234 190 245 188 256 188 C267 188 278 190 288 196 C294 214 288 236 274 248 C267 254 261 256 256 256 C251 256 245 254 238 248 C224 236 218 214 224 196 Z" fill="#6E5638"/>
  <path d="M238 246 C244 251 251 253 256 253 C261 253 268 251 274 246 C276 250 274 254 270 256 C264 260 248 260 242 256 C238 254 236 250 238 246 Z" fill="#CBBE9E"/>
  <path d="M156 384 C216 396 296 396 356 384 L356 402 C296 414 216 414 156 402 Z" fill="#8A6E4A"/>
</svg>
