<svg xmlns="http://www.w3.org/2000/svg" viewBox="0 0 512 512" width="512" height="512">
  <!-- Barbarian T5 horned helm, south: blackened dome, gold band, great curved horns. -->
  <!-- horns: sweeping out and up from the temples -->
  <path d="M186 232 C150 224 120 204 102 174 C86 146 82 116 92 92 C108 102 120 120 124 142 C130 124 144 112 162 108 C158 130 160 152 170 172 C176 192 182 214 186 232 Z" fill="#D8CCB4"/>
  <path d="M104 170 C92 146 88 120 96 98 C104 106 110 118 113 132 C108 144 104 158 104 170 Z" fill="#B5A88C"/>
  <path d="M160 116 C150 120 142 128 138 140 C144 134 152 130 160 128 Z" fill="#B5A88C"/>
  <path d="M326 232 C362 224 392 204 410 174 C426 146 430 116 420 92 C404 102 392 120 388 142 C382 124 368 112 350 108 C354 130 352 152 342 172 C336 192 330 214 326 232 Z" fill="#D8CCB4"/>
  <path d="M408 170 C420 146 424 120 416 98 C408 106 402 118 399 132 C404 144 408 158 408 170 Z" fill="#B5A88C"/>
  <path d="M352 116 C362 120 370 128 374 140 C368 134 360 130 352 128 Z" fill="#B5A88C"/>
  <!-- dome -->
  <path d="M168 250 C164 192 204 152 256 152 C308 152 348 192 344 250 L338 268 L174 268 Z" fill="#2E3138"/>
  <path d="M180 244 C180 198 212 166 256 166 C282 166 304 178 318 198 C294 184 222 186 198 212 C188 222 182 232 180 244 Z" fill="#454A54"/>
  <!-- gold brow band -->
  <path d="M170 246 C196 234 314 234 342 246 L342 266 C314 254 198 254 170 266 Z" fill="#C9A23F"/>
  <path d="M170 258 C196 247 314 247 342 258 L342 266 C314 254 198 254 170 266 Z" fill="#8E6E24"/>
  <!-- center ridge + ember gem -->
  <path d="M250 154 L262 154 L260 240 L252 240 Z" fill="#C9A23F"/>
  <circle cx="256" cy="250" r="9" fill="#FF5A2A"/>
  <circle cx="256" cy="248" r="4" fill="#FFC09A"/>
  <!-- rivets -->
  <circle cx="192" cy="250" r="4" fill="#8E6E24"/>
  <circle cx="320" cy="250" r="4" fill="#8E6E24"/>
</svg>
