<svg xmlns="http://www.w3.org/2000/svg" viewBox="0 0 512 512" width="512" height="512">
  <!-- Bard T5 hat, south: grand plumed hat - double feathers, gold band + brooch, widest brim. -->
  <path d="M288 138 C300 92 328 56 366 40 C370 56 364 76 350 92 C368 86 386 90 398 102 C384 124 360 140 332 144 C314 146 298 144 288 138 Z" fill="#E8E0CC"/>
  <path d="M280 142 C270 100 246 68 210 54 C208 70 214 88 228 102 C210 98 194 102 184 112 C198 132 222 146 248 148 C262 148 273 146 280 142 Z" fill="#D87AB4"/>
  <path d="M296 132 C306 98 326 70 352 54 C344 76 330 96 312 110 C324 108 336 110 346 116 C332 128 314 134 296 132 Z" fill="#C9C2B0"/>
  <path d="M156 250 C148 196 198 152 256 150 C316 148 364 192 356 250 L352 264 C324 248 186 248 158 264 Z" fill="#5E2548"/>
  <path d="M172 240 C174 200 210 166 256 166 C286 166 312 180 328 204 C302 184 216 186 190 216 C178 228 172 234 172 240 Z" fill="#8E3A6E"/>
  <!-- widest brim -->
  <path d="M124 254 C164 236 348 236 388 254 C394 264 390 275 380 279 C338 262 176 262 132 279 C122 275 118 264 124 254 Z" fill="#5E2548"/>
  <path d="M130 256 C168 242 344 242 382 256 C384 262 382 268 378 271 C338 256 176 256 134 271 C130 268 128 262 130 256 Z" fill="#8E3A6E"/>
  <path d="M356 250 C374 240 386 224 392 206 C400 220 396 238 384 250 C376 258 366 261 356 258 Z" fill="#5E2548"/>
  <!-- gold band + brooch -->
  <path d="M184 240 C212 230 302 230 328 240 L326 256 C302 246 212 246 186 256 Z" fill="#C9A23F"/>
  <circle cx="256" cy="244" r="10" fill="#C9A23F"/>
  <circle cx="256" cy="244" r="5" fill="#E8E0CC"/>
</svg>
