<svg xmlns="http://www.w3.org/2000/svg" viewBox="0 0 512 512" width="512" height="512">
  <!-- Barbarian T1 north: hide wrap from behind, strap across the back, rope belt. -->
  <path d="M172 230 C200 214 232 208 264 212 L354 298 L352 360 L340 364 L328 352 L322 370 L306 356 L300 374 L286 360 L278 376 L264 362 L258 378 L244 364 L236 378 L222 364 L216 374 L202 362 L196 370 L182 358 L174 300 Z" fill="#8A5A33"/>
  <path d="M178 236 C202 222 232 216 260 220 L346 298 L344 310 L256 230 C230 226 202 232 184 244 Z" fill="#6B4426"/>
  <path d="M214 210 C200 216 188 226 180 238 L194 250 C202 238 212 230 224 224 Z" fill="#6B4426"/>
  <path d="M170 392 C224 404 290 404 344 392 L344 410 C290 422 224 422 170 410 Z" fill="#A9744A"/>
  <path d="M186 396 L194 414 M216 400 L222 418 M248 403 L252 420 M280 402 L284 419 M308 400 L314 417 M332 395 L338 412" stroke="#6B4426" stroke-width="7" fill="none"/>
</svg>
