<svg xmlns="http://www.w3.org/2000/svg" viewBox="0 0 512 512" width="512" height="512">
  <!-- Wizard T5 hat, east: grand near-black cone with curled glowing tip, widest brim, runes, nape drape. -->
  <!-- rear drape -->
  <path d="M156 264 C172 256 210 252 248 254 C252 294 248 328 234 356 L182 356 C160 330 150 298 156 264 Z" fill="#16182A"/>
  <path d="M168 270 C182 264 208 261 234 262 C236 298 232 326 220 348 L192 348 C174 326 164 300 168 270 Z" fill="#0E101E" opacity="0.55"/>
  <!-- crown dome -->
  <path d="M152 260 C148 196 200 152 258 152 C318 152 362 192 362 248 L360 268 C330 254 182 254 156 270 Z" fill="#16182A"/>
  <!-- cone: grand, leaning back, tip curling over with glow -->
  <path d="M190 254 C180 188 188 116 214 72 C220 62 230 58 239 63 C282 88 312 178 330 254 Z" fill="#16182A"/>
  <path d="M214 72 C224 56 244 54 256 66 C266 76 264 92 252 100 C244 90 234 84 224 84 C220 80 216 76 214 72 Z" fill="#16182A"/>
  <path d="M200 248 C194 196 198 142 216 94 C208 142 204 200 208 248 Z" fill="#3D4775"/>
  <path d="M292 182 C308 206 320 232 328 252 L308 252 C302 230 294 206 284 184 Z" fill="#0E101E"/>
  <circle cx="252" cy="74" r="9" fill="#8F7BFF"/>
  <circle cx="252" cy="72" r="4" fill="#D6CEFF"/>
  <!-- runes up the cone -->
  <path d="M212 210 L222 216 M216 176 L226 182 M222 142 L232 148 M230 112 L240 118" stroke="#8F7BFF" stroke-width="5" fill="none"/>
  <!-- brim: widest -->
  <path d="M130 258 C168 242 348 242 386 258 C390 268 386 277 378 281 C338 266 180 266 138 281 C130 277 126 268 130 258 Z" fill="#0E101E"/>
  <path d="M136 260 C174 247 342 247 380 260 C382 265 380 271 376 274 C338 260 180 260 140 274 C136 271 134 265 136 260 Z" fill="#1E2440"/>
  <!-- glowing band + star -->
  <path d="M194 244 C218 236 300 236 326 244 L324 256 C302 248 218 248 196 256 Z" fill="#8F7BFF"/>
  <path d="M336 234 L340 245 L352 245 L342 253 L346 265 L336 257 L326 265 L330 253 L320 245 L332 245 Z" fill="#C7CEDB"/>
</svg>
