<svg xmlns="http://www.w3.org/2000/svg" viewBox="0 0 512 512" width="512" height="512">
  <!-- Paladin T5 east: radiant plate profile, glow rim, gold winged pauldron, halo fragment, glowing boss. -->
  <path d="M150 196 C168 174 200 162 236 162 L234 174 C204 174 178 184 162 204 Z" fill="#F2E8C0" opacity="0.7"/>
  <path d="M164 236 C172 192 204 166 256 166 C302 166 334 188 344 230 L342 386 C340 414 312 428 254 428 C200 428 166 414 168 386 Z" fill="#C4CBD6"/>
  <path d="M164 236 C172 192 204 166 256 166 C302 166 334 188 344 230 L342 240 C330 198 298 176 254 176 C208 176 178 198 166 244 Z" fill="#F2E8C0" opacity="0.85"/>
  <path d="M312 198 L338 210 L336 444 L314 450 Z" fill="#2E4E9E"/>
  <path d="M332 208 L338 210 L336 444 L330 446 Z" fill="#C9A23F"/>
  <path d="M180 230 C192 204 218 186 254 184 L270 204 L296 188 C320 196 338 212 348 230 L344 246 C330 224 308 210 282 206 L266 222 L246 222 C220 224 198 238 184 256 Z" fill="#C9A23F"/>
  <path d="M172 388 C220 400 296 400 338 390 L337 408 C294 418 220 418 173 408 Z" fill="#9AA3B0"/>
  <path d="M172 418 C220 430 296 430 338 420 L336 434 C296 444 216 444 174 434 Z" fill="#9AA3B0"/>
  <circle cx="296" cy="300" r="14" fill="#F2E8C0" opacity="0.55"/>
  <circle cx="296" cy="300" r="9" fill="#C9A23F"/>
  <path d="M168 230 C160 196 172 168 200 152 C198 172 192 190 180 202 C198 196 216 198 228 208 L220 224 L236 220 L224 242 L242 234 L232 258 C212 252 190 254 172 264 C166 252 164 240 168 230 Z" fill="#C4CBD6"/>
  <path d="M168 230 C160 196 172 168 200 152 L204 162 C180 180 172 204 176 232 Z" fill="#C9A23F"/>
  <path d="M174 260 C192 250 214 252 230 258 L226 266 C212 260 192 258 176 266 Z" fill="#F2E8C0" opacity="0.8"/>
  <path d="M198 220 C194 200 202 184 220 178 C232 174 244 176 252 184 L248 198 C240 192 230 191 222 195 C212 200 206 209 208 220 Z" fill="#7A828E"/>
  <path d="M172 352 C220 364 296 364 338 354 L338 372 C296 382 220 382 172 370 Z" fill="#9AA3B0"/>
  <rect x="288" y="354" width="24" height="16" rx="3" fill="#C9A23F"/>
</svg>
