<svg xmlns="http://www.w3.org/2000/svg" viewBox="0 0 512 512" width="512" height="512">
  <!-- Ranger T3 north: scout cloak from behind, hood, quiver. -->
  <path d="M148 240 C158 196 198 170 256 170 C314 170 354 196 364 240 L360 400 C358 436 326 458 256 458 C186 458 154 436 152 400 Z" fill="#3E5A34"/>
  <path d="M142 234 C150 202 194 182 256 182 C318 182 362 202 370 234 L366 360 C340 376 200 376 146 360 Z" fill="#46583A"/>
  <path d="M154 236 C162 210 200 192 256 192 C312 192 350 210 358 236 L356 350 C332 364 180 364 156 350 Z" fill="#5A7048"/>
  <path d="M196 222 L194 350 M226 214 L225 356 M286 214 L287 356 M316 222 L318 350" stroke="#3A4E30" stroke-width="3" opacity="0.6" fill="none"/>
  <path d="M224 174 C234 166 244 164 256 164 C268 164 278 166 290 174 C296 196 290 222 276 238 C268 246 262 248 256 248 C250 248 244 246 238 238 C224 222 218 196 224 174 Z" fill="#46583A"/>
  <path d="M286 184 L320 184 L314 360 L292 360 Z" fill="#5C4630"/>
  <path d="M292 180 L300 150 L308 180 M308 180 L316 150 L324 180" stroke="#8A8E74" stroke-width="6" fill="none"/>
</svg>
