<svg xmlns="http://www.w3.org/2000/svg" viewBox="0 0 512 512" width="512" height="512">
  <!-- Rogue T2 hood, south: simple dark hood framing the face. -->
  <path d="M150 256 C146 192 196 146 256 146 C316 146 366 192 362 256 L356 274 C328 256 184 256 156 274 Z" fill="#26262C"/>
  <path d="M164 246 C166 202 202 168 256 168 C286 168 312 182 328 206 C302 186 216 188 190 218 C178 230 166 238 164 246 Z" fill="#3A3A42"/>
  <path d="M156 270 C150 298 154 328 168 346 L190 338 C180 320 176 298 178 272 Z" fill="#26262C"/>
  <path d="M356 270 C362 298 358 328 344 346 L322 338 C332 320 336 298 334 272 Z" fill="#26262C"/>
</svg>
