<svg xmlns="http://www.w3.org/2000/svg" viewBox="0 0 512 512" width="512" height="512">
  <!-- Wizard T1 east: robe profile, hood bunched at the neck, rope belt, ink-stained sleeve. -->
  <path d="M164 236 C172 192 204 166 256 166 C302 166 334 188 344 230 L342 386 C340 414 312 430 254 430 C200 430 166 414 168 386 Z" fill="#2B3357"/>
  <path d="M184 246 C194 218 222 204 260 204 C296 204 322 217 334 240 L332 310 L184 310 Z" fill="#3D4775" opacity="0.5"/>
  <!-- hood bunch at the back of the neck -->
  <path d="M196 226 C192 206 200 190 218 184 C230 180 242 182 250 190 L246 204 C238 198 228 197 220 201 C210 206 204 215 206 226 Z" fill="#1E2440"/>
  <!-- belt -->
  <path d="M192 368 C232 380 294 380 328 370 L328 386 C294 396 232 396 192 384 Z" fill="#5C3D24"/>
  <!-- ink stain -->
  <ellipse cx="300" cy="350" rx="12" ry="8" fill="#16182A"/>
</svg>
