<svg xmlns="http://www.w3.org/2000/svg" viewBox="0 0 512 512" width="512" height="512">
  <!-- Wizard T4 hat, east: taller cone leaning back, projecting brim, star at the band, nape drape. -->
  <!-- rear drape -->
  <path d="M158 262 C174 254 210 250 246 252 C250 292 246 326 232 354 L184 354 C162 328 152 296 158 262 Z" fill="#1E2440"/>
  <path d="M170 268 C184 262 208 259 232 260 C234 296 230 324 218 346 L194 346 C176 324 166 298 170 268 Z" fill="#16182A" opacity="0.5"/>
  <!-- crown dome -->
  <path d="M154 258 C150 196 200 154 258 154 C316 154 360 192 360 246 L358 266 C328 252 184 252 158 268 Z" fill="#1E2440"/>
  <!-- cone: tall, leaning back, sharp tip -->
  <path d="M192 252 C184 196 190 136 212 96 C217 87 226 83 234 87 C274 106 306 180 326 252 Z" fill="#1E2440"/>
  <path d="M202 246 C196 198 200 150 216 110 C208 150 204 200 210 246 Z" fill="#3D4775"/>
  <path d="M290 188 C304 208 314 230 322 250 L304 250 C298 230 290 208 282 190 Z" fill="#16182A"/>
  <!-- brim -->
  <path d="M134 256 C170 242 346 242 382 256 C386 266 382 274 374 278 C336 264 182 264 142 278 C134 274 130 266 134 256 Z" fill="#16182A"/>
  <path d="M140 258 C176 246 340 246 376 258 C378 263 376 268 372 271 C336 258 182 258 144 271 C140 268 138 263 140 258 Z" fill="#2B3357"/>
  <!-- silver band + star -->
  <path d="M196 242 C220 234 298 234 322 242 L320 254 C300 246 220 246 198 254 Z" fill="#97A1B5"/>
  <path d="M332 234 L336 244 L347 244 L338 251 L342 262 L332 255 L322 262 L326 251 L317 244 L328 244 Z" fill="#C7CEDB"/>
</svg>
