<svg xmlns="http://www.w3.org/2000/svg" viewBox="0 0 512 512" width="512" height="512">
  <!-- Ranger HelmT3 east: hood profile + tucked feather at the temple. -->
  <path fill-rule="evenodd" d="M168 358 C158 274 168 196 206 162 C230 144 252 138 270 138 C306 138 338 162 348 202 L350 358 L318 358 C324 282 314 224 288 200 C274 188 260 184 248 186 C228 190 210 222 204 282 L202 358 Z" fill="#46583A"/>
  <path d="M168 358 C160 290 168 220 198 182 C188 240 186 300 192 358 Z" fill="#3E5A34"/>
  <path d="M248 186 C262 184 276 188 290 200 L284 210 C272 198 260 196 250 198 Z" fill="#5C4630"/>
  <path d="M196 196 C186 180 188 162 202 150 C204 166 206 182 210 196 C206 200 200 200 196 196 Z" fill="#8A8E74"/>
  <path d="M200 192 C196 178 198 166 206 158 C206 170 208 182 210 192 Z" fill="#C9BBA0"/>
</svg>
