<svg xmlns="http://www.w3.org/2000/svg" viewBox="0 0 512 512" width="512" height="512">
  <!-- Barbarian T5 helm, south: massive near-black demon-bull horns, gold crest, ember gem, jaw guard. -->
  <!-- horns: single solid thick crescents, wide base at the dome, sweeping out and HIGH to sharp tips -->
  <path d="M186 256 C146 254 110 238 84 210 C62 186 50 154 52 120 C53 102 58 88 66 76 C82 92 92 114 94 138 C104 168 126 192 156 204 C168 220 178 238 186 256 Z" fill="#3E3933"/>
  <path d="M64 80 C58 92 54 106 54 122 C62 112 68 98 70 84 C68 82 66 81 64 80 Z" fill="#FFC09A"/>
  <path d="M68 78 C82 94 91 114 93 136 C102 164 122 186 150 198 L156 204 C126 192 104 168 94 138 C92 114 82 92 66 76 Z" fill="#8B8174"/>
  <path d="M88 142 C86 118 78 98 64 82 C74 100 80 122 80 144 C84 160 92 176 104 188 C96 174 90 158 88 142 Z" fill="#2A2622"/>
  <path d="M326 256 C366 254 402 238 428 210 C450 186 462 154 460 120 C459 102 454 88 446 76 C430 92 420 114 418 138 C408 168 386 192 356 204 C344 220 334 238 326 256 Z" fill="#3E3933"/>
  <path d="M448 80 C454 92 458 106 458 122 C450 112 444 98 442 84 C444 82 446 81 448 80 Z" fill="#FFC09A"/>
  <path d="M444 78 C430 94 421 114 419 136 C410 164 390 186 362 198 L356 204 C386 192 408 168 418 138 C420 114 430 92 446 76 Z" fill="#8B8174"/>
  <path d="M424 142 C426 118 434 98 448 82 C438 100 432 122 432 144 C428 160 420 176 408 188 C416 174 422 158 424 142 Z" fill="#2A2622"/>
  <!-- dome -->
  <path d="M164 254 C160 188 204 144 256 144 C308 144 352 188 348 254 L342 276 L170 276 Z" fill="#26292E"/>
  <path d="M176 246 C176 196 212 158 256 158 C283 158 307 171 322 194 C298 178 222 180 197 208 C186 219 178 231 176 246 Z" fill="#3D424C"/>
  <!-- jaw guards: descending plates framing the face -->
  <path d="M170 264 L202 264 L198 330 C188 336 176 333 170 324 Z" fill="#26292E"/>
  <path d="M342 264 L310 264 L314 330 C324 336 336 333 342 324 Z" fill="#26292E"/>
  <path d="M174 268 L196 268 L194 300 L176 300 Z" fill="#3D424C" opacity="0.6"/>
  <path d="M338 268 L316 268 L318 300 L336 300 Z" fill="#3D424C" opacity="0.6"/>
  <!-- gold crest ridge -->
  <path d="M246 146 L266 146 L262 244 L250 244 Z" fill="#C9A23F"/>
  <path d="M246 146 L256 146 L253 244 L250 244 Z" fill="#8E6E24"/>
  <!-- gold brow band + ember gem -->
  <path d="M166 250 C196 238 316 238 346 250 L346 272 C316 258 196 258 166 272 Z" fill="#C9A23F"/>
  <path d="M166 262 C196 250 316 250 346 262 L346 272 C316 258 196 258 166 272 Z" fill="#8E6E24"/>
  <circle cx="256" cy="258" r="11" fill="#FF5A2A"/>
  <circle cx="256" cy="255" r="5" fill="#FFC09A"/>
</svg>
