<svg xmlns="http://www.w3.org/2000/svg" viewBox="0 0 512 512" width="512" height="512">
  <!-- Paladin T4 north: cathedral backplate, fluting, gold spine, winged pauldrons, faulds. -->
  <path d="M148 240 C158 196 198 170 256 170 C314 170 354 196 364 240 L360 400 C358 436 326 458 256 458 C186 458 154 436 152 400 Z" fill="#9AA3B0"/>
  <path d="M186 220 L184 440 M214 206 L213 448 M298 206 L299 448 M326 220 L328 440" stroke="#7A828E" stroke-width="4" fill="none"/>
  <path d="M250 178 L262 178 L260 452 L252 452 Z" fill="#C9A23F"/>
  <path d="M156 388 C214 400 298 400 356 388 L355 406 C298 418 214 418 157 406 Z" fill="#7A828E"/>
  <path d="M156 420 C214 432 298 432 356 420 L354 436 C300 448 212 448 158 436 Z" fill="#7A828E"/>
  <path d="M146 230 C138 196 150 168 178 150 C176 170 170 188 158 200 C176 194 194 196 206 206 L198 222 L214 218 L202 240 L220 232 L210 256 C190 250 168 252 150 262 C144 252 142 240 146 230 Z" fill="#9AA3B0"/>
  <path d="M146 230 C138 196 150 168 178 150 L182 160 C158 178 150 204 154 232 Z" fill="#C9A23F"/>
  <path d="M366 230 C374 196 362 168 334 150 C336 170 342 188 354 200 C336 194 318 196 306 206 L314 222 L298 218 L310 240 L292 232 L302 256 C322 250 344 252 362 262 C368 252 370 240 366 230 Z" fill="#9AA3B0"/>
  <path d="M366 230 C374 196 362 168 334 150 L330 160 C354 178 362 204 358 232 Z" fill="#C9A23F"/>
  <path d="M218 174 C230 164 244 160 256 160 C268 160 282 164 294 174 L286 196 C274 184 264 180 256 180 C248 180 238 184 226 196 Z" fill="#565C66"/>
  <path d="M156 352 C214 364 298 364 356 352 L356 372 C298 384 214 384 156 372 Z" fill="#565C66"/>
</svg>
