<svg xmlns="http://www.w3.org/2000/svg" viewBox="0 0 512 512" width="512" height="512">
  <!-- Fighter T3 north: backplate, squared pauldrons from behind, brigandine skirt. -->
  <path d="M152 300 C158 290 200 284 256 284 C312 284 354 290 360 300 L360 396 C358 428 326 444 256 444 C186 444 154 428 152 396 Z" fill="#5C3D24"/>
  <circle cx="212" cy="344" r="5" fill="#9AA3B0"/><circle cx="300" cy="344" r="5" fill="#9AA3B0"/>
  <circle cx="216" cy="396" r="5" fill="#9AA3B0"/><circle cx="296" cy="396" r="5" fill="#9AA3B0"/>
  <path d="M158 240 C168 198 204 172 256 172 C308 172 344 198 354 240 L350 296 C322 308 190 308 162 296 Z" fill="#565C66"/>
  <path d="M252 176 L260 176 L259 304 L253 304 Z" fill="#3D4148"/>
  <path d="M168 242 C176 212 200 190 232 182 C204 194 184 216 178 244 Z" fill="#7A828E"/>
  <path d="M160 292 C214 304 298 304 352 292 L352 308 C298 320 214 320 160 308 Z" fill="#2E4E9E"/>
  <path d="M138 222 L196 210 L200 262 L146 274 C138 258 134 238 138 222 Z" fill="#565C66"/>
  <path d="M374 222 L316 210 L312 262 L366 274 C374 258 378 238 374 222 Z" fill="#565C66"/>
  <path d="M222 172 C234 166 244 164 256 164 C268 164 278 166 290 172 C292 184 288 196 278 204 C264 212 248 212 234 204 C224 196 220 184 222 172 Z" fill="#3D4148"/>
  <path d="M154 378 C214 390 298 390 358 378 L358 398 C298 410 214 410 154 398 Z" fill="#3D4148"/>
</svg>
