<svg xmlns="http://www.w3.org/2000/svg" viewBox="0 0 512 512" width="512" height="512">
  <!-- Barbarian vestment T1 (L1-4): ragged hide wrap, rope belt. Humble. -->
  <!-- base pawn: torso -->
  <path d="M156 250 C156 215 196 195 256 195 C316 195 356 215 356 250 L350 420 C348 445 320 458 256 458 C192 458 164 445 162 420 Z" fill="#E8B98F"/>
  <path d="M340 230 C348 260 350 330 346 400 C352 380 356 300 352 250 C350 240 346 233 340 230 Z" fill="#D6A276"/>
  <!-- head -->
  <circle cx="256" cy="140" r="62" fill="#E8B98F"/>
  <path d="M196 128 C198 92 224 70 256 70 C288 70 314 92 316 128 C316 138 314 146 310 152 C306 122 284 104 256 104 C228 104 206 122 202 152 C198 146 196 138 196 128 Z" fill="#4A3526"/>
  <path d="M226 176 C236 188 248 194 256 194 C264 194 276 188 286 176 C284 196 272 206 256 206 C240 206 228 196 226 176 Z" fill="#4A3526"/>
  <!-- vestment: ragged hide wrap, diagonal across the chest -->
  <path d="M176 224 C200 210 230 204 262 208 L352 300 L350 372 L342 376 L326 360 L324 380 L306 364 L302 386 L286 368 L280 388 L266 372 L262 390 L246 374 L240 392 L228 376 L220 390 L206 374 L200 386 L188 370 L182 380 L170 366 L168 300 Z" fill="#8A5A33"/>
  <!-- wrap shading + edge -->
  <path d="M180 230 C204 216 232 210 260 214 L344 298 L342 310 L254 224 C228 220 202 226 184 238 Z" fill="#6B4426"/>
  <path d="M168 310 L346 310 L346 322 L168 322 Z" fill="#6B4426" opacity="0.35"/>
  <!-- shoulder strap over right shoulder -->
  <path d="M298 198 C312 202 326 210 336 222 L322 234 C312 222 300 214 288 210 Z" fill="#6B4426"/>
  <!-- rope belt -->
  <path d="M164 398 C220 410 292 410 348 398 L348 416 C292 428 220 428 164 416 Z" fill="#A9744A"/>
  <path d="M178 402 L186 420 M206 406 L212 424 M236 409 L240 426 M268 409 L272 426 M298 407 L304 424 M326 402 L332 420" stroke="#6B4426" stroke-width="7" fill="none"/>
  <!-- knot -->
  <circle cx="256" cy="416" r="14" fill="#A9744A"/>
  <path d="M248 424 L240 444 L252 436 L256 448 L262 434 L274 442 L264 422 Z" fill="#A9744A"/>
</svg>
