<svg xmlns="http://www.w3.org/2000/svg" viewBox="0 0 512 512" width="512" height="512">
  <!-- Paladin T3 east: cuirass profile, winged pauldron on the near shoulder, blue surcoat. -->
  <path d="M164 236 C172 192 204 166 256 166 C302 166 334 188 344 230 L342 386 C340 414 312 428 254 428 C200 428 166 414 168 386 Z" fill="#7A828E"/>
  <path d="M200 188 C222 178 244 174 262 176 L322 200 L320 440 C302 448 280 450 258 450 L214 442 Z" fill="#2E4E9E"/>
  <path d="M316 200 L324 202 L322 440 L314 442 Z" fill="#1F3568"/>
  <!-- cuirass -->
  <path d="M196 214 C218 200 240 194 262 194 C286 196 308 202 324 216 L320 314 C302 302 282 296 262 296 C238 296 216 302 200 314 Z" fill="#9AA3B0"/>
  <path d="M208 222 C226 212 246 206 262 206 C280 208 298 214 312 224 L310 282 C296 272 278 268 262 268 C242 268 222 272 208 282 Z" fill="#C4CBD6" opacity="0.55"/>
  <!-- winged pauldron, near shoulder -->
  <path d="M170 230 C162 200 174 174 200 158 C198 176 192 192 182 204 C198 198 214 200 226 210 L218 224 L232 220 L222 238 L238 232 L230 252 C212 246 192 248 174 258 C168 250 166 240 170 230 Z" fill="#9AA3B0"/>
  <path d="M178 230 C174 212 182 196 200 184 C198 196 194 206 186 216 C198 212 210 214 218 222 L212 232 C200 226 188 228 178 236 Z" fill="#C4CBD6"/>
  <path d="M198 220 C194 200 202 184 220 178 C232 174 244 176 252 184 L248 198 C240 192 230 191 222 195 C212 200 206 209 208 220 Z" fill="#565C66"/>
  <path d="M174 376 C222 388 294 388 336 378 L336 396 C294 406 222 406 174 394 Z" fill="#565C66"/>
  <rect x="288" y="378" width="24" height="16" rx="3" fill="#9AA3B0"/>
</svg>
