<svg xmlns="http://www.w3.org/2000/svg" viewBox="0 0 512 512" width="512" height="512">
  <!-- Warlock HelmT5 north: pact hood from behind, jagged collar + brow eye glint. -->
  <path d="M170 340 C150 326 138 304 138 280 C156 296 170 312 180 330 Z" fill="#3A2356"/>
  <path d="M342 340 C362 326 374 304 374 280 C356 296 342 312 332 330 Z" fill="#3A2356"/>
  <path d="M150 360 C142 270 152 190 192 160 C216 142 240 136 256 136 C272 136 296 142 320 160 C360 190 370 270 362 360 Z" fill="#4A2E6E"/>
  <path d="M150 360 C144 290 150 220 178 184 C170 240 168 300 174 360 Z" fill="#3A2356"/>
  <path d="M362 360 C368 290 362 220 334 184 C342 240 344 300 338 360 Z" fill="#3A2356"/>
  <ellipse cx="256" cy="210" rx="10" ry="6.5" fill="#8EBE4A"/>
  <circle cx="256" cy="210" r="3" fill="#1E1230"/>
  <path d="M254 150 L258 150 L260 358 L252 358 Z" fill="#3A2356"/>
</svg>
