<svg xmlns="http://www.w3.org/2000/svg" viewBox="0 0 512 512" width="512" height="512">
  <!-- Monk T2 head-wrap, north: saffron wrap covering the whole skull back, knot. -->
  <path d="M154 250 C150 190 198 146 256 146 C314 146 362 190 358 250 C360 296 344 336 314 354 L198 354 C168 336 152 296 154 250 Z" fill="#C9852E"/>
  <path d="M168 242 C170 198 206 164 256 164 C286 164 312 178 328 202 C302 182 216 184 190 214 C178 226 170 232 168 242 Z" fill="#E0A848"/>
  <!-- wrap knot at the nape -->
  <path d="M238 312 C248 304 264 304 274 312 C272 326 264 336 256 336 C248 336 240 326 238 312 Z" fill="#A8431A"/>
  <path d="M170 314 C198 300 314 300 342 314 L336 332 C310 318 202 318 176 332 Z" fill="#A8431A"/>
</svg>
