<svg xmlns="http://www.w3.org/2000/svg" viewBox="0 0 512 512" width="512" height="512">
  <!-- Bard T4 east: brocade coat profile, cape trailing behind, gilded collar + sash. -->
  <!-- cape trailing -->
  <path d="M160 232 C162 202 184 184 216 180 C232 178 244 182 252 192 L248 210 C238 200 224 196 212 200 L206 404 C190 412 174 408 164 396 C154 342 152 286 160 232 Z" fill="#8E3A6E"/>
  <path d="M168 236 C172 212 188 196 212 192 L216 204 C198 208 184 222 182 244 L178 372 C170 356 164 322 164 290 Z" fill="#B5538F" opacity="0.45"/>
  <!-- coat -->
  <path d="M188 232 C198 192 222 168 264 168 C306 168 336 190 344 230 L342 386 C340 414 314 428 260 428 C216 428 192 416 190 388 Z" fill="#5E2548"/>
  <path d="M204 234 C212 202 234 184 266 184 C292 184 314 196 326 216 C304 198 232 200 212 228 C208 230 206 232 204 234 Z" fill="#8E3A6E" opacity="0.7"/>
  <!-- brocade swirls -->
  <path d="M236 256 C246 248 258 248 266 256 C258 264 246 264 236 256 Z" fill="#C9A23F"/>
  <path d="M286 300 C296 292 308 292 316 300 C308 308 296 308 286 300 Z" fill="#C9A23F"/>
  <path d="M240 344 C250 336 262 336 270 344 C262 352 250 352 240 344 Z" fill="#C9A23F"/>
  <!-- gilded collar -->
  <path d="M204 214 C200 194 208 178 226 172 C238 168 250 170 258 178 L254 192 C246 186 236 185 228 189 C218 194 212 203 214 214 Z" fill="#C9A23F"/>
  <!-- buttons at the front edge -->
  <circle cx="330" cy="240" r="5" fill="#C9A23F"/><circle cx="332" cy="276" r="5" fill="#C9A23F"/><circle cx="332" cy="312" r="5" fill="#C9A23F"/>
  <!-- gold sash -->
  <path d="M192 366 C236 378 300 378 338 368 L338 390 C300 400 236 400 192 388 Z" fill="#C9A23F"/>
  <path d="M192 378 C236 390 300 390 338 380 L338 390 C300 400 236 400 192 388 Z" fill="#8E6E24"/>
</svg>
