<svg xmlns="http://www.w3.org/2000/svg" viewBox="0 0 512 512" width="512" height="512">
  <!-- Druid T1 east: hide wrap profile, fur trim at the shoulder, sinew belt. -->
  <path d="M196 220 C220 206 250 202 278 208 L324 250 L326 364 L314 370 L306 354 L298 372 L288 356 L280 374 L270 358 L262 374 L252 358 L244 372 L234 356 L228 368 L216 352 L210 362 L200 348 L196 294 Z" fill="#6B4426"/>
  <path d="M202 226 C224 214 250 210 274 216 L316 252 L314 264 L270 226 C248 220 224 224 208 234 Z" fill="#5C3D24"/>
  <path d="M194 218 C218 202 248 198 280 204 L286 214 L274 222 L262 212 L252 224 L240 214 L232 226 L220 218 L214 228 L202 220 L198 230 L190 224 Z" fill="#7A6A50"/>
  <path d="M198 388 C238 400 286 400 320 390 L320 406 C286 416 238 416 198 404 Z" fill="#8A5A33"/>
  <ellipse cx="300" cy="398" rx="12" ry="6" fill="#D8CCB4"/>
</svg>
