<svg xmlns="http://www.w3.org/2000/svg" viewBox="0 0 512 512" width="512" height="512">
  <!-- Rogue T4 north: shadow-silk back, oxblood-lined cloak, hood. -->
  <path d="M148 240 C158 196 198 170 256 170 C314 170 354 196 364 240 L360 400 C358 436 326 458 256 458 C186 458 154 436 152 400 Z" fill="#2E2E36"/>
  <path d="M146 228 C152 196 178 178 214 176 C232 174 246 178 254 188 L320 200 C336 208 346 224 348 244 L342 396 C318 416 284 426 248 424 C214 422 184 410 164 390 C150 340 144 284 146 228 Z" fill="#1E1E24"/>
  <path d="M254 188 L262 196 L260 420 L252 420 Z" fill="#8E2E3E"/>
  <path d="M222 174 C232 166 244 164 256 164 C268 164 280 166 290 174 C296 198 290 226 274 242 C266 250 262 252 256 252 C250 252 246 250 238 242 C222 226 216 198 222 174 Z" fill="#1E1E24"/>
  <path d="M238 242 C244 248 251 250 256 250 C261 250 268 248 274 242 C276 246 274 250 270 252 C264 256 248 256 242 252 C238 250 236 246 238 242 Z" fill="#8E2E3E"/>
  <circle cx="216" cy="194" r="10" fill="#8A8E96"/>
  <path d="M154 384 C214 396 298 396 358 384 L358 402 C298 414 214 414 154 402 Z" fill="#1E1E24"/>
</svg>
