<svg xmlns="http://www.w3.org/2000/svg" viewBox="0 0 512 512" width="512" height="512">
  <!-- Warlock T5 east: pact ascendant profile - faint patron silhouette + eye-glints in cloth. -->
  <g opacity="0.26" fill="#8EBE4A">
    <path d="M252 124 C234 124 220 140 220 160 C220 176 230 188 240 194 C216 202 200 226 196 262 L300 262 C296 226 282 202 260 194 C270 188 280 176 280 160 C280 140 268 124 252 124 Z"/>
  </g>
  <path d="M214 198 C194 186 178 174 172 156 C190 162 206 168 220 176 L208 152 C224 164 238 178 246 192 Z" fill="#3A2356"/>
  <path d="M180 240 C190 196 222 172 268 172 C312 172 338 198 344 238 L340 416 C338 432 308 442 256 442 C204 442 178 432 180 416 Z" fill="#4A2E6E"/>
  <path d="M180 240 C190 200 220 178 264 178 L262 442 C212 442 178 432 180 416 Z" fill="#3A2356"/>
  <path d="M226 198 C214 182 210 164 212 148 C230 166 244 184 250 200 L274 194 C284 182 296 168 308 156 C310 170 304 186 294 200 C278 190 244 188 226 198 Z" fill="#5E3C84"/>
  <g fill="#8EBE4A">
    <ellipse cx="262" cy="206" rx="8" ry="5.5"/>
    <ellipse cx="244" cy="306" rx="5.5" ry="3.6"/>
    <ellipse cx="256" cy="372" rx="5" ry="3.2"/>
  </g>
  <g fill="#1E1230">
    <circle cx="262" cy="206" r="2.6"/>
    <circle cx="244" cy="306" r="1.8"/>
  </g>
</svg>
