<svg xmlns="http://www.w3.org/2000/svg" viewBox="0 0 512 512" width="512" height="512">
  <!-- Barbarian T2 south: hide vest panels, wolf pelt on left shoulder, bone toggles, red waist wrap. -->
  <path d="M176 244 C182 224 202 212 228 208 L236 214 L240 408 L232 424 C208 422 188 414 176 402 L170 312 Z" fill="#8A5A33"/>
  <path d="M338 244 C332 224 312 212 286 208 L278 214 L274 408 L282 424 C306 422 326 414 338 402 L344 312 Z" fill="#8A5A33"/>
  <path d="M182 248 C188 232 204 220 224 216 L228 222 L230 300 L176 300 L174 268 C174 260 177 253 182 248 Z" fill="#6B4426" opacity="0.45"/>
  <path d="M332 248 C326 232 310 220 290 216 L286 222 L284 300 L340 300 L340 268 C340 260 337 253 332 248 Z" fill="#6B4426" opacity="0.45"/>
  <path d="M236 252 L278 252 L278 264 L236 264 Z" fill="#5C3D24"/>
  <ellipse cx="257" cy="258" rx="19" ry="9" fill="#E8E0CC"/>
  <path d="M236 314 L278 314 L278 326 L236 326 Z" fill="#5C3D24"/>
  <ellipse cx="257" cy="320" rx="19" ry="9" fill="#E8E0CC"/>
  <path d="M148 252 C146 218 172 198 210 192 C234 188 252 196 260 210 L254 230 C244 218 230 212 214 214 L226 238 L206 230 L214 258 L194 248 L200 278 L182 266 L186 298 L168 284 L170 314 L150 298 Z" fill="#6E6E78"/>
  <path d="M158 248 C160 224 180 208 208 202 C226 198 242 204 250 214 L246 224 C236 214 222 210 208 213 C188 217 170 230 166 250 Z" fill="#8B8B96"/>
  <path d="M153 274 L167 290 L165 262 Z" fill="#55555E"/>
  <path d="M172 292 L186 308 L184 280 Z" fill="#55555E"/>
  <path d="M188 308 L198 320 L196 300 Z" fill="#55555E"/>
  <path d="M170 396 C224 408 290 408 344 396 L344 416 C290 428 224 428 170 416 Z" fill="#A33B2A"/>
  <path d="M238 402 L232 446 L246 436 L254 450 L262 434 L274 444 L268 402 Z" fill="#A33B2A"/>
  <path d="M242 406 L238 434 L248 426 L254 438 L260 426 L266 432 L262 406 Z" fill="#7E2C1F"/>
</svg>
