<svg xmlns="http://www.w3.org/2000/svg" viewBox="0 0 512 512" width="512" height="512">
  <!-- Druid T4 hood, east: forked antler sweeping up, far one behind; fur-trimmed hood, nape coverage. -->
  <!-- far antler -->
  <path d="M214 150 C200 124 194 94 202 68 C210 74 214 88 214 104 C220 90 230 84 242 84 C238 102 230 118 220 128 C217 134 215 142 214 150 Z" fill="#B5A88C"/>
  <!-- hood -->
  <path d="M148 254 C144 190 196 146 256 146 C312 146 356 184 356 240 C356 252 350 262 340 268 L320 262 C310 256 304 250 302 244 L242 244 C240 290 234 328 220 352 L186 352 C160 326 146 292 148 254 Z" fill="#6E5638"/>
  <path d="M162 244 C166 200 202 166 254 166 C284 166 310 180 326 204 C300 184 214 186 188 216 C174 230 164 234 162 244 Z" fill="#856A48"/>
  <!-- near antler, forking forward-up -->
  <path d="M286 148 C272 120 268 88 278 62 C288 70 292 86 290 104 C300 88 314 80 330 82 C324 102 312 120 298 130 C293 136 289 142 286 148 Z" fill="#D8CCB4"/>
  <path d="M322 86 C330 70 330 54 322 44 C318 52 316 64 318 76 C319 80 320 83 322 86 Z" fill="#B5A88C"/>
  <!-- cheek fall + fur trim -->
  <path d="M300 244 C322 244 340 252 348 264 L340 276 C330 264 316 258 298 258 L242 258 C240 260 238 262 238 264 C234 300 228 330 216 350 L198 350 C212 322 218 286 218 252 L220 244 Z" fill="#6E5638"/>
  <path d="M300 246 C320 246 338 254 346 266 L338 276 C328 266 314 260 298 260 L240 260 C238 262 236 264 236 266 C232 302 226 330 214 350 L200 350 C212 324 218 288 218 256 L220 246 Z" fill="#CBBE9E"/>
</svg>
