<svg xmlns="http://www.w3.org/2000/svg" viewBox="0 0 512 512" width="512" height="512">
  <!-- Paladin T2 helm, north: mail coif covering the whole skull back. -->
  <path d="M154 250 C150 190 198 146 256 146 C314 146 362 190 358 250 C360 296 344 336 314 354 L198 354 C168 336 152 296 154 250 Z" fill="#6E7682"/>
  <path d="M168 244 C170 200 206 166 256 166 C286 166 312 180 328 204 C302 184 216 186 190 216 C178 228 170 234 168 244 Z" fill="#565C66"/>
  <path d="M186 178 C214 196 298 196 326 178 M180 210 C212 228 300 228 332 210 M178 244 C212 262 300 262 334 244 M182 280 C214 296 298 296 330 280 M186 314 C216 330 296 330 326 314" stroke="#565C66" stroke-width="3" fill="none"/>
  <path d="M170 312 C198 298 314 298 342 312 L336 332 C310 318 202 318 176 332 Z" fill="#9AA3B0"/>
</svg>
