<svg xmlns="http://www.w3.org/2000/svg" viewBox="0 0 512 512" width="512" height="512">
  <!-- Wizard T2 hat, south: snug cloth skullcap, silver edge. -->
  <path d="M186 240 C182 194 214 162 256 162 C298 162 330 194 326 240 L320 252 C300 240 212 240 192 252 Z" fill="#2B3357"/>
  <path d="M196 234 C196 198 222 174 256 174 C277 174 294 183 306 198 C287 187 227 189 208 210 C201 218 197 226 196 234 Z" fill="#3D4775"/>
  <path d="M252 164 L260 164 L258 240 L254 240 Z" fill="#1E2440"/>
  <path d="M188 240 C210 230 302 230 324 240 L322 254 C300 244 212 244 190 254 Z" fill="#97A1B5"/>
</svg>
