<svg xmlns="http://www.w3.org/2000/svg" viewBox="0 0 512 512" width="512" height="512">
  <!-- Fighter T4 north: backplate w/ spine ridge, faulds, gold-edged pauldrons. -->
  <path d="M148 240 C158 196 198 170 256 170 C314 170 354 196 364 240 L360 396 C358 428 326 444 256 444 C186 444 154 428 152 396 Z" fill="#565C66"/>
  <path d="M168 242 C176 210 200 188 232 180 C204 192 184 214 178 244 Z" fill="#7A828E"/>
  <path d="M156 350 C214 362 298 362 356 350 L355 368 C298 380 214 380 157 368 Z" fill="#3D4148"/>
  <path d="M154 384 C214 396 298 396 358 384 L357 402 C298 414 214 414 155 402 Z" fill="#3D4148"/>
  <path d="M156 418 C214 430 298 430 356 418 L354 434 C300 446 212 446 158 434 Z" fill="#3D4148"/>
  <!-- spine ridge -->
  <path d="M250 174 L262 174 L260 440 L252 440 Z" fill="#3D4148"/>
  <path d="M252 176 L256 176 L255 438 L252 438 Z" fill="#C9A23F" opacity="0.6"/>
  <path d="M136 220 L198 208 L202 264 L144 276 C136 258 132 238 136 220 Z" fill="#565C66"/>
  <path d="M136 220 L198 208 L199 218 L139 230 Z" fill="#C9A23F"/>
  <path d="M376 220 L314 208 L310 264 L368 276 C376 258 380 238 376 220 Z" fill="#565C66"/>
  <path d="M376 220 L314 208 L313 218 L373 230 Z" fill="#C9A23F"/>
  <path d="M222 172 C234 164 244 162 256 162 C268 162 278 164 290 172 C292 184 288 196 278 204 C264 212 248 212 234 204 C224 196 220 184 222 172 Z" fill="#3D4148"/>
  <path d="M154 338 C214 350 298 350 358 338 L358 356 C298 368 214 368 154 356 Z" fill="#3D4148"/>
</svg>
