<svg xmlns="http://www.w3.org/2000/svg" viewBox="0 0 512 512" width="512" height="512">
  <!-- Fighter T5 north: polished backplate, gold spine, blue rim-light, faulds. -->
  <path d="M148 240 C158 196 198 170 256 170 C314 170 354 196 364 240 L360 396 C358 428 326 444 256 444 C186 444 154 428 152 396 Z" fill="#6E7682"/>
  <path d="M168 240 C178 206 204 184 240 178 C210 190 188 212 180 242 Z" fill="#9AA3B0"/>
  <path d="M148 240 C158 196 198 170 256 170 C314 170 354 196 364 240 L362 252 C350 206 312 180 256 180 C200 180 162 206 150 252 Z" fill="#4A6CC4" opacity="0.8"/>
  <path d="M156 350 C214 362 298 362 356 350 L355 368 C298 380 214 380 157 368 Z" fill="#3D4148"/>
  <path d="M154 384 C214 396 298 396 358 384 L357 402 C298 414 214 414 155 402 Z" fill="#3D4148"/>
  <path d="M156 418 C214 430 298 430 356 418 L354 434 C300 446 212 446 158 434 Z" fill="#3D4148"/>
  <path d="M248 174 L264 174 L262 440 L250 440 Z" fill="#C9A23F"/>
  <path d="M252 178 L258 178 L257 436 L253 436 Z" fill="#8E6E24"/>
  <path d="M134 218 L198 206 L202 264 L142 276 C134 258 130 236 134 218 Z" fill="#6E7682"/>
  <path d="M134 218 L198 206 L199 216 L137 228 Z" fill="#C9A23F"/>
  <path d="M378 218 L314 206 L310 264 L370 276 C378 258 382 236 378 218 Z" fill="#6E7682"/>
  <path d="M378 218 L314 206 L313 216 L375 228 Z" fill="#C9A23F"/>
  <path d="M222 170 C234 162 244 160 256 160 C268 160 278 162 290 170 C292 182 288 194 278 202 C264 210 248 210 234 202 C224 194 220 182 222 170 Z" fill="#3D4148"/>
  <path d="M154 338 C214 350 298 350 358 338 L358 356 C298 368 214 368 154 356 Z" fill="#3D4148"/>
</svg>
