<svg xmlns="http://www.w3.org/2000/svg" viewBox="0 0 512 512" width="512" height="512">
  <!-- Ranger T4 south: master tracker - feathered shoulder mantle, silvered buckles, layered cloak. -->
  <path d="M148 240 C158 196 198 170 256 170 C314 170 354 196 364 240 L360 400 C358 436 326 458 256 458 C186 458 154 436 152 400 Z" fill="#3E5A34"/>
  <path d="M190 200 C212 188 232 182 256 182 C280 182 300 188 322 200 L318 420 C300 432 280 438 256 438 C232 438 212 432 194 420 Z" fill="#5C4630"/>
  <path d="M251 200 L261 200 L259 434 L253 434 Z" fill="#463422"/>
  <!-- layered cloak -->
  <path d="M142 234 C150 202 194 182 256 182 C318 182 362 202 370 234 L366 300 L348 286 L344 312 L324 296 L316 318 L294 302 L284 294 C272 286 240 286 228 294 L218 302 L196 318 L188 296 L168 312 L164 286 L146 300 Z" fill="#46583A"/>
  <path d="M154 236 C162 210 200 192 256 192 C312 192 350 210 358 236 L356 280 L340 268 L336 290 L316 276 L308 296 L288 282 L280 276 C268 268 244 268 232 276 L224 282 L204 296 L196 276 L176 290 L172 268 L156 280 Z" fill="#5A7048"/>
  <!-- feathered mantle: overlapping feather plumes on the shoulders -->
  <path d="M150 240 C146 218 160 200 184 196 C176 206 172 218 174 230 L184 222 L182 240 L196 230 L194 248 L208 238 L206 256 C190 250 168 252 152 262 C150 256 149 248 150 240 Z" fill="#8A8E74"/>
  <path d="M156 240 C154 224 164 210 182 206 C176 214 174 224 176 234 C184 228 192 228 198 234 L194 244 C184 238 168 240 158 250 Z" fill="#C9BBA0"/>
  <path d="M362 240 C366 218 352 200 328 196 C336 206 340 218 338 230 L328 222 L330 240 L316 230 L318 248 L304 238 L306 256 C322 250 344 252 360 262 C362 256 363 248 362 240 Z" fill="#8A8E74"/>
  <path d="M356 240 C358 224 348 210 330 206 C336 214 338 224 336 234 C328 228 320 228 314 234 L318 244 C328 238 344 240 354 250 Z" fill="#C9BBA0"/>
  <!-- silvered buckle belt -->
  <path d="M154 384 C214 396 298 396 358 384 L358 402 C298 414 214 414 154 402 Z" fill="#5C4630"/>
  <rect x="240" y="386" width="32" height="18" rx="3" fill="#9AA3B0"/>
</svg>
