<svg xmlns="http://www.w3.org/2000/svg" viewBox="0 0 512 512" width="512" height="512">
  <!-- Warlock HelmT5 east: pact hood profile - shadow veil in the face opening + green eye-glint + brow eye. -->
  <path d="M186 348 C166 342 152 326 148 304 C166 316 182 328 192 344 Z" fill="#3A2356"/>
  <path d="M176 330 C160 320 150 304 148 286 C164 298 176 312 184 328 Z" fill="#2C1A42"/>
  <path d="M152 252 C150 202 168 168 210 152 C230 144 254 140 270 148 C314 162 346 196 348 234 C350 252 342 264 326 274 C312 282 304 298 302 320 L300 352 C280 372 238 380 198 376 C174 372 156 360 152 340 Z" fill="#4A2E6E"/>
  <path d="M152 252 C150 210 166 178 200 160 C188 210 184 290 198 372 C176 368 156 358 152 340 Z" fill="#3A2356"/>
  <path d="M348 234 C350 252 342 264 326 274 C312 282 304 298 302 320 L294 318 C296 298 304 282 318 272 C332 262 340 250 340 236 Z" fill="#5E3C84"/>
  <!-- shadow veil draped within the face opening -->
  <path d="M326 256 C318 280 312 306 314 332 C316 344 312 350 304 352 C300 330 300 300 304 274 C308 258 314 250 322 246 C326 248 328 252 326 256 Z" fill="#1E1230" opacity="0.78"/>
  <!-- green eye-glint within the shadow + brow eye -->
  <ellipse cx="318" cy="286" rx="7" ry="4.5" fill="#8EBE4A"/>
  <circle cx="318" cy="286" r="2.2" fill="#1E1230"/>
  <ellipse cx="322" cy="224" rx="10" ry="6.5" fill="#8EBE4A"/>
  <circle cx="322" cy="224" r="3.2" fill="#1E1230"/>
</svg>
