<svg xmlns="http://www.w3.org/2000/svg" viewBox="0 0 512 512" width="512" height="512">
  <!-- Rogue T2 south: fitted leathers, crossed knife harness, buckles. -->
  <path d="M148 240 C158 196 198 170 256 170 C314 170 354 196 364 240 L360 400 C358 436 326 458 256 458 C186 458 154 436 152 400 Z" fill="#3A3A42"/>
  <path d="M162 244 C172 206 208 184 256 184 C292 184 320 196 338 218 C310 198 212 200 184 234 C175 242 166 244 162 244 Z" fill="#46464E" opacity="0.6"/>
  <!-- fitted leather panel seams -->
  <path d="M204 188 C220 180 238 196 238 230 L236 452 M308 188 C292 180 274 196 274 230 L276 452" stroke="#26262C" stroke-width="4" fill="none"/>
  <path d="M251 200 L261 200 L259 452 L253 452 Z" fill="#26262C"/>
  <!-- crossed knife harness straps -->
  <path d="M176 230 L330 384 L316 398 L162 244 C166 238 170 234 176 230 Z" fill="#26262C"/>
  <path d="M336 230 L182 384 L196 398 L350 244 C346 238 342 234 336 230 Z" fill="#26262C"/>
  <circle cx="256" cy="316" r="11" fill="#56565E"/>
  <circle cx="256" cy="316" r="5" fill="#26262C"/>
  <!-- knife hilts at the hips -->
  <path d="M170 360 L186 356 L188 384 L172 388 Z" fill="#56565E"/>
  <path d="M342 360 L326 356 L324 384 L340 388 Z" fill="#56565E"/>
  <!-- collar -->
  <path d="M218 176 C230 166 244 162 256 162 C268 162 282 166 294 176 L286 198 C274 186 264 182 256 182 C248 182 238 186 226 198 Z" fill="#26262C"/>
  <!-- belt -->
  <path d="M154 384 C214 396 298 396 358 384 L358 402 C298 414 214 414 154 402 Z" fill="#26262C"/>
  <rect x="242" y="386" width="28" height="18" rx="3" fill="#56565E"/>
</svg>
