<svg xmlns="http://www.w3.org/2000/svg" viewBox="0 0 512 512" width="512" height="512">
  <!-- Monk HelmT2 south: plain saffron headband across the brow, knot + tails on the left. -->
  <path d="M170 238 C162 250 161 264 167 278 C173 270 177 258 179 248 Z" fill="#A8431A"/>
  <path d="M178 240 C172 252 172 266 178 278 C184 268 186 256 186 246 Z" fill="#C9852E"/>
  <path d="M178 230 C212 221 300 221 334 230 L332 252 C300 244 212 244 180 252 Z" fill="#C9852E"/>
  <path d="M178 230 C212 221 300 221 334 230" stroke="#A8431A" stroke-width="3" fill="none"/>
  <path d="M180 250 C212 243 300 243 332 250" stroke="#A8431A" stroke-width="3" fill="none"/>
</svg>
