<svg xmlns="http://www.w3.org/2000/svg" viewBox="0 0 512 512" width="512" height="512">
  <!-- Bard T3 north: the cape dominates the back, sweeping diagonally. -->
  <path d="M148 240 C158 196 198 170 256 170 C314 170 354 196 364 240 L360 396 C358 430 326 448 256 448 C186 448 154 430 152 396 Z" fill="#8E3A6E"/>
  <path d="M252 174 L260 174 L258 446 L254 446 Z" fill="#5E2548"/>
  <!-- cape from behind: broad diagonal drape -->
  <path d="M146 226 C150 194 176 176 214 172 C232 170 246 174 254 184 L322 196 C338 204 348 220 350 240 L344 396 C320 416 286 426 250 424 C214 422 184 410 164 390 C150 340 144 282 146 226 Z" fill="#5E2548"/>
  <path d="M160 240 C166 212 190 194 222 192 L296 202 C318 208 332 224 334 246 L330 380 C306 398 274 406 242 402 C214 398 192 386 178 368 C166 328 160 284 160 240 Z" fill="#8E3A6E" opacity="0.4"/>
  <circle cx="216" cy="192" r="11" fill="#C9A23F"/>
  <path d="M220 174 C232 166 244 164 256 164 C268 164 280 166 292 174 C294 186 290 198 280 206 C266 214 246 214 232 206 C222 198 218 186 220 174 Z" fill="#C9A23F"/>
</svg>
