<svg xmlns="http://www.w3.org/2000/svg" viewBox="0 0 512 512" width="512" height="512">
  <!-- Druid T2 north: pelt vest back, layered jags, crossed straps. -->
  <path d="M180 246 C188 222 214 210 256 208 C298 210 324 222 332 246 L338 406 C318 420 290 428 256 428 C222 428 194 420 174 406 Z" fill="#7A6A50"/>
  <path d="M188 252 C196 234 222 224 256 222 C290 224 316 234 324 252 L326 304 L186 304 Z" fill="#968360" opacity="0.5"/>
  <path d="M186 320 L202 332 L194 342 L210 352 L200 362 L214 372 L206 382 L218 390 L210 400 L188 390 L182 350 Z" fill="#5C4E38"/>
  <path d="M326 320 L310 332 L318 342 L302 352 L312 362 L298 372 L306 382 L294 390 L302 400 L324 390 L330 350 Z" fill="#5C4E38"/>
  <path d="M190 240 L324 386 L310 398 L178 258 C180 251 184 245 190 240 Z" fill="#5C3D24"/>
  <path d="M322 240 L190 386 L204 398 L334 258 C332 251 328 245 322 240 Z" fill="#5C3D24"/>
  <path d="M168 396 C224 408 290 408 346 396 L346 412 C290 424 224 424 168 412 Z" fill="#8A5A33"/>
</svg>
