<svg xmlns="http://www.w3.org/2000/svg" viewBox="0 0 512 512" width="512" height="512">
  <!-- Ranger T1 north: leathers back, short cloak, hood down, belt. -->
  <path d="M148 240 C158 196 198 170 256 170 C314 170 354 196 364 240 L360 400 C358 436 326 458 256 458 C186 458 154 436 152 400 Z" fill="#3E5A34"/>
  <path d="M190 200 C212 188 232 182 256 182 C280 182 300 188 322 200 L318 420 C300 432 280 438 256 438 C232 438 212 432 194 420 Z" fill="#5C4630"/>
  <path d="M252 184 L260 184 L258 434 L254 434 Z" fill="#463422"/>
  <!-- cloak from behind -->
  <path d="M146 232 C152 204 176 186 210 184 C232 184 248 188 256 196 L320 200 C336 208 346 224 348 244 L344 320 C320 332 286 338 256 338 C226 338 192 332 168 320 C154 290 144 262 146 232 Z" fill="#46583A"/>
  <path d="M160 244 C166 220 188 204 218 202 L296 206 C318 212 332 226 334 246 L330 300 C306 314 224 314 184 300 L168 296 C160 282 156 264 160 244 Z" fill="#3A4E30" opacity="0.5"/>
  <!-- hood resting on the back -->
  <path d="M222 174 C232 166 244 164 256 164 C268 164 280 166 290 174 C296 196 290 222 276 238 C268 246 262 248 256 248 C250 248 244 246 236 238 C222 222 216 196 222 174 Z" fill="#46583A"/>
  <path d="M154 384 C214 396 298 396 358 384 L358 402 C298 414 214 414 154 402 Z" fill="#5C4630"/>
</svg>
