<svg xmlns="http://www.w3.org/2000/svg" viewBox="0 0 512 512" width="512" height="512">
  <!-- Wizard T5 north: grimoire back - script stream down the spine, glowing hood edge. -->
  <path d="M160 242 C172 212 206 196 256 196 C306 196 340 212 352 242 L348 402 C346 440 318 462 256 462 C194 462 166 440 164 402 Z" fill="#16182A"/>
  <path d="M249 198 L263 198 L261 458 L251 458 Z" fill="#8F7BFF"/>
  <path d="M253 200 L259 200 L258 456 L254 456 Z" fill="#D6CEFF"/>
  <path d="M186 344 C212 336 234 344 254 358 C274 372 296 378 320 372 L322 382 C296 390 272 384 252 370 C232 356 212 350 188 356 Z" fill="#8F7BFF" opacity="0.7"/>
  <path d="M196 348 L202 354 M216 346 L214 356 M234 350 L242 356 M256 360 L254 370 M276 370 L284 376 M298 376 L296 386" stroke="#D6CEFF" stroke-width="4" fill="none"/>
  <path d="M154 250 C164 216 202 198 256 198 C310 198 348 216 358 250 L356 300 L332 284 L328 312 L304 294 L296 318 L272 300 L256 322 L240 300 L216 318 L208 294 L184 312 L180 284 L156 300 Z" fill="#1E2440"/>
  <path d="M168 246 C180 222 214 208 256 208 C298 208 332 222 344 246 L342 268 L324 258 L320 278 L300 266 L294 282 L274 270 L256 286 L238 270 L218 282 L212 266 L192 278 L188 258 L170 268 Z" fill="#2B3357"/>
  <!-- hood: glowing edge -->
  <path d="M224 196 C234 190 245 188 256 188 C267 188 278 190 288 196 C294 214 288 236 274 248 C267 254 261 256 256 256 C251 256 245 254 238 248 C224 236 218 214 224 196 Z" fill="#16182A"/>
  <path d="M238 246 C244 251 251 253 256 253 C261 253 268 251 274 246 C276 250 274 254 270 256 C264 260 248 260 242 256 C238 254 236 250 238 246 Z" fill="#8F7BFF"/>
  <path d="M166 388 C220 400 292 400 346 388 L346 408 C292 420 220 420 166 408 Z" fill="#97A1B5"/>
  <path d="M170 432 C214 450 298 450 342 432 L340 452 C298 468 214 468 172 452 Z" fill="#8F7BFF"/>
</svg>
