<svg xmlns="http://www.w3.org/2000/svg" viewBox="0 0 512 512" width="512" height="512">
  <!-- Wizard T3 east: mantle profile w/ scalloped edge, clasp, formulae hem. -->
  <path d="M164 236 C172 192 204 166 256 166 C302 166 334 188 344 230 L342 386 C340 414 312 430 254 430 C200 430 166 414 168 386 Z" fill="#2B3357"/>
  <!-- mantle profile -->
  <path d="M186 252 C196 220 228 202 270 202 C306 202 332 216 342 242 L340 290 L320 278 L314 300 L292 286 L284 306 L262 292 L240 306 L232 288 L210 300 L204 280 L188 290 Z" fill="#1E2440"/>
  <path d="M196 250 C206 226 234 212 270 212 C300 212 322 224 332 246 L330 270 L314 262 L308 280 L290 268 L282 284 L262 272 L244 284 L236 270 L216 280 L210 264 L198 272 Z" fill="#3D4775"/>
  <!-- clasp at the front of the throat -->
  <circle cx="318" cy="226" r="10" fill="#C7CEDB"/>
  <!-- belt + hem -->
  <path d="M192 368 C232 380 294 380 328 370 L328 388 C294 398 232 398 192 386 Z" fill="#1E2440"/>
  <path d="M196 398 C234 414 294 414 326 400 L324 418 C294 430 234 430 198 414 Z" fill="#97A1B5"/>
  <path d="M212 404 L218 412 M228 407 L226 417 M242 409 L250 415 M262 410 L260 420 M278 409 L286 415 M298 406 L296 416" stroke="#2B3357" stroke-width="4" fill="none"/>
</svg>
