<svg xmlns="http://www.w3.org/2000/svg" viewBox="0 0 512 512" width="512" height="512">
  <!-- Wizard T2 hat, east: skullcap profile, full crown coverage front to back. -->
  <path d="M172 252 C168 198 206 160 260 160 C314 160 350 198 346 252 L342 270 C318 256 200 256 176 270 Z" fill="#2B3357"/>
  <path d="M184 244 C184 204 216 174 260 174 C286 174 308 186 322 206 C298 190 226 192 202 218 C192 228 186 236 184 244 Z" fill="#3D4775"/>
  <path d="M174 254 C200 242 320 242 344 254 L342 272 C318 258 202 258 176 272 Z" fill="#97A1B5"/>
</svg>
