<svg xmlns="http://www.w3.org/2000/svg" viewBox="0 0 512 512" width="512" height="512">
  <!-- Paladin T5 south: oathkeeper aurora - radiant plate, faint angelic glow, floating halo fragments. -->
  <!-- floating halo arcs behind the shoulders -->
  <path d="M120 200 C140 176 176 162 216 162 L214 174 C180 174 150 186 134 208 Z" fill="#F2E8C0" opacity="0.7"/>
  <path d="M392 200 C372 176 336 162 296 162 L298 174 C332 174 362 186 378 208 Z" fill="#F2E8C0" opacity="0.7"/>
  <path d="M132 188 C150 170 178 160 210 160 L210 168 C182 168 158 178 144 196 Z" fill="#FFF6D8" opacity="0.6"/>
  <path d="M380 188 C362 170 334 160 302 160 L302 168 C330 168 354 178 368 196 Z" fill="#FFF6D8" opacity="0.6"/>
  <!-- radiant plate -->
  <path d="M148 240 C158 196 198 170 256 170 C314 170 354 196 364 240 L360 400 C358 436 326 458 256 458 C186 458 154 436 152 400 Z" fill="#C4CBD6"/>
  <path d="M166 236 C178 200 214 180 258 180 C290 180 318 192 336 214 C308 194 214 196 188 230 C180 236 172 236 166 236 Z" fill="#E2E7EE"/>
  <!-- angelic glow rim -->
  <path d="M148 240 C158 196 198 170 256 170 C314 170 354 196 364 240 L362 252 C350 206 312 180 256 180 C200 180 162 206 150 252 Z" fill="#F2E8C0" opacity="0.85"/>
  <!-- blue + gold tabard -->
  <path d="M236 178 L276 178 L272 452 L240 452 Z" fill="#2E4E9E"/>
  <path d="M236 178 L242 178 L238 452 L233 452 Z" fill="#C9A23F"/>
  <path d="M270 178 L276 178 L274 452 L268 452 Z" fill="#C9A23F"/>
  <!-- gold pectoral + glowing boss -->
  <path d="M186 252 C206 236 230 230 256 230 C282 230 306 236 326 252 L320 268 C302 252 280 246 256 246 C232 246 210 252 192 268 Z" fill="#C9A23F"/>
  <circle cx="256" cy="298" r="18" fill="#F2E8C0" opacity="0.6"/>
  <circle cx="256" cy="298" r="13" fill="#C9A23F"/>
  <circle cx="256" cy="298" r="6" fill="#FFF6D8"/>
  <!-- faulds -->
  <path d="M156 388 C214 400 298 400 356 388 L355 406 C298 418 214 418 157 406 Z" fill="#9AA3B0"/>
  <path d="M156 420 C214 432 298 432 356 420 L354 436 C300 448 212 448 158 436 Z" fill="#9AA3B0"/>
  <!-- winged pauldrons, gold + glow -->
  <path d="M146 230 C138 196 150 168 178 150 C176 170 170 188 158 200 C176 194 194 196 206 206 L198 222 L214 218 L202 240 L220 232 L210 256 C190 250 168 252 150 262 C144 252 142 240 146 230 Z" fill="#C4CBD6"/>
  <path d="M146 230 C138 196 150 168 178 150 L182 160 C158 178 150 204 154 232 Z" fill="#C9A23F"/>
  <path d="M150 258 C168 248 190 250 208 256 L204 264 C188 258 168 256 152 264 Z" fill="#F2E8C0" opacity="0.8"/>
  <path d="M366 230 C374 196 362 168 334 150 C336 170 342 188 354 200 C336 194 318 196 306 206 L314 222 L298 218 L310 240 L292 232 L302 256 C322 250 344 252 362 262 C368 252 370 240 366 230 Z" fill="#C4CBD6"/>
  <path d="M366 230 C374 196 362 168 334 150 L330 160 C354 178 362 204 358 232 Z" fill="#C9A23F"/>
  <path d="M362 258 C344 248 322 250 304 256 L308 264 C324 258 344 256 360 264 Z" fill="#F2E8C0" opacity="0.8"/>
  <!-- gorget -->
  <path d="M218 174 C230 164 244 160 256 160 C268 160 282 164 294 174 L286 196 C274 184 264 180 256 180 C248 180 238 184 226 196 Z" fill="#7A828E"/>
  <!-- belt -->
  <path d="M156 352 C214 364 298 364 356 352 L356 372 C298 384 214 384 156 372 Z" fill="#9AA3B0"/>
  <rect x="242" y="354" width="28" height="18" rx="3" fill="#C9A23F"/>
</svg>
