<svg xmlns="http://www.w3.org/2000/svg" viewBox="0 0 512 512" width="512" height="512">
  <!-- Cleric T4 south: full ceremonial chasuble, gold filigree bands, grand sun emblem. -->
  <path d="M148 240 C158 196 198 170 256 170 C314 170 354 196 364 240 L360 400 C358 436 326 458 256 458 C186 458 154 436 152 400 Z" fill="#E8E4D8"/>
  <path d="M162 244 C172 206 208 184 256 184 C292 184 320 196 338 218 C310 198 212 200 184 234 C175 242 166 244 162 244 Z" fill="#F5F2E8" opacity="0.6"/>
  <!-- chasuble: wide Y-shaped gold orphrey -->
  <path d="M154 232 C168 200 196 182 232 176 L250 198 L262 198 L280 176 C316 182 344 200 358 232 L352 250 C336 226 312 212 284 208 L268 226 L244 226 L228 208 C200 212 176 226 160 250 Z" fill="#C9A23F"/>
  <path d="M244 222 L268 222 L266 456 L246 456 Z" fill="#C9A23F"/>
  <path d="M250 228 L262 228 L260 450 L252 450 Z" fill="#E8E4D8"/>
  <!-- filigree scrolls on the gold band -->
  <path d="M252 252 C256 248 260 248 260 252 C260 256 256 256 252 252 M252 296 C256 292 260 292 260 296 C260 300 256 300 252 296 M252 340 C256 336 260 336 260 340 C260 344 256 344 252 340 M252 384 C256 380 260 380 260 384 C260 388 256 388 252 384" stroke="#8E6E24" stroke-width="3" fill="none"/>
  <!-- grand sun emblem at the chest -->
  <circle cx="256" cy="282" r="24" fill="#C9A23F"/>
  <circle cx="256" cy="282" r="12" fill="#E8E4D8"/>
  <circle cx="256" cy="282" r="5" fill="#C9A23F"/>
  <path d="M256 248 L256 234 M256 316 L256 330 M222 282 L208 282 M290 282 L304 282 M232 258 L222 248 M280 258 L290 248 M232 306 L222 316 M280 306 L290 316" stroke="#C9A23F" stroke-width="7" fill="none"/>
  <!-- gold hem band -->
  <path d="M158 426 C212 444 300 444 354 426 L352 446 C300 462 212 462 160 446 Z" fill="#C9A23F"/>
  <!-- collar -->
  <path d="M218 174 C230 164 244 160 256 160 C268 160 282 164 294 174 L286 196 C274 184 264 180 256 180 C248 180 238 184 226 196 Z" fill="#C9A23F"/>
</svg>
