<svg xmlns="http://www.w3.org/2000/svg" viewBox="0 0 512 512" width="512" height="512">
  <!-- Monk HelmT2 north: headband across the back of the head, knot + tails at center. -->
  <path d="M176 230 C210 221 302 221 336 230 L334 252 C302 244 210 244 178 252 Z" fill="#C9852E"/>
  <path d="M176 230 C210 221 302 221 336 230" stroke="#A8431A" stroke-width="3" fill="none"/>
  <path d="M178 250 C210 243 302 243 334 250" stroke="#A8431A" stroke-width="3" fill="none"/>
  <path d="M246 246 L266 246 L262 252 L250 252 Z" fill="#A8431A"/>
  <path d="M248 252 C244 266 244 280 250 292 C254 280 254 266 254 254 Z" fill="#A8431A"/>
  <path d="M262 252 C266 266 266 280 260 292 C256 280 256 266 258 254 Z" fill="#C9852E"/>
</svg>
