<svg xmlns="http://www.w3.org/2000/svg" viewBox="0 0 512 512" width="512" height="512">
  <!-- Barbarian vestment T4 (L15-19): trophy harness — skull, claw necklace, full fur mantle, war-sash. -->
  <!-- base pawn -->
  <path d="M156 250 C156 215 196 195 256 195 C316 195 356 215 356 250 L350 420 C348 445 320 458 256 458 C192 458 164 445 162 420 Z" fill="#E8B98F"/>
  <path d="M340 230 C348 260 350 330 346 400 C352 380 356 300 352 250 C350 240 346 233 340 230 Z" fill="#D6A276"/>
  <circle cx="256" cy="140" r="62" fill="#E8B98F"/>
  <path d="M196 128 C198 92 224 70 256 70 C288 70 314 92 316 128 C316 138 314 146 310 152 C306 122 284 104 256 104 C228 104 206 122 202 152 C198 146 196 138 196 128 Z" fill="#4A3526"/>
  <path d="M226 176 C236 188 248 194 256 194 C264 194 276 188 286 176 C284 196 272 206 256 206 C240 206 228 196 226 176 Z" fill="#4A3526"/>
  <!-- war-sash: rust red, diagonal -->
  <path d="M180 228 L344 364 L334 392 L168 256 C170 246 174 236 180 228 Z" fill="#A33B2A"/>
  <path d="M186 234 L338 360 L334 372 L180 246 Z" fill="#7E2C1F" opacity="0.6"/>
  <!-- hide kilt -->
  <path d="M164 392 C220 404 292 404 348 392 L346 442 C344 452 318 458 256 458 C194 458 168 452 166 442 Z" fill="#8A5A33"/>
  <path d="M166 400 C220 412 292 412 346 400 L346 412 C292 424 220 424 166 412 Z" fill="#6B4426" opacity="0.5"/>
  <!-- bronze belt with buckle -->
  <path d="M164 380 C220 392 292 392 348 380 L348 398 C292 410 220 410 164 398 Z" fill="#5C3D24"/>
  <rect x="238" y="382" width="36" height="24" rx="4" fill="#B07D3C"/>
  <rect x="246" y="388" width="20" height="12" rx="2" fill="#8A5A33"/>
  <!-- full fur mantle: both shoulders, jagged -->
  <path d="M150 252 C146 216 172 192 212 186 L228 196 L242 184 L256 196 L270 184 L286 194 L302 186 C340 192 366 216 362 252 L362 296 L346 282 L348 310 L330 296 L334 322 L316 308 L318 332 L302 318 L240 318 L210 330 L214 304 L194 318 L198 290 L180 302 L182 276 L164 288 L166 262 L150 272 Z" fill="#6E6E78" fill-rule="evenodd"/>
  <path d="M158 250 C156 224 176 204 208 198 L226 206 L242 196 L256 206 L270 196 L284 204 L302 198 C330 203 350 220 352 244 L344 248 C338 228 322 214 300 210 L286 216 L270 208 L256 216 L242 208 L226 214 C196 212 172 226 166 250 Z" fill="#8B8B96"/>
  <!-- mantle inner edge above chest -->
  <path d="M196 240 C216 226 240 220 256 220 C272 220 296 226 316 240 L310 254 C292 242 272 236 256 236 C240 236 220 242 202 254 Z" fill="#55555E"/>
  <!-- claw necklace -->
  <path d="M206 250 C222 268 238 276 256 276 C274 276 290 268 306 250 L310 258 C294 278 276 286 256 286 C236 286 218 278 202 258 Z" fill="#5C3D24"/>
  <path d="M222 272 L218 296 L230 278 Z" fill="#E8E0CC"/>
  <path d="M242 280 L240 306 L252 284 Z" fill="#E8E0CC"/>
  <path d="M262 282 L264 308 L274 284 Z" fill="#E8E0CC"/>
  <path d="M282 274 L288 298 L294 276 Z" fill="#E8E0CC"/>
  <!-- trophy skull centerpiece on chest -->
  <path d="M232 296 C232 280 242 270 256 270 C270 270 280 280 280 296 C280 306 274 314 266 318 L266 328 C266 334 262 338 256 338 C250 338 246 334 246 328 L246 318 C238 314 232 306 232 296 Z" fill="#E8E0CC"/>
  <circle cx="246" cy="296" r="6" fill="#3A2E20"/>
  <circle cx="266" cy="296" r="6" fill="#3A2E20"/>
  <path d="M250 326 L254 334 M258 334 L262 326" stroke="#C9BFA4" stroke-width="3" fill="none"/>
  <path d="M236 282 L224 270 L240 274 Z" fill="#C9BFA4"/>
  <path d="M276 282 L288 270 L272 274 Z" fill="#C9BFA4"/>
</svg>
