<svg xmlns="http://www.w3.org/2000/svg" viewBox="0 0 512 512" width="512" height="512">
  <!-- Ranger T5 north: warden cloak back, mist hem + leaves, feathered mantle, hood. -->
  <path d="M160 432 C150 446 146 462 150 476 C160 468 166 456 168 444 Z" fill="#B8C4B0" opacity="0.4"/>
  <path d="M352 432 C362 446 366 462 362 476 C352 468 346 456 344 444 Z" fill="#B8C4B0" opacity="0.4"/>
  <path d="M204 446 C196 450 192 458 194 466 C202 462 208 456 210 450 Z" fill="#6E8A44"/>
  <path d="M148 240 C158 196 198 170 256 170 C314 170 354 196 364 240 L360 400 C358 436 326 458 256 458 C186 458 154 436 152 400 Z" fill="#3E5A34"/>
  <path d="M142 234 C150 202 194 182 256 182 C318 182 362 202 370 234 L366 360 C340 376 200 376 146 360 Z" fill="#46583A"/>
  <path d="M154 236 C162 210 200 192 256 192 C312 192 350 210 358 236 L356 350 C332 364 180 364 156 350 Z" fill="#5A7048"/>
  <path d="M150 240 C146 218 160 200 184 196 C176 206 172 218 174 230 L184 222 L182 240 L196 230 L194 248 L208 238 L206 256 C190 250 168 252 152 262 C150 256 149 248 150 240 Z" fill="#8A8E74"/>
  <path d="M362 240 C366 218 352 200 328 196 C336 206 340 218 338 230 L328 222 L330 240 L316 230 L318 248 L304 238 L306 256 C322 250 344 252 360 262 C362 256 363 248 362 240 Z" fill="#8A8E74"/>
  <path d="M224 174 C234 166 244 164 256 164 C268 164 278 166 290 174 C296 196 290 222 276 238 C268 246 262 248 256 248 C250 248 244 246 238 238 C224 222 218 196 224 174 Z" fill="#46583A"/>
</svg>
