<svg xmlns="http://www.w3.org/2000/svg" viewBox="0 0 512 512" width="512" height="512">
  <!-- Paladin T3 north: winged pauldrons from behind, blue surcoat back, backplate. -->
  <path d="M148 240 C158 196 198 170 256 170 C314 170 354 196 364 240 L360 400 C358 436 326 458 256 458 C186 458 154 436 152 400 Z" fill="#7A828E"/>
  <path d="M186 196 C208 184 232 178 256 178 C280 178 304 184 326 196 L322 448 C302 454 280 456 256 456 C232 456 210 454 190 448 Z" fill="#2E4E9E"/>
  <path d="M250 188 L262 188 L260 452 L252 452 Z" fill="#1F3568"/>
  <path d="M192 216 C214 200 234 194 256 194 C278 194 300 200 320 216 L316 312 C298 300 278 294 256 294 C234 294 214 300 196 312 Z" fill="#9AA3B0"/>
  <path d="M250 198 L262 198 L260 310 L252 310 Z" fill="#7A828E"/>
  <!-- winged pauldrons -->
  <path d="M148 232 C140 200 152 172 178 156 C176 174 170 190 160 202 C176 196 192 198 204 208 L196 222 L210 218 L200 236 L216 230 L208 250 C190 244 170 246 152 256 C146 248 144 240 148 232 Z" fill="#9AA3B0"/>
  <path d="M364 232 C372 200 360 172 334 156 C336 174 342 190 352 202 C336 196 320 198 308 208 L316 222 L302 218 L312 236 L296 230 L304 250 C322 244 342 246 360 256 C366 248 368 240 364 232 Z" fill="#9AA3B0"/>
  <path d="M218 174 C230 164 244 160 256 160 C268 160 282 164 294 174 L286 196 C274 184 264 180 256 180 C248 180 238 184 226 196 Z" fill="#565C66"/>
  <path d="M154 376 C214 388 298 388 358 376 L358 396 C298 408 214 408 154 396 Z" fill="#565C66"/>
</svg>
