<svg xmlns="http://www.w3.org/2000/svg" viewBox="0 0 512 512" width="512" height="512">
  <!-- Ranger HelmT5 south: warden hood - feather crest + mist wreathing the hood, a drifting leaf. -->
  <!-- mist wisps around the hood -->
  <path d="M140 300 C124 296 112 286 110 272 C126 276 138 284 146 296 Z" fill="#B8C4B0" opacity="0.45"/>
  <path d="M372 300 C388 296 400 286 402 272 C386 276 374 284 366 296 Z" fill="#B8C4B0" opacity="0.45"/>
  <path d="M138 240 C122 240 110 234 106 222 C122 222 136 228 144 238 Z" fill="#B8C4B0" opacity="0.4"/>
  <path d="M374 240 C390 240 402 234 406 222 C390 222 376 228 368 238 Z" fill="#B8C4B0" opacity="0.4"/>
  <!-- feather crest -->
  <path d="M214 168 C206 144 208 120 224 104 C228 128 230 150 232 168 Z" fill="#8A8E74"/>
  <path d="M236 162 C230 134 234 110 250 96 C252 122 252 146 252 164 Z" fill="#6E8A44"/>
  <path d="M276 162 C282 134 278 110 262 96 C260 122 260 146 260 164 Z" fill="#8A8E74"/>
  <path d="M298 168 C306 144 304 120 288 104 C284 128 282 150 280 168 Z" fill="#6E8A44"/>
  <path fill-rule="evenodd" d="M150 360 C142 280 152 196 192 164 C216 144 240 138 256 138 C272 138 296 144 320 164 C360 196 370 280 362 360 L330 360 C338 286 330 220 300 196 C284 182 270 178 256 178 C242 178 228 182 212 196 C182 220 174 286 182 360 Z" fill="#46583A"/>
  <path d="M150 360 C144 300 150 230 178 192 C170 240 168 300 174 360 Z" fill="#3E5A34"/>
  <path d="M362 360 C368 300 362 230 334 192 C342 240 344 300 338 360 Z" fill="#3E5A34"/>
  <path d="M212 196 C228 182 242 178 256 178 C270 178 284 182 300 196 L294 206 C282 194 268 190 256 190 C244 190 230 194 218 206 Z" fill="#5C4630"/>
  <rect x="246" y="190" width="20" height="12" rx="2" fill="#9AA3B0"/>
  <!-- drifting leaf -->
  <path d="M150 326 C142 332 138 342 140 352 C148 348 154 340 154 330 Z" fill="#6E8A44"/>
  <path d="M148 330 L150 348" stroke="#46583A" stroke-width="2"/>
</svg>
