<svg xmlns="http://www.w3.org/2000/svg" viewBox="0 0 512 512" width="512" height="512">
  <!-- Sorcerer T4 hood, south: crimson hood with crystal horns rising from the temples, dragon-scale band. -->
  <!-- crystal horns -->
  <path d="M192 150 L176 96 L196 116 L188 70 L210 102 L208 60 L224 110 C220 128 210 144 196 152 Z" fill="#A83838"/>
  <path d="M184 110 L176 84 L190 102 Z" fill="#F2C84A"/>
  <path d="M320 150 L336 96 L316 116 L324 70 L302 102 L304 60 L288 110 C292 128 302 144 316 152 Z" fill="#A83838"/>
  <path d="M328 110 L336 84 L322 102 Z" fill="#F2C84A"/>
  <!-- hood -->
  <path d="M150 256 C146 192 196 146 256 146 C316 146 366 192 362 256 L356 274 C328 256 184 256 156 274 Z" fill="#8E2A2A"/>
  <path d="M164 246 C166 202 202 168 256 168 C286 168 312 182 328 206 C302 186 216 188 190 218 C178 230 166 238 164 246 Z" fill="#A83838"/>
  <path d="M150 256 C146 196 192 150 250 148 L256 274 L156 274 Z" fill="#6E1E1E"/>
  <path d="M180 170 L208 200 L184 230 L212 258 M164 200 L188 226" stroke="#F2C84A" stroke-width="3" fill="none"/>
  <path d="M156 270 C150 298 154 328 168 346 L190 338 C180 320 176 298 178 272 Z" fill="#6E1E1E"/>
  <path d="M356 270 C362 298 358 328 344 346 L322 338 C332 320 336 298 334 272 Z" fill="#8E2A2A"/>
  <!-- dragon-scale band -->
  <path d="M186 252 C196 246 206 248 210 256 M226 252 C236 246 246 248 250 256 M266 252 C276 246 286 248 290 256 M306 252 C316 246 326 248 330 256" stroke="#C9A23F" stroke-width="6" fill="none"/>
</svg>
