<svg xmlns="http://www.w3.org/2000/svg" viewBox="0 0 512 512" width="512" height="512">
  <!-- Wizard T4 hat, east: tall hat, swept tip, rear drape over the back of the skull, star at the band. -->
  <!-- rear drape -->
  <path d="M164 250 C178 242 208 238 240 240 C244 282 240 320 226 352 L190 352 C168 322 158 288 164 250 Z" fill="#1E2440"/>
  <path d="M174 256 C186 250 208 247 228 248 C230 284 226 316 214 342 L196 342 C178 318 170 288 174 256 Z" fill="#16182A" opacity="0.5"/>
  <!-- tall cone, tip swept back -->
  <path d="M196 242 C200 188 214 132 246 96 C256 84 270 84 278 96 C290 112 280 140 264 158 C284 182 296 212 298 242 Z" fill="#1E2440"/>
  <path d="M196 242 C200 190 214 136 244 100 C232 142 222 192 220 242 Z" fill="#3D4775"/>
  <path d="M268 154 C282 136 290 114 286 98 C296 114 296 138 284 158 C290 186 296 214 298 242 Z" fill="#16182A"/>
  <!-- brim -->
  <path d="M158 244 C168 226 200 216 260 216 C320 216 352 226 362 244 L360 272 C328 256 194 256 162 272 Z" fill="#16182A"/>
  <path d="M160 246 C174 231 204 222 260 222 C316 222 346 231 358 246 L357 260 C328 246 196 246 163 260 Z" fill="#2B3357"/>
  <path d="M196 236 C222 228 302 228 320 236 L318 250 C300 240 222 240 198 250 Z" fill="#97A1B5"/>
  <path d="M326 228 L330 238 L341 238 L332 245 L336 256 L326 249 L316 256 L320 245 L311 238 L322 238 Z" fill="#C7CEDB"/>
</svg>
