<svg xmlns="http://www.w3.org/2000/svg" viewBox="0 0 512 512" width="512" height="512">
  <!-- Cleric T5 south: radiant raiment - white-gold chasuble, subtle halo-glow trim, shining sun. -->
  <path d="M148 240 C158 196 198 170 256 170 C314 170 354 196 364 240 L360 400 C358 436 326 458 256 458 C186 458 154 436 152 400 Z" fill="#F5F2E8"/>
  <path d="M162 244 C172 206 208 184 256 184 C292 184 320 196 338 218 C310 198 212 200 184 234 C175 242 166 244 162 244 Z" fill="#FFFDF5" opacity="0.8"/>
  <!-- glow trim along the outer edge (subtle) -->
  <path d="M148 240 C158 196 198 170 256 170 C314 170 354 196 364 240 L362 252 C350 206 312 180 256 180 C200 180 162 206 150 252 Z" fill="#F2D98A"/>
  <!-- gold yoke + column -->
  <path d="M154 232 C168 200 196 182 232 176 L250 198 L262 198 L280 176 C316 182 344 200 358 232 L352 250 C336 226 312 212 284 208 L268 226 L244 226 L228 208 C200 212 176 226 160 250 Z" fill="#C9A23F"/>
  <path d="M244 222 L268 222 L266 456 L246 456 Z" fill="#C9A23F"/>
  <path d="M250 228 L262 228 L260 450 L252 450 Z" fill="#F5F2E8"/>
  <!-- THE radiance: shining sun emblem with a soft glow ring -->
  <circle cx="256" cy="284" r="30" fill="#F2D98A" opacity="0.55"/>
  <circle cx="256" cy="284" r="22" fill="#C9A23F"/>
  <circle cx="256" cy="284" r="11" fill="#FFF3C4"/>
  <path d="M256 250 L256 238 M256 318 L256 330 M222 284 L210 284 M290 284 L302 284 M233 261 L224 252 M279 261 L288 252 M233 307 L224 316 M279 307 L288 316" stroke="#C9A23F" stroke-width="7" fill="none"/>
  <!-- glowing hem -->
  <path d="M158 426 C212 444 300 444 354 426 L352 446 C300 462 212 462 160 446 Z" fill="#F2D98A"/>
  <path d="M162 430 C214 446 298 446 350 430 L349 438 C300 452 212 452 163 438 Z" fill="#C9A23F"/>
  <!-- collar -->
  <path d="M218 174 C230 164 244 160 256 160 C268 160 282 164 294 174 L286 196 C274 184 264 180 256 180 C248 180 238 184 226 196 Z" fill="#C9A23F"/>
</svg>
