<svg xmlns="http://www.w3.org/2000/svg" viewBox="0 0 512 512" width="512" height="512">
  <!-- Druid T4 south: beast regalia - heavy pelt mantle, antler chest fetish, fang necklace, fur kilt. -->
  <path d="M178 250 C186 228 212 216 256 214 C300 216 326 228 334 250 L338 404 C320 418 292 426 256 426 C220 426 192 418 174 404 Z" fill="#6B5C44"/>
  <path d="M186 256 C194 238 220 228 256 226 C292 228 318 238 326 256 L328 304 L184 304 Z" fill="#7A6A50" opacity="0.6"/>
  <!-- heavy mantle -->
  <path d="M144 254 C140 218 170 194 214 188 L230 198 L246 186 L256 198 L270 186 L284 196 L300 188 C344 194 372 218 368 254 L368 300 L352 286 L354 312 L336 298 L340 322 L322 308 L310 316 L294 302 L294 288 C268 280 244 280 218 288 L218 302 L206 316 L194 308 L176 322 L180 298 L162 312 L164 286 L148 300 Z" fill="#5C4E38" fill-rule="evenodd"/>
  <path d="M152 252 C150 224 176 204 212 198 L230 206 L246 196 L256 206 L270 196 L284 204 L300 200 C332 205 352 221 354 246 L346 250 C340 231 323 219 302 215 L286 221 L270 213 L256 221 L242 213 L226 219 C194 217 172 230 166 250 Z" fill="#7A6A50"/>
  <!-- antler fetish on the chest -->
  <path d="M250 280 L262 280 L260 340 L252 340 Z" fill="#B5A88C"/>
  <path d="M254 288 C242 282 234 272 232 260 C240 262 248 268 252 276 Z" fill="#D8CCB4"/>
  <path d="M258 288 C270 282 278 272 280 260 C272 262 264 268 260 276 Z" fill="#D8CCB4"/>
  <path d="M250 300 C240 296 234 290 230 282 C236 284 244 288 250 292 Z" fill="#D8CCB4"/>
  <path d="M262 300 C272 296 278 290 282 282 C276 284 268 288 262 292 Z" fill="#D8CCB4"/>
  <!-- fang necklace -->
  <path d="M206 250 C224 270 240 278 256 278 C272 278 288 270 306 250 L310 258 C292 280 274 288 256 288 C238 288 220 280 202 258 Z" fill="#5C3D24"/>
  <path d="M222 272 L216 298 L230 280 Z" fill="#D8CCB4"/>
  <path d="M244 280 L242 308 L254 284 Z" fill="#D8CCB4"/>
  <path d="M268 280 L270 308 L280 284 Z" fill="#D8CCB4"/>
  <path d="M290 272 L296 296 L302 274 Z" fill="#D8CCB4"/>
  <!-- fur kilt -->
  <path d="M168 388 C226 400 290 400 346 388 L344 430 L332 420 L326 434 L314 424 L306 436 L294 426 L284 436 L270 426 L258 438 L246 426 L232 436 L222 424 L210 434 L200 422 L188 432 L172 420 Z" fill="#5C4E38"/>
</svg>
