<svg xmlns="http://www.w3.org/2000/svg" viewBox="0 0 512 512" width="512" height="512">
  <!-- Wizard T2 hat, north: skullcap from behind, full crown coverage. -->
  <path d="M168 252 C164 198 202 160 256 160 C310 160 348 198 344 252 L340 276 C314 262 198 262 172 276 Z" fill="#2B3357"/>
  <path d="M180 244 C180 204 212 174 256 174 C282 174 304 186 318 206 C294 190 222 192 198 218 C188 228 182 236 180 244 Z" fill="#3D4775"/>
  <path d="M252 162 L260 162 L258 260 L254 260 Z" fill="#1E2440"/>
  <path d="M170 254 C196 242 316 242 342 254 L340 274 C314 260 198 260 172 274 Z" fill="#97A1B5"/>
</svg>
