<svg xmlns="http://www.w3.org/2000/svg" viewBox="0 0 512 512" width="512" height="512">
  <!-- Bard T3 hat, east: cap profile - brim, gold band, feather sweeping back, nape fall. -->
  <!-- feather sweeping back -->
  <path d="M232 142 C214 110 186 90 152 86 C154 100 164 114 180 124 C164 124 150 130 140 142 C158 156 182 162 206 156 C218 152 226 148 232 142 Z" fill="#E8E0CC"/>
  <path d="M222 138 C206 114 184 98 158 92 C172 104 188 116 204 122 C192 124 182 130 176 138 C190 146 208 146 222 138 Z" fill="#C9C2B0"/>
  <!-- nape fall -->
  <path d="M162 258 C178 250 210 246 244 248 C248 288 244 322 230 350 L188 350 C166 324 156 292 162 258 Z" fill="#8E3A6E"/>
  <path d="M174 264 C188 258 210 255 230 256 C232 292 228 320 216 342 L196 342 C178 320 170 294 174 264 Z" fill="#5E2548" opacity="0.4"/>
  <!-- crown dome -->
  <path d="M152 250 C148 192 198 152 258 152 C314 152 358 190 358 244 L356 262 C328 248 184 248 156 264 Z" fill="#8E3A6E"/>
  <path d="M166 240 C170 200 206 166 256 166 C288 166 314 180 330 204 C304 184 216 186 190 216 C178 228 168 234 166 240 Z" fill="#B5538F"/>
  <!-- brim -->
  <path d="M136 252 C172 238 344 238 380 252 C384 262 380 271 372 275 C334 260 180 260 140 275 C132 271 130 262 136 252 Z" fill="#5E2548"/>
  <path d="M142 254 C176 242 340 242 374 254 C376 259 374 264 370 267 C334 254 180 254 144 267 C140 264 140 259 142 254 Z" fill="#8E3A6E"/>
  <path d="M192 240 C218 232 302 232 326 240 L324 252 C304 244 216 244 194 252 Z" fill="#C9A23F"/>
</svg>
