<svg xmlns="http://www.w3.org/2000/svg" viewBox="0 0 512 512" width="512" height="512">
  <!-- Ranger T4 east: feathered mantle profile, layered cloak, silvered buckle. -->
  <path d="M188 232 C198 192 222 168 264 168 C306 168 336 190 344 230 L342 386 C340 414 312 428 254 428 C200 428 166 414 168 386 Z" fill="#3E5A34"/>
  <path d="M204 200 C226 188 246 182 264 182 L322 204 L318 414 C300 424 280 428 258 428 C232 428 212 422 200 412 Z" fill="#5C4630"/>
  <path d="M156 234 C164 204 206 186 262 186 C306 186 346 204 354 234 L350 290 L332 276 L326 298 L304 284 L296 304 L274 290 L264 282 C252 276 234 278 224 286 L214 296 L196 294 L188 284 Z" fill="#46583A"/>
  <path d="M168 236 C178 212 214 196 262 196 C302 196 338 212 346 236 L344 270 L328 258 L322 278 L302 264 L294 282 L274 270 L264 264 C252 258 236 260 226 268 L216 276 L200 280 L192 274 Z" fill="#5A7048"/>
  <!-- feathered mantle on the near shoulder -->
  <path d="M162 240 C158 220 170 204 192 200 C184 210 180 220 182 232 L192 224 L190 242 L204 232 L202 250 C188 244 168 246 164 256 C162 250 161 246 162 240 Z" fill="#8A8E74"/>
  <path d="M168 240 C166 226 176 214 192 210 C186 218 184 226 186 234 C194 228 202 228 208 234 L204 244 C194 238 180 240 172 250 Z" fill="#C9BBA0"/>
  <path d="M192 376 C236 388 300 388 338 378 L338 396 C300 406 236 406 192 394 Z" fill="#5C4630"/>
  <rect x="286" y="378" width="26" height="16" rx="3" fill="#9AA3B0"/>
</svg>
