<svg xmlns="http://www.w3.org/2000/svg" viewBox="0 0 512 512" width="512" height="512">
  <!-- Barbarian T2 east: vest profile, wolf pelt on the near (left-of-screen, rear) shoulder, red wrap. -->
  <path d="M198 240 C206 220 228 208 256 206 L300 210 L322 250 L324 404 C300 418 260 424 226 418 L200 404 Z" fill="#8A5A33"/>
  <path d="M204 246 C212 228 232 218 256 216 L296 220 L314 254 L312 300 L202 300 Z" fill="#6B4426" opacity="0.4"/>
  <path d="M196 238 C196 216 212 202 238 198 C252 196 264 202 270 212 L266 228 C258 220 248 216 238 218 L246 236 L232 232 L238 252 L222 246 L226 268 L212 258 L214 282 L200 270 L200 292 L190 280 Z" fill="#6E6E78"/>
  <path d="M202 238 C204 222 216 210 234 206 C246 204 256 208 262 214 L260 222 C252 216 242 213 232 216 C218 220 208 228 206 240 Z" fill="#8B8B96"/>
  <path d="M195 260 L205 272 L203 252 Z" fill="#55555E"/>
  <path d="M198 392 C238 404 286 404 320 394 L320 414 C286 424 238 424 198 412 Z" fill="#A33B2A"/>
  <path d="M292 398 L286 440 L298 431 L306 444 L313 429 L323 438 L318 398 Z" fill="#A33B2A"/>
</svg>
