<svg xmlns="http://www.w3.org/2000/svg" viewBox="0 0 512 512" width="512" height="512">
  <!-- Barbarian T5 horned helm, east (facing right): dome profile, near horn curving forward-up. -->
  <!-- far horn: peeking behind the dome -->
  <path d="M218 200 C190 188 170 166 162 138 C156 116 158 96 168 82 C180 94 186 110 187 128 C194 114 206 106 220 104 C214 124 214 146 222 166 C220 178 219 190 218 200 Z" fill="#B5A88C"/>
  <!-- dome profile -->
  <path d="M176 252 C172 196 210 156 260 156 C310 156 348 196 346 252 L340 270 L182 270 Z" fill="#2E3138"/>
  <path d="M188 246 C188 202 218 170 260 170 C284 170 304 181 318 200 C296 187 230 189 208 214 C198 224 191 234 188 246 Z" fill="#454A54"/>
  <!-- near horn: from the temple, sweeping forward and up -->
  <path d="M280 196 C300 162 330 138 366 128 C394 121 420 124 436 138 C422 152 402 159 380 158 C394 170 400 186 398 204 C376 196 356 182 344 162 C322 170 300 182 286 200 Z" fill="#D8CCB4"/>
  <path d="M370 134 C396 128 418 131 432 142 C420 152 404 157 386 156 C380 146 376 139 370 134 Z" fill="#B5A88C"/>
  <path d="M348 158 C360 174 376 186 394 192 C390 178 382 166 370 158 C362 156 354 156 348 158 Z" fill="#B5A88C"/>
  <!-- gold band -->
  <path d="M178 248 C206 236 320 236 344 248 L344 268 C320 256 208 256 178 268 Z" fill="#C9A23F"/>
  <path d="M178 260 C206 249 320 249 344 260 L344 268 C320 256 208 256 178 268 Z" fill="#8E6E24"/>
  <!-- ember gem at the brow front -->
  <circle cx="330" cy="252" r="8" fill="#FF5A2A"/>
  <circle cx="330" cy="250" r="3.5" fill="#FFC09A"/>
  <circle cx="206" cy="252" r="4" fill="#8E6E24"/>
</svg>
