<svg xmlns="http://www.w3.org/2000/svg" viewBox="0 0 512 512" width="512" height="512">
  <!-- Monk HelmT2 east: headband across the brow in profile, tails trailing off the back. -->
  <path d="M188 232 C224 223 304 223 344 232 L344 252 C304 245 224 246 190 254 Z" fill="#C9852E"/>
  <path d="M188 232 C224 223 304 223 344 232" stroke="#A8431A" stroke-width="3" fill="none"/>
  <path d="M190 252 C224 245 304 245 344 250" stroke="#A8431A" stroke-width="3" fill="none"/>
  <path d="M188 240 C176 250 172 264 176 278 C182 270 188 258 192 248 Z" fill="#A8431A"/>
  <path d="M194 242 C184 254 182 268 188 280 C194 270 198 258 198 248 Z" fill="#C9852E"/>
</svg>
