<svg xmlns="http://www.w3.org/2000/svg" viewBox="0 0 512 512" width="512" height="512">
  <!-- Paladin T4 helm, north: winged greathelm from behind, plume trailing, full coverage, gold band. -->
  <path d="M168 200 C148 188 134 168 130 144 C144 148 156 160 162 176 C162 158 168 142 180 130 C184 148 182 168 174 184 C172 190 170 196 168 200 Z" fill="#9AA3B0"/>
  <path d="M344 200 C364 188 378 168 382 144 C368 148 356 160 350 176 C350 158 344 142 332 130 C328 148 330 168 338 184 C340 190 342 196 344 200 Z" fill="#9AA3B0"/>
  <path d="M248 150 C242 116 246 84 258 60 C272 84 276 116 270 150 L274 220 C266 230 244 230 236 220 Z" fill="#2E4E9E"/>
  <path d="M158 250 C154 190 202 148 256 148 C310 148 358 190 354 250 C356 296 340 336 310 354 L202 354 C172 336 156 296 158 250 Z" fill="#9AA3B0"/>
  <path d="M172 240 C174 200 210 166 256 166 C284 166 308 178 324 200 C298 182 214 184 190 212 C180 224 174 232 172 240 Z" fill="#C4CBD6"/>
  <path d="M166 312 C196 298 316 298 346 312 L340 332 C312 318 200 318 172 332 Z" fill="#C9A23F"/>
</svg>
