<svg xmlns="http://www.w3.org/2000/svg" viewBox="0 0 512 512" width="512" height="512">
  <!-- Druid T1 south: rough barkcloth robe, bark-grain texture, rope belt. -->
  <path d="M148 240 C158 196 198 170 256 170 C314 170 354 196 364 240 L360 400 C358 436 326 458 256 458 C186 458 154 436 152 400 Z" fill="#5E6B43"/>
  <path d="M162 244 C172 206 208 184 256 184 C292 184 320 196 338 218 C310 198 212 200 184 234 C175 242 166 244 162 244 Z" fill="#74824E" opacity="0.5"/>
  <path d="M196 200 L194 452 M226 188 L225 456 M286 188 L287 456 M316 200 L318 452" stroke="#4A5634" stroke-width="5" fill="none"/>
  <path d="M210 210 L209 448 M270 188 L270 456 M300 206 L301 450" stroke="#4A5634" stroke-width="3" opacity="0.6" fill="none"/>
  <path d="M251 196 L261 196 L259 454 L253 454 Z" fill="#4A5634"/>
  <path d="M218 176 C230 166 244 162 256 162 C268 162 282 166 294 176 L286 198 C274 186 264 182 256 182 C248 182 238 186 226 198 Z" fill="#6E5638"/>
  <path d="M156 384 C216 396 296 396 356 384 L356 402 C296 414 216 414 156 402 Z" fill="#8A6E4A"/>
  <path d="M250 392 L244 428 L254 420 L260 432 L266 418 L274 426 L268 392 Z" fill="#8A6E4A"/>
</svg>
