<svg xmlns="http://www.w3.org/2000/svg" viewBox="0 0 512 512" width="512" height="512">
  <!-- Cleric T4 north: chasuble back - gold column orphrey with cross, hem band. -->
  <path d="M148 240 C158 196 198 170 256 170 C314 170 354 196 364 240 L360 400 C358 436 326 458 256 458 C186 458 154 436 152 400 Z" fill="#E8E4D8"/>
  <path d="M162 244 C172 206 208 184 256 184 C292 184 320 196 338 218 C310 198 212 200 184 234 C175 242 166 244 162 244 Z" fill="#F5F2E8" opacity="0.55"/>
  <path d="M154 232 C168 200 196 182 232 176 L250 198 L262 198 L280 176 C316 182 344 200 358 232 L352 250 C336 226 312 212 284 208 L268 226 L244 226 L228 208 C200 212 176 226 160 250 Z" fill="#C9A23F"/>
  <path d="M244 222 L268 222 L266 456 L246 456 Z" fill="#C9A23F"/>
  <path d="M250 228 L262 228 L260 450 L252 450 Z" fill="#E8E4D8"/>
  <!-- gold cross on the back column -->
  <path d="M248 270 L264 270 L262 350 L250 350 Z" fill="#C9A23F"/>
  <path d="M228 294 L284 294 L284 308 L228 308 Z" fill="#C9A23F"/>
  <path d="M158 426 C212 444 300 444 354 426 L352 446 C300 462 212 462 160 446 Z" fill="#C9A23F"/>
  <path d="M222 172 C234 164 244 162 256 162 C268 162 278 164 290 172 C292 184 288 196 278 204 C264 212 248 212 234 204 C224 196 220 184 222 172 Z" fill="#C9A23F"/>
</svg>
