<svg xmlns="http://www.w3.org/2000/svg" viewBox="0 0 512 512" width="512" height="512">
  <!-- Wizard T2 hat, north: skullcap from behind. -->
  <path d="M186 242 C182 196 214 164 256 164 C298 164 330 196 326 242 L322 260 C300 250 212 250 190 260 Z" fill="#2B3357"/>
  <path d="M196 236 C196 200 222 176 256 176 C277 176 294 185 306 200 C287 189 227 191 208 212 C201 220 197 228 196 236 Z" fill="#3D4775"/>
  <path d="M252 166 L260 166 L258 248 L254 248 Z" fill="#1E2440"/>
  <path d="M188 244 C210 234 302 234 324 244 L322 258 C300 248 212 248 190 258 Z" fill="#97A1B5"/>
</svg>
