<svg xmlns="http://www.w3.org/2000/svg" viewBox="0 0 512 512" width="512" height="512">
  <!-- Sorcerer T5 hood, south: conduit crown - dark hood split by bursting light, blazing brow. -->
  <path d="M150 256 C146 192 196 146 256 146 C316 146 366 192 362 256 L356 274 C328 256 184 256 156 274 Z" fill="#3A1414"/>
  <path d="M164 246 C166 202 202 168 256 168 C286 168 312 182 328 206 C302 186 216 188 190 218 C178 230 166 238 164 246 Z" fill="#5A1E1E"/>
  <path d="M156 270 C150 298 154 328 168 346 L190 338 C180 320 176 298 178 272 Z" fill="#3A1414"/>
  <path d="M356 270 C362 298 358 328 344 346 L322 338 C332 320 336 298 334 272 Z" fill="#3A1414"/>
  <!-- light bursting at the hood seams -->
  <path d="M256 150 L256 268" stroke="#F2C84A" stroke-width="5" fill="none"/>
  <path d="M256 150 L256 268" stroke="#FFF0B8" stroke-width="2" fill="none"/>
  <path d="M200 170 C210 200 196 230 208 258 M312 170 C302 200 316 230 304 258" stroke="#F2C84A" stroke-width="4" fill="none"/>
  <!-- blazing brow gem -->
  <circle cx="256" cy="256" r="12" fill="#F2C84A" opacity="0.5"/>
  <circle cx="256" cy="256" r="7" fill="#F2C84A"/>
  <circle cx="256" cy="256" r="3" fill="#FFF6D8"/>
</svg>
