<svg xmlns="http://www.w3.org/2000/svg" viewBox="0 0 512 512" width="512" height="512">
  <!-- Druid T3 hat, south: hide hood with short antler stubs. -->
  <!-- antler stubs rooted at the temples -->
  <path d="M188 200 C176 184 170 164 172 144 C184 150 192 162 196 176 C202 168 210 164 220 164 C218 180 210 194 198 202 Z" fill="#B5A88C"/>
  <path d="M324 200 C336 184 342 164 340 144 C328 150 320 162 316 176 C310 168 302 164 292 164 C294 180 302 194 314 202 Z" fill="#B5A88C"/>
  <path d="M178 158 C182 168 188 176 196 180 C192 170 186 162 178 158 Z" fill="#D8CCB4"/>
  <path d="M334 158 C330 168 324 176 316 180 C320 170 326 162 334 158 Z" fill="#D8CCB4"/>
  <!-- hood -->
  <path d="M154 254 C150 192 200 148 258 148 C316 148 362 192 358 254 L354 268 C326 252 186 252 158 268 Z" fill="#6B4426"/>
  <path d="M168 244 C170 200 206 166 256 166 C286 166 312 180 328 204 C302 184 216 186 190 216 C178 228 170 234 168 244 Z" fill="#8A5A33"/>
  <!-- hood seam + fur edge -->
  <path d="M252 150 L260 150 L258 250 L254 250 Z" fill="#5C3D24"/>
  <path d="M156 254 L170 242 L180 256 L196 244 L206 258 L222 246 L232 260 L248 248 L258 262 L268 248 L284 260 L294 246 L310 258 L320 244 L334 256 L344 242 L356 254 L354 272 C326 256 186 256 158 272 Z" fill="#7A6A50"/>
</svg>
