<svg xmlns="http://www.w3.org/2000/svg" viewBox="0 0 512 512" width="512" height="512">
  <!-- Barbarian T4 helm, south: blackened dome w/ cheek guards, THICK bull horns hooking out-then-up. -->
  <!-- horns: thick base, horizontal sweep, sharp upward hook -->
  <path d="M182 244 C150 244 120 234 100 214 C84 198 76 178 78 158 C80 138 90 122 106 112 C108 130 104 148 96 162 C110 176 130 186 152 190 C166 204 176 222 182 244 Z" fill="#6B6258"/>
  <path d="M104 116 C90 126 82 140 80 156 C92 148 100 136 104 122 Z" fill="#E8E0CC"/>
  <path d="M96 160 C90 172 88 186 92 198 C100 188 104 176 104 164 C101 162 98 161 96 160 Z" fill="#4F483F"/>
  <path d="M330 244 C362 244 392 234 412 214 C428 198 436 178 434 158 C432 138 422 122 406 112 C404 130 408 148 416 162 C402 176 382 186 360 190 C346 204 336 222 330 244 Z" fill="#6B6258"/>
  <path d="M408 116 C422 126 430 140 432 156 C420 148 412 136 408 122 Z" fill="#E8E0CC"/>
  <path d="M416 160 C422 172 424 186 420 198 C412 188 408 176 408 164 C411 162 414 161 416 160 Z" fill="#4F483F"/>
  <!-- dome -->
  <path d="M166 252 C162 190 204 148 256 148 C308 148 350 190 346 252 L340 272 L172 272 Z" fill="#2E3138"/>
  <path d="M178 244 C178 196 212 162 256 162 C282 162 305 174 320 196 C296 181 222 183 198 210 C187 220 180 231 178 244 Z" fill="#454A54"/>
  <!-- cheek guards -->
  <path d="M172 262 L200 262 L196 318 C188 322 178 320 172 312 Z" fill="#2E3138"/>
  <path d="M340 262 L312 262 L316 318 C324 322 334 320 340 312 Z" fill="#2E3138"/>
  <!-- red war-band -->
  <path d="M168 248 C196 236 316 236 344 248 L344 268 C316 256 196 256 168 268 Z" fill="#A33B2A"/>
  <path d="M168 260 C196 249 316 249 344 260 L344 268 C316 256 196 256 168 268 Z" fill="#7E2C1F"/>
  <!-- iron center ridge with rivets -->
  <path d="M249 150 L263 150 L261 240 L251 240 Z" fill="#6B6258"/>
  <circle cx="256" cy="166" r="4" fill="#454A54"/>
  <circle cx="256" cy="192" r="4" fill="#454A54"/>
  <circle cx="256" cy="218" r="4" fill="#454A54"/>
</svg>
