<svg xmlns="http://www.w3.org/2000/svg" viewBox="0 0 512 512" width="512" height="512">
  <!-- Warlock T1 north: dark violet robe back. -->
  <path d="M150 240 C160 196 198 172 256 172 C314 172 352 196 362 240 L356 420 C354 436 322 446 256 446 C190 446 158 436 156 420 Z" fill="#4A2E6E"/>
  <path d="M150 240 C160 200 196 178 256 178 L256 446 C190 446 158 436 156 420 Z" fill="#3A2356"/>
  <path d="M256 178 C318 178 354 200 362 240 L356 420 C354 434 326 444 256 444 Z" fill="#4A2E6E"/>
  <path d="M210 192 C228 182 242 180 256 180 C270 180 284 182 302 192 C296 208 290 220 256 220 C222 220 216 208 210 192 Z" fill="#5E3C84"/>
  <path d="M252 200 L260 200 L258 440 L254 440 Z" fill="#2C1A42"/>
</svg>
