<svg xmlns="http://www.w3.org/2000/svg" viewBox="0 0 512 512" width="512" height="512">
  <!-- Druid T4 hat, north: wolf pelt from behind - ears, mane down the skull, full coverage. -->
  <path d="M192 168 C184 144 186 120 200 102 C210 110 216 124 216 140 C208 148 198 158 192 168 Z" fill="#5C4E38"/>
  <path d="M320 168 C328 144 326 120 312 102 C302 110 296 124 296 140 C304 148 314 158 320 168 Z" fill="#5C4E38"/>
  <path d="M154 250 C150 190 200 146 258 146 C316 146 362 190 358 250 C360 298 344 338 314 356 L198 356 C168 338 152 298 154 250 Z" fill="#5C4E38"/>
  <path d="M168 242 C170 198 206 164 256 164 C286 164 312 178 328 202 C302 182 216 184 190 214 C178 226 170 232 168 242 Z" fill="#6B5C44"/>
  <!-- mane ridge down the back -->
  <path d="M244 150 L256 142 L268 150 L262 168 L268 184 L260 200 L266 216 L258 232 L264 248 L256 264 L248 248 L254 232 L246 216 L252 200 L244 184 L250 168 Z" fill="#4A3F2E"/>
  <!-- pelt hem -->
  <path d="M172 320 L186 308 L196 322 L210 310 L220 324 L236 312 L246 326 L258 312 L270 326 L286 312 L296 324 L310 310 L320 322 L334 308 L344 320 L338 340 C312 326 204 326 178 340 Z" fill="#6B5C44"/>
</svg>
