<svg xmlns="http://www.w3.org/2000/svg" viewBox="0 0 512 512" width="512" height="512">
  <!-- Wizard T3 hat, north: bent point seen from behind (tip leans left of screen = pawn's right). -->
  <path d="M316 240 C312 196 296 156 262 134 C230 116 200 122 182 140 C202 144 216 156 222 174 C216 196 212 218 212 240 Z" fill="#2B3357"/>
  <path d="M306 232 C300 196 286 164 260 144 C274 168 286 200 290 232 Z" fill="#1E2440"/>
  <!-- brim: wide and low, covers the whole crown -->
  <path d="M162 242 C172 224 200 214 256 214 C312 214 340 224 350 242 L348 274 C318 258 194 258 164 274 Z" fill="#1E2440"/>
  <path d="M166 244 C178 229 204 220 256 220 C308 220 334 229 346 244 L345 260 C316 246 196 246 167 260 Z" fill="#3D4775"/>
  <path d="M208 234 C232 226 292 226 316 234 L314 246 C292 238 232 238 210 246 Z" fill="#97A1B5"/>
</svg>
