<svg xmlns="http://www.w3.org/2000/svg" viewBox="0 0 512 512" width="512" height="512">
  <!-- Druid T5 east: darkest mantle hump, bone spikes, amber totem at the chest, fur kilt. -->
  <path d="M196 248 C206 228 230 216 262 216 L310 224 L324 256 L322 404 C304 418 278 424 252 422 L200 408 Z" fill="#5C4E38"/>
  <path d="M204 254 C214 238 236 228 264 228 L304 236 L316 260 L314 302 L202 302 Z" fill="#6B5C44" opacity="0.6"/>
  <!-- mantle hump -->
  <path d="M180 252 C176 216 206 194 250 188 C280 184 304 192 314 206 L310 224 C300 212 282 206 266 208 L276 228 L260 222 L268 246 L250 236 L256 262 L238 250 L242 278 L226 266 L228 294 L212 282 L214 308 L198 296 Z" fill="#4A3F2E"/>
  <path d="M188 250 C186 222 210 204 246 198 C268 194 288 198 298 208 L294 218 C284 210 268 206 254 209 C232 213 216 226 212 248 Z" fill="#6B5C44"/>
  <!-- bone spikes -->
  <path d="M196 218 L188 188 L210 208 Z" fill="#D8CCB4"/>
  <path d="M228 204 L226 176 L246 198 Z" fill="#D8CCB4"/>
  <!-- amber totem -->
  <circle cx="296" cy="306" r="14" fill="#3A2E20"/>
  <circle cx="296" cy="306" r="10" fill="#C9842A"/>
  <circle cx="296" cy="304" r="5" fill="#F2B05A"/>
  <!-- fur kilt -->
  <path d="M198 388 C242 400 290 400 322 390 L320 428 L308 418 L300 430 L288 420 L278 430 L264 420 L252 432 L240 420 L228 430 L218 418 L206 428 L198 416 Z" fill="#4A3F2E"/>
</svg>
