<svg xmlns="http://www.w3.org/2000/svg" viewBox="0 0 512 512" width="512" height="512">
  <!-- Warlock T5 south: pact ascendant - a second faint patron-silhouette behind the shoulders + green eye-glints in the cloth. -->
  <!-- faint second silhouette (the patron) looming behind -->
  <g opacity="0.28" fill="#8EBE4A">
    <path d="M256 120 C236 120 220 136 220 158 C220 174 230 186 240 192 C214 200 196 224 192 260 L320 260 C316 224 298 200 272 192 C282 186 292 174 292 158 C292 136 276 120 256 120 Z"/>
  </g>
  <g opacity="0.4" stroke="#B6E86A" stroke-width="2" fill="none">
    <path d="M210 210 C188 224 178 248 176 274 M302 210 C324 224 334 248 336 274"/>
  </g>
  <!-- jagged mantle -->
  <path d="M196 200 C176 188 158 176 150 156 C168 162 184 168 198 174 L188 152 C204 162 218 174 228 188 Z" fill="#3A2356"/>
  <path d="M316 200 C336 188 354 176 362 156 C344 162 328 168 314 174 L324 152 C308 162 294 174 284 188 Z" fill="#3A2356"/>
  <path d="M214 196 C202 178 192 158 192 138 C206 154 218 170 226 186 Z" fill="#2C1A42"/>
  <path d="M298 196 C310 178 320 158 320 138 C306 154 294 170 286 186 Z" fill="#2C1A42"/>
  <path d="M150 240 C160 196 198 172 256 172 C314 172 352 196 362 240 L356 420 C354 436 322 446 256 446 C190 446 158 436 156 420 Z" fill="#4A2E6E"/>
  <path d="M150 240 C160 200 196 178 256 178 L256 446 C190 446 158 436 156 420 Z" fill="#3A2356"/>
  <path d="M256 178 C318 178 354 200 362 240 L356 420 C354 434 326 444 256 444 Z" fill="#4A2E6E"/>
  <path d="M252 184 L260 184 L258 440 L254 440 Z" fill="#2C1A42"/>
  <path d="M212 200 C200 184 196 168 198 152 C214 168 226 184 232 196 L256 192 L280 196 C286 184 298 168 314 152 C316 168 312 184 300 200 C284 190 268 186 256 186 C244 186 228 190 212 200 Z" fill="#5E3C84"/>
  <!-- green eye-glints scattered in the cloth -->
  <g fill="#8EBE4A">
    <ellipse cx="256" cy="206" rx="9" ry="6"/>
    <ellipse cx="206" cy="300" rx="6" ry="4"/>
    <ellipse cx="306" cy="300" rx="6" ry="4"/>
    <ellipse cx="224" cy="372" rx="5" ry="3.4"/>
    <ellipse cx="288" cy="372" rx="5" ry="3.4"/>
  </g>
  <g fill="#1E1230">
    <circle cx="256" cy="206" r="3"/>
    <circle cx="206" cy="300" r="2"/>
    <circle cx="306" cy="300" r="2"/>
    <circle cx="224" cy="372" r="1.7"/>
    <circle cx="288" cy="372" r="1.7"/>
  </g>
</svg>
