<svg xmlns="http://www.w3.org/2000/svg" viewBox="0 0 512 512" width="512" height="512">
  <!-- Druid T4 north: heavy mantle back w/ a hanging beast tail, fur kilt. -->
  <path d="M178 250 C186 228 212 216 256 214 C300 216 326 228 334 250 L338 404 C320 418 292 426 256 426 C220 426 192 418 174 404 Z" fill="#6B5C44"/>
  <path d="M144 254 C140 218 170 194 214 188 L236 182 L256 180 L278 182 L300 188 C344 194 372 218 368 254 L368 302 L352 288 L354 314 L336 300 L340 324 L322 310 L324 334 L306 322 L206 322 L188 334 L190 310 L172 324 L176 300 L158 314 L160 288 L144 302 Z" fill="#5C4E38"/>
  <path d="M152 252 C150 224 178 204 212 198 L236 192 L256 190 L278 192 L300 200 C332 205 352 221 354 246 L346 250 C340 231 323 219 302 215 L256 209 L212 215 C190 219 172 232 166 250 Z" fill="#7A6A50"/>
  <!-- hanging beast tail -->
  <path d="M248 330 C242 356 242 382 250 404 C254 414 260 414 264 404 C270 382 270 354 262 330 C258 324 252 324 248 330 Z" fill="#5C4E38"/>
  <path d="M252 398 C250 408 254 416 260 418 C264 414 266 406 264 398 Z" fill="#3A2E20"/>
  <path d="M168 388 C226 400 290 400 346 388 L344 430 L332 420 L326 434 L314 424 L306 436 L294 426 L284 436 L270 426 L258 438 L246 426 L232 436 L222 424 L210 434 L200 422 L188 432 L172 420 Z" fill="#5C4E38"/>
</svg>
