<svg xmlns="http://www.w3.org/2000/svg" viewBox="0 0 512 512" width="512" height="512">
  <!-- Fighter T5 south: mirror-polish plate, subtle blue edge-light, gold trim, cobalt sash. -->
  <path d="M148 240 C158 196 198 170 256 170 C314 170 354 196 364 240 L360 396 C358 428 326 444 256 444 C186 444 154 428 152 396 Z" fill="#6E7682"/>
  <!-- mirror highlight sweep -->
  <path d="M170 236 C182 198 216 178 260 178 C292 178 320 190 338 212 C310 192 214 194 188 230 C180 236 174 236 170 236 Z" fill="#9AA3B0"/>
  <path d="M204 198 C222 188 244 184 264 186 C244 190 226 198 214 210 Z" fill="#C4CBD6"/>
  <!-- blue edge-light along the plate rim -->
  <path d="M148 240 C158 196 198 170 256 170 C314 170 354 196 364 240 L362 252 C350 206 312 180 256 180 C200 180 162 206 150 252 Z" fill="#4A6CC4" opacity="0.8"/>
  <!-- faulds -->
  <path d="M156 350 C214 362 298 362 356 350 L355 368 C298 380 214 380 157 368 Z" fill="#3D4148"/>
  <path d="M154 384 C214 396 298 396 358 384 L357 402 C298 414 214 414 155 402 Z" fill="#3D4148"/>
  <path d="M156 418 C214 430 298 430 356 418 L354 434 C300 446 212 446 158 434 Z" fill="#3D4148"/>
  <path d="M156 352 C214 364 298 364 356 352 L356 358 C298 370 214 370 156 358 Z" fill="#4A6CC4" opacity="0.55"/>
  <!-- cobalt sash diagonal -->
  <path d="M176 200 L344 320 L336 348 L166 226 C168 217 172 208 176 200 Z" fill="#2E4E9E"/>
  <path d="M182 206 L338 318 L334 332 L174 218 Z" fill="#1F3568" opacity="0.5"/>
  <!-- gold pectoral arc + center boss -->
  <path d="M188 252 C208 238 232 232 256 232 C280 232 304 238 324 252 L318 268 C300 254 280 248 256 248 C232 248 212 254 194 268 Z" fill="#C9A23F"/>
  <circle cx="256" cy="294" r="15" fill="#C9A23F"/>
  <circle cx="256" cy="294" r="8" fill="#6E7682"/>
  <!-- gold-edged pauldrons w/ blue rim -->
  <path d="M134 218 L198 206 L202 264 L142 276 C134 258 130 236 134 218 Z" fill="#6E7682"/>
  <path d="M134 218 L198 206 L199 216 L137 228 Z" fill="#C9A23F"/>
  <path d="M140 226 L192 215 L195 252 L146 262 C140 250 137 237 140 226 Z" fill="#9AA3B0"/>
  <path d="M142 272 L200 260 L201 266 L144 277 Z" fill="#4A6CC4" opacity="0.8"/>
  <path d="M378 218 L314 206 L310 264 L370 276 C378 258 382 236 378 218 Z" fill="#6E7682"/>
  <path d="M378 218 L314 206 L313 216 L375 228 Z" fill="#C9A23F"/>
  <path d="M372 226 L320 215 L317 252 L366 262 C372 250 375 237 372 226 Z" fill="#9AA3B0"/>
  <path d="M370 272 L312 260 L311 266 L368 277 Z" fill="#4A6CC4" opacity="0.8"/>
  <!-- gorget -->
  <path d="M218 172 C230 164 244 160 256 160 C268 160 282 164 294 172 L288 192 C274 182 264 178 256 178 C248 178 238 182 224 192 Z" fill="#3D4148"/>
  <path d="M222 170 C234 163 245 160 256 160 C267 160 278 163 290 170 L288 176 C276 169 266 166 256 166 C246 166 236 169 224 176 Z" fill="#4A6CC4" opacity="0.7"/>
  <!-- belt -->
  <path d="M154 338 C214 350 298 350 358 338 L358 356 C298 368 214 368 154 356 Z" fill="#3D4148"/>
  <rect x="240" y="340" width="32" height="20" rx="3" fill="#C9A23F"/>
</svg>
