<svg xmlns="http://www.w3.org/2000/svg" viewBox="0 0 512 512" width="512" height="512">
  <!-- Fighter T5 east: polished plate profile, blue rim-light, gold pauldron, sash, faulds. -->
  <path d="M164 236 C172 192 204 166 256 166 C302 166 334 188 344 230 L342 386 C340 414 312 428 254 428 C200 428 166 414 168 386 Z" fill="#6E7682"/>
  <path d="M182 236 C192 202 220 182 258 182 C286 182 310 194 324 214 C300 196 218 198 196 226 C190 230 185 234 182 236 Z" fill="#9AA3B0"/>
  <path d="M164 236 C172 192 204 166 256 166 C302 166 334 188 344 230 L342 240 C330 198 298 176 254 176 C208 176 178 198 166 244 Z" fill="#4A6CC4" opacity="0.8"/>
  <path d="M172 344 C220 356 294 356 338 346 L337 364 C294 374 220 374 173 362 Z" fill="#3D4148"/>
  <path d="M170 378 C220 390 294 390 340 380 L339 396 C294 406 220 406 171 396 Z" fill="#3D4148"/>
  <path d="M172 410 C220 422 294 422 338 412 L336 426 C296 436 216 436 174 426 Z" fill="#3D4148"/>
  <!-- sash diagonal -->
  <path d="M196 210 L330 310 L324 336 L188 234 C190 226 193 217 196 210 Z" fill="#2E4E9E"/>
  <!-- gold-edged pauldron, blue rim -->
  <path d="M182 210 L250 202 L254 266 L188 274 C180 254 178 228 182 210 Z" fill="#6E7682"/>
  <path d="M182 210 L250 202 L251 213 L185 221 Z" fill="#C9A23F"/>
  <path d="M188 218 L244 211 L247 256 L193 263 C187 248 185 230 188 218 Z" fill="#9AA3B0"/>
  <path d="M188 270 L254 262 L254 268 L189 276 Z" fill="#4A6CC4" opacity="0.8"/>
  <!-- gorget bunch -->
  <path d="M198 216 C194 196 202 180 220 174 C232 170 244 172 252 180 L248 194 C240 188 230 187 222 191 C212 196 206 205 208 216 Z" fill="#3D4148"/>
  <path d="M172 334 C220 346 292 346 336 336 L336 352 C292 362 220 362 172 350 Z" fill="#3D4148"/>
  <rect x="288" y="336" width="26" height="18" rx="3" fill="#C9A23F"/>
</svg>
