<svg xmlns="http://www.w3.org/2000/svg" viewBox="0 0 512 512" width="512" height="512">
  <!-- Barbarian T4 helm, north: dome from behind, thick hooked horns, red band, neck guard. -->
  <path d="M182 244 C150 244 120 234 100 214 C84 198 76 178 78 158 C80 138 90 122 106 112 C108 130 104 148 96 162 C110 176 130 186 152 190 C166 204 176 222 182 244 Z" fill="#6B6258"/>
  <path d="M104 116 C90 126 82 140 80 156 C92 148 100 136 104 122 Z" fill="#E8E0CC"/>
  <path d="M330 244 C362 244 392 234 412 214 C428 198 436 178 434 158 C432 138 422 122 406 112 C404 130 408 148 416 162 C402 176 382 186 360 190 C346 204 336 222 330 244 Z" fill="#6B6258"/>
  <path d="M408 116 C422 126 430 140 432 156 C420 148 412 136 408 122 Z" fill="#E8E0CC"/>
  <path d="M166 254 C162 192 204 150 256 150 C308 150 350 192 346 254 L342 290 C318 304 194 304 170 290 Z" fill="#2E3138"/>
  <path d="M178 246 C178 198 212 164 256 164 C282 164 305 176 320 198 C296 183 222 185 198 212 C187 222 180 233 178 246 Z" fill="#454A54"/>
  <path d="M168 254 C196 242 316 242 344 254 L344 274 C316 262 196 262 168 274 Z" fill="#A33B2A"/>
  <path d="M249 152 L263 152 L261 296 L251 296 Z" fill="#6B6258"/>
  <circle cx="256" cy="262" r="4" fill="#454A54"/>
</svg>
