<svg xmlns="http://www.w3.org/2000/svg" viewBox="0 0 512 512" width="512" height="512">
  <!-- Barbarian T5 helm, north: huge horns from behind, gold spine crest, neck guard. -->
  <path d="M186 256 C146 254 110 238 84 210 C62 186 50 154 52 120 C53 102 58 88 66 76 C82 92 92 114 94 138 C104 168 126 192 156 204 C168 220 178 238 186 256 Z" fill="#3E3933"/>
  <path d="M64 80 C58 92 54 106 54 122 C62 112 68 98 70 84 C68 82 66 81 64 80 Z" fill="#FFC09A"/>
  <path d="M88 142 C86 118 78 98 64 82 C74 100 80 122 80 144 C84 160 92 176 104 188 C96 174 90 158 88 142 Z" fill="#2A2622"/>
  <path d="M326 256 C366 254 402 238 428 210 C450 186 462 154 460 120 C459 102 454 88 446 76 C430 92 420 114 418 138 C408 168 386 192 356 204 C344 220 334 238 326 256 Z" fill="#3E3933"/>
  <path d="M448 80 C454 92 458 106 458 122 C450 112 444 98 442 84 C444 82 446 81 448 80 Z" fill="#FFC09A"/>
  <path d="M424 142 C426 118 434 98 448 82 C438 100 432 122 432 144 C428 160 420 176 408 188 C416 174 422 158 424 142 Z" fill="#2A2622"/>
  <!-- dome + neck guard -->
  <path d="M164 256 C160 190 204 146 256 146 C308 146 352 190 348 256 C352 300 338 340 310 360 L202 360 C174 340 160 300 164 256 Z" fill="#26292E"/>
  <path d="M176 248 C176 198 212 160 256 160 C283 160 307 173 322 196 C298 180 222 182 197 210 C186 221 178 233 176 248 Z" fill="#3D424C"/>
  <path d="M180 296 C218 308 294 308 332 296 L330 310 C294 320 218 320 182 310 Z" fill="#3D424C"/>
  <!-- gold spine crest + band -->
  <path d="M246 148 L266 148 L262 302 L250 302 Z" fill="#C9A23F"/>
  <path d="M246 148 L256 148 L253 302 L250 302 Z" fill="#8E6E24"/>
  <path d="M166 254 C196 242 316 242 346 254 L346 276 C316 262 196 262 166 276 Z" fill="#C9A23F"/>
</svg>
