<svg xmlns="http://www.w3.org/2000/svg" viewBox="0 0 512 512" width="512" height="512">
  <!-- Rogue T2 north: fitted leathers back, X harness, sheathed knives, hood. -->
  <path d="M148 240 C158 196 198 170 256 170 C314 170 354 196 364 240 L360 400 C358 436 326 458 256 458 C186 458 154 436 152 400 Z" fill="#3A3A42"/>
  <path d="M176 230 L330 384 L316 398 L162 244 C166 238 170 234 176 230 Z" fill="#26262C"/>
  <path d="M336 230 L182 384 L196 398 L350 244 C346 238 342 234 336 230 Z" fill="#26262C"/>
  <!-- sheathed knives crossed on the back -->
  <path d="M188 300 L300 388 L292 398 L180 310 Z" fill="#56565E"/>
  <path d="M324 300 L212 388 L220 398 L332 310 Z" fill="#56565E"/>
  <path d="M222 174 C232 166 244 164 256 164 C268 164 280 166 290 174 C296 198 290 226 274 242 C266 250 262 252 256 252 C250 252 246 250 238 242 C222 226 216 198 222 174 Z" fill="#26262C"/>
  <path d="M230 180 C238 174 247 172 256 172 C265 172 274 174 282 180 C286 200 282 222 272 234 C266 240 261 242 256 242 C251 242 246 240 240 234 C230 222 226 200 230 180 Z" fill="#3A3A42"/>
  <path d="M154 384 C214 396 298 396 358 384 L358 402 C298 414 214 414 154 402 Z" fill="#26262C"/>
</svg>
