<svg xmlns="http://www.w3.org/2000/svg" viewBox="0 0 512 512" width="512" height="512">
  <!-- Rogue T5 hood, south: gloaming cowl - near-black, shadow wisps off the points, masked, glowing red eyes. -->
  <!-- shadow wisps off the cowl peak -->
  <path d="M236 142 C228 122 226 100 234 84 C242 96 244 116 240 134 Z" fill="#16161C" opacity="0.7"/>
  <path d="M276 142 C284 122 286 100 278 84 C270 96 268 116 272 134 Z" fill="#16161C" opacity="0.7"/>
  <path d="M150 260 C144 186 198 138 256 138 C314 138 368 186 362 260 L356 280 C328 260 184 260 156 280 Z" fill="#16161C"/>
  <path d="M164 250 C166 200 204 160 256 160 C286 160 312 176 328 200 C302 180 216 182 190 214 C178 228 166 242 164 250 Z" fill="#26262C"/>
  <!-- overhang brow shadow -->
  <path d="M174 256 C202 242 310 242 338 256 L334 286 C308 268 204 268 178 286 Z" fill="#0E0E12"/>
  <path d="M186 272 C212 262 300 262 326 272 L324 282 C300 274 212 274 188 282 Z" fill="#8E2E3E" opacity="0.6"/>
  <!-- deep cheek falls + wisps -->
  <path d="M156 276 C150 308 156 342 172 360 C166 348 162 330 162 314 C156 330 154 348 158 364 C150 348 148 312 156 276 Z" fill="#16161C"/>
  <path d="M356 276 C362 308 356 342 340 360 C346 348 350 330 350 314 C356 330 358 348 354 364 C362 348 364 312 356 276 Z" fill="#16161C"/>
  <!-- glowing red eyes in the shadow -->
  <ellipse cx="230" cy="298" rx="8" ry="5" fill="#C24A5C"/>
  <ellipse cx="282" cy="298" rx="8" ry="5" fill="#C24A5C"/>
  <circle cx="230" cy="298" r="3" fill="#F2A0AE"/>
  <circle cx="282" cy="298" r="3" fill="#F2A0AE"/>
  <!-- half-mask -->
  <path d="M204 314 C224 306 288 306 308 314 C310 334 304 352 290 360 L222 360 C208 352 202 334 204 314 Z" fill="#16161C"/>
</svg>
