<svg xmlns="http://www.w3.org/2000/svg" viewBox="0 0 512 512" width="512" height="512">
  <!-- Warlock T1 south: dark violet robe, one odd ornament (a green-stoned pendant). -->
  <path d="M150 240 C160 196 198 172 256 172 C314 172 352 196 362 240 L356 420 C354 436 322 446 256 446 C190 446 158 436 156 420 Z" fill="#4A2E6E"/>
  <path d="M150 240 C160 200 196 178 256 178 L256 446 C190 446 158 436 156 420 Z" fill="#3A2356"/>
  <path d="M256 178 C318 178 354 200 362 240 L356 420 C354 434 326 444 256 444 Z" fill="#4A2E6E"/>
  <!-- robe front seam -->
  <path d="M252 184 L260 184 L258 440 L254 440 Z" fill="#2C1A42"/>
  <!-- collar -->
  <path d="M210 196 C228 184 242 180 256 180 C270 180 284 184 302 196 L294 214 C280 202 268 198 256 198 C244 198 232 202 218 214 Z" fill="#5E3C84"/>
  <!-- odd ornament: small pendant with a green stone -->
  <path d="M254 214 L258 214 L257 246 L255 246 Z" fill="#7A6A90"/>
  <circle cx="256" cy="252" r="9" fill="#8EBE4A"/>
  <circle cx="256" cy="252" r="4" fill="#B6E86A"/>
</svg>
