<svg xmlns="http://www.w3.org/2000/svg" viewBox="0 0 512 512" width="512" height="512">
  <!-- Warlock HelmT2 north: plain hood dome. -->
  <path d="M150 360 C142 270 152 190 192 160 C216 142 240 136 256 136 C272 136 296 142 320 160 C360 190 370 270 362 360 Z" fill="#4A2E6E"/>
  <path d="M150 360 C144 290 150 220 178 184 C170 240 168 300 174 360 Z" fill="#3A2356"/>
  <path d="M362 360 C368 290 362 220 334 184 C342 240 344 300 338 360 Z" fill="#3A2356"/>
  <path d="M254 150 L258 150 L260 358 L252 358 Z" fill="#3A2356"/>
</svg>
