<svg xmlns="http://www.w3.org/2000/svg" viewBox="0 0 512 512" width="512" height="512">
  <!-- Ranger T1 south: worn green leathers, short cloak over one shoulder, belt. -->
  <path d="M148 240 C158 196 198 170 256 170 C314 170 354 196 364 240 L360 400 C358 436 326 458 256 458 C186 458 154 436 152 400 Z" fill="#3E5A34"/>
  <path d="M162 244 C172 206 208 184 256 184 C292 184 320 196 338 218 C310 198 212 200 184 234 C175 242 166 244 162 244 Z" fill="#506E44" opacity="0.6"/>
  <!-- leather jerkin panel -->
  <path d="M190 200 C212 188 232 182 256 182 C280 182 300 188 322 200 L318 420 C300 432 280 438 256 438 C232 438 212 432 194 420 Z" fill="#5C4630"/>
  <path d="M200 208 C218 198 238 192 256 192 C274 192 294 198 312 208 L310 280 L202 280 Z" fill="#6E5638" opacity="0.6"/>
  <path d="M251 200 L261 200 L259 434 L253 434 Z" fill="#46342272"/>
  <!-- short cloak over the left shoulder -->
  <path d="M146 232 C152 204 174 186 206 184 C222 184 234 188 242 196 L236 214 C228 206 216 202 204 204 L196 320 C180 326 164 322 152 312 C146 290 144 262 146 232 Z" fill="#46583A"/>
  <path d="M154 240 C160 216 178 200 202 198 L206 208 C188 212 174 224 170 244 L166 300 C160 290 156 268 154 240 Z" fill="#5A7048" opacity="0.5"/>
  <!-- belt -->
  <path d="M154 384 C214 396 298 396 358 384 L358 402 C298 414 214 414 154 402 Z" fill="#5C4630"/>
  <rect x="242" y="386" width="28" height="18" rx="3" fill="#8A6E48"/>
</svg>
