<svg xmlns="http://www.w3.org/2000/svg" viewBox="0 0 512 512" width="512" height="512">
  <!-- Druid T4 hat, south: wolf-pelt headdress - wolf's upper jaw over the brow, ears up. -->
  <!-- wolf ears -->
  <path d="M192 168 C184 144 186 120 200 102 C210 110 216 124 216 140 C208 148 198 158 192 168 Z" fill="#5C4E38"/>
  <path d="M320 168 C328 144 326 120 312 102 C302 110 296 124 296 140 C304 148 314 158 320 168 Z" fill="#5C4E38"/>
  <path d="M196 158 C192 142 194 126 202 114 C208 120 211 130 210 142 C205 147 200 152 196 158 Z" fill="#7A6A50"/>
  <path d="M316 158 C320 142 318 126 310 114 C304 120 301 130 302 142 C307 147 312 152 316 158 Z" fill="#7A6A50"/>
  <!-- pelt dome -->
  <path d="M154 252 C150 190 200 146 258 146 C316 146 362 190 358 252 L354 266 C326 250 186 250 158 266 Z" fill="#5C4E38"/>
  <path d="M168 242 C170 198 206 164 256 164 C286 164 312 178 328 202 C302 182 216 184 190 214 C178 226 170 232 168 242 Z" fill="#6B5C44"/>
  <!-- wolf muzzle over the brow: upper jaw with fangs -->
  <path d="M212 234 C224 222 240 216 256 216 C272 216 288 222 300 234 L296 262 C284 252 270 248 256 248 C242 248 228 252 216 262 Z" fill="#7A6A50"/>
  <path d="M222 252 L228 268 L236 254 Z" fill="#D8CCB4"/>
  <path d="M286 252 L280 268 L272 254 Z" fill="#D8CCB4"/>
  <ellipse cx="256" cy="226" rx="10" ry="7" fill="#3A2E20"/>
  <!-- pelt edge band -->
  <path d="M156 252 L172 240 L182 254 L198 242 L208 256 L224 244 L234 258 L256 246 L278 258 L288 244 L304 256 L314 242 L330 254 L340 240 L356 252 L354 270 C326 254 186 254 158 270 Z" fill="#6B5C44"/>
</svg>
