<svg xmlns="http://www.w3.org/2000/svg" viewBox="0 0 512 512" width="512" height="512">
  <!-- Druid T5 north: wildheart back - deep bark-moss robe, fur mantle, sap vein down the spine. -->
  <path d="M148 240 C158 196 198 170 256 170 C314 170 354 196 364 240 L360 400 C358 436 326 458 256 458 C186 458 154 436 152 400 Z" fill="#46522E"/>
  <path d="M196 200 L194 452 M226 188 L225 456 M286 188 L287 456 M316 200 L318 452" stroke="#33401F" stroke-width="5" fill="none"/>
  <!-- sap vein down the spine -->
  <path d="M256 250 L256 440" stroke="#F2C46A" stroke-width="4" fill="none" opacity="0.85"/>
  <path d="M256 250 L256 440" stroke="#FFE6A8" stroke-width="1.5" fill="none"/>
  <!-- fur mantle -->
  <path d="M138 250 C146 208 194 186 256 186 C318 186 366 208 374 250 L370 306 L352 290 L348 318 L328 300 L320 324 L296 306 L286 298 C270 288 242 288 226 298 L216 306 L192 324 L184 300 L164 318 L160 290 L142 306 Z" fill="#9C8E6E"/>
  <path d="M150 252 C158 220 200 198 256 198 C312 198 354 220 362 252 L360 288 L342 274 L336 298 L318 284 L310 304 L286 290 L278 284 C266 276 246 276 234 284 L226 290 L204 304 L196 284 L178 298 L172 274 L154 288 Z" fill="#C2B591"/>
  <!-- hood over the mantle -->
  <path d="M224 196 C234 190 245 188 256 188 C267 188 278 190 288 196 C294 214 288 236 274 248 C267 254 261 256 256 256 C251 256 245 254 238 248 C224 236 218 214 224 196 Z" fill="#6E5638"/>
  <path d="M238 246 C244 251 251 253 256 253 C261 253 268 251 274 246 C276 250 274 254 270 256 C264 260 248 260 242 256 C238 254 236 250 238 246 Z" fill="#C2B591"/>
  <path d="M156 384 C216 396 296 396 356 384 L356 402 C296 414 216 414 156 402 Z" fill="#8A6E4A"/>
</svg>
