<svg xmlns="http://www.w3.org/2000/svg" viewBox="0 0 512 512" width="512" height="512">
  <!-- Druid T2 north: moss robe back, fur shoulder trim, hanging hood. -->
  <path d="M148 240 C158 196 198 170 256 170 C314 170 354 196 364 240 L360 400 C358 436 326 458 256 458 C186 458 154 436 152 400 Z" fill="#5E6B43"/>
  <path d="M196 200 L194 452 M226 188 L225 456 M286 188 L287 456 M316 200 L318 452" stroke="#4A5634" stroke-width="5" fill="none"/>
  <path d="M150 240 C156 214 184 196 218 192 C234 190 248 194 256 202 C242 198 226 200 214 208 L222 222 L206 218 L212 236 L196 230 L200 248 L184 240 L186 256 L168 246 L170 262 L154 252 Z" fill="#CBBE9E"/>
  <path d="M362 240 C356 214 328 196 294 192 C278 190 264 194 256 202 C270 198 286 200 298 208 L290 222 L306 218 L300 236 L316 230 L312 248 L328 240 L326 256 L344 246 L342 262 L358 252 Z" fill="#CBBE9E"/>
  <path d="M222 174 C232 166 244 164 256 164 C268 164 280 166 290 174 C296 196 290 222 276 238 C268 246 262 248 256 248 C250 248 244 246 236 238 C222 222 216 196 222 174 Z" fill="#6E5638"/>
  <path d="M230 180 C238 174 247 172 256 172 C265 172 274 174 282 180 C286 196 282 214 272 226 C266 232 261 234 256 234 C251 234 246 232 240 226 C230 214 226 196 230 180 Z" fill="#5E6B43"/>
  <path d="M156 384 C216 396 296 396 356 384 L356 402 C296 414 216 414 156 402 Z" fill="#8A6E4A"/>
</svg>
