<svg xmlns="http://www.w3.org/2000/svg" viewBox="0 0 512 512" width="512" height="512">
  <!-- Sorcerer T4 north: crystallized half back, dragon-scale, hood. -->
  <path d="M148 240 C158 196 198 170 256 170 C314 170 354 196 364 240 L360 402 C358 442 326 464 256 464 C186 464 154 442 152 402 Z" fill="#8E2A2A"/>
  <path d="M152 240 C160 200 196 176 256 176 L256 464 C186 464 154 442 152 402 Z" fill="#6E1E1E"/>
  <path d="M180 220 L210 260 L182 300 L214 340 L186 380 L216 420 M220 210 L246 250 L222 290 L248 330 L224 370" stroke="#A83838" stroke-width="3" fill="none"/>
  <path d="M196 240 L208 252 M198 320 L210 332 M200 400 L212 412" stroke="#F2C84A" stroke-width="3" fill="none"/>
  <path d="M286 230 C296 224 306 226 310 234 C302 240 292 240 286 234 Z M300 254 C310 248 320 250 324 258 C316 264 306 264 300 258 Z M286 278 C296 272 306 274 310 282 C302 288 292 288 286 282 Z" fill="#C9A23F"/>
  <path d="M222 196 C232 190 244 188 256 188 C268 188 280 190 290 196 C296 216 290 240 276 254 C268 262 262 264 256 264 C250 264 244 262 236 254 C222 240 216 216 222 196 Z" fill="#6E1E1E"/>
  <path d="M230 200 C238 196 247 194 256 194 C265 194 274 196 282 200 C286 214 282 230 272 242 C266 248 261 250 256 250 C251 250 246 248 240 242 C230 230 226 214 230 200 Z" fill="#8E2A2A"/>
  <path d="M166 388 C220 400 292 400 346 388 L346 404 C292 416 220 416 166 404 Z" fill="#5C3D24"/>
</svg>
