<svg xmlns="http://www.w3.org/2000/svg" viewBox="0 0 512 512" width="512" height="512">
  <!-- Sorcerer T1 south: simple crimson robe with oddly scorched hems. -->
  <path d="M148 240 C158 196 198 170 256 170 C314 170 354 196 364 240 L360 402 C358 442 326 464 256 464 C186 464 154 442 152 402 Z" fill="#8E2A2A"/>
  <path d="M162 244 C172 206 208 184 256 184 C292 184 320 196 338 218 C310 198 212 200 184 234 C175 242 166 244 162 244 Z" fill="#A83838" opacity="0.6"/>
  <path d="M251 200 L261 200 L259 458 L253 458 Z" fill="#6E1E1E"/>
  <!-- collar -->
  <path d="M220 198 C232 190 244 188 256 188 C268 188 280 190 292 198 L286 216 C274 208 264 206 256 206 C248 206 238 208 226 216 Z" fill="#6E1E1E"/>
  <!-- scorched hem -->
  <path d="M152 440 C200 452 312 452 360 440 C340 458 300 466 256 466 C212 466 172 458 152 440 Z" fill="#3A1414"/>
  <path d="M170 448 L162 466 M210 452 L204 470 M256 454 L256 472 M302 452 L308 470 M342 448 L350 466" stroke="#2A0E0E" stroke-width="5" fill="none"/>
  <!-- rope belt -->
  <path d="M166 388 C220 400 292 400 346 388 L346 404 C292 416 220 416 166 404 Z" fill="#5C3D24"/>
</svg>
