<svg xmlns="http://www.w3.org/2000/svg" viewBox="0 0 512 512" width="512" height="512">
  <!-- Wizard T4 hat, south: tall archmage hat, silver band + star, wide brim. -->
  <path d="M190 240 C194 186 210 130 244 92 C254 80 268 80 276 92 C300 130 312 186 314 240 Z" fill="#1E2440"/>
  <path d="M202 230 C208 184 222 140 248 104 C234 144 222 188 220 230 Z" fill="#3D4775"/>
  <path d="M286 130 C296 162 303 200 306 236 C298 200 290 164 280 134 Z" fill="#16182A"/>
  <!-- wide brim, low coverage -->
  <path d="M160 244 C190 228 322 228 352 244 L350 270 C320 254 192 254 162 270 Z" fill="#16182A"/>
  <path d="M162 246 C194 232 318 232 350 246 L349 258 C318 244 194 244 163 258 Z" fill="#2B3357"/>
  <!-- silver band + star -->
  <path d="M192 236 C216 228 296 228 312 236 L310 250 C294 240 216 240 194 250 Z" fill="#97A1B5"/>
  <path d="M256 222 L260 232 L271 232 L262 239 L266 250 L256 243 L246 250 L250 239 L241 232 L252 232 Z" fill="#C7CEDB"/>
</svg>
