<svg xmlns="http://www.w3.org/2000/svg" viewBox="0 0 512 512" width="512" height="512">
  <!-- Cleric T1 south: plain white habit, rope belt, simple cross-stitch hem. -->
  <path d="M148 240 C158 196 198 170 256 170 C314 170 354 196 364 240 L360 400 C358 436 326 458 256 458 C186 458 154 436 152 400 Z" fill="#E8E4D8"/>
  <path d="M162 244 C172 206 208 184 256 184 C292 184 320 196 338 218 C310 198 212 200 184 234 C175 242 166 244 162 244 Z" fill="#F5F2E8" opacity="0.7"/>
  <path d="M251 196 L261 196 L259 454 L253 454 Z" fill="#C9C2B0"/>
  <!-- hood collar -->
  <path d="M218 176 C230 166 244 162 256 162 C268 162 282 166 294 176 L286 198 C274 186 264 182 256 182 C248 182 238 186 226 198 Z" fill="#C9C2B0"/>
  <!-- rope belt -->
  <path d="M156 384 C216 396 296 396 356 384 L356 402 C296 414 216 414 156 402 Z" fill="#A9744A"/>
  <path d="M250 392 L244 430 L254 422 L260 434 L266 420 L274 428 L268 392 Z" fill="#A9744A"/>
  <path d="M170 388 L176 404 M196 392 L200 408 M312 392 L316 406 M338 388 L344 402" stroke="#8A5A33" stroke-width="6" fill="none"/>
</svg>
