<svg xmlns="http://www.w3.org/2000/svg" viewBox="0 0 512 512" width="512" height="512">
  <!-- Rogue T1 south: patched dark jerkin, plain belt. -->
  <path d="M148 240 C158 196 198 170 256 170 C314 170 354 196 364 240 L360 400 C358 436 326 458 256 458 C186 458 154 436 152 400 Z" fill="#3A3A42"/>
  <path d="M162 244 C172 206 208 184 256 184 C292 184 320 196 338 218 C310 198 212 200 184 234 C175 242 166 244 162 244 Z" fill="#46464E" opacity="0.6"/>
  <!-- jerkin lacing -->
  <path d="M251 198 L261 198 L259 452 L253 452 Z" fill="#26262C"/>
  <path d="M240 224 L272 232 M240 264 L272 272 M240 304 L272 312 M240 344 L272 352" stroke="#26262C" stroke-width="4" fill="none"/>
  <!-- patches -->
  <rect x="198" y="300" width="28" height="24" rx="4" fill="#26262C"/>
  <path d="M200 302 L224 322 M224 302 L200 322" stroke="#3A3A42" stroke-width="3" fill="none"/>
  <rect x="294" y="364" width="24" height="20" rx="4" fill="#26262C"/>
  <!-- collar -->
  <path d="M218 176 C230 166 244 162 256 162 C268 162 282 166 294 176 L286 198 C274 186 264 182 256 182 C248 182 238 186 226 198 Z" fill="#26262C"/>
  <!-- belt -->
  <path d="M154 384 C214 396 298 396 358 384 L358 402 C298 414 214 414 154 402 Z" fill="#26262C"/>
  <rect x="242" y="386" width="28" height="18" rx="3" fill="#56565E"/>
</svg>
