<svg xmlns="http://www.w3.org/2000/svg" viewBox="0 0 512 512" width="512" height="512">
  <!-- Bard T4 hat, north: cavalier hat from behind, plume trailing, cloth fall over the skull. -->
  <path d="M222 140 C210 96 184 62 148 46 C144 60 148 78 160 94 C144 88 128 90 116 100 C128 122 150 138 176 144 C194 148 210 146 222 140 Z" fill="#E8E0CC"/>
  <path d="M214 134 C204 100 184 72 158 56 C166 78 180 98 198 112 C186 110 174 112 164 118 C178 130 196 136 214 134 Z" fill="#C9C2B0"/>
  <path d="M172 250 C198 238 314 238 340 250 C344 292 332 330 306 352 L206 352 C180 330 168 292 172 250 Z" fill="#5E2548"/>
  <path d="M182 256 C204 246 308 246 330 256 C332 292 322 324 300 344 L212 344 C190 324 180 292 182 256 Z" fill="#8E3A6E" opacity="0.45"/>
  <path d="M156 248 C148 196 198 152 256 150 C316 148 364 192 356 248 L352 262 C324 246 186 246 158 262 Z" fill="#5E2548"/>
  <path d="M172 240 C174 200 210 166 256 166 C286 166 312 180 328 204 C302 184 216 186 190 216 C178 228 172 234 172 240 Z" fill="#8E3A6E"/>
  <path d="M128 252 C166 236 346 236 384 252 C390 262 386 272 376 276 C336 260 178 260 136 276 C126 272 122 262 128 252 Z" fill="#5E2548"/>
  <path d="M186 240 C212 232 300 232 326 240 L324 254 C302 246 212 246 188 254 Z" fill="#C9A23F"/>
</svg>
