<svg xmlns="http://www.w3.org/2000/svg" viewBox="0 0 512 512" width="512" height="512">
  <!-- Druid T2 east: moss robe profile, fur shoulder trim, wood toggle, hood bunch. -->
  <path d="M164 236 C172 192 204 166 256 166 C302 166 334 188 344 230 L342 386 C340 414 312 428 254 428 C200 428 166 414 168 386 Z" fill="#5E6B43"/>
  <path d="M182 240 C192 206 220 186 258 186 C290 186 314 198 328 220 C304 200 216 202 194 232 C188 236 184 238 182 240 Z" fill="#74824E" opacity="0.45"/>
  <path d="M212 178 L210 424 M252 168 L252 428 M292 178 L294 424" stroke="#4A5634" stroke-width="5" fill="none"/>
  <path d="M236 192 L300 200 L298 360 L240 360 Z" fill="#6E5638"/>
  <path d="M252 206 L250 350 M276 210 L272 350" stroke="#4E3C26" stroke-width="3" fill="none"/>
  <ellipse cx="270" cy="262" rx="12" ry="8" fill="#8A6E4A"/>
  <path d="M170 238 C178 214 204 198 240 196 C256 196 270 200 280 210 C266 204 250 204 238 210 L246 224 L228 220 L234 238 L216 232 L220 250 L202 242 L204 258 L186 248 L188 264 L172 254 Z" fill="#CBBE9E"/>
  <path d="M176 238 C184 218 208 204 238 202 C250 202 262 204 270 210 C258 206 244 206 232 210 C210 216 192 228 186 244 Z" fill="#DCD2B6"/>
  <path d="M198 222 C194 202 202 186 220 180 C232 176 244 178 252 186 L248 200 C240 194 230 193 222 197 C212 202 206 211 208 222 Z" fill="#6E5638"/>
  <path d="M174 376 C222 388 294 388 336 378 L336 396 C294 406 222 406 174 394 Z" fill="#8A6E4A"/>
</svg>
