<svg xmlns="http://www.w3.org/2000/svg" viewBox="0 0 512 512" width="512" height="512">
  <!-- Rogue T4 east: shadow-silk profile, oxblood cloak lining, silver buckle. -->
  <path d="M160 230 C162 200 188 182 224 180 C240 178 252 184 258 194 L252 212 C242 202 226 198 214 202 L208 404 C192 412 176 408 166 396 C156 340 154 284 160 230 Z" fill="#1E1E24"/>
  <path d="M210 202 L214 404 C206 408 200 404 196 398 L202 210 C204 204 206 202 210 202 Z" fill="#8E2E3E"/>
  <path d="M188 232 C198 192 222 168 264 168 C306 168 336 190 344 230 L342 386 C340 414 314 428 260 428 C216 428 192 416 190 388 Z" fill="#2E2E36"/>
  <path d="M204 236 C212 204 234 186 266 186 C292 186 314 198 326 218 C304 200 232 202 212 230 C208 232 206 234 204 236 Z" fill="#3E3E48" opacity="0.6"/>
  <!-- oxblood V flash at the chest -->
  <path d="M214 196 L240 280 L256 200 L248 200 L238 248 L222 196 Z" fill="#8E2E3E"/>
  <path d="M218 240 L312 372 L300 382 L208 256 Z" fill="#1E1E24"/>
  <circle cx="232" cy="200" r="9" fill="#8A8E96"/>
  <path d="M204 216 C200 196 208 180 226 174 C238 170 250 172 258 180 L254 194 C246 188 236 187 228 191 C218 196 212 205 214 216 Z" fill="#1E1E24"/>
  <path d="M192 376 C236 388 300 388 338 378 L338 396 C300 406 236 406 192 394 Z" fill="#1E1E24"/>
  <rect x="286" y="378" width="26" height="16" rx="3" fill="#8A8E96"/>
</svg>
