<svg xmlns="http://www.w3.org/2000/svg" viewBox="0 0 512 512" width="512" height="512">
  <!-- Druid T3 south: fur mantle with bone fetishes and amber beads (silhouette beat). -->
  <!-- pelt body -->
  <path d="M178 250 C186 228 212 216 256 214 C300 216 326 228 334 250 L338 404 C320 418 292 426 256 426 C220 426 192 418 174 404 Z" fill="#7A6A50"/>
  <path d="M186 256 C194 238 220 228 256 226 C292 228 318 238 326 256 L328 308 L184 308 Z" fill="#968360" opacity="0.5"/>
  <!-- big fur mantle, jagged, beyond the shoulders -->
  <path d="M146 254 C142 220 170 196 212 190 L228 200 L244 188 L256 200 L270 188 L284 198 L300 190 C342 196 370 220 366 254 L366 298 L350 284 L352 310 L334 296 L338 320 L320 306 L308 314 L292 300 L292 286 C268 278 244 278 220 286 L220 300 L204 314 L192 306 L174 320 L178 296 L160 310 L162 284 L146 298 Z" fill="#5C4E38" fill-rule="evenodd"/>
  <path d="M154 252 C152 226 174 206 208 200 L226 208 L244 198 L256 208 L270 198 L284 206 L300 202 C330 207 350 222 352 246 L344 250 C338 232 322 220 302 216 L286 222 L270 214 L256 222 L242 214 L226 220 C196 218 174 230 168 250 Z" fill="#7A6A50"/>
  <!-- bone fetishes hanging from the mantle -->
  <path d="M204 296 L200 322 L212 318 L208 344 L218 340 Z" fill="#D8CCB4"/>
  <path d="M308 296 L312 322 L300 318 L304 344 L294 340 Z" fill="#D8CCB4"/>
  <!-- amber bead string -->
  <path d="M212 252 C228 268 242 276 256 276 C270 276 284 268 300 252 L304 260 C288 280 272 288 256 288 C240 288 224 280 208 260 Z" fill="#5C3D24"/>
  <circle cx="226" cy="272" r="6" fill="#C9842A"/>
  <circle cx="256" cy="280" r="7" fill="#C9842A"/>
  <circle cx="286" cy="272" r="6" fill="#C9842A"/>
  <!-- fur kilt -->
  <path d="M170 392 C226 404 290 404 344 392 L342 430 L330 420 L324 434 L312 424 L304 436 L292 426 L282 436 L268 426 L256 438 L244 426 L230 436 L220 424 L208 434 L198 422 L186 432 L172 420 Z" fill="#5C4E38"/>
</svg>
