<svg xmlns="http://www.w3.org/2000/svg" viewBox="0 0 512 512" width="512" height="512">
  <!-- Wizard T3 hat, east (facing right): proper profile - projecting brim, wide cone leaning back, nape drape. -->
  <!-- rear drape: covers the back of the skull below the brim -->
  <path d="M160 260 C176 252 210 248 244 250 C248 290 244 324 230 352 L186 352 C164 326 154 294 160 260 Z" fill="#2B3357"/>
  <path d="M172 266 C186 260 208 257 230 258 C232 294 228 322 216 344 L196 344 C178 322 168 296 172 266 Z" fill="#1E2440" opacity="0.45"/>
  <!-- crown dome under the brim -->
  <path d="M156 256 C152 196 200 156 258 156 C314 156 358 192 358 244 L356 264 C326 250 186 250 160 266 Z" fill="#2B3357"/>
  <!-- cone: wide base, leaning back, soft bent tip -->
  <path d="M196 250 C190 204 194 158 212 128 C217 119 226 115 234 118 C270 132 302 184 324 250 Z" fill="#2B3357"/>
  <path d="M204 244 C200 204 204 166 218 138 C210 168 208 206 212 244 Z" fill="#3D4775"/>
  <path d="M288 196 C300 212 310 230 318 248 L302 248 C296 230 288 212 280 196 Z" fill="#1E2440"/>
  <!-- brim: projects past the head front and back -->
  <path d="M138 254 C172 240 344 240 378 254 C382 264 378 272 370 276 C332 262 184 262 146 276 C138 272 134 264 138 254 Z" fill="#1E2440"/>
  <path d="M144 256 C178 244 338 244 372 256 C374 261 372 266 368 269 C332 256 184 256 148 269 C144 266 142 261 144 256 Z" fill="#3D4775"/>
  <!-- silver band at the cone base -->
  <path d="M198 240 C222 232 296 232 320 240 L318 252 C298 244 222 244 200 252 Z" fill="#97A1B5"/>
</svg>
