<svg xmlns="http://www.w3.org/2000/svg" viewBox="0 0 512 512" width="512" height="512">
  <!-- Druid T4 hood, south: fur-trimmed bark hood with modest forked antlers rising from the temples. -->
  <!-- antlers: single-fork, bone -->
  <path d="M188 150 C172 124 164 92 172 64 C182 70 188 84 188 102 C196 86 208 78 222 78 C218 98 208 116 196 128 C192 134 190 142 188 150 Z" fill="#D8CCB4"/>
  <path d="M174 100 C168 84 168 68 176 58 C180 66 182 78 180 88 C178 92 176 96 174 100 Z" fill="#B5A88C"/>
  <path d="M324 150 C340 124 348 92 340 64 C330 70 324 84 324 102 C316 86 304 78 290 78 C294 98 304 116 316 128 C320 134 322 142 324 150 Z" fill="#D8CCB4"/>
  <path d="M338 100 C344 84 344 68 336 58 C332 66 330 78 332 88 C334 92 336 96 338 100 Z" fill="#B5A88C"/>
  <!-- hood -->
  <path d="M150 256 C146 192 196 146 256 146 C316 146 366 192 362 256 L356 274 C328 256 184 256 156 274 Z" fill="#6E5638"/>
  <path d="M164 246 C166 202 202 168 256 168 C286 168 312 182 328 206 C302 186 216 188 190 218 C178 230 166 238 164 246 Z" fill="#856A48"/>
  <path d="M156 270 C150 298 154 328 168 346 L190 338 C180 320 176 298 178 272 Z" fill="#6E5638"/>
  <path d="M356 270 C362 298 358 328 344 346 L322 338 C332 320 336 298 334 272 Z" fill="#6E5638"/>
  <!-- fur trim -->
  <path d="M156 268 L172 258 L176 272 L192 262 L196 276 L212 266 L216 280 L232 270 L236 282 L256 274 L276 282 L280 270 L296 280 L300 266 L316 276 L320 262 L336 272 L340 258 L356 268 C328 252 184 252 156 268 Z" fill="#CBBE9E"/>
  <path d="M160 272 C162 296 166 322 178 340 L190 334 C180 318 176 296 178 274 Z" fill="#CBBE9E"/>
  <path d="M352 272 C350 296 346 322 334 340 L322 334 C332 318 336 296 334 274 Z" fill="#CBBE9E"/>
</svg>
