<svg xmlns="http://www.w3.org/2000/svg" viewBox="0 0 512 512" width="512" height="512">
  <!-- Wizard T3 hat, south: short pointed hat, tip bent right, narrow brim. -->
  <path d="M196 240 C200 196 216 156 250 134 C282 116 312 122 330 140 C310 144 296 156 290 174 C296 196 300 218 300 240 Z" fill="#2B3357"/>
  <path d="M206 232 C212 196 226 164 252 144 C238 168 226 200 222 232 Z" fill="#3D4775"/>
  <path d="M292 172 C298 158 310 148 324 142 C312 142 300 148 292 158 Z" fill="#1E2440"/>
  <!-- brim: wide and low, covers the whole crown -->
  <path d="M162 240 C172 222 200 212 256 212 C312 212 340 222 350 240 L348 268 C318 252 194 252 164 268 Z" fill="#1E2440"/>
  <path d="M166 242 C178 227 204 218 256 218 C308 218 334 227 346 242 L345 256 C316 242 196 242 167 256 Z" fill="#3D4775"/>
  <!-- silver band -->
  <path d="M196 234 C220 226 292 226 304 234 L302 246 C288 238 220 238 198 246 Z" fill="#97A1B5"/>
</svg>
