<svg xmlns="http://www.w3.org/2000/svg" viewBox="0 0 512 512" width="512" height="512">
  <!-- Druid T2 south: moss robe with a light fur shoulder trim and a carved wood toggle. -->
  <path d="M148 240 C158 196 198 170 256 170 C314 170 354 196 364 240 L360 400 C358 436 326 458 256 458 C186 458 154 436 152 400 Z" fill="#5E6B43"/>
  <path d="M162 244 C172 206 208 184 256 184 C292 184 320 196 338 218 C310 198 212 200 184 234 C175 242 166 244 162 244 Z" fill="#74824E" opacity="0.5"/>
  <path d="M196 200 L194 452 M226 188 L225 456 M286 188 L287 456 M316 200 L318 452" stroke="#4A5634" stroke-width="5" fill="none"/>
  <path d="M251 196 L261 196 L259 454 L253 454 Z" fill="#4A5634"/>
  <path d="M232 198 L280 198 L276 360 L236 360 Z" fill="#6E5638"/>
  <path d="M240 210 L246 350 M256 204 L256 356 M272 210 L266 350" stroke="#4E3C26" stroke-width="3" fill="none"/>
  <ellipse cx="256" cy="262" rx="13" ry="8" fill="#8A6E4A"/>
  <ellipse cx="256" cy="262" rx="6" ry="4" fill="#4E3C26"/>
  <path d="M150 240 C156 214 184 196 218 192 C234 190 248 194 256 202 C242 198 226 200 214 208 L222 222 L206 218 L212 236 L196 230 L200 248 L184 240 L186 256 L168 246 L170 262 L154 252 Z" fill="#CBBE9E"/>
  <path d="M362 240 C356 214 328 196 294 192 C278 190 264 194 256 202 C270 198 286 200 298 208 L290 222 L306 218 L300 236 L316 230 L312 248 L328 240 L326 256 L344 246 L342 262 L358 252 Z" fill="#CBBE9E"/>
  <path d="M156 240 C162 218 186 202 216 200 C226 200 236 202 242 208 C232 204 220 204 210 208 C188 214 170 226 164 244 Z" fill="#DCD2B6"/>
  <path d="M356 240 C350 218 326 202 296 200 C286 200 276 202 270 208 C280 204 292 204 302 208 C324 214 342 226 348 244 Z" fill="#DCD2B6"/>
  <path d="M218 176 C230 166 244 162 256 162 C268 162 282 166 294 176 L286 198 C274 186 264 182 256 182 C248 182 238 186 226 198 Z" fill="#6E5638"/>
  <path d="M156 384 C216 396 296 396 356 384 L356 402 C296 414 216 414 156 402 Z" fill="#8A6E4A"/>
</svg>
