<svg xmlns="http://www.w3.org/2000/svg" viewBox="0 0 512 512" width="512" height="512">
  <!-- Wizard T3 hat, south: short pointed hat, tip bent right, narrow brim. -->
  <path d="M196 240 C200 196 216 156 250 134 C282 116 312 122 330 140 C310 144 296 156 290 174 C296 196 300 218 300 240 Z" fill="#2B3357"/>
  <path d="M206 232 C212 196 226 164 252 144 C238 168 226 200 222 232 Z" fill="#3D4775"/>
  <path d="M292 172 C298 158 310 148 324 142 C312 142 300 148 292 158 Z" fill="#1E2440"/>
  <!-- brim -->
  <path d="M178 244 C204 232 308 232 334 244 L332 262 C306 250 206 250 180 262 Z" fill="#1E2440"/>
  <path d="M180 246 C206 235 306 235 332 246 L331 254 C306 243 206 243 181 254 Z" fill="#3D4775"/>
  <!-- silver band -->
  <path d="M196 234 C220 226 292 226 304 234 L302 246 C288 238 220 238 198 246 Z" fill="#97A1B5"/>
</svg>
