<svg xmlns="http://www.w3.org/2000/svg" viewBox="0 0 512 512" width="512" height="512">
  <!-- Monk T5 east: humble gi profile, chi-glowing wrap, bead, sash. -->
  <path d="M164 236 C172 192 204 166 256 166 C302 166 334 188 344 230 L342 386 C340 414 312 428 254 428 C200 428 166 414 168 386 Z" fill="#C9852E"/>
  <path d="M182 240 C192 206 220 186 258 186 C290 186 314 198 328 220 C304 200 216 202 194 232 C188 236 184 238 182 240 Z" fill="#E0A848" opacity="0.45"/>
  <path d="M186 226 C210 212 238 206 262 210 L324 290 L320 358 C302 350 220 350 190 358 Z" fill="#B06A1A"/>
  <path d="M196 234 C218 222 244 216 264 220 L316 292 L314 304 L258 228 C234 224 210 230 198 242 Z" fill="#A05E14"/>
  <path d="M168 318 C176 308 192 308 198 318 L196 380 C190 370 178 370 172 380 Z" fill="#FFE08A" opacity="0.55"/>
  <path d="M170 320 C178 312 190 312 196 320 L194 378 C188 370 178 370 172 378 Z" fill="#E8DCC0"/>
  <path d="M174 332 L192 332 M174 350 L192 350" stroke="#FFD06A" stroke-width="3" fill="none"/>
  <path d="M218 216 C236 234 252 242 270 242 L274 250 C254 250 234 242 214 224 Z" fill="#6E4A2C"/>
  <circle cx="248" cy="236" r="6" fill="#FFE08A"/>
  <path d="M172 374 C220 386 296 386 338 376 L338 400 C296 410 220 410 172 398 Z" fill="#FFD06A" opacity="0.45"/>
  <path d="M174 376 C222 388 294 388 336 378 L336 398 C294 408 222 408 174 396 Z" fill="#A8431A"/>
  <path d="M188 382 C220 392 300 392 332 382" stroke="#FFE08A" stroke-width="3" fill="none"/>
  <path d="M296 384 L288 432 L300 423 L306 436 L313 421 L322 430 L316 384 Z" fill="#A8431A"/>
</svg>
