<svg xmlns="http://www.w3.org/2000/svg" viewBox="0 0 512 512" width="512" height="512">
  <!-- Barbarian T5 east: cuirass profile w/ gold edging, ember crack, dark fur hump, belt + kilt. -->
  <path d="M202 250 C222 232 252 224 284 226 L322 246 L324 378 C322 394 316 404 304 410 L224 410 C210 404 204 394 202 378 Z" fill="#2E3138"/>
  <path d="M210 256 C228 242 254 235 282 237 L314 252 L312 350 L212 350 Z" fill="#454A54"/>
  <path d="M306 244 L322 250 L324 264 L306 256 Z" fill="#C9A23F"/>
  <path d="M204 286 C222 274 244 268 266 269 L298 280 L294 292 C278 282 258 278 240 280 C228 282 216 286 208 296 Z" fill="#C9A23F"/>
  <path d="M204 376 C232 388 296 388 320 378 L319 392 C294 402 230 402 205 392 Z" fill="#C9A23F"/>
  <path d="M232 312 L248 330 L242 334 L256 352 L246 352 L232 334 L238 330 Z" fill="#FF5A2A"/>
  <path d="M236 316 L244 326 L240 328 L234 320 Z" fill="#FFC09A"/>
  <!-- belt + kilt -->
  <path d="M200 394 C238 406 288 406 322 396 L320 448 C318 458 296 464 258 464 C220 464 202 458 200 448 Z" fill="#6B4426"/>
  <path d="M200 388 C238 400 288 400 322 390 L322 406 C288 416 238 416 200 404 Z" fill="#5C3D24"/>
  <rect x="288" y="390" width="26" height="20" rx="4" fill="#C9A23F"/>
  <!-- dark fur hump over the shoulders -->
  <path d="M190 252 C186 218 212 196 252 190 C280 186 304 194 314 208 L310 226 C300 214 284 208 266 210 L276 230 L260 224 L268 248 L250 238 L256 264 L238 252 L242 280 L226 268 L228 296 L212 284 L214 310 L196 298 Z" fill="#4A4A52"/>
  <path d="M198 250 C196 226 216 208 248 202 C268 198 286 202 296 212 L292 222 C282 214 268 210 254 213 C234 217 216 230 212 250 Z" fill="#6E6E78"/>
  <path d="M193 274 L205 288 L203 264 Z" fill="#3A3A40"/>
  <path d="M210 290 L222 304 L220 280 Z" fill="#3A3A40"/>
  <path d="M286 250 C296 256 304 264 310 274 L302 282 C297 272 290 265 280 260 Z" fill="#FF5A2A" opacity="0.55"/>
</svg>
