<svg xmlns="http://www.w3.org/2000/svg" viewBox="0 0 512 512" width="512" height="512">
  <!-- Bard T2 hat, north: beret from behind, full skull coverage. -->
  <path d="M252 136 C268 112 290 100 314 102 L316 114 C296 114 280 124 270 142 Z" fill="#E8E0CC"/>
  <path d="M154 250 C146 194 196 150 256 148 C318 146 366 190 358 250 C360 296 344 336 314 354 L198 354 C168 336 152 296 154 250 Z" fill="#8E3A6E"/>
  <path d="M170 240 C172 198 208 164 256 164 C286 164 312 178 328 202 C302 182 216 184 190 214 C178 226 170 232 170 240 Z" fill="#B5538F"/>
  <path d="M170 314 C198 300 314 300 342 314 L336 334 C310 320 202 320 176 334 Z" fill="#5E2548"/>
</svg>
