<svg xmlns="http://www.w3.org/2000/svg" viewBox="0 0 512 512" width="512" height="512">
  <!-- Druid T3 hat, north: hood from behind, antler stubs, full skull coverage. -->
  <path d="M188 200 C176 184 170 164 172 144 C184 150 192 162 196 176 C202 168 210 164 220 164 C218 180 210 194 198 202 Z" fill="#B5A88C"/>
  <path d="M324 200 C336 184 342 164 340 144 C328 150 320 162 316 176 C310 168 302 164 292 164 C294 180 302 194 314 202 Z" fill="#B5A88C"/>
  <path d="M154 252 C150 192 200 148 258 148 C316 148 362 192 358 252 C360 298 344 338 314 356 L198 356 C168 338 152 298 154 252 Z" fill="#6B4426"/>
  <path d="M168 244 C170 200 206 166 256 166 C286 166 312 180 328 204 C302 184 216 186 190 216 C178 228 170 234 168 244 Z" fill="#8A5A33"/>
  <path d="M252 150 L260 150 L258 348 L254 348 Z" fill="#5C3D24"/>
  <path d="M172 318 L186 306 L196 320 L210 308 L220 322 L236 310 L246 324 L258 310 L270 324 L286 310 L296 322 L310 308 L320 320 L334 306 L344 318 L338 338 C312 324 204 324 178 338 Z" fill="#7A6A50"/>
</svg>
