<svg xmlns="http://www.w3.org/2000/svg" viewBox="0 0 512 512" width="512" height="512">
  <!-- Warlock T3 north: jagged-collar mantle from behind + tendril embroidery. -->
  <path d="M196 200 C176 188 158 176 150 156 C168 162 184 168 198 174 L188 152 C204 162 218 174 228 188 Z" fill="#3A2356"/>
  <path d="M316 200 C336 188 354 176 362 156 C344 162 328 168 314 174 L324 152 C308 162 294 174 284 188 Z" fill="#3A2356"/>
  <path d="M150 240 C160 196 198 172 256 172 C314 172 352 196 362 240 L356 420 C354 436 322 446 256 446 C190 446 158 436 156 420 Z" fill="#4A2E6E"/>
  <path d="M150 240 C160 200 196 178 256 178 L256 446 C190 446 158 436 156 420 Z" fill="#3A2356"/>
  <path d="M256 178 C318 178 354 200 362 240 L356 420 C354 434 326 444 256 444 Z" fill="#4A2E6E"/>
  <!-- high collar behind the head -->
  <path d="M210 198 C200 182 196 164 198 148 C216 166 228 184 234 198 C224 192 220 192 210 198 Z" fill="#5E3C84"/>
  <path d="M302 198 C312 182 316 164 314 148 C296 166 284 184 278 198 C288 192 292 192 302 198 Z" fill="#5E3C84"/>
  <path d="M252 200 L260 200 L258 440 L254 440 Z" fill="#2C1A42"/>
  <path d="M222 280 C238 300 238 330 226 356 M290 280 C274 300 274 330 286 356" stroke="#8EBE4A" stroke-width="3" fill="none" opacity="0.75"/>
</svg>
