<svg xmlns="http://www.w3.org/2000/svg" viewBox="0 0 512 512" width="512" height="512">
  <!-- Rogue T4 south: shadow-silk suit, sharp oxblood lining flash, silver buckles. -->
  <path d="M148 240 C158 196 198 170 256 170 C314 170 354 196 364 240 L360 400 C358 436 326 458 256 458 C186 458 154 436 152 400 Z" fill="#2E2E36"/>
  <path d="M162 244 C172 206 208 184 256 184 C292 184 320 196 338 218 C310 198 212 200 184 234 C175 242 166 244 162 244 Z" fill="#3E3E48" opacity="0.7"/>
  <!-- silk sheen panels -->
  <path d="M204 188 C220 180 238 196 238 230 L236 452 M308 188 C292 180 274 196 274 230 L276 452" stroke="#1E1E24" stroke-width="4" fill="none"/>
  <path d="M218 200 C228 194 238 196 240 210 L238 440 L230 438 L232 212 C232 206 226 202 218 204 Z" fill="#4A4A56" opacity="0.6"/>
  <!-- oxblood lining: V flash at the chest opening -->
  <path d="M236 196 L256 280 L276 196 L268 196 L256 250 L244 196 Z" fill="#8E2E3E"/>
  <path d="M251 200 L261 200 L259 452 L253 452 Z" fill="#1E1E24"/>
  <!-- full half-cloak, oxblood-lined edge -->
  <path d="M142 232 C148 198 176 178 214 176 C236 176 254 182 264 194 L258 214 C248 202 232 196 216 198 L208 442 C190 450 168 448 154 436 C144 372 140 300 142 232 Z" fill="#1E1E24"/>
  <path d="M206 198 L210 442 C202 446 196 442 192 436 L198 208 C200 202 202 198 206 198 Z" fill="#8E2E3E"/>
  <circle cx="214" cy="196" r="10" fill="#8A8E96"/>
  <circle cx="214" cy="196" r="5" fill="#2E2E36"/>
  <!-- collar -->
  <path d="M218 176 C230 166 244 162 256 162 C268 162 282 166 294 176 L286 198 C274 186 264 182 256 182 C248 182 238 186 226 198 Z" fill="#1E1E24"/>
  <!-- belt + buckle -->
  <path d="M154 384 C214 396 298 396 358 384 L358 402 C298 414 214 414 154 402 Z" fill="#1E1E24"/>
  <rect x="240" y="386" width="32" height="18" rx="3" fill="#8A8E96"/>
</svg>
