<svg xmlns="http://www.w3.org/2000/svg" viewBox="0 0 512 512" width="512" height="512">
  <!-- Rogue T3 north: half-cloak dominating the back, hood, oxblood lining. -->
  <path d="M148 240 C158 196 198 170 256 170 C314 170 354 196 364 240 L360 400 C358 436 326 458 256 458 C186 458 154 436 152 400 Z" fill="#3A3A42"/>
  <path d="M252 174 L260 174 L258 452 L254 452 Z" fill="#26262C"/>
  <!-- cloak from behind: broad diagonal -->
  <path d="M146 228 C152 196 178 178 214 176 C232 174 246 178 254 188 L320 200 C336 208 346 224 348 244 L342 396 C318 416 284 426 248 424 C214 422 184 410 164 390 C150 340 144 284 146 228 Z" fill="#26262C"/>
  <path d="M160 242 C166 214 190 196 222 194 L296 204 C318 210 332 226 334 248 L330 380 C306 398 274 406 242 402 C214 398 192 386 178 368 C166 328 160 284 160 242 Z" fill="#3A3A42" opacity="0.4"/>
  <!-- hood -->
  <path d="M222 174 C232 166 244 164 256 164 C268 164 280 166 290 174 C296 198 290 226 274 242 C266 250 262 252 256 252 C250 252 246 250 238 242 C222 226 216 198 222 174 Z" fill="#26262C"/>
  <path d="M238 242 C244 248 251 250 256 250 C261 250 268 248 274 242 C276 246 274 250 270 252 C264 256 248 256 242 252 C238 250 236 246 238 242 Z" fill="#6E2230"/>
  <circle cx="216" cy="194" r="9" fill="#56565E"/>
  <path d="M154 384 C214 396 298 396 358 384 L358 402 C298 414 214 414 154 402 Z" fill="#26262C"/>
</svg>
