<svg xmlns="http://www.w3.org/2000/svg" viewBox="0 0 512 512" width="512" height="512">
  <!-- Druid T3 north: fur mantle from behind, bone fetishes, fur kilt. -->
  <path d="M178 250 C186 228 212 216 256 214 C300 216 326 228 334 250 L338 404 C320 418 292 426 256 426 C220 426 192 418 174 404 Z" fill="#7A6A50"/>
  <path d="M146 254 C142 220 170 196 212 190 L234 184 L256 182 L278 184 L300 190 C342 196 370 220 366 254 L366 300 L350 286 L352 312 L334 298 L338 322 L320 308 L322 332 L304 320 L208 320 L190 332 L192 308 L174 322 L178 298 L160 312 L162 286 L146 300 Z" fill="#5C4E38"/>
  <path d="M154 252 C152 226 176 206 210 200 L234 194 L256 192 L278 194 L300 202 C330 207 350 222 352 246 L344 250 C338 232 322 220 302 216 L256 210 L212 216 C190 220 172 232 168 250 Z" fill="#7A6A50"/>
  <path d="M214 300 L210 326 L222 322 L218 348 L228 344 Z" fill="#D8CCB4"/>
  <path d="M298 300 L302 326 L290 322 L294 348 L284 344 Z" fill="#D8CCB4"/>
  <path d="M170 392 C226 404 290 404 344 392 L342 430 L330 420 L324 434 L312 424 L304 436 L292 426 L282 436 L268 426 L256 438 L244 426 L230 436 L220 424 L208 434 L198 422 L186 432 L172 420 Z" fill="#5C4E38"/>
</svg>
