<svg xmlns="http://www.w3.org/2000/svg" viewBox="0 0 512 512" width="512" height="512">
  <!-- Druid T4 hat, east: wolf pelt profile - ear up, muzzle jutting over the brow, pelt down the nape. -->
  <!-- ear -->
  <path d="M226 172 C218 148 220 124 234 106 C244 114 250 128 250 144 C242 152 232 162 226 172 Z" fill="#5C4E38"/>
  <path d="M230 162 C226 146 228 130 236 118 C242 124 245 134 244 146 C239 151 234 156 230 162 Z" fill="#7A6A50"/>
  <!-- pelt dome + nape fall -->
  <path d="M148 254 C144 192 194 148 256 148 C312 148 356 186 356 242 C356 254 350 264 340 270 L320 264 C310 258 304 252 302 246 L242 246 C240 292 234 330 220 354 L186 354 C160 328 146 294 148 254 Z" fill="#5C4E38"/>
  <path d="M162 244 C166 200 202 166 254 166 C284 166 310 180 326 204 C300 184 214 186 188 216 C174 230 164 236 162 244 Z" fill="#6B5C44"/>
  <!-- wolf muzzle jutting forward over the brow -->
  <path d="M306 218 C326 214 344 218 356 230 C362 238 362 248 356 254 L344 250 C334 242 320 238 304 240 Z" fill="#7A6A50"/>
  <ellipse cx="354" cy="240" rx="8" ry="6" fill="#3A2E20"/>
  <path d="M316 244 L322 258 L330 246 Z" fill="#D8CCB4"/>
  <!-- pelt edge -->
  <path d="M300 244 C322 244 340 252 348 264 L340 276 C330 264 316 258 298 258 L242 258 C240 260 238 262 238 264 C234 302 228 332 216 352 L198 352 C212 324 218 290 218 256 L220 244 Z" fill="#6B5C44"/>
</svg>
