<svg xmlns="http://www.w3.org/2000/svg" viewBox="0 0 512 512" width="512" height="512">
  <!-- Paladin T1 north: mail back, white surcoat, blue cross. -->
  <path d="M148 240 C158 196 198 170 256 170 C314 170 354 196 364 240 L360 400 C358 436 326 458 256 458 C186 458 154 436 152 400 Z" fill="#6E7682"/>
  <path d="M170 230 C200 222 312 222 342 230 M166 268 C200 260 312 260 346 268 M164 306 C200 298 312 298 348 306 M164 344 C200 336 312 336 348 344 M166 382 C200 374 312 374 346 382" stroke="#565C66" stroke-width="3" fill="none"/>
  <path d="M204 188 C220 178 238 174 256 174 C274 174 292 178 308 188 L304 448 C288 454 272 456 256 456 C240 456 224 454 208 448 Z" fill="#E8E4D8"/>
  <path d="M250 188 L262 188 L260 452 L252 452 Z" fill="#2E4E9E"/>
  <path d="M226 270 L286 270 L286 284 L226 284 Z" fill="#2E4E9E"/>
  <path d="M222 174 C234 166 244 164 256 164 C268 164 278 166 290 174 C292 186 288 198 278 206 C264 214 248 214 234 206 C224 198 220 186 222 174 Z" fill="#565C66"/>
  <path d="M154 384 C214 396 298 396 358 384 L358 402 C298 414 214 414 154 402 Z" fill="#5C3D24"/>
</svg>
