<svg xmlns="http://www.w3.org/2000/svg" viewBox="0 0 512 512" width="512" height="512">
  <!-- Monk T1 east: gi profile, wrap, rope belt. -->
  <path d="M164 236 C172 192 204 166 256 166 C302 166 334 188 344 230 L342 386 C340 414 312 428 254 428 C200 428 166 414 168 386 Z" fill="#C9852E"/>
  <path d="M182 240 C192 206 220 186 258 186 C290 186 314 198 328 220 C304 200 216 202 194 232 C188 236 184 238 182 240 Z" fill="#E0A848" opacity="0.45"/>
  <path d="M186 226 C210 212 238 206 262 210 L324 290 L320 358 C302 350 220 350 190 358 Z" fill="#B06A1A"/>
  <path d="M196 234 C218 222 244 216 264 220 L316 292 L314 304 L258 228 C234 224 210 230 198 242 Z" fill="#A05E14"/>
  <path d="M174 376 C222 388 294 388 336 378 L336 396 C294 406 222 406 174 394 Z" fill="#9C3A1E"/>
  <path d="M296 384 L290 416 L300 408 L306 420 L312 406 L320 414 L314 384 Z" fill="#9C3A1E"/>
</svg>
