<svg xmlns="http://www.w3.org/2000/svg" viewBox="0 0 512 512" width="512" height="512">
  <!-- Paladin T3 south: winged pauldrons (silhouette beat), blue heraldic surcoat, rounded cuirass. -->
  <path d="M148 240 C158 196 198 170 256 170 C314 170 354 196 364 240 L360 400 C358 436 326 458 256 458 C186 458 154 436 152 400 Z" fill="#7A828E"/>
  <!-- blue surcoat -->
  <path d="M186 196 C208 184 232 178 256 178 C280 178 304 184 326 196 L322 448 C302 454 280 456 256 456 C232 456 210 454 190 448 Z" fill="#2E4E9E"/>
  <path d="M196 204 C216 194 236 188 256 188 C276 188 296 194 316 204 L314 290 L198 290 Z" fill="#4A6CC4" opacity="0.5"/>
  <!-- rounded cuirass over the surcoat -->
  <path d="M192 216 C214 200 234 194 256 194 C278 194 300 200 320 216 L316 312 C298 300 278 294 256 294 C234 294 214 300 196 312 Z" fill="#9AA3B0"/>
  <path d="M204 222 C222 210 240 204 256 204 C272 204 292 210 308 222 L306 280 C292 270 274 266 256 266 C238 266 220 270 206 280 Z" fill="#C4CBD6" opacity="0.55"/>
  <!-- heraldic cross emblem on the chest -->
  <path d="M250 224 L262 224 L260 308 L252 308 Z" fill="#2E4E9E"/>
  <path d="M230 256 L282 256 L282 268 L230 268 Z" fill="#2E4E9E"/>
  <circle cx="256" cy="262" r="7" fill="#C9A23F"/>
  <!-- WINGED pauldrons: upswept feathered steel plates -->
  <path d="M148 232 C140 200 152 172 178 156 C176 174 170 190 160 202 C176 196 192 198 204 208 L196 222 L210 218 L200 236 L216 230 L208 250 C190 244 170 246 152 256 C146 248 144 240 148 232 Z" fill="#9AA3B0"/>
  <path d="M156 230 C152 210 160 192 178 180 C176 192 172 204 164 214 C176 210 188 212 196 220 L190 230 C178 224 166 226 156 234 Z" fill="#C4CBD6"/>
  <path d="M364 232 C372 200 360 172 334 156 C336 174 342 190 352 202 C336 196 320 198 308 208 L316 222 L302 218 L312 236 L296 230 L304 250 C322 244 342 246 360 256 C366 248 368 240 364 232 Z" fill="#9AA3B0"/>
  <path d="M356 230 C360 210 352 192 334 180 C336 192 340 204 348 214 C336 210 324 212 316 220 L322 230 C334 224 346 226 356 234 Z" fill="#C4CBD6"/>
  <!-- gorget -->
  <path d="M218 174 C230 164 244 160 256 160 C268 160 282 164 294 174 L286 196 C274 184 264 180 256 180 C248 180 238 184 226 196 Z" fill="#565C66"/>
  <!-- belt -->
  <path d="M154 376 C214 388 298 388 358 376 L358 396 C298 408 214 408 154 396 Z" fill="#565C66"/>
  <rect x="242" y="378" width="28" height="18" rx="3" fill="#9AA3B0"/>
</svg>
