<svg xmlns="http://www.w3.org/2000/svg" viewBox="0 0 512 512" width="512" height="512">
  <!-- Paladin T5 helm, east: haloed crown profile, halo ring, wing sweeping back, plume, gold band. -->
  <ellipse cx="256" cy="90" rx="58" ry="14" fill="none" stroke="#F2E8C0" stroke-width="8" opacity="0.85"/>
  <path d="M200 196 C184 184 174 166 172 144 C184 148 192 158 198 172 C198 156 204 142 214 132 C218 148 216 166 208 180 C205 186 202 192 200 196 Z" fill="#9AA3B0"/>
  <path d="M152 250 C148 190 198 146 258 146 C314 146 356 186 356 240 L354 262 C326 248 184 248 156 264 Z" fill="#C4CBD6"/>
  <path d="M152 250 C148 190 198 146 258 146 C314 146 356 186 356 240 L354 250 C342 208 304 184 256 184 C206 184 174 208 162 256 Z" fill="#F2E8C0" opacity="0.8"/>
  <path d="M282 196 C266 168 262 138 274 114 C286 122 290 140 288 162 C298 144 312 136 328 138 C322 160 310 178 292 188 C289 190 285 194 282 196 Z" fill="#C4CBD6"/>
  <path d="M244 150 C234 122 232 92 244 68 C256 78 262 100 260 124 C254 134 250 142 244 150 Z" fill="#2E4E9E"/>
  <path d="M154 250 C184 236 328 236 356 250 L354 272 C326 254 184 254 156 272 Z" fill="#C9A23F"/>
  <path d="M154 262 C184 250 328 250 356 262 L354 272 C326 254 184 254 156 272 Z" fill="#8E6E24"/>
  <path d="M246 240 L254 224 L262 240 Z" fill="#C9A23F"/>
  <circle cx="330" cy="256" r="7" fill="#FFF6D8"/>
</svg>
