<svg xmlns="http://www.w3.org/2000/svg" viewBox="0 0 512 512" width="512" height="512">
  <!-- Warlock T3 east: jagged-collar mantle profile + tendril embroidery. -->
  <path d="M214 198 C194 186 178 174 172 156 C190 162 206 168 220 176 L208 152 C224 164 238 178 246 192 Z" fill="#3A2356"/>
  <path d="M180 240 C190 196 222 172 268 172 C312 172 338 198 344 238 L340 416 C338 432 308 442 256 442 C204 442 178 432 180 416 Z" fill="#4A2E6E"/>
  <path d="M180 240 C190 200 220 178 264 178 L262 442 C212 442 178 432 180 416 Z" fill="#3A2356"/>
  <!-- high collar -->
  <path d="M226 198 C214 182 210 164 212 148 C230 166 244 184 250 200 L274 194 C284 182 296 168 308 156 C310 170 304 186 294 200 C278 190 244 188 226 198 Z" fill="#5E3C84"/>
  <path d="M236 280 C252 300 252 330 240 356 M286 280 C272 300 272 326 282 350" stroke="#8EBE4A" stroke-width="3" fill="none" opacity="0.8"/>
  <circle cx="262" cy="206" r="6.5" fill="#8EBE4A"/>
  <circle cx="262" cy="206" r="2.4" fill="#1E1230"/>
</svg>
