<svg xmlns="http://www.w3.org/2000/svg" viewBox="0 0 512 512" width="512" height="512">
  <!-- Druid T4 north: living-bark robe back, moss patches, full fur mantle, hood. -->
  <path d="M148 240 C158 196 198 170 256 170 C314 170 354 196 364 240 L360 400 C358 436 326 458 256 458 C186 458 154 436 152 400 Z" fill="#5A6B40"/>
  <path d="M196 200 L194 452 M226 188 L225 456 M286 188 L287 456 M316 200 L318 452" stroke="#46522E" stroke-width="5" fill="none"/>
  <path d="M204 374 C214 368 224 370 230 378 C222 386 210 386 202 380 Z" fill="#7E9A4E"/>
  <path d="M286 352 C296 346 306 348 312 356 C304 364 292 364 284 358 Z" fill="#7E9A4E"/>
  <!-- full fur mantle -->
  <path d="M140 250 C148 210 194 188 256 188 C318 188 364 210 372 250 L368 304 L350 288 L346 316 L326 298 L318 322 L294 304 L284 296 C268 286 244 286 228 296 L218 304 L194 322 L186 298 L166 316 L162 288 L144 304 Z" fill="#B5A684"/>
  <path d="M152 252 C160 220 200 200 256 200 C312 200 352 220 360 252 L358 286 L340 272 L334 296 L316 282 L308 302 L286 288 L278 282 C266 274 246 274 234 282 L226 288 L204 302 L196 282 L178 296 L172 272 L156 286 Z" fill="#CBBE9E"/>
  <!-- hood over the mantle -->
  <path d="M224 196 C234 190 245 188 256 188 C267 188 278 190 288 196 C294 214 288 236 274 248 C267 254 261 256 256 256 C251 256 245 254 238 248 C224 236 218 214 224 196 Z" fill="#6E5638"/>
  <path d="M238 246 C244 251 251 253 256 253 C261 253 268 251 274 246 C276 250 274 254 270 256 C264 260 248 260 242 256 C238 254 236 250 238 246 Z" fill="#CBBE9E"/>
  <path d="M156 384 C216 396 296 396 356 384 L356 402 C296 414 216 414 156 402 Z" fill="#8A6E4A"/>
</svg>
