<svg xmlns="http://www.w3.org/2000/svg" viewBox="0 0 512 512" width="512" height="512">
  <!-- Ranger HelmT3 north: hood dome + feathers tucked at the sides. -->
  <path d="M150 360 C142 270 152 190 192 160 C216 142 240 136 256 136 C272 136 296 142 320 160 C360 190 370 270 362 360 Z" fill="#46583A"/>
  <path d="M150 360 C144 290 150 220 178 184 C170 240 168 300 174 360 Z" fill="#3E5A34"/>
  <path d="M362 360 C368 290 362 220 334 184 C342 240 344 300 338 360 Z" fill="#3E5A34"/>
  <path d="M254 150 L258 150 L260 358 L252 358 Z" fill="#3E5A34"/>
  <path d="M168 200 C158 184 160 166 174 154 C176 170 178 186 182 200 C178 204 172 204 168 200 Z" fill="#8A8E74"/>
  <path d="M344 200 C354 184 352 166 338 154 C336 170 334 186 330 200 C334 204 340 204 344 200 Z" fill="#8A8E74"/>
</svg>
