<svg xmlns="http://www.w3.org/2000/svg" viewBox="0 0 512 512" width="512" height="512">
  <!-- Cleric T3 east: cope profile over the shoulders, stole band at the front, emblem. -->
  <path d="M164 236 C172 192 204 166 256 166 C302 166 334 188 344 230 L342 386 C340 414 312 428 254 428 C200 428 166 414 168 386 Z" fill="#E8E4D8"/>
  <path d="M182 240 C192 206 220 186 258 186 C290 186 314 198 328 220 C304 200 216 202 194 232 C188 236 184 238 182 240 Z" fill="#F5F2E8" opacity="0.6"/>
  <!-- stole band visible at the front -->
  <path d="M296 200 L320 206 L318 424 L296 420 Z" fill="#C9A23F"/>
  <path d="M302 206 L314 210 L312 416 L302 413 Z" fill="#E8E4D8"/>
  <!-- cope over the shoulders -->
  <path d="M162 244 C170 208 208 188 262 188 C312 188 346 208 354 244 L350 292 C334 278 314 270 292 268 L284 286 L246 274 L212 286 L204 268 C188 272 174 280 164 292 Z" fill="#C9C2B0"/>
  <path d="M174 244 C184 216 218 200 262 200 C304 200 336 216 344 244 L342 276 C326 264 306 258 286 258 L280 272 L246 262 L216 272 L210 258 C196 260 184 266 174 276 Z" fill="#E8E4D8"/>
  <path d="M162 244 C170 208 208 188 262 188 C312 188 346 208 354 244 L353 252 C342 218 308 198 260 198 C212 198 178 218 165 252 Z" fill="#C9A23F"/>
  <circle cx="298" cy="318" r="16" fill="#C9A23F"/>
  <circle cx="298" cy="318" r="8" fill="#E8E4D8"/>
  <path d="M174 376 C222 388 294 388 336 378 L336 396 C294 406 222 406 174 394 Z" fill="#C9A23F"/>
</svg>
