<svg xmlns="http://www.w3.org/2000/svg" viewBox="0 0 512 512" width="512" height="512">
  <!-- Sorcerer T3 hood, north: cracked hood from behind, full skull coverage. -->
  <path d="M150 254 C146 190 196 146 256 146 C316 146 366 190 362 254 C364 300 348 340 318 358 L194 358 C164 340 148 300 150 254 Z" fill="#8E2A2A"/>
  <path d="M150 254 C146 190 196 146 256 146 L256 358 L194 358 C164 340 148 300 150 254 Z" fill="#6E1E1E"/>
  <path d="M180 170 L208 200 L184 230 L212 258 L188 290 L216 320 M164 200 L188 226" stroke="#F2C84A" stroke-width="3" fill="none"/>
  <path d="M164 244 C166 200 202 166 256 166 C286 166 312 180 328 204 C302 184 216 186 190 216 C178 228 166 234 164 244 Z" fill="#A83838" opacity="0.5"/>
</svg>
