<svg xmlns="http://www.w3.org/2000/svg" viewBox="0 0 512 512" width="512" height="512">
  <!-- Druid T4 east: living-bark robe profile, moss, amber sap, full fur mantle. -->
  <path d="M164 236 C172 192 204 166 256 166 C302 166 334 188 344 230 L342 386 C340 414 312 428 254 428 C200 428 166 414 168 386 Z" fill="#5A6B40"/>
  <path d="M182 240 C192 206 220 186 258 186 C290 186 314 198 328 220 C304 200 216 202 194 232 C188 236 184 238 182 240 Z" fill="#74824E" opacity="0.45"/>
  <path d="M212 178 L210 424 M252 168 L252 428 M292 178 L294 424" stroke="#46522E" stroke-width="5" fill="none"/>
  <path d="M236 240 L298 240 L296 366 L240 366 Z" fill="#6E5638"/>
  <path d="M210 372 C218 366 228 368 234 376 C226 384 216 384 208 378 Z" fill="#7E9A4E"/>
  <circle cx="276" cy="290" r="5" fill="#D89A3A"/>
  <circle cx="268" cy="330" r="5" fill="#D89A3A"/>
  <!-- fur mantle profile -->
  <path d="M156 248 C164 212 206 192 262 192 C312 192 350 212 358 248 L354 300 L336 286 L330 308 L308 294 L300 314 L278 300 L268 292 C256 286 238 288 228 296 L216 306 L196 304 L188 292 Z" fill="#B5A684"/>
  <path d="M168 250 C178 222 216 204 262 204 C306 204 340 220 350 250 L348 280 L332 268 L326 288 L306 274 L298 292 L278 280 L268 274 C256 268 240 270 230 278 L220 286 L204 290 L194 282 Z" fill="#CBBE9E"/>
  <path d="M200 230 C222 218 244 214 262 214 C280 214 300 220 318 230 L312 244 C296 232 278 228 262 228 C244 228 224 232 206 244 Z" fill="#856A48"/>
  <path d="M174 376 C222 388 294 388 336 378 L336 396 C294 406 222 406 174 394 Z" fill="#8A6E4A"/>
  <ellipse cx="290" cy="384" rx="12" ry="8" fill="#D89A3A"/>
</svg>
