<svg xmlns="http://www.w3.org/2000/svg" viewBox="0 0 512 512" width="512" height="512">
  <!-- Bard T2 east: vest profile, half-cape hanging at the near (rear) shoulder, gold trim. -->
  <path d="M164 236 C172 192 204 166 256 166 C302 166 334 188 344 230 L342 386 C340 414 312 428 254 428 C200 428 166 414 168 386 Z" fill="#E8E0CC"/>
  <path d="M210 184 C226 176 244 172 262 174 L322 200 L320 416 C300 424 278 428 256 428 L212 420 Z" fill="#8E3A6E"/>
  <path d="M236 240 C248 232 262 228 276 228 M236 282 C248 274 262 270 276 270 M236 324 C248 316 262 312 276 312" stroke="#C9A23F" stroke-width="5" fill="none"/>
  <!-- half-cape: hangs at the back -->
  <path d="M162 232 C166 202 188 184 220 180 C234 178 246 182 254 192 L250 210 C240 200 226 196 214 200 L218 330 C202 336 184 334 172 324 C162 296 158 262 162 232 Z" fill="#5E2548"/>
  <path d="M170 234 C174 212 190 196 214 192 L218 204 C198 208 184 222 180 244 L184 308 C176 296 172 276 170 258 Z" fill="#8E3A6E" opacity="0.6"/>
  <!-- collar bunch -->
  <path d="M198 218 C194 198 202 182 220 176 C232 172 244 174 252 182 L248 196 C240 190 230 189 222 193 C212 198 206 207 208 218 Z" fill="#C9A23F"/>
  <path d="M172 372 C220 384 292 384 336 374 L336 392 C292 402 220 402 172 390 Z" fill="#5C3D24"/>
  <rect x="288" y="374" width="24" height="18" rx="3" fill="#C9A23F"/>
</svg>
