<svg xmlns="http://www.w3.org/2000/svg" viewBox="0 0 512 512" width="512" height="512">
  <!-- Bard T5 north: spotlight coat back - gold-edged cape, sheen, sash. -->
  <path d="M148 240 C158 196 198 170 256 170 C314 170 354 196 364 240 L360 396 C358 430 326 448 256 448 C186 448 154 430 152 396 Z" fill="#5E2548"/>
  <path d="M144 232 C148 200 172 182 206 178 L232 172 L256 170 L280 172 L306 178 C340 182 364 200 368 232 L366 304 L350 290 L352 318 L334 304 L338 330 L320 316 L322 342 L304 330 L208 330 L190 342 L192 316 L174 330 L178 304 L160 318 L162 290 L146 304 Z" fill="#8E3A6E"/>
  <path d="M158 240 C164 214 186 198 216 194 L256 190 L296 194 C326 198 348 214 354 240 L352 286 L338 274 L334 300 L318 286 L314 310 L298 298 L214 298 L198 310 L194 286 L178 300 L174 274 L160 286 Z" fill="#B5538F" opacity="0.45"/>
  <path d="M146 300 L162 288 L160 316 L176 302 L180 328 L196 314 L208 322 L208 328 L194 320 L178 334 L174 308 L158 322 L160 294 L144 306 Z" fill="#C9A23F"/>
  <path d="M366 300 L350 288 L352 316 L336 302 L332 328 L316 314 L304 322 L304 328 L318 320 L334 334 L338 308 L354 322 L352 294 L368 306 Z" fill="#C9A23F"/>
  <path d="M220 174 C232 164 244 160 256 160 C268 160 280 164 292 174 C294 186 290 198 280 206 C266 214 246 214 232 206 C222 198 218 186 220 174 Z" fill="#C9A23F"/>
  <path d="M154 372 C214 384 298 384 358 372 L358 394 C298 406 214 406 154 394 Z" fill="#C9A23F"/>
</svg>
