<svg xmlns="http://www.w3.org/2000/svg" viewBox="0 0 256 256" width="256" height="256">
  <!-- Greater Hero Daggers (L10): gold guards + red-gem pommels, faint glow. -->
  <g transform="translate(128 128) scale(0.8) rotate(45) translate(-128 -128)">
    <!-- LEFT -->
    <path d="M96 42 L84 132 L85 148 L107 148 L108 132 Z" fill="#5C6168"/>
    <path d="M96 42 L84 132 L95 140 L95 56 Z" fill="#C6CBD0"/>
    <path d="M96 60 L96 132" stroke="#3A3A42" stroke-width="2"/>
    <rect x="78" y="145" width="36" height="9" rx="2" fill="#C79A3E"/>
    <rect x="89" y="152" width="14" height="42" rx="3" fill="#6E2230"/>
    <path d="M90 160 L102 164 M90 174 L102 178" stroke="#3A1620" stroke-width="2"/>
    <circle cx="96" cy="200" r="8" fill="#C79A3E"/>
    <circle cx="96" cy="200" r="4" fill="#8E2E3E"/>
    <!-- RIGHT -->
    <path d="M160 42 L148 132 L149 148 L171 148 L172 132 Z" fill="#5C6168"/>
    <path d="M160 42 L148 132 L159 140 L159 56 Z" fill="#C6CBD0"/>
    <path d="M160 60 L160 132" stroke="#3A3A42" stroke-width="2"/>
    <rect x="142" y="145" width="36" height="9" rx="2" fill="#C79A3E"/>
    <rect x="153" y="152" width="14" height="42" rx="3" fill="#6E2230"/>
    <path d="M154 160 L166 164 M154 174 L166 178" stroke="#3A1620" stroke-width="2"/>
    <circle cx="160" cy="200" r="8" fill="#C79A3E"/>
    <circle cx="160" cy="200" r="4" fill="#8E2E3E"/>
  </g>
</svg>
