<svg xmlns="http://www.w3.org/2000/svg" viewBox="0 0 256 256" width="256" height="256">
  <!-- Perfect Hero Fist Wraps (L15): chi-infused glowing wraps + runed bands. -->
  <g transform="translate(128 128) scale(0.8) translate(-128 -128)">
    <circle cx="90" cy="140" r="44" fill="#FFE08A" opacity="0.14"/>
    <circle cx="166" cy="140" r="44" fill="#FFE08A" opacity="0.14"/>
    <g>
      <ellipse cx="68" cy="150" rx="9" ry="12" fill="#B8772A"/>
      <path d="M68 120 C68 108 78 104 90 104 C102 104 112 108 112 120 L112 160 C112 172 68 172 68 160 Z" fill="#D8902E"/>
      <path d="M70 118 C80 110 100 110 110 118 L112 130 C112 136 68 136 68 130 Z" fill="#A8732E"/>
      <path d="M70 118 C80 110 100 110 110 118" stroke="#FFE08A" stroke-width="2.5" fill="none"/>
      <path d="M70 142 L110 148 M70 154 L110 160" stroke="#FFD06A" stroke-width="4"/>
      <path d="M88 124 L92 130 L88 134" stroke="#FFE08A" stroke-width="2" fill="none"/>
      <rect x="74" y="160" width="32" height="26" rx="5" fill="#D8902E"/>
      <path d="M76 168 L104 172 M76 178 L104 182" stroke="#FFD06A" stroke-width="3"/>
    </g>
    <g>
      <ellipse cx="188" cy="150" rx="9" ry="12" fill="#B8772A"/>
      <path d="M188 120 C188 108 178 104 166 104 C154 104 144 108 144 120 L144 160 C144 172 188 172 188 160 Z" fill="#D8902E"/>
      <path d="M186 118 C176 110 156 110 146 118 L144 130 C144 136 188 136 188 130 Z" fill="#A8732E"/>
      <path d="M186 118 C176 110 156 110 146 118" stroke="#FFE08A" stroke-width="2.5" fill="none"/>
      <path d="M146 142 L186 148 M146 154 L186 160" stroke="#FFD06A" stroke-width="4"/>
      <path d="M168 124 L164 130 L168 134" stroke="#FFE08A" stroke-width="2" fill="none"/>
      <rect x="150" y="160" width="32" height="26" rx="5" fill="#D8902E"/>
      <path d="M152 168 L180 172 M152 178 L180 182" stroke="#FFD06A" stroke-width="3"/>
    </g>
  </g>
</svg>
