<svg xmlns="http://www.w3.org/2000/svg" viewBox="0 0 256 256" width="256" height="256">
  <!-- Lesser Hero Daggers: a clearly-separated PAIR of plain daggers, side by side. -->
  <g transform="translate(128 128) scale(0.8) rotate(45) translate(-128 -128)">
    <!-- LEFT dagger (cx 96) -->
    <path d="M96 46 L86 132 L87 146 L105 146 L106 132 Z" fill="#777D84"/>
    <path d="M96 46 L86 132 L95 140 L95 60 Z" fill="#C6CBD0"/>
    <rect x="80" y="143" width="32" height="8" rx="2" fill="#3A3A42"/>
    <rect x="90" y="150" width="12" height="44" rx="3" fill="#2E2E36"/>
    <circle cx="96" cy="198" r="7" fill="#3A3A42"/>
    <!-- RIGHT dagger (cx 160) -->
    <path d="M160 46 L150 132 L151 146 L169 146 L170 132 Z" fill="#777D84"/>
    <path d="M160 46 L150 132 L159 140 L159 60 Z" fill="#C6CBD0"/>
    <rect x="144" y="143" width="32" height="8" rx="2" fill="#3A3A42"/>
    <rect x="154" y="150" width="12" height="44" rx="3" fill="#2E2E36"/>
    <circle cx="160" cy="198" r="7" fill="#3A3A42"/>
  </g>
</svg>
