<svg xmlns="http://www.w3.org/2000/svg" viewBox="0 0 256 256" width="256" height="256">
  <!-- Hero Daggers (L5): blackened blades + oxblood-wrapped grips. -->
  <g transform="translate(128 128) scale(0.8) translate(-128 -128)">
    <!-- LEFT -->
    <path d="M96 44 L85 132 L86 147 L106 147 L107 132 Z" fill="#5C6168"/>
    <path d="M96 44 L85 132 L95 140 L95 58 Z" fill="#AEB4BA"/>
    <rect x="79" y="144" width="34" height="8" rx="2" fill="#26262C"/>
    <rect x="89" y="151" width="14" height="44" rx="3" fill="#6E2230"/>
    <path d="M90 158 L102 162 M90 170 L102 174 M90 182 L102 186" stroke="#3A1620" stroke-width="2"/>
    <circle cx="96" cy="199" r="7" fill="#3A3A42"/>
    <!-- RIGHT -->
    <path d="M160 44 L149 132 L150 147 L170 147 L171 132 Z" fill="#5C6168"/>
    <path d="M160 44 L149 132 L159 140 L159 58 Z" fill="#AEB4BA"/>
    <rect x="143" y="144" width="34" height="8" rx="2" fill="#26262C"/>
    <rect x="153" y="151" width="14" height="44" rx="3" fill="#6E2230"/>
    <path d="M154 158 L166 162 M154 170 L166 174 M154 182 L166 186" stroke="#3A1620" stroke-width="2"/>
    <circle cx="160" cy="199" r="7" fill="#3A3A42"/>
  </g>
</svg>
