<svg xmlns="http://www.w3.org/2000/svg" viewBox="0 0 256 256" width="256" height="256">
  <!-- Thousand Hands (capstone): chi-blazing fists with a faint afterimage. -->
  <g transform="translate(128 128) scale(0.78) translate(-128 -128)">
    <circle cx="90" cy="138" r="52" fill="#FFD06A" opacity="0.16"/>
    <circle cx="166" cy="138" r="52" fill="#FFD06A" opacity="0.16"/>
    <!-- afterimage fists, offset -->
    <g opacity="0.25">
      <path d="M52 122 C52 110 62 106 74 106 L96 162 C96 174 52 174 52 162 Z" fill="#FFE08A"/>
      <path d="M204 122 C204 110 194 106 182 106 L160 162 C160 174 204 174 204 162 Z" fill="#FFE08A"/>
    </g>
    <g>
      <ellipse cx="68" cy="150" rx="9" ry="12" fill="#B8772A"/>
      <path d="M68 120 C68 108 78 104 90 104 C102 104 112 108 112 120 L112 160 C112 172 68 172 68 160 Z" fill="#E0982E"/>
      <path d="M70 118 C80 110 100 110 110 118 L112 130 C112 136 68 136 68 130 Z" fill="#C79A3E"/>
      <path d="M70 118 C80 110 100 110 110 118" stroke="#FFF0B8" stroke-width="3" fill="none"/>
      <path d="M68 142 L112 148 M68 154 L112 160" stroke="#FFE08A" stroke-width="4.5"/>
      <path d="M88 122 L92 130 L88 136" stroke="#FFF0B8" stroke-width="2.5" fill="none"/>
      <rect x="74" y="160" width="32" height="26" rx="5" fill="#E0982E"/>
      <path d="M76 168 L104 172 M76 178 L104 182" stroke="#FFE08A" stroke-width="3.5"/>
    </g>
    <g>
      <ellipse cx="188" cy="150" rx="9" ry="12" fill="#B8772A"/>
      <path d="M188 120 C188 108 178 104 166 104 C154 104 144 108 144 120 L144 160 C144 172 188 172 188 160 Z" fill="#E0982E"/>
      <path d="M186 118 C176 110 156 110 146 118 L144 130 C144 136 188 136 188 130 Z" fill="#C79A3E"/>
      <path d="M186 118 C176 110 156 110 146 118" stroke="#FFF0B8" stroke-width="3" fill="none"/>
      <path d="M144 142 L188 148 M144 154 L188 160" stroke="#FFE08A" stroke-width="4.5"/>
      <path d="M168 122 L164 130 L168 136" stroke="#FFF0B8" stroke-width="2.5" fill="none"/>
      <rect x="150" y="160" width="32" height="26" rx="5" fill="#E0982E"/>
      <path d="M152 168 L180 172 M152 178 L180 182" stroke="#FFE08A" stroke-width="3.5"/>
    </g>
  </g>
</svg>
