<svg xmlns="http://www.w3.org/2000/svg" viewBox="0 0 256 256" width="256" height="256">
  <!-- Hero Living Staff: gnarled staff wrapped in living vine, a few leaves. Drawn vertical, rotated up-right. -->
  <g transform="translate(128 128) scale(0.72) rotate(45) translate(-128 -128)">
  <!-- gnarled shaft -->
  <path d="M120 234 C115 190 132 150 122 110 C116 80 130 56 124 34 L138 34 C132 58 144 82 138 110 C146 150 131 190 136 234 Z" fill="#6E5638"/>
  <path d="M122 230 C118 190 132 152 124 112 C119 82 130 60 126 38 L131 38 C128 60 137 82 132 112 C140 152 127 190 130 230 Z" fill="#856A48"/>
  <!-- twining vine -->
  <path d="M114 224 C148 206 110 184 140 166 C112 148 150 128 120 110 C148 92 112 72 138 52" stroke="#5E6B43" stroke-width="6" fill="none"/>
  <path d="M114 224 C148 206 110 184 140 166 C112 148 150 128 120 110 C148 92 112 72 138 52" stroke="#7A8B4A" stroke-width="2.5" fill="none"/>
  <!-- leaves -->
  <path d="M140 166 C156 158 162 168 154 180 C146 174 142 172 140 166 Z" fill="#7A8B4A"/>
  <path d="M120 110 C104 104 100 114 110 124 C116 118 118 116 120 110 Z" fill="#7A8B4A"/>
  <path d="M138 52 C152 44 158 54 150 64 C144 58 140 58 138 52 Z" fill="#5E6B43"/>
  <!-- knots -->
  <ellipse cx="128" cy="150" rx="9" ry="7" fill="#5A4630"/>
  <!-- base nub -->
  <ellipse cx="128" cy="236" rx="13" ry="10" fill="#5A4630"/>
  <!-- forked twig top -->
  <path d="M124 36 L108 16 L116 22 L122 34 Z" fill="#6E5638"/>
  <path d="M132 36 L150 18 L142 24 L136 34 Z" fill="#6E5638"/>
  </g>
</svg>
