<svg xmlns="http://www.w3.org/2000/svg" viewBox="0 0 256 256" width="256" height="256">
  <!-- Perfect Hero Daggers (L15): shadow-wreathed glowing blades + red glint. -->
  <g transform="translate(128 128) scale(0.76) translate(-128 -128)">
    <!-- subtle shadow wisps trailing each blade tip -->
    <path d="M96 42 C90 24 84 14 86 4 C92 16 98 26 100 40 Z" fill="#16161C" opacity="0.5"/>
    <path d="M160 42 C154 24 148 14 150 4 C156 16 162 26 164 40 Z" fill="#16161C" opacity="0.5"/>
    <!-- LEFT -->
    <path d="M96 42 L84 132 L85 148 L107 148 L108 132 Z" fill="#4A4F56"/>
    <path d="M96 42 L84 132 L95 140 L95 56 Z" fill="#C6CBD0"/>
    <path d="M96 58 L96 134" stroke="#C24A5C" stroke-width="2.5"/>
    <rect x="78" y="145" width="36" height="9" rx="2" fill="#C79A3E"/>
    <rect x="89" y="152" width="14" height="42" rx="3" fill="#6E2230"/>
    <circle cx="96" cy="200" r="8" fill="#C79A3E"/>
    <circle cx="96" cy="200" r="4" fill="#C24A5C"/>
    <!-- RIGHT -->
    <path d="M160 42 L148 132 L149 148 L171 148 L172 132 Z" fill="#4A4F56"/>
    <path d="M160 42 L148 132 L159 140 L159 56 Z" fill="#C6CBD0"/>
    <path d="M160 58 L160 134" stroke="#C24A5C" stroke-width="2.5"/>
    <rect x="142" y="145" width="36" height="9" rx="2" fill="#C79A3E"/>
    <rect x="153" y="152" width="14" height="42" rx="3" fill="#6E2230"/>
    <circle cx="160" cy="200" r="8" fill="#C79A3E"/>
    <circle cx="160" cy="200" r="4" fill="#C24A5C"/>
  </g>
</svg>
