<svg xmlns="http://www.w3.org/2000/svg" viewBox="0 0 256 256" width="256" height="256">
  <!-- Whisper & Woe (capstone): twin blades trailing shadow, red eye-glints. -->
  <g transform="translate(128 128) scale(0.74) translate(-128 -128)">
    <!-- shadow aura -->
    <path d="M96 40 C84 16 72 6 74 -8 C86 10 98 22 102 40 Z" fill="#16161C" opacity="0.55"/>
    <path d="M160 40 C148 16 136 6 138 -8 C150 10 162 22 166 40 Z" fill="#16161C" opacity="0.55"/>
    <path d="M84 150 C70 162 60 178 62 196 C74 180 86 168 92 154 Z" fill="#16161C" opacity="0.4"/>
    <path d="M172 150 C186 162 196 178 194 196 C182 180 170 168 164 154 Z" fill="#16161C" opacity="0.4"/>
    <!-- LEFT -->
    <path d="M96 40 L83 132 L84 149 L108 149 L109 132 Z" fill="#4A4F56"/>
    <path d="M96 40 L83 132 L95 140 L95 54 Z" fill="#E2E6EA"/>
    <path d="M96 56 L96 134" stroke="#C24A5C" stroke-width="3"/>
    <rect x="77" y="146" width="38" height="10" rx="2" fill="#E0B250"/>
    <rect x="89" y="154" width="14" height="42" rx="3" fill="#8E2E3E"/>
    <circle cx="96" cy="202" r="9" fill="#E0B250"/>
    <circle cx="96" cy="202" r="4.5" fill="#FF5A6E"/>
    <ellipse cx="96" cy="100" rx="5" ry="3.5" fill="#FF5A6E"/>
    <!-- RIGHT -->
    <path d="M160 40 L147 132 L148 149 L172 149 L173 132 Z" fill="#4A4F56"/>
    <path d="M160 40 L147 132 L159 140 L159 54 Z" fill="#E2E6EA"/>
    <path d="M160 56 L160 134" stroke="#C24A5C" stroke-width="3"/>
    <rect x="141" y="146" width="38" height="10" rx="2" fill="#E0B250"/>
    <rect x="153" y="154" width="14" height="42" rx="3" fill="#8E2E3E"/>
    <circle cx="160" cy="202" r="9" fill="#E0B250"/>
    <circle cx="160" cy="202" r="4.5" fill="#FF5A6E"/>
    <ellipse cx="160" cy="100" rx="5" ry="3.5" fill="#FF5A6E"/>
  </g>
</svg>
