<svg xmlns="http://www.w3.org/2000/svg" viewBox="0 0 256 256" width="256" height="256">
  <g transform="translate(128 128) scale(0.74) rotate(45) translate(-128 -128)">
  <!-- Perfect Hero Greataxe (L15): clearly magical - glowing orange edges, back-spikes, molten runes, halo. -->
  <path d="M124 48 L30 60 C8 86 14 118 56 134 L124 110 L132 110 L200 134 C242 118 248 86 226 60 L132 48 Z" fill="#FF8A2A" opacity="0.16"/>
  <rect x="118" y="34" width="20" height="200" rx="6" fill="#4A3320"/>
  <rect x="118" y="34" width="6" height="200" fill="#6E4E2A"/>
  <path d="M118 70 L138 70 M118 140 L138 140 M118 195 L138 195" stroke="#FF8A2A" stroke-width="2" opacity="0.7"/>
  <rect x="112" y="150" width="32" height="10" rx="2" fill="#C79A3E"/>
  <ellipse cx="128" cy="236" rx="14" ry="12" fill="#C79A3E"/>
  <ellipse cx="128" cy="236" rx="6" ry="5" fill="#FF8A2A"/>
  <!-- back spikes -->
  <path d="M40 58 L20 44 L42 50 Z" fill="#AEB6C0"/>
  <path d="M216 58 L236 44 L214 50 Z" fill="#AEB6C0"/>
  <path d="M124 48 L34 60 C14 84 18 114 56 128 L124 106 Z" fill="#D2D8E0"/>
  <path d="M124 56 L54 68 C40 88 44 108 66 120 L124 104 Z" fill="#A8B0BA"/>
  <path d="M34 60 C14 84 18 114 56 128" stroke="#FFB347" stroke-width="5" fill="none"/>
  <path d="M132 48 L222 60 C242 84 238 114 200 128 L132 106 Z" fill="#D2D8E0"/>
  <path d="M132 56 L202 68 C216 88 212 108 190 120 L132 104 Z" fill="#A8B0BA"/>
  <path d="M222 60 C242 84 238 114 200 128" stroke="#FFB347" stroke-width="5" fill="none"/>
  <rect x="115" y="46" width="26" height="56" rx="3" fill="#AEB6C0"/>
  <path d="M120 96 L128 108 L136 96 M118 70 L128 80 L138 70" stroke="#FF8A2A" stroke-width="3" fill="none" opacity="0.9"/>
  <rect x="120" y="20" width="16" height="28" rx="3" fill="#D2D8E0"/>
  <path d="M128 20 L128 48" stroke="#FFB347" stroke-width="3"/>
  </g>
</svg>
