<svg xmlns="http://www.w3.org/2000/svg" viewBox="0 0 256 256" width="256" height="256">
  <!-- Greater Hero Greataxe (L10): ornate, gold-banded haft, red gem pommel, edges starting to glow. -->
  <rect x="119" y="36" width="18" height="198" rx="6" fill="#5E3F24"/>
  <rect x="119" y="36" width="6" height="198" fill="#7A5A2E"/>
  <rect x="114" y="150" width="28" height="9" rx="2" fill="#C79A3E"/>
  <rect x="114" y="186" width="28" height="9" rx="2" fill="#C79A3E"/>
  <ellipse cx="128" cy="236" rx="13" ry="11" fill="#C79A3E"/>
  <ellipse cx="128" cy="236" rx="6" ry="5" fill="#8E2A2A"/>
  <path d="M124 52 L40 64 C22 84 26 112 56 126 L124 104 Z" fill="#CBD1D8"/>
  <path d="M124 60 L60 72 C46 90 50 108 70 118 L124 102 Z" fill="#A2AAB4"/>
  <path d="M40 64 C22 84 26 112 56 126" stroke="#F2C84A" stroke-width="4" fill="none" opacity="0.9"/>
  <path d="M132 52 L216 64 C234 84 230 112 200 126 L132 104 Z" fill="#CBD1D8"/>
  <path d="M132 60 L196 72 C210 90 206 108 186 118 L132 102 Z" fill="#A2AAB4"/>
  <path d="M216 64 C234 84 230 112 200 126" stroke="#F2C84A" stroke-width="4" fill="none" opacity="0.9"/>
  <rect x="116" y="50" width="24" height="52" rx="3" fill="#AEB6C0"/>
  <rect x="113" y="48" width="30" height="8" rx="2" fill="#C79A3E"/>
  <circle cx="128" cy="76" r="7" fill="#8E2A2A"/>
  <circle cx="128" cy="76" r="3" fill="#E06A6A"/>
  <rect x="121" y="24" width="14" height="28" rx="3" fill="#CBD1D8"/>
</svg>
