<svg xmlns="http://www.w3.org/2000/svg" viewBox="0 0 256 256" width="256" height="256">
  <!-- Worldroot (capstone): staff blazing with amber lifelight, crown of antlers and leaves, roots/vines, strong amber-green glow. Drawn vertical, rotated up-right. -->
  <g transform="translate(128 128) scale(0.72) rotate(45) translate(-128 -128)">
  <!-- strong amber-green glow auras -->
  <circle cx="128" cy="36" r="52" fill="#D89A3A" opacity="0.20"/>
  <circle cx="128" cy="36" r="34" fill="#F2C46A" opacity="0.18"/>
  <path d="M122 36 C98 110 156 172 130 240 L126 240 C152 172 96 110 116 36 Z" fill="#7A8B4A" opacity="0.16"/>
  <path d="M124 40 C108 110 150 170 130 236 L126 236 C146 170 104 110 120 40 Z" fill="#D89A3A" opacity="0.20"/>
  <!-- gnarled shaft -->
  <path d="M118 234 C113 190 132 150 121 110 C114 80 130 58 124 42 L138 42 C132 60 145 80 138 110 C147 150 132 190 138 234 Z" fill="#6E5638"/>
  <path d="M121 230 C117 190 132 152 123 112 C117 82 130 62 126 46 L131 46 C128 62 138 82 132 112 C141 152 128 190 131 230 Z" fill="#856A48"/>
  <!-- spreading roots at the base -->
  <path d="M128 222 C110 230 100 244 88 250 M128 222 C146 230 156 244 168 250 M128 226 C124 240 126 248 124 252 M128 226 C132 240 132 246 134 252" stroke="#6E5638" stroke-width="6" fill="none"/>
  <path d="M128 224 C112 232 102 244 92 250 M128 224 C144 232 154 244 164 250" stroke="#856A48" stroke-width="2.5" fill="none"/>
  <!-- blazing amber-sap veins up the wood -->
  <path d="M128 230 C123 196 134 158 126 120 C121 92 132 68 128 46" stroke="#D89A3A" stroke-width="5" fill="none"/>
  <path d="M128 230 C123 196 134 158 126 120 C121 92 132 68 128 46" stroke="#F2C46A" stroke-width="2" fill="none"/>
  <path d="M126 196 C142 184 132 166 146 158 M132 132 C114 124 124 106 108 102 M124 170 C110 162 118 146 104 142" stroke="#D89A3A" stroke-width="3.5" fill="none"/>
  <path d="M126 196 C142 184 132 166 146 158 M132 132 C114 124 124 106 108 102" stroke="#F2C46A" stroke-width="1.3" fill="none"/>
  <!-- living vine + leaves -->
  <path d="M112 224 C152 206 108 184 144 166 C108 148 154 126 118 108" stroke="#5E6B43" stroke-width="5" fill="none"/>
  <path d="M144 166 C164 158 170 168 158 184 C149 176 146 173 144 166 Z" fill="#7A8B4A"/>
  <path d="M118 108 C98 102 94 114 106 128 C114 119 116 116 118 108 Z" fill="#7A8B4A"/>
  <path d="M146 158 C166 152 170 138 158 130 C153 142 152 150 146 158 Z" fill="#5E6B43"/>
  <path d="M104 142 C86 138 84 150 96 160 C102 152 103 148 104 142 Z" fill="#7A8B4A"/>
  <!-- knots -->
  <ellipse cx="128" cy="150" rx="9" ry="7" fill="#5A4630"/>
  <!-- crown of antlers, larger and branching -->
  <path d="M124 46 L108 24 L92 6 L98 4 L114 22 L122 38 Z" fill="#D8CCB4"/>
  <path d="M114 22 L94 12 L100 10 L116 18 Z" fill="#D8CCB4"/>
  <path d="M104 24 L84 22 L90 18 L106 20 Z" fill="#D8CCB4"/>
  <path d="M132 46 L148 22 L164 4 L158 4 L142 22 L130 38 Z" fill="#D8CCB4"/>
  <path d="M142 22 L162 12 L156 10 L140 18 Z" fill="#D8CCB4"/>
  <path d="M152 24 L172 22 L166 18 L150 20 Z" fill="#D8CCB4"/>
  <!-- crown leaves -->
  <path d="M104 12 C92 4 84 12 90 22 C97 18 101 16 104 12 Z" fill="#7A8B4A"/>
  <path d="M152 12 C164 4 172 12 166 22 C159 18 155 16 152 12 Z" fill="#7A8B4A"/>
  <!-- blazing lifelight core cradled in the crown -->
  <circle cx="128" cy="40" r="15" fill="#D89A3A"/>
  <circle cx="128" cy="40" r="9" fill="#F2C46A"/>
  <circle cx="128" cy="40" r="3.5" fill="#FFF0C8"/>
  </g>
</svg>
