<svg xmlns="http://www.w3.org/2000/svg" viewBox="0 0 256 256" width="256" height="256">
  <g transform="translate(128 128) scale(0.72) rotate(45) translate(-128 -128)">
  <!-- Maw of the Patron (capstone): blade wreathed in green eldritch fire, glaring eye pommel, tendrils of green flame. -->
  <!-- outer eldritch aura -->
  <path d="M128 8 L92 60 L94 168 L162 168 L164 60 Z" fill="#8EBE4A" opacity="0.18"/>
  <path d="M128 20 L104 64 L106 160 L150 160 L152 64 Z" fill="#B6E86A" opacity="0.18"/>
  <!-- tendrils of green flame off the blade -->
  <path d="M114 60 C96 48 100 30 86 22 C104 36 100 52 116 60 Z" fill="#8EBE4A" opacity="0.7"/>
  <path d="M142 60 C160 48 156 30 170 22 C152 36 156 52 140 60 Z" fill="#8EBE4A" opacity="0.7"/>
  <path d="M118 110 C100 108 92 96 78 96 C96 88 108 100 120 100 Z" fill="#B6E86A" opacity="0.6"/>
  <path d="M138 110 C156 108 164 96 178 96 C160 88 148 100 136 100 Z" fill="#B6E86A" opacity="0.6"/>
  <!-- grip -->
  <rect x="118" y="162" width="20" height="56" rx="6" fill="#4A2E6E"/>
  <rect x="118" y="162" width="7" height="56" fill="#3A2356"/>
  <path d="M120 168 L136 168 M120 192 L136 192 M128 162 L128 218" stroke="#B6E86A" stroke-width="2"/>
  <!-- glaring eye pommel -->
  <path d="M96 228 C112 208 144 208 160 228 C144 248 112 248 96 228 Z" fill="#3A2356"/>
  <path d="M96 228 C112 208 144 208 160 228 C144 248 112 248 96 228 Z" fill="none" stroke="#B6E86A" stroke-width="3"/>
  <ellipse cx="128" cy="228" rx="13" ry="10" fill="#B6E86A"/>
  <ellipse cx="128" cy="228" rx="4.5" ry="9" fill="#1A0E2A"/>
  <!-- ornate swept crossguard -->
  <path d="M86 154 C104 144 152 144 170 154 L170 168 C152 158 104 158 86 168 Z" fill="#3A2356"/>
  <path d="M86 154 C104 144 152 144 170 154" stroke="#6E4A9E" stroke-width="2" fill="none"/>
  <circle cx="88" cy="160" r="6" fill="#B6E86A"/>
  <circle cx="168" cy="160" r="6" fill="#B6E86A"/>
  <!-- blade -->
  <path d="M128 12 L110 62 L112 152 L144 152 L146 62 Z" fill="#5A6065"/>
  <path d="M128 12 L116 62 L118 152 L128 152 Z" fill="#878D93"/>
  <!-- blazing green core channel -->
  <path d="M128 36 L128 148" stroke="#8EBE4A" stroke-width="5"/>
  <path d="M128 36 L128 148" stroke="#D8FF9A" stroke-width="2"/>
  <!-- great glaring eye on the blade -->
  <path d="M108 96 C118 82 138 82 148 96 C138 110 118 110 108 96 Z" fill="#1A0E2A"/>
  <path d="M108 96 C118 82 138 82 148 96 C138 110 118 110 108 96 Z" fill="none" stroke="#B6E86A" stroke-width="2"/>
  <circle cx="128" cy="96" r="7" fill="#D8FF9A"/>
  <circle cx="128" cy="96" r="3" fill="#1A0E2A"/>
  <!-- runes along blade -->
  <path d="M118 62 L138 66 M116 128 L140 132 M120 142 L136 146" stroke="#B6E86A" stroke-width="2.5" fill="none"/>
  <!-- blazing tip -->
  <path d="M128 0 L120 30 L136 30 Z" fill="#D8FF9A"/>
  <path d="M128 0 L128 30" stroke="#8EBE4A" stroke-width="3"/>
  </g>
</svg>
